<?xml version="1.0" encoding="UTF-8" standalone="no"?>
<svg width="2976.38px" height="4209.44px" viewBox="0 0 2976.38 4209.44"
 xmlns="http://www.w3.org/2000/svg" xmlns:xlink="http://www.w3.org/1999/xlink" version="1.2" baseProfile="tiny">
<title>tmp04ngn6d0</title>
<desc>Generated by MuseScore 3.6.2</desc>
<polyline class="StaffLines" fill="none" stroke="#000000" stroke-width="2.73" stroke-linejoin="bevel" points="336.614,634.252 2763.78,634.252"/>
<polyline class="StaffLines" fill="none" stroke="#000000" stroke-width="2.73" stroke-linejoin="bevel" points="336.614,659.055 2763.78,659.055"/>
<polyline class="StaffLines" fill="none" stroke="#000000" stroke-width="2.73" stroke-linejoin="bevel" points="336.614,683.858 2763.78,683.858"/>
<polyline class="StaffLines" fill="none" stroke="#000000" stroke-width="2.73" stroke-linejoin="bevel" points="336.614,708.661 2763.78,708.661"/>
<polyline class="StaffLines" fill="none" stroke="#000000" stroke-width="2.73" stroke-linejoin="bevel" points="336.614,733.465 2763.78,733.465"/>
<polyline class="StaffLines" fill="none" stroke="#000000" stroke-width="2.73" stroke-linejoin="bevel" points="212.598,1105.51 2763.78,1105.51"/>
<polyline class="StaffLines" fill="none" stroke="#000000" stroke-width="2.73" stroke-linejoin="bevel" points="212.598,1130.31 2763.78,1130.31"/>
<polyline class="StaffLines" fill="none" stroke="#000000" stroke-width="2.73" stroke-linejoin="bevel" points="212.598,1155.12 2763.78,1155.12"/>
<polyline class="StaffLines" fill="none" stroke="#000000" stroke-width="2.73" stroke-linejoin="bevel" points="212.598,1179.92 2763.78,1179.92"/>
<polyline class="StaffLines" fill="none" stroke="#000000" stroke-width="2.73" stroke-linejoin="bevel" points="212.598,1204.72 2763.78,1204.72"/>
<path class="Text" d="M1244.92,466.537 L1244.92,398.685 L1255.11,398.685 C1259.65,398.685 1263.27,399.037 1265.97,399.74 C1268.69,400.443 1270.99,401.629 1272.86,403.299 C1274.77,405.028 1276.28,407.181 1277.39,409.759 C1278.53,412.367 1279.11,415.003 1279.11,417.669 C1279.11,422.533 1277.24,426.649 1273.52,430.018 C1277.13,431.249 1279.97,433.402 1282.05,436.478 C1284.16,439.525 1285.21,443.07 1285.21,447.113 C1285.21,452.416 1283.34,456.898 1279.59,460.56 C1277.33,462.816 1274.8,464.383 1271.99,465.262 C1268.91,466.112 1265.06,466.537 1260.43,466.537 L1244.92,466.537 M1255.16,427.821 L1258.36,427.821 C1262.17,427.821 1264.96,426.978 1266.73,425.294 C1268.51,423.609 1269.39,421.126 1269.39,417.845 C1269.39,414.652 1268.49,412.228 1266.67,410.572 C1264.85,408.917 1262.22,408.089 1258.76,408.089 L1255.16,408.089 L1255.16,427.821 M1255.16,456.913 L1261.48,456.913 C1266.11,456.913 1269.51,456.004 1271.68,454.188 C1273.96,452.225 1275.11,449.735 1275.11,446.717 C1275.11,443.788 1274.01,441.327 1271.81,439.334 C1269.67,437.372 1265.85,436.39 1260.34,436.39 L1255.16,436.39 L1255.16,456.913 M1327.78,423.734 L1337.71,423.734 L1337.71,466.537 L1327.78,466.537 L1327.78,462.054 C1323.71,465.863 1319.33,467.767 1314.64,467.767 C1308.72,467.767 1303.83,465.628 1299.96,461.351 C1296.13,456.986 1294.21,451.537 1294.21,445.003 C1294.21,438.587 1296.13,433.241 1299.96,428.963 C1303.8,424.686 1308.61,422.547 1314.38,422.547 C1319.36,422.547 1323.83,424.598 1327.78,428.7 L1327.78,423.734 M1304.32,445.003 C1304.32,449.105 1305.41,452.445 1307.61,455.023 C1309.87,457.63 1312.71,458.934 1316.14,458.934 C1319.8,458.934 1322.76,457.674 1325.01,455.155 C1327.27,452.547 1328.4,449.237 1328.4,445.223 C1328.4,441.209 1327.27,437.899 1325.01,435.291 C1322.76,432.743 1319.83,431.468 1316.22,431.468 C1312.83,431.468 1309.98,432.757 1307.7,435.335 C1305.44,437.943 1304.32,441.166 1304.32,445.003 M1350.18,423.734 L1360.07,423.734 L1360.07,427.557 C1361.89,425.653 1363.5,424.349 1364.9,423.646 C1366.34,422.914 1368.04,422.547 1370,422.547 C1372.61,422.547 1375.33,423.397 1378.18,425.096 L1373.65,434.149 C1371.77,432.801 1369.94,432.127 1368.16,432.127 C1362.77,432.127 1360.07,436.2 1360.07,444.344 L1360.07,466.537 L1350.18,466.537 L1350.18,423.734 M1385.2,423.734 L1395.09,423.734 L1395.09,427.557 C1396.9,425.653 1398.51,424.349 1399.92,423.646 C1401.36,422.914 1403.05,422.547 1405.02,422.547 C1407.62,422.547 1410.35,423.397 1413.19,425.096 L1408.66,434.149 C1406.79,432.801 1404.96,432.127 1403.17,432.127 C1397.78,432.127 1395.09,436.2 1395.09,444.344 L1395.09,466.537 L1385.2,466.537 L1385.2,423.734 M1436.3,458.582 L1417.05,423.734 L1428.52,423.734 L1441.62,448.343 L1453.83,423.734 L1464.99,423.734 L1430.89,489.828 L1419.6,489.828 L1436.3,458.582 M1511.61,425.228 L1540.88,425.228 L1540.88,398.685 L1551.11,398.685 L1551.11,466.537 L1540.88,466.537 L1540.88,434.852 L1511.61,434.852 L1511.61,466.537 L1501.37,466.537 L1501.37,398.685 L1511.61,398.685 L1511.61,425.228 M1597.03,423.734 L1606.96,423.734 L1606.96,466.537 L1597.03,466.537 L1597.03,462.054 C1592.96,465.863 1588.58,467.767 1583.89,467.767 C1577.97,467.767 1573.08,465.628 1569.21,461.351 C1565.38,456.986 1563.46,451.537 1563.46,445.003 C1563.46,438.587 1565.38,433.241 1569.21,428.963 C1573.05,424.686 1577.86,422.547 1583.63,422.547 C1588.61,422.547 1593.08,424.598 1597.03,428.7 L1597.03,423.734 M1573.57,445.003 C1573.57,449.105 1574.66,452.445 1576.86,455.023 C1579.12,457.63 1581.96,458.934 1585.39,458.934 C1589.05,458.934 1592.01,457.674 1594.26,455.155 C1596.52,452.547 1597.65,449.237 1597.65,445.223 C1597.65,441.209 1596.52,437.899 1594.26,435.291 C1592.01,432.743 1589.08,431.468 1585.47,431.468 C1582.08,431.468 1579.23,432.757 1576.95,435.335 C1574.69,437.943 1573.57,441.166 1573.57,445.003 M1619.43,423.734 L1629.32,423.734 L1629.32,427.557 C1631.14,425.653 1632.75,424.349 1634.15,423.646 C1635.59,422.914 1637.29,422.547 1639.25,422.547 C1641.86,422.547 1644.58,423.397 1647.43,425.096 L1642.9,434.149 C1641.02,432.801 1639.19,432.127 1637.41,432.127 C1632.02,432.127 1629.32,436.2 1629.32,444.344 L1629.32,466.537 L1619.43,466.537 L1619.43,423.734 M1654.45,423.734 L1664.34,423.734 L1664.34,427.557 C1666.15,425.653 1667.76,424.349 1669.17,423.646 C1670.61,422.914 1672.3,422.547 1674.27,422.547 C1676.87,422.547 1679.6,423.397 1682.44,425.096 L1677.91,434.149 C1676.04,432.801 1674.21,432.127 1672.42,432.127 C1667.03,432.127 1664.34,436.2 1664.34,444.344 L1664.34,466.537 L1654.45,466.537 L1654.45,423.734 M1699.35,423.734 L1699.35,466.537 L1689.46,466.537 L1689.46,423.734 L1699.35,423.734 M1687.97,405.936 C1687.97,404.207 1688.6,402.713 1689.86,401.454 C1691.12,400.194 1692.63,399.564 1694.39,399.564 C1696.17,399.564 1697.7,400.194 1698.96,401.454 C1700.22,402.684 1700.85,404.193 1700.85,405.98 C1700.85,407.767 1700.22,409.291 1698.96,410.55 C1697.73,411.81 1696.22,412.44 1694.43,412.44 C1692.64,412.44 1691.12,411.81 1689.86,410.55 C1688.6,409.291 1687.97,407.752 1687.97,405.936 M1736.74,431.029 L1728.57,435.379 C1727.28,432.743 1725.68,431.424 1723.78,431.424 C1722.87,431.424 1722.09,431.725 1721.45,432.325 C1720.81,432.926 1720.48,433.695 1720.48,434.632 C1720.48,436.273 1722.39,437.899 1726.2,439.51 C1731.44,441.766 1734.97,443.846 1736.79,445.75 C1738.6,447.655 1739.51,450.218 1739.51,453.441 C1739.51,457.572 1737.99,461.029 1734.94,463.812 C1731.98,466.449 1728.41,467.767 1724.22,467.767 C1717.04,467.767 1711.96,464.266 1708.97,457.264 L1717.41,453.353 C1718.58,455.404 1719.47,456.707 1720.09,457.264 C1721.29,458.377 1722.72,458.934 1724.39,458.934 C1727.73,458.934 1729.4,457.411 1729.4,454.364 C1729.4,452.606 1728.11,450.965 1725.54,449.442 C1724.54,448.944 1723.54,448.46 1722.55,447.992 C1721.55,447.523 1720.54,447.04 1719.52,446.541 C1716.65,445.135 1714.62,443.729 1713.45,442.323 C1711.96,440.536 1711.21,438.236 1711.21,435.423 C1711.21,431.703 1712.49,428.626 1715.03,426.195 C1717.64,423.763 1720.81,422.547 1724.53,422.547 C1730,422.547 1734.08,425.374 1736.74,431.029"/>
<path class="MeasureNumber" d="M231.389,1047.63 L230.349,1049.47 C228.749,1052.23 228.429,1052.47 226.389,1052.51 L217.109,1052.51 C218.069,1051.23 219.829,1049.75 223.029,1047.51 C228.309,1043.87 228.669,1043.63 229.789,1042.75 C232.989,1040.27 234.309,1037.91 234.309,1034.75 C234.309,1030.55 231.189,1027.75 226.589,1027.75 C221.469,1027.75 217.029,1031.51 217.029,1035.87 C217.029,1038.11 218.229,1039.55 220.149,1039.55 C221.589,1039.55 222.709,1038.47 222.709,1036.99 C222.709,1035.95 222.189,1035.27 220.869,1034.55 C219.909,1034.07 219.749,1033.87 219.749,1033.39 C219.749,1031.67 222.709,1029.75 225.429,1029.75 C228.229,1029.75 230.109,1031.63 230.109,1034.43 C230.109,1037.43 228.789,1039.63 225.189,1042.75 C214.549,1051.99 212.949,1053.67 212.589,1055.91 L229.749,1055.91 L232.829,1048.19 L231.389,1047.63 "/>
<polyline class="BarLine" fill="none" stroke="#000000" stroke-width="4.46" stroke-linejoin="bevel" points="2761.55,632.888 2761.55,734.829"/>
<polyline class="BarLine" fill="none" stroke="#000000" stroke-width="4.46" stroke-linejoin="bevel" points="2739.59,1104.15 2739.59,1206.09"/>
<polyline class="BarLine" fill="none" stroke="#000000" stroke-width="13.64" stroke-linejoin="bevel" points="2756.96,1104.15 2756.96,1206.09"/>
<path class="Accidental" transform="matrix(0.992126,0,0,0.992126,519.468,597.047)" d="M20.1,-7.9 C19.5,-11.8 17.1,-15.5 12,-15.5 C7,-15.5 4.1,-12.4 3.6,-11.8 L4,-43.9 C4,-44.7 3.4,-45.3 2.6,-45.3 L1.4,-45.3 C0.6,-45.3 0,-44.7 0,-43.9 L0.5,16.2 C0.5,17 1.1,17.6 1.9,17.6 C2.1,17.6 2.5,17.5 2.7,17.4 C3.1,17.2 9.6,14 15,7.9 C18.8,3.6 20.3,-1.3 20.3,-5.4 C20.3,-6.3 20.2,-7.1 20.1,-7.9 M13.2,-4 C13.2,-2.5 12.8,2.1 10.3,5.9 C8.6,8.5 5.2,11.2 3.3,12.7 L3.6,-6.8 C3.8,-7.7 5.3,-10.6 9.3,-10.6 C12.9,-10.6 13.2,-7.2 13.2,-5.1 L13.2,-4 "/>
<path class="Accidental" transform="matrix(0.992126,0,0,0.992126,1075.29,621.85)" d="M23.3,-10.6 C23.9,-10.7 24.4,-11.4 24.4,-12 L24.4,-17.9 C24.4,-18.7 23.8,-19.3 23,-19.3 L22.8,-19.3 L19.5,-18.6 L19.5,-33.5 L16.7,-33.5 L16.7,-18 L7.8,-16.2 L7.8,-30.3 L5,-30.3 L5,-15.6 L1.1,-14.8 C0.5,-14.7 0,-14 0,-13.4 L0,-13.2 L0,-7.4 L0,-7.6 C0,-6.8 0.6,-6.2 1.4,-6.2 L1.7,-6.2 L5,-6.9 L5,9.6 L1.1,10.4 C0.5,10.5 0,11.2 0,11.8 L0,17.6 C0,18.4 0.6,19 1.4,19 L1.7,19 L5,18.3 L5,33.2 L7.8,33.2 L7.8,17.7 L16.7,15.9 L16.7,30 L19.5,30 L19.5,15.3 L23.3,14.6 C23.9,14.5 24.4,13.8 24.4,13.2 L24.4,7.3 C24.4,6.5 23.8,5.9 23,5.9 L22.8,5.9 L19.5,6.6 L19.5,-9.9 L23.3,-10.6 M7.8,9.1 L7.8,-7.5 L16.7,-9.3 L16.7,7.2 L7.8,9.1 "/>
<path class="Accidental" transform="matrix(0.992126,0,0,0.992126,1358.14,621.85)" d="M16.6,-18.3 C16.4,-18.5 16.1,-18.6 15.8,-18.6 C15.7,-18.6 15.5,-18.5 15.4,-18.5 L2.8,-15 L2.8,-32.5 L0,-32.5 L0,17 C0,17.8 0.6,18.3 1.4,18.3 L1.8,18.3 L14.4,14.8 L14.4,32.3 L17.1,32.3 L17.1,-17.2 C17.1,-17.6 16.9,-18.1 16.6,-18.3 M14.4,6.5 L2.8,9.7 L2.8,-6.7 L14.4,-10 L14.4,6.5 "/>
<path class="Accidental" transform="matrix(0.992126,0,0,0.992126,850.362,1142.72)" d="M23.3,-10.6 C23.9,-10.7 24.4,-11.4 24.4,-12 L24.4,-17.9 C24.4,-18.7 23.8,-19.3 23,-19.3 L22.8,-19.3 L19.5,-18.6 L19.5,-33.5 L16.7,-33.5 L16.7,-18 L7.8,-16.2 L7.8,-30.3 L5,-30.3 L5,-15.6 L1.1,-14.8 C0.5,-14.7 0,-14 0,-13.4 L0,-13.2 L0,-7.4 L0,-7.6 C0,-6.8 0.6,-6.2 1.4,-6.2 L1.7,-6.2 L5,-6.9 L5,9.6 L1.1,10.4 C0.5,10.5 0,11.2 0,11.8 L0,17.6 C0,18.4 0.6,19 1.4,19 L1.7,19 L5,18.3 L5,33.2 L7.8,33.2 L7.8,17.7 L16.7,15.9 L16.7,30 L19.5,30 L19.5,15.3 L23.3,14.6 C23.9,14.5 24.4,13.8 24.4,13.2 L24.4,7.3 C24.4,6.5 23.8,5.9 23,5.9 L22.8,5.9 L19.5,6.6 L19.5,-9.9 L23.3,-10.6 M7.8,9.1 L7.8,-7.5 L16.7,-9.3 L16.7,7.2 L7.8,9.1 "/>
<polyline class="LedgerLine" fill="none" stroke="#000000" stroke-width="3.97" stroke-linejoin="bevel" points="545.805,609.449 595.404,609.449"/>
<polyline class="LedgerLine" fill="none" stroke="#000000" stroke-width="3.97" stroke-linejoin="bevel" points="821.409,609.449 871.007,609.449"/>
<polyline class="Stem" fill="none" stroke="#000000" stroke-width="2.73" stroke-linejoin="bevel" points="555.851,600.381 555.851,677.657"/>
<polyline class="Stem" fill="none" stroke="#000000" stroke-width="2.73" stroke-linejoin="bevel" points="831.454,612.782 831.454,683.858"/>
<polyline class="Stem" fill="none" stroke="#000000" stroke-width="2.73" stroke-linejoin="bevel" points="1107.06,625.184 1107.06,702.461"/>
<polyline class="Stem" fill="none" stroke="#000000" stroke-width="2.73" stroke-linejoin="bevel" points="1382.66,625.184 1382.66,702.461"/>
<polyline class="Stem" fill="none" stroke="#000000" stroke-width="2.73" stroke-linejoin="bevel" points="1658.26,637.585 1658.26,708.661"/>
<polyline class="Stem" fill="none" stroke="#000000" stroke-width="2.73" stroke-linejoin="bevel" points="1933.87,625.184 1933.87,702.461"/>
<polyline class="Stem" fill="none" stroke="#000000" stroke-width="2.73" stroke-linejoin="bevel" points="2209.47,637.585 2209.47,708.661"/>
<polyline class="Stem" fill="none" stroke="#000000" stroke-width="2.73" stroke-linejoin="bevel" points="2485.07,649.987 2485.07,714.862"/>
<polyline class="Stem" fill="none" stroke="#000000" stroke-width="2.73" stroke-linejoin="bevel" points="359.293,1133.65 359.293,1204.72"/>
<polyline class="Stem" fill="none" stroke="#000000" stroke-width="2.73" stroke-linejoin="bevel" points="882.134,1146.05 882.134,1210.93"/>
<polyline class="Stem" fill="none" stroke="#000000" stroke-width="2.73" stroke-linejoin="bevel" points="1404.97,1133.65 1404.97,1214.03"/>
<path class="Note" transform="matrix(0.992126,0,0,0.992126,554.487,597.047)" d="M31.5,-8.1 C29.7,-11.4 25.9,-13.2 21.3,-13.2 C17.9,-13.2 14.2,-12.2 10.6,-10.3 C4,-6.8 0,-0.9 0,4.2 C0,5.6 0.3,7 1,8.3 C2.8,11.6 6.6,13.3 11.2,13.3 C14.6,13.3 18.3,12.4 21.9,10.5 C28.5,7 32.5,1.1 32.5,-4 C32.5,-5.4 32.2,-6.8 31.5,-8.1"/>
<path class="Note" transform="matrix(0.992126,0,0,0.992126,830.09,609.449)" d="M31.5,-8.1 C29.7,-11.4 25.9,-13.2 21.3,-13.2 C17.9,-13.2 14.2,-12.2 10.6,-10.3 C4,-6.8 0,-0.9 0,4.2 C0,5.6 0.3,7 1,8.3 C2.8,11.6 6.6,13.3 11.2,13.3 C14.6,13.3 18.3,12.4 21.9,10.5 C28.5,7 32.5,1.1 32.5,-4 C32.5,-5.4 32.2,-6.8 31.5,-8.1"/>
<path class="Note" transform="matrix(0.992126,0,0,0.992126,1105.69,621.85)" d="M31.5,-8.1 C29.7,-11.4 25.9,-13.2 21.3,-13.2 C17.9,-13.2 14.2,-12.2 10.6,-10.3 C4,-6.8 0,-0.9 0,4.2 C0,5.6 0.3,7 1,8.3 C2.8,11.6 6.6,13.3 11.2,13.3 C14.6,13.3 18.3,12.4 21.9,10.5 C28.5,7 32.5,1.1 32.5,-4 C32.5,-5.4 32.2,-6.8 31.5,-8.1"/>
<path class="Note" transform="matrix(0.992126,0,0,0.992126,1381.3,621.85)" d="M31.5,-8.1 C29.7,-11.4 25.9,-13.2 21.3,-13.2 C17.9,-13.2 14.2,-12.2 10.6,-10.3 C4,-6.8 0,-0.9 0,4.2 C0,5.6 0.3,7 1,8.3 C2.8,11.6 6.6,13.3 11.2,13.3 C14.6,13.3 18.3,12.4 21.9,10.5 C28.5,7 32.5,1.1 32.5,-4 C32.5,-5.4 32.2,-6.8 31.5,-8.1"/>
<path class="Note" transform="matrix(0.992126,0,0,0.992126,1656.9,634.252)" d="M31.5,-8.1 C29.7,-11.4 25.9,-13.2 21.3,-13.2 C17.9,-13.2 14.2,-12.2 10.6,-10.3 C4,-6.8 0,-0.9 0,4.2 C0,5.6 0.3,7 1,8.3 C2.8,11.6 6.6,13.3 11.2,13.3 C14.6,13.3 18.3,12.4 21.9,10.5 C28.5,7 32.5,1.1 32.5,-4 C32.5,-5.4 32.2,-6.8 31.5,-8.1"/>
<path class="Note" transform="matrix(0.992126,0,0,0.992126,1932.5,621.85)" d="M31.5,-8.1 C29.7,-11.4 25.9,-13.2 21.3,-13.2 C17.9,-13.2 14.2,-12.2 10.6,-10.3 C4,-6.8 0,-0.9 0,4.2 C0,5.6 0.3,7 1,8.3 C2.8,11.6 6.6,13.3 11.2,13.3 C14.6,13.3 18.3,12.4 21.9,10.5 C28.5,7 32.5,1.1 32.5,-4 C32.5,-5.4 32.2,-6.8 31.5,-8.1"/>
<path class="Note" transform="matrix(0.992126,0,0,0.992126,2208.11,634.252)" d="M31.5,-8.1 C29.7,-11.4 25.9,-13.2 21.3,-13.2 C17.9,-13.2 14.2,-12.2 10.6,-10.3 C4,-6.8 0,-0.9 0,4.2 C0,5.6 0.3,7 1,8.3 C2.8,11.6 6.6,13.3 11.2,13.3 C14.6,13.3 18.3,12.4 21.9,10.5 C28.5,7 32.5,1.1 32.5,-4 C32.5,-5.4 32.2,-6.8 31.5,-8.1"/>
<path class="Note" transform="matrix(0.992126,0,0,0.992126,2483.71,646.653)" d="M31.5,-8.1 C29.7,-11.4 25.9,-13.2 21.3,-13.2 C17.9,-13.2 14.2,-12.2 10.6,-10.3 C4,-6.8 0,-0.9 0,4.2 C0,5.6 0.3,7 1,8.3 C2.8,11.6 6.6,13.3 11.2,13.3 C14.6,13.3 18.3,12.4 21.9,10.5 C28.5,7 32.5,1.1 32.5,-4 C32.5,-5.4 32.2,-6.8 31.5,-8.1"/>
<path class="Note" transform="matrix(0.992126,0,0,0.992126,357.929,1130.31)" d="M31.5,-8.1 C29.7,-11.4 25.9,-13.2 21.3,-13.2 C17.9,-13.2 14.2,-12.2 10.6,-10.3 C4,-6.8 0,-0.9 0,4.2 C0,5.6 0.3,7 1,8.3 C2.8,11.6 6.6,13.3 11.2,13.3 C14.6,13.3 18.3,12.4 21.9,10.5 C28.5,7 32.5,1.1 32.5,-4 C32.5,-5.4 32.2,-6.8 31.5,-8.1"/>
<path class="Note" transform="matrix(0.992126,0,0,0.992126,880.769,1142.72)" d="M31.5,-8.1 C29.7,-11.4 25.9,-13.2 21.3,-13.2 C17.9,-13.2 14.2,-12.2 10.6,-10.3 C4,-6.8 0,-0.9 0,4.2 C0,5.6 0.3,7 1,8.3 C2.8,11.6 6.6,13.3 11.2,13.3 C14.6,13.3 18.3,12.4 21.9,10.5 C28.5,7 32.5,1.1 32.5,-4 C32.5,-5.4 32.2,-6.8 31.5,-8.1"/>
<path class="Note" transform="matrix(0.992126,0,0,0.992126,1403.61,1130.31)" d="M31.5,-8.1 C29.7,-11.4 25.9,-13.2 21.3,-13.2 C17.9,-13.2 14.2,-12.2 10.6,-10.3 C4,-6.8 0,-0.9 0,4.2 C0,5.6 0.3,7 1,8.3 C2.8,11.6 6.6,13.3 11.2,13.3 C14.6,13.3 18.3,12.4 21.9,10.5 C28.5,7 32.5,1.1 32.5,-4 C32.5,-5.4 32.2,-6.8 31.5,-8.1 M27.2,-1.3 C25.5,0.4 22.1,2.5 18.5,4.5 C14.9,6.5 11.3,8 8.9,8.5 C8.4,8.6 7.9,8.7 7.4,8.7 C5.8,8.7 4.6,8.1 3.9,6.8 C3.6,6.3 3.4,5.7 3.4,5.1 C3.4,4 4.1,2.7 5.2,1.6 C6.9,-0.1 10.2,-2.2 13.8,-4.2 C17.4,-6.2 21,-7.7 23.4,-8.2 C23.9,-8.3 24.4,-8.4 24.9,-8.4 C26.5,-8.4 27.8,-7.8 28.5,-6.5 C28.8,-6 28.9,-5.4 28.9,-4.8 C28.9,-3.7 28.3,-2.5 27.2,-1.3"/>
<path class="Clef" transform="matrix(0.992126,0,0,0.992126,356.457,708.661)" d="M63.35,-5.86992 C62.12,-11.3 59.48,-15.1199 58.7,-16.16 C55.51,-20.43 51.5,-23.28 46.81,-24.63 C43.7,-25.5199 40.7,-25.63 38.28,-25.45 C37.24,-31.46 36.24,-37.3399 35.33,-42.7899 C40.78,-48.96 44.4,-54.76 46.68,-59.06 C50.15,-65.6399 51.3,-70.2199 51.35,-70.4199 C53.07,-75.63 53.43,-83.33 52.33,-91.5399 C51.32,-99.0899 49.23,-105.8 46.88,-109.05 C45.85,-110.48 44.8,-111.21 43.76,-111.21 C42.54,-111.21 40.03,-109.97 37.14,-107.2 C34.84,-105 31.57,-101.11 29.01,-95.1 C26.01,-88.0399 25.8,-78.55 26.15,-71.83 C26.53,-64.56 27.64,-58.8699 27.65,-58.8199 C27.67,-58.73 27.93,-57.23 28.38,-54.66 C28.15,-54.43 27.91,-54.21 27.66,-53.9699 C26.62,-52.9699 25.43,-51.83 24.05,-50.45 C23.19,-49.5899 22.24,-48.68 21.24,-47.71 C12.79,-39.5699 0,-27.25 0,-8.1 C0,-3.4 0.9,1.02002 2.67998,5.03008 C4.27002,8.63008 6.57002,11.9101 9.5,14.7801 C17.23,22.3301 27.82,25.54 34.88,25.3801 C37.83,25.3101 40.46,25.07 42.85,24.62 C44.68,34.22 45.82,41.25 45.86,46.59 C45.9,53.1 44.25,57.07 40.35,59.84 C37.92,61.57 35.11,62.52 32.01,62.67 C29.42,62.79 27.16,62.32 25.73,61.9101 L25.72,61.9101 C25.72,61.9101 25.43,61.8301 25.42,61.6301 C25.41,61.45 25.76,61.4 25.77,61.4 L25.79,61.4 C27.71,60.9601 31.28,59.7301 33.64,56.4301 C35.44,53.9101 36.31,49.29 34.47,45.35 C33.36,42.9601 30.85,40.0101 25.23,39.5601 C22.74,39.3601 20.47,39.87 18.47,41.07 C16.66,42.15 15.16,43.79 14.11,45.79 C11.65,50.49 12.11,56.22 15.24,60.0601 C18.2,63.6801 22.82,65.99 28.25,66.57 C29.1,66.6601 29.95,66.7 30.8,66.7 C35.23,66.7 39.63,65.5 43.2,63.29 C46.86,60.72 48.98,56.74 49.66,51.1101 C50.22,46.47 49.83,40.5601 48.43,32.49 C48.07,30.4 47.53,27.37 46.87,23.6101 C52.62,21.69 56.78,18.12 60.55,12.27 C63.84,6.53008 64.78,0.430078 63.35,-5.86992 M29.14,20.32 C24.5,19.1 20.07,16.6 16.31,13.1 C15,11.87 13.13,9.7 11.66,6.31006 C10.29,3.15 9.62998,-0.27998 9.67998,-3.86992 C9.75,-8.55996 11.06,-13.38 13.57,-18.1699 C16.49,-23.75 21.05,-29.28 27.11,-34.61 C28.56,-35.8899 29.93,-37.1699 31.22,-38.45 C31.98,-34.1899 32.81,-29.5 33.69,-24.6199 C29.84,-23.35 25.09,-20.2 21.98,-14.55 C18.44,-7.97998 18.58,-2.45996 19.31,1.02002 C20.25,5.48008 22.78,9.24004 26.24,11.3301 C27.17,11.89 31.3,14.02 33.14,13.44 C33.51,13.32 33.78,13.1 33.92,12.77 C34.43,11.6 33.41,10.9601 31.85,10 C31.25,9.63008 30.58,9.21006 29.85,8.68008 C26.53,6.19004 25.08,1.74004 26.15,-2.63994 C26.73,-5.03994 28.01,-7.2 29.85,-8.9 C31.52,-10.45 33.56,-11.55 35.94,-12.1899 C37.98,-0.95 40.04,10.2 41.68,18.5601 C41.81,19.25 41.95,19.92 42.08,20.59 C37.7,21.52 33.35,21.4301 29.14,20.32 M40.46,-12.86 C50.81,-13.33 55.08,-5.88994 55.97,-1.05996 C56.44,1.47002 56.43,5.91006 54.89,10.12 C53.72,13.3 51.26,17.37 46.13,19.4301 C46.06,19.0101 45.98,18.5801 45.9,18.15 C44.36,9.38008 42.42,-1.60996 40.46,-12.86 M33.14,-83.8 C34.92,-89.5399 37.66,-92.7899 39.65,-94.5199 C41.4,-96.0399 43.05,-96.75 43.97,-96.75 C44.11,-96.75 44.23,-96.73 44.33,-96.7 C44.79,-96.56 45.32,-95.9899 45.79,-95.1199 C48.1,-90.83 47.36,-84.1199 46.02,-79.68 C44.39,-74.28 41.47,-68.66 32.67,-59.05 C32.5,-60.16 32.34,-61.21 32.19,-62.1899 C30.94,-70.48 31.26,-77.75 33.14,-83.8"/>
<path class="Clef" transform="matrix(0.992126,0,0,0.992126,232.441,1179.92)" d="M63.35,-5.86992 C62.12,-11.3 59.48,-15.1199 58.7,-16.16 C55.51,-20.43 51.5,-23.28 46.81,-24.63 C43.7,-25.5199 40.7,-25.63 38.28,-25.45 C37.24,-31.46 36.24,-37.3399 35.33,-42.7899 C40.78,-48.96 44.4,-54.76 46.68,-59.06 C50.15,-65.6399 51.3,-70.2199 51.35,-70.4199 C53.07,-75.63 53.43,-83.33 52.33,-91.5399 C51.32,-99.0899 49.23,-105.8 46.88,-109.05 C45.85,-110.48 44.8,-111.21 43.76,-111.21 C42.54,-111.21 40.03,-109.97 37.14,-107.2 C34.84,-105 31.57,-101.11 29.01,-95.1 C26.01,-88.0399 25.8,-78.55 26.15,-71.83 C26.53,-64.56 27.64,-58.8699 27.65,-58.8199 C27.67,-58.73 27.93,-57.23 28.38,-54.66 C28.15,-54.43 27.91,-54.21 27.66,-53.9699 C26.62,-52.9699 25.43,-51.83 24.05,-50.45 C23.19,-49.5899 22.24,-48.68 21.24,-47.71 C12.79,-39.5699 0,-27.25 0,-8.1 C0,-3.4 0.9,1.02002 2.67998,5.03008 C4.27002,8.63008 6.57002,11.9101 9.5,14.7801 C17.23,22.3301 27.82,25.54 34.88,25.3801 C37.83,25.3101 40.46,25.07 42.85,24.62 C44.68,34.22 45.82,41.25 45.86,46.59 C45.9,53.1 44.25,57.07 40.35,59.84 C37.92,61.57 35.11,62.52 32.01,62.67 C29.42,62.79 27.16,62.32 25.73,61.9101 L25.72,61.9101 C25.72,61.9101 25.43,61.8301 25.42,61.6301 C25.41,61.45 25.76,61.4 25.77,61.4 L25.79,61.4 C27.71,60.9601 31.28,59.7301 33.64,56.4301 C35.44,53.9101 36.31,49.29 34.47,45.35 C33.36,42.9601 30.85,40.0101 25.23,39.5601 C22.74,39.3601 20.47,39.87 18.47,41.07 C16.66,42.15 15.16,43.79 14.11,45.79 C11.65,50.49 12.11,56.22 15.24,60.0601 C18.2,63.6801 22.82,65.99 28.25,66.57 C29.1,66.6601 29.95,66.7 30.8,66.7 C35.23,66.7 39.63,65.5 43.2,63.29 C46.86,60.72 48.98,56.74 49.66,51.1101 C50.22,46.47 49.83,40.5601 48.43,32.49 C48.07,30.4 47.53,27.37 46.87,23.6101 C52.62,21.69 56.78,18.12 60.55,12.27 C63.84,6.53008 64.78,0.430078 63.35,-5.86992 M29.14,20.32 C24.5,19.1 20.07,16.6 16.31,13.1 C15,11.87 13.13,9.7 11.66,6.31006 C10.29,3.15 9.62998,-0.27998 9.67998,-3.86992 C9.75,-8.55996 11.06,-13.38 13.57,-18.1699 C16.49,-23.75 21.05,-29.28 27.11,-34.61 C28.56,-35.8899 29.93,-37.1699 31.22,-38.45 C31.98,-34.1899 32.81,-29.5 33.69,-24.6199 C29.84,-23.35 25.09,-20.2 21.98,-14.55 C18.44,-7.97998 18.58,-2.45996 19.31,1.02002 C20.25,5.48008 22.78,9.24004 26.24,11.3301 C27.17,11.89 31.3,14.02 33.14,13.44 C33.51,13.32 33.78,13.1 33.92,12.77 C34.43,11.6 33.41,10.9601 31.85,10 C31.25,9.63008 30.58,9.21006 29.85,8.68008 C26.53,6.19004 25.08,1.74004 26.15,-2.63994 C26.73,-5.03994 28.01,-7.2 29.85,-8.9 C31.52,-10.45 33.56,-11.55 35.94,-12.1899 C37.98,-0.95 40.04,10.2 41.68,18.5601 C41.81,19.25 41.95,19.92 42.08,20.59 C37.7,21.52 33.35,21.4301 29.14,20.32 M40.46,-12.86 C50.81,-13.33 55.08,-5.88994 55.97,-1.05996 C56.44,1.47002 56.43,5.91006 54.89,10.12 C53.72,13.3 51.26,17.37 46.13,19.4301 C46.06,19.0101 45.98,18.5801 45.9,18.15 C44.36,9.38008 42.42,-1.60996 40.46,-12.86 M33.14,-83.8 C34.92,-89.5399 37.66,-92.7899 39.65,-94.5199 C41.4,-96.0399 43.05,-96.75 43.97,-96.75 C44.11,-96.75 44.23,-96.73 44.33,-96.7 C44.79,-96.56 45.32,-95.9899 45.79,-95.1199 C48.1,-90.83 47.36,-84.1199 46.02,-79.68 C44.39,-74.28 41.47,-68.66 32.67,-59.05 C32.5,-60.16 32.34,-61.21 32.19,-62.1899 C30.94,-70.48 31.26,-77.75 33.14,-83.8"/>
<path class="TimeSig" transform="matrix(0.992126,0,0,0.992126,443.376,659.187)" d="M3.59004,12.65 L20.77,12.65 L20.77,20.07 L12.54,20.07 C11.7601,20.07 11.1301,20.7 11.1301,21.48 L11.1301,23.39 C11.1301,24.17 11.7601,24.8 12.54,24.8 L42.79,24.8 C43.57,24.8 44.2,24.17 44.2,23.39 L44.2,21.48 C44.2,20.7 43.57,20.07 42.79,20.07 L33.85,20.07 L33.85,12.65 L42.79,12.65 C43.57,12.65 44.2,12.02 44.2,11.24 L44.2,9.32998 C44.2,8.55 43.57,7.92002 42.79,7.92002 L33.85,7.92002 L33.85,-8.04004 C33.85,-8.57998 33.55,-9.05996 33.07,-9.3 L31.8601,-9.9 C31.3301,-10.16 30.7,-10.07 30.27,-9.67002 L21.22,-1.35 C20.9301,-1.07998 20.7601,-0.709961 20.7601,-0.309961 L20.7601,7.92002 L9.25,7.92002 C9.25,7.92002 20.37,-4.10996 32.2101,-19.88 C33.0801,-21.03 32.5801,-22.08 32.39,-22.27 L30.22,-24.48 C29.95,-24.74 29.59,-24.89 29.22,-24.89 C28.62,-24.89 15.07,-24.87 14.35,-24.89 C13.6301,-24.91 13.09,-24.29 13.02,-23.67 C13.02,-23.67 12.4801,-16.31 9.88008,-8.17998 C7.28008,-0.0599609 4.34004,4.92002 1.68008,8.55 C1.68008,8.55 1.14004,9.54004 1.5,10.28 C1.85,11.03 2.48008,12.12 2.48008,12.12 C2.48008,12.12 2.74004,12.65 3.59004,12.65"/>
<path class="TimeSig" transform="matrix(0.992126,0,0,0.992126,443.376,708.53)" d="M3.59004,12.65 L20.77,12.65 L20.77,20.07 L12.54,20.07 C11.7601,20.07 11.1301,20.7 11.1301,21.48 L11.1301,23.39 C11.1301,24.17 11.7601,24.8 12.54,24.8 L42.79,24.8 C43.57,24.8 44.2,24.17 44.2,23.39 L44.2,21.48 C44.2,20.7 43.57,20.07 42.79,20.07 L33.85,20.07 L33.85,12.65 L42.79,12.65 C43.57,12.65 44.2,12.02 44.2,11.24 L44.2,9.32998 C44.2,8.55 43.57,7.92002 42.79,7.92002 L33.85,7.92002 L33.85,-8.04004 C33.85,-8.57998 33.55,-9.05996 33.07,-9.3 L31.8601,-9.9 C31.3301,-10.16 30.7,-10.07 30.27,-9.67002 L21.22,-1.35 C20.9301,-1.07998 20.7601,-0.709961 20.7601,-0.309961 L20.7601,7.92002 L9.25,7.92002 C9.25,7.92002 20.37,-4.10996 32.2101,-19.88 C33.0801,-21.03 32.5801,-22.08 32.39,-22.27 L30.22,-24.48 C29.95,-24.74 29.59,-24.89 29.22,-24.89 C28.62,-24.89 15.07,-24.87 14.35,-24.89 C13.6301,-24.91 13.09,-24.29 13.02,-23.67 C13.02,-23.67 12.4801,-16.31 9.88008,-8.17998 C7.28008,-0.0599609 4.34004,4.92002 1.68008,8.55 C1.68008,8.55 1.14004,9.54004 1.5,10.28 C1.85,11.03 2.48008,12.12 2.48008,12.12 C2.48008,12.12 2.74004,12.65 3.59004,12.65"/>
<path class="Beam" fill-rule="evenodd" d="M554.487,671.455 L832.818,677.717 L832.818,690.122 L554.487,683.86 L554.487,671.455 "/>
<path class="Beam" fill-rule="evenodd" d="M1105.69,696.26 L1384.02,696.26 L1384.02,708.661 L1105.69,708.661 L1105.69,696.26 "/>
<path class="Beam" fill-rule="evenodd" d="M1656.9,702.459 L1935.23,696.197 L1935.23,708.602 L1656.9,714.864 L1656.9,702.459 "/>
<path class="Beam" fill-rule="evenodd" d="M2208.11,702.459 L2486.44,708.721 L2486.44,721.126 L2208.11,714.864 L2208.11,702.459 "/>
<path class="Beam" fill-rule="evenodd" d="M357.929,1198.52 L883.498,1204.76 L883.498,1217.16 L357.929,1210.93 L357.929,1198.52 "/>
<path class="Lyrics" d="M482.529,860.921 L482.529,826.995 L487.627,826.995 C489.897,826.995 491.706,827.171 493.054,827.522 C494.416,827.874 495.566,828.467 496.504,829.302 C497.456,830.166 498.21,831.243 498.767,832.532 C499.338,833.836 499.624,835.154 499.624,836.487 C499.624,838.919 498.694,840.977 496.833,842.662 C498.635,843.277 500.056,844.353 501.096,845.892 C502.151,847.415 502.678,849.187 502.678,851.209 C502.678,853.86 501.74,856.101 499.865,857.933 C498.738,859.06 497.47,859.844 496.064,860.284 C494.526,860.708 492.6,860.921 490.285,860.921 L482.529,860.921 M487.649,841.563 L489.253,841.563 C491.157,841.563 492.552,841.142 493.438,840.299 C494.325,839.457 494.768,838.216 494.768,836.575 C494.768,834.978 494.314,833.766 493.405,832.939 C492.497,832.111 491.179,831.697 489.45,831.697 L487.649,831.697 L487.649,841.563 M487.649,856.109 L490.813,856.109 C493.127,856.109 494.826,855.655 495.91,854.747 C497.053,853.765 497.624,852.52 497.624,851.011 C497.624,849.546 497.075,848.316 495.976,847.32 C494.907,846.338 492.995,845.848 490.241,845.848 L487.649,845.848 L487.649,856.109 "/>
<path class="Lyrics" d="M522.743,846.071 C522.743,842.426 520.538,840.086 517.838,840.086 C514.013,840.086 512.528,842.336 511.898,844.136 L511.898,830.231 L509.243,830.231 L509.243,858.401 C514.913,858.086 522.743,855.611 522.743,846.071 M519.503,847.646 C519.503,853.811 515.228,856.061 511.898,856.286 L511.898,847.241 C511.898,845.261 513.338,842.246 516.533,842.246 C518.378,842.246 519.548,844.631 519.548,847.646 L519.503,847.646 "/>
<path class="Lyrics" d="M543.912,839.519 L548.856,839.519 L548.856,841.497 C549.808,840.501 550.621,839.827 551.295,839.476 C552.013,839.109 552.914,838.926 553.998,838.926 C556.415,838.926 558.326,839.981 559.733,842.09 C561.285,839.981 563.387,838.926 566.039,838.926 C570.858,838.926 573.268,841.849 573.268,847.693 L573.268,860.921 L568.302,860.921 L568.302,849.034 C568.302,846.983 568.053,845.533 567.555,844.683 C567.042,843.819 566.2,843.387 565.028,843.387 C563.666,843.387 562.673,843.899 562.051,844.925 C561.428,845.95 561.117,847.598 561.117,849.869 L561.117,860.921 L556.151,860.921 L556.151,849.1 C556.151,845.291 555.052,843.387 552.855,843.387 C551.464,843.387 550.449,843.907 549.812,844.947 C549.175,845.987 548.856,847.627 548.856,849.869 L548.856,860.921 L543.912,860.921 L543.912,839.519 M595.282,839.519 L600.248,839.519 L600.248,860.921 L595.282,860.921 L595.282,858.68 C593.246,860.584 591.056,861.536 588.713,861.536 C585.754,861.536 583.307,860.467 581.374,858.328 C579.455,856.145 578.495,853.421 578.495,850.154 C578.495,846.946 579.455,844.273 581.374,842.134 C583.293,839.996 585.695,838.926 588.581,838.926 C591.071,838.926 593.305,839.952 595.282,842.002 L595.282,839.519 M583.549,850.154 C583.549,852.205 584.098,853.875 585.197,855.164 C586.325,856.468 587.746,857.12 589.46,857.12 C591.291,857.12 592.77,856.49 593.898,855.23 C595.026,853.926 595.59,852.271 595.59,850.264 C595.59,848.257 595.026,846.602 593.898,845.298 C592.77,844.024 591.305,843.387 589.504,843.387 C587.804,843.387 586.384,844.031 585.241,845.32 C584.113,846.624 583.549,848.235 583.549,850.154 M611.981,839.519 L611.981,872.566 L607.037,872.566 L607.037,839.519 L611.981,839.519 M606.29,830.621 C606.29,829.756 606.605,829.009 607.235,828.379 C607.865,827.749 608.619,827.434 609.498,827.434 C610.392,827.434 611.154,827.749 611.783,828.379 C612.413,828.995 612.728,829.749 612.728,830.643 C612.728,831.536 612.413,832.298 611.783,832.928 C611.168,833.558 610.414,833.872 609.52,833.872 C608.627,833.872 607.865,833.558 607.235,832.928 C606.605,832.298 606.29,831.529 606.29,830.621 M617.23,850.066 C617.23,846.976 618.336,844.346 620.548,842.178 C622.759,840.01 625.455,838.926 628.634,838.926 C631.827,838.926 634.537,840.018 636.763,842.2 C638.961,844.383 640.059,847.063 640.059,850.242 C640.059,853.45 638.953,856.138 636.741,858.306 C634.515,860.459 631.783,861.536 628.546,861.536 C625.338,861.536 622.65,860.437 620.482,858.24 C618.314,856.072 617.23,853.348 617.23,850.066 M622.283,850.154 C622.283,852.293 622.855,853.985 623.997,855.23 C625.169,856.49 626.715,857.12 628.634,857.12 C630.567,857.12 632.113,856.497 633.27,855.252 C634.427,854.007 635.006,852.344 635.006,850.264 C635.006,848.184 634.427,846.521 633.27,845.276 C632.098,844.017 630.552,843.387 628.634,843.387 C626.744,843.387 625.213,844.017 624.041,845.276 C622.869,846.536 622.283,848.162 622.283,850.154 M645.287,839.519 L650.231,839.519 L650.231,841.431 C651.139,840.479 651.945,839.827 652.648,839.476 C653.366,839.109 654.216,838.926 655.197,838.926 C656.501,838.926 657.863,839.351 659.284,840.201 L657.021,844.727 C656.083,844.053 655.168,843.716 654.274,843.716 C651.579,843.716 650.231,845.752 650.231,849.825 L650.231,860.921 L645.287,860.921 L645.287,839.519 "/>
<path class="Lyrics" d="M549.116,876.482 L553.686,878.24 C552.09,882.063 550.969,885.594 550.324,888.831 C550.002,890.472 549.76,892.196 549.599,894.006 C549.438,895.815 549.358,897.789 549.358,899.927 C549.358,902.08 549.438,904.062 549.599,905.871 C549.76,907.68 550.002,909.405 550.324,911.045 C550.954,914.268 552.075,917.791 553.686,921.614 L549.116,923.372 C545.923,916.678 544.326,908.863 544.326,899.927 C544.326,890.992 545.923,883.177 549.116,876.482 M568.925,884.832 L563.058,884.832 L565.87,880.042 L574.044,880.042 L574.044,913.968 L568.925,913.968 L568.925,884.832 M592.12,923.372 L587.55,921.614 C589.161,917.791 590.281,914.268 590.911,911.045 C591.571,907.823 591.9,904.117 591.9,899.927 C591.9,895.767 591.571,892.068 590.911,888.831 C590.267,885.594 589.146,882.063 587.55,878.24 L592.12,876.482 C595.313,883.177 596.91,890.992 596.91,899.927 C596.91,908.863 595.313,916.678 592.12,923.372"/>
<path class="Lyrics" d="M787.562,852.681 L773.038,852.681 L769.258,860.921 L763.743,860.921 L780.53,824.864 L796.724,860.921 L791.121,860.921 L787.562,852.681 M785.474,847.869 L780.442,836.333 L775.169,847.869 L785.474,847.869 M813.891,839.519 L818.835,839.519 L818.835,841.497 C819.787,840.501 820.6,839.827 821.273,839.476 C821.991,839.109 822.892,838.926 823.976,838.926 C826.393,838.926 828.305,839.981 829.711,842.09 C831.264,839.981 833.366,838.926 836.017,838.926 C840.836,838.926 843.246,841.849 843.246,847.693 L843.246,860.921 L838.28,860.921 L838.28,849.034 C838.28,846.983 838.031,845.533 837.533,844.683 C837.021,843.819 836.178,843.387 835.006,843.387 C833.644,843.387 832.652,843.899 832.029,844.925 C831.407,845.95 831.095,847.598 831.095,849.869 L831.095,860.921 L826.129,860.921 L826.129,849.1 C826.129,845.291 825.031,843.387 822.834,843.387 C821.442,843.387 820.428,843.907 819.79,844.947 C819.153,845.987 818.835,847.627 818.835,849.869 L818.835,860.921 L813.891,860.921 L813.891,839.519 M865.261,839.519 L870.227,839.519 L870.227,860.921 L865.261,860.921 L865.261,858.68 C863.225,860.584 861.035,861.536 858.691,861.536 C855.732,861.536 853.286,860.467 851.352,858.328 C849.433,856.145 848.474,853.421 848.474,850.154 C848.474,846.946 849.433,844.273 851.352,842.134 C853.271,839.996 855.673,838.926 858.559,838.926 C861.049,838.926 863.283,839.952 865.261,842.002 L865.261,839.519 M853.527,850.154 C853.527,852.205 854.077,853.875 855.175,855.164 C856.303,856.468 857.724,857.12 859.438,857.12 C861.269,857.12 862.749,856.49 863.877,855.23 C865.004,853.926 865.568,852.271 865.568,850.264 C865.568,848.257 865.004,846.602 863.877,845.298 C862.749,844.024 861.284,843.387 859.482,843.387 C857.783,843.387 856.362,844.031 855.219,845.32 C854.091,846.624 853.527,848.235 853.527,850.154 M881.96,839.519 L881.96,872.566 L877.016,872.566 L877.016,839.519 L881.96,839.519 M876.269,830.621 C876.269,829.756 876.584,829.009 877.213,828.379 C877.843,827.749 878.598,827.434 879.477,827.434 C880.37,827.434 881.132,827.749 881.762,828.379 C882.392,828.995 882.707,829.749 882.707,830.643 C882.707,831.536 882.392,832.298 881.762,832.928 C881.147,833.558 880.392,833.872 879.499,833.872 C878.605,833.872 877.843,833.558 877.213,832.928 C876.584,832.298 876.269,831.529 876.269,830.621 M887.208,850.066 C887.208,846.976 888.314,844.346 890.526,842.178 C892.738,840.01 895.433,838.926 898.612,838.926 C901.805,838.926 904.515,840.018 906.742,842.2 C908.939,844.383 910.038,847.063 910.038,850.242 C910.038,853.45 908.932,856.138 906.72,858.306 C904.493,860.459 901.761,861.536 898.524,861.536 C895.316,861.536 892.628,860.437 890.46,858.24 C888.292,856.072 887.208,853.348 887.208,850.066 M892.262,850.154 C892.262,852.293 892.833,853.985 893.976,855.23 C895.148,856.49 896.693,857.12 898.612,857.12 C900.545,857.12 902.091,856.497 903.248,855.252 C904.405,854.007 904.984,852.344 904.984,850.264 C904.984,848.184 904.405,846.521 903.248,845.276 C902.076,844.017 900.531,843.387 898.612,843.387 C896.722,843.387 895.191,844.017 894.02,845.276 C892.848,846.536 892.262,848.162 892.262,850.154 M915.266,839.519 L920.21,839.519 L920.21,841.431 C921.118,840.479 921.923,839.827 922.627,839.476 C923.344,839.109 924.194,838.926 925.175,838.926 C926.479,838.926 927.841,839.351 929.262,840.201 L926.999,844.727 C926.062,844.053 925.146,843.716 924.252,843.716 C921.557,843.716 920.21,845.752 920.21,849.825 L920.21,860.921 L915.266,860.921 L915.266,839.519 "/>
<path class="Lyrics" d="M824.719,876.482 L829.29,878.24 C827.693,882.063 826.572,885.594 825.928,888.831 C825.606,890.472 825.364,892.196 825.203,894.006 C825.042,895.815 824.961,897.789 824.961,899.927 C824.961,902.08 825.042,904.062 825.203,905.871 C825.364,907.68 825.606,909.405 825.928,911.045 C826.558,914.268 827.678,917.791 829.29,921.614 L824.719,923.372 C821.526,916.678 819.929,908.863 819.929,899.927 C819.929,890.992 821.526,883.177 824.719,876.482 M844.528,884.832 L838.661,884.832 L841.474,880.042 L849.648,880.042 L849.648,913.968 L844.528,913.968 L844.528,884.832 M867.723,923.372 L863.153,921.614 C864.764,917.791 865.885,914.268 866.515,911.045 C867.174,907.823 867.503,904.117 867.503,899.927 C867.503,895.767 867.174,892.068 866.515,888.831 C865.87,885.594 864.75,882.063 863.153,878.24 L867.723,876.482 C870.917,883.177 872.513,890.992 872.513,899.927 C872.513,908.863 870.917,916.678 867.723,923.372"/>
<path class="Lyrics" d="M1052.24,852.681 L1037.72,852.681 L1033.94,860.921 L1028.42,860.921 L1045.21,824.864 L1061.41,860.921 L1055.8,860.921 L1052.24,852.681 M1050.16,847.869 L1045.12,836.333 L1039.85,847.869 L1050.16,847.869 "/>
<path class="Lyrics" d="M1079.26,846.071 C1079.26,842.426 1077.06,840.086 1074.36,840.086 C1070.53,840.086 1069.05,842.336 1068.42,844.136 L1068.42,830.231 L1065.76,830.231 L1065.76,858.401 C1071.43,858.086 1079.26,855.611 1079.26,846.071 M1076.02,847.646 C1076.02,853.811 1071.75,856.061 1068.42,856.286 L1068.42,847.241 C1068.42,845.261 1069.86,842.246 1073.05,842.246 C1074.9,842.246 1076.07,844.631 1076.07,847.646 L1076.02,847.646 "/>
<path class="Lyrics" d="M1100.43,839.519 L1105.38,839.519 L1105.38,841.497 C1106.33,840.501 1107.14,839.827 1107.81,839.476 C1108.53,839.109 1109.43,838.926 1110.52,838.926 C1112.93,838.926 1114.85,839.981 1116.25,842.09 C1117.8,839.981 1119.91,838.926 1122.56,838.926 C1127.38,838.926 1129.79,841.849 1129.79,847.693 L1129.79,860.921 L1124.82,860.921 L1124.82,849.034 C1124.82,846.983 1124.57,845.533 1124.07,844.683 C1123.56,843.819 1122.72,843.387 1121.55,843.387 C1120.18,843.387 1119.19,843.899 1118.57,844.925 C1117.95,845.95 1117.64,847.598 1117.64,849.869 L1117.64,860.921 L1112.67,860.921 L1112.67,849.1 C1112.67,845.291 1111.57,843.387 1109.37,843.387 C1107.98,843.387 1106.97,843.907 1106.33,844.947 C1105.69,845.987 1105.38,847.627 1105.38,849.869 L1105.38,860.921 L1100.43,860.921 L1100.43,839.519 M1151.8,839.519 L1156.77,839.519 L1156.77,860.921 L1151.8,860.921 L1151.8,858.68 C1149.77,860.584 1147.58,861.536 1145.23,861.536 C1142.27,861.536 1139.83,860.467 1137.89,858.328 C1135.97,856.145 1135.01,853.421 1135.01,850.154 C1135.01,846.946 1135.97,844.273 1137.89,842.134 C1139.81,839.996 1142.21,838.926 1145.1,838.926 C1147.59,838.926 1149.82,839.952 1151.8,842.002 L1151.8,839.519 M1140.07,850.154 C1140.07,852.205 1140.62,853.875 1141.72,855.164 C1142.84,856.468 1144.27,857.12 1145.98,857.12 C1147.81,857.12 1149.29,856.49 1150.42,855.23 C1151.55,853.926 1152.11,852.271 1152.11,850.264 C1152.11,848.257 1151.55,846.602 1150.42,845.298 C1149.29,844.024 1147.82,843.387 1146.02,843.387 C1144.32,843.387 1142.9,844.031 1141.76,845.32 C1140.63,846.624 1140.07,848.235 1140.07,850.154 M1168.5,839.519 L1168.5,872.566 L1163.56,872.566 L1163.56,839.519 L1168.5,839.519 M1162.81,830.621 C1162.81,829.756 1163.12,829.009 1163.75,828.379 C1164.38,827.749 1165.14,827.434 1166.02,827.434 C1166.91,827.434 1167.67,827.749 1168.3,828.379 C1168.93,828.995 1169.25,829.749 1169.25,830.643 C1169.25,831.536 1168.93,832.298 1168.3,832.928 C1167.69,833.558 1166.93,833.872 1166.04,833.872 C1165.15,833.872 1164.38,833.558 1163.75,832.928 C1163.12,832.298 1162.81,831.529 1162.81,830.621 M1173.75,850.066 C1173.75,846.976 1174.85,844.346 1177.07,842.178 C1179.28,840.01 1181.97,838.926 1185.15,838.926 C1188.35,838.926 1191.06,840.018 1193.28,842.2 C1195.48,844.383 1196.58,847.063 1196.58,850.242 C1196.58,853.45 1195.47,856.138 1193.26,858.306 C1191.03,860.459 1188.3,861.536 1185.06,861.536 C1181.86,861.536 1179.17,860.437 1177,858.24 C1174.83,856.072 1173.75,853.348 1173.75,850.066 M1178.8,850.154 C1178.8,852.293 1179.37,853.985 1180.52,855.23 C1181.69,856.49 1183.23,857.12 1185.15,857.12 C1187.09,857.12 1188.63,856.497 1189.79,855.252 C1190.95,854.007 1191.52,852.344 1191.52,850.264 C1191.52,848.184 1190.95,846.521 1189.79,845.276 C1188.62,844.017 1187.07,843.387 1185.15,843.387 C1183.26,843.387 1181.73,844.017 1180.56,845.276 C1179.39,846.536 1178.8,848.162 1178.8,850.154 M1201.81,839.519 L1206.75,839.519 L1206.75,841.431 C1207.66,840.479 1208.46,839.827 1209.17,839.476 C1209.89,839.109 1210.73,838.926 1211.72,838.926 C1213.02,838.926 1214.38,839.351 1215.8,840.201 L1213.54,844.727 C1212.6,844.053 1211.69,843.716 1210.79,843.716 C1208.1,843.716 1206.75,845.752 1206.75,849.825 L1206.75,860.921 L1201.81,860.921 L1201.81,839.519 "/>
<path class="Lyrics" d="M1100.32,876.482 L1104.89,878.24 C1103.3,882.063 1102.18,885.594 1101.53,888.831 C1101.21,890.472 1100.97,892.196 1100.81,894.006 C1100.64,895.815 1100.56,897.789 1100.56,899.927 C1100.56,902.08 1100.64,904.062 1100.81,905.871 C1100.97,907.68 1101.21,909.405 1101.53,911.045 C1102.16,914.268 1103.28,917.791 1104.89,921.614 L1100.32,923.372 C1097.13,916.678 1095.53,908.863 1095.53,899.927 C1095.53,890.992 1097.13,883.177 1100.32,876.482 M1120.13,884.832 L1114.26,884.832 L1117.08,880.042 L1125.25,880.042 L1125.25,913.968 L1120.13,913.968 L1120.13,884.832 M1143.33,923.372 L1138.76,921.614 C1140.37,917.791 1141.49,914.268 1142.12,911.045 C1142.78,907.823 1143.11,904.117 1143.11,899.927 C1143.11,895.767 1142.78,892.068 1142.12,888.831 C1141.47,885.594 1140.35,882.063 1138.76,878.24 L1143.33,876.482 C1146.52,883.177 1148.12,890.992 1148.12,899.927 C1148.12,908.863 1146.52,916.678 1143.33,923.372"/>
<path class="Lyrics" d="M1332.91,843.255 L1346.93,843.255 L1346.93,844.375 C1346.93,846.924 1346.63,849.18 1346.03,851.143 C1345.44,852.959 1344.45,854.659 1343.06,856.241 C1339.91,859.786 1335.91,861.558 1331.04,861.558 C1326.3,861.558 1322.23,859.844 1318.85,856.416 C1315.46,852.974 1313.77,848.843 1313.77,844.024 C1313.77,839.102 1315.49,834.927 1318.94,831.499 C1322.38,828.057 1326.57,826.336 1331.5,826.336 C1334.16,826.336 1336.63,826.878 1338.93,827.962 C1341.13,829.046 1343.29,830.804 1345.41,833.235 L1341.77,836.729 C1338.98,833.023 1335.59,831.17 1331.59,831.17 C1328,831.17 1324.99,832.408 1322.56,834.883 C1320.13,837.315 1318.91,840.362 1318.91,844.024 C1318.91,847.803 1320.27,850.916 1322.98,853.362 C1325.51,855.633 1328.26,856.768 1331.22,856.768 C1333.74,856.768 1336,855.918 1338.01,854.219 C1340.01,852.505 1341.14,850.455 1341.37,848.067 L1332.91,848.067 L1332.91,843.255 M1366.28,839.519 L1371.23,839.519 L1371.23,841.497 C1372.18,840.501 1372.99,839.827 1373.67,839.476 C1374.39,839.109 1375.29,838.926 1376.37,838.926 C1378.79,838.926 1380.7,839.981 1382.11,842.09 C1383.66,839.981 1385.76,838.926 1388.41,838.926 C1393.23,838.926 1395.64,841.849 1395.64,847.693 L1395.64,860.921 L1390.67,860.921 L1390.67,849.034 C1390.67,846.983 1390.43,845.533 1389.93,844.683 C1389.41,843.819 1388.57,843.387 1387.4,843.387 C1386.04,843.387 1385.05,843.899 1384.42,844.925 C1383.8,845.95 1383.49,847.598 1383.49,849.869 L1383.49,860.921 L1378.52,860.921 L1378.52,849.1 C1378.52,845.291 1377.43,843.387 1375.23,843.387 C1373.84,843.387 1372.82,843.907 1372.18,844.947 C1371.55,845.987 1371.23,847.627 1371.23,849.869 L1371.23,860.921 L1366.28,860.921 L1366.28,839.519 M1417.66,839.519 L1422.62,839.519 L1422.62,860.921 L1417.66,860.921 L1417.66,858.68 C1415.62,860.584 1413.43,861.536 1411.09,861.536 C1408.13,861.536 1405.68,860.467 1403.75,858.328 C1401.83,856.145 1400.87,853.421 1400.87,850.154 C1400.87,846.946 1401.83,844.273 1403.75,842.134 C1405.67,839.996 1408.07,838.926 1410.95,838.926 C1413.44,838.926 1415.68,839.952 1417.66,842.002 L1417.66,839.519 M1405.92,850.154 C1405.92,852.205 1406.47,853.875 1407.57,855.164 C1408.7,856.468 1410.12,857.12 1411.83,857.12 C1413.66,857.12 1415.14,856.49 1416.27,855.23 C1417.4,853.926 1417.96,852.271 1417.96,850.264 C1417.96,848.257 1417.4,846.602 1416.27,845.298 C1415.14,844.024 1413.68,843.387 1411.88,843.387 C1410.18,843.387 1408.76,844.031 1407.61,845.32 C1406.49,846.624 1405.92,848.235 1405.92,850.154 M1434.35,839.519 L1434.35,872.566 L1429.41,872.566 L1429.41,839.519 L1434.35,839.519 M1428.66,830.621 C1428.66,829.756 1428.98,829.009 1429.61,828.379 C1430.24,827.749 1430.99,827.434 1431.87,827.434 C1432.76,827.434 1433.53,827.749 1434.16,828.379 C1434.79,828.995 1435.1,829.749 1435.1,830.643 C1435.1,831.536 1434.79,832.298 1434.16,832.928 C1433.54,833.558 1432.79,833.872 1431.89,833.872 C1431,833.872 1430.24,833.558 1429.61,832.928 C1428.98,832.298 1428.66,831.529 1428.66,830.621 M1439.6,850.066 C1439.6,846.976 1440.71,844.346 1442.92,842.178 C1445.13,840.01 1447.83,838.926 1451.01,838.926 C1454.2,838.926 1456.91,840.018 1459.14,842.2 C1461.33,844.383 1462.43,847.063 1462.43,850.242 C1462.43,853.45 1461.33,856.138 1459.11,858.306 C1456.89,860.459 1454.16,861.536 1450.92,861.536 C1447.71,861.536 1445.02,860.437 1442.85,858.24 C1440.69,856.072 1439.6,853.348 1439.6,850.066 M1444.66,850.154 C1444.66,852.293 1445.23,853.985 1446.37,855.23 C1447.54,856.49 1449.09,857.12 1451.01,857.12 C1452.94,857.12 1454.49,856.497 1455.64,855.252 C1456.8,854.007 1457.38,852.344 1457.38,850.264 C1457.38,848.184 1456.8,846.521 1455.64,845.276 C1454.47,844.017 1452.93,843.387 1451.01,843.387 C1449.12,843.387 1447.59,844.017 1446.41,845.276 C1445.24,846.536 1444.66,848.162 1444.66,850.154 M1467.66,839.519 L1472.6,839.519 L1472.6,841.431 C1473.51,840.479 1474.32,839.827 1475.02,839.476 C1475.74,839.109 1476.59,838.926 1477.57,838.926 C1478.87,838.926 1480.24,839.351 1481.66,840.201 L1479.39,844.727 C1478.46,844.053 1477.54,843.716 1476.65,843.716 C1473.95,843.716 1472.6,845.752 1472.6,849.825 L1472.6,860.921 L1467.66,860.921 L1467.66,839.519 "/>
<path class="Lyrics" d="M1375.93,876.482 L1380.5,878.24 C1378.9,882.063 1377.78,885.594 1377.13,888.831 C1376.81,890.472 1376.57,892.196 1376.41,894.006 C1376.25,895.815 1376.17,897.789 1376.17,899.927 C1376.17,902.08 1376.25,904.062 1376.41,905.871 C1376.57,907.68 1376.81,909.405 1377.13,911.045 C1377.76,914.268 1378.88,917.791 1380.5,921.614 L1375.93,923.372 C1372.73,916.678 1371.14,908.863 1371.14,899.927 C1371.14,890.992 1372.73,883.177 1375.93,876.482 M1395.73,884.832 L1389.87,884.832 L1392.68,880.042 L1400.85,880.042 L1400.85,913.968 L1395.73,913.968 L1395.73,884.832 M1418.93,923.372 L1414.36,921.614 C1415.97,917.791 1417.09,914.268 1417.72,911.045 C1418.38,907.823 1418.71,904.117 1418.71,899.927 C1418.71,895.767 1418.38,892.068 1417.72,888.831 C1417.08,885.594 1415.96,882.063 1414.36,878.24 L1418.93,876.482 C1422.12,883.177 1423.72,890.992 1423.72,899.927 C1423.72,908.863 1422.12,916.678 1418.93,923.372"/>
<path class="Lyrics" d="M1614.68,831.807 L1602.86,831.807 L1602.86,839.959 L1614.26,839.959 L1614.26,844.771 L1602.86,844.771 L1602.86,860.921 L1597.74,860.921 L1597.74,826.995 L1614.68,826.995 L1614.68,831.807 M1633.53,839.519 L1638.47,839.519 L1638.47,841.497 C1639.42,840.501 1640.24,839.827 1640.91,839.476 C1641.63,839.109 1642.53,838.926 1643.61,838.926 C1646.03,838.926 1647.94,839.981 1649.35,842.09 C1650.9,839.981 1653,838.926 1655.66,838.926 C1660.47,838.926 1662.88,841.849 1662.88,847.693 L1662.88,860.921 L1657.92,860.921 L1657.92,849.034 C1657.92,846.983 1657.67,845.533 1657.17,844.683 C1656.66,843.819 1655.82,843.387 1654.64,843.387 C1653.28,843.387 1652.29,843.899 1651.67,844.925 C1651.04,845.95 1650.73,847.598 1650.73,849.869 L1650.73,860.921 L1645.77,860.921 L1645.77,849.1 C1645.77,845.291 1644.67,843.387 1642.47,843.387 C1641.08,843.387 1640.07,843.907 1639.43,844.947 C1638.79,845.987 1638.47,847.627 1638.47,849.869 L1638.47,860.921 L1633.53,860.921 L1633.53,839.519 M1684.9,839.519 L1689.86,839.519 L1689.86,860.921 L1684.9,860.921 L1684.9,858.68 C1682.86,860.584 1680.67,861.536 1678.33,861.536 C1675.37,861.536 1672.92,860.467 1670.99,858.328 C1669.07,856.145 1668.11,853.421 1668.11,850.154 C1668.11,846.946 1669.07,844.273 1670.99,842.134 C1672.91,839.996 1675.31,838.926 1678.2,838.926 C1680.69,838.926 1682.92,839.952 1684.9,842.002 L1684.9,839.519 M1673.17,850.154 C1673.17,852.205 1673.71,853.875 1674.81,855.164 C1675.94,856.468 1677.36,857.12 1679.08,857.12 C1680.91,857.12 1682.39,856.49 1683.51,855.23 C1684.64,853.926 1685.21,852.271 1685.21,850.264 C1685.21,848.257 1684.64,846.602 1683.51,845.298 C1682.39,844.024 1680.92,843.387 1679.12,843.387 C1677.42,843.387 1676,844.031 1674.86,845.32 C1673.73,846.624 1673.17,848.235 1673.17,850.154 M1701.6,839.519 L1701.6,872.566 L1696.65,872.566 L1696.65,839.519 L1701.6,839.519 M1695.91,830.621 C1695.91,829.756 1696.22,829.009 1696.85,828.379 C1697.48,827.749 1698.24,827.434 1699.11,827.434 C1700.01,827.434 1700.77,827.749 1701.4,828.379 C1702.03,828.995 1702.34,829.749 1702.34,830.643 C1702.34,831.536 1702.03,832.298 1701.4,832.928 C1700.78,833.558 1700.03,833.872 1699.14,833.872 C1698.24,833.872 1697.48,833.558 1696.85,832.928 C1696.22,832.298 1695.91,831.529 1695.91,830.621 M1706.85,850.066 C1706.85,846.976 1707.95,844.346 1710.16,842.178 C1712.38,840.01 1715.07,838.926 1718.25,838.926 C1721.44,838.926 1724.15,840.018 1726.38,842.2 C1728.58,844.383 1729.68,847.063 1729.68,850.242 C1729.68,853.45 1728.57,856.138 1726.36,858.306 C1724.13,860.459 1721.4,861.536 1718.16,861.536 C1714.95,861.536 1712.27,860.437 1710.1,858.24 C1707.93,856.072 1706.85,853.348 1706.85,850.066 M1711.9,850.154 C1711.9,852.293 1712.47,853.985 1713.61,855.23 C1714.79,856.49 1716.33,857.12 1718.25,857.12 C1720.18,857.12 1721.73,856.497 1722.89,855.252 C1724.04,854.007 1724.62,852.344 1724.62,850.264 C1724.62,848.184 1724.04,846.521 1722.89,845.276 C1721.71,844.017 1720.17,843.387 1718.25,843.387 C1716.36,843.387 1714.83,844.017 1713.66,845.276 C1712.49,846.536 1711.9,848.162 1711.9,850.154 M1734.9,839.519 L1739.85,839.519 L1739.85,841.431 C1740.76,840.479 1741.56,839.827 1742.26,839.476 C1742.98,839.109 1743.83,838.926 1744.81,838.926 C1746.12,838.926 1747.48,839.351 1748.9,840.201 L1746.64,844.727 C1745.7,844.053 1744.78,843.716 1743.89,843.716 C1741.2,843.716 1739.85,845.752 1739.85,849.825 L1739.85,860.921 L1734.9,860.921 L1734.9,839.519 "/>
<path class="Lyrics" d="M1651.53,876.482 L1656.1,878.24 C1654.5,882.063 1653.38,885.594 1652.74,888.831 C1652.42,890.472 1652.17,892.196 1652.01,894.006 C1651.85,895.815 1651.77,897.789 1651.77,899.927 C1651.77,902.08 1651.85,904.062 1652.01,905.871 C1652.17,907.68 1652.42,909.405 1652.74,911.045 C1653.37,914.268 1654.49,917.791 1656.1,921.614 L1651.53,923.372 C1648.34,916.678 1646.74,908.863 1646.74,899.927 C1646.74,890.992 1648.34,883.177 1651.53,876.482 M1671.34,884.832 L1665.47,884.832 L1668.28,880.042 L1676.46,880.042 L1676.46,913.968 L1671.34,913.968 L1671.34,884.832 M1694.53,923.372 L1689.96,921.614 C1691.57,917.791 1692.69,914.268 1693.32,911.045 C1693.98,907.823 1694.31,904.117 1694.31,899.927 C1694.31,895.767 1693.98,892.068 1693.32,888.831 C1692.68,885.594 1691.56,882.063 1689.96,878.24 L1694.53,876.482 C1697.73,883.177 1699.32,890.992 1699.32,899.927 C1699.32,908.863 1697.73,916.678 1694.53,923.372"/>
<path class="Lyrics" d="M1884.12,843.255 L1898.14,843.255 L1898.14,844.375 C1898.14,846.924 1897.84,849.18 1897.23,851.143 C1896.65,852.959 1895.66,854.659 1894.27,856.241 C1891.12,859.786 1887.11,861.558 1882.25,861.558 C1877.5,861.558 1873.44,859.844 1870.05,856.416 C1866.67,852.974 1864.98,848.843 1864.98,844.024 C1864.98,839.102 1866.7,834.927 1870.14,831.499 C1873.58,828.057 1877.77,826.336 1882.71,826.336 C1885.36,826.336 1887.84,826.878 1890.14,827.962 C1892.33,829.046 1894.5,830.804 1896.62,833.235 L1892.97,836.729 C1890.19,833.023 1886.8,831.17 1882.8,831.17 C1879.21,831.17 1876.2,832.408 1873.77,834.883 C1871.34,837.315 1870.12,840.362 1870.12,844.024 C1870.12,847.803 1871.48,850.916 1874.19,853.362 C1876.72,855.633 1879.47,856.768 1882.43,856.768 C1884.94,856.768 1887.21,855.918 1889.21,854.219 C1891.22,852.505 1892.34,850.455 1892.58,848.067 L1884.12,848.067 L1884.12,843.255 M1917.49,839.519 L1922.44,839.519 L1922.44,841.497 C1923.39,840.501 1924.2,839.827 1924.87,839.476 C1925.59,839.109 1926.49,838.926 1927.58,838.926 C1929.99,838.926 1931.91,839.981 1933.31,842.09 C1934.86,839.981 1936.97,838.926 1939.62,838.926 C1944.44,838.926 1946.85,841.849 1946.85,847.693 L1946.85,860.921 L1941.88,860.921 L1941.88,849.034 C1941.88,846.983 1941.63,845.533 1941.13,844.683 C1940.62,843.819 1939.78,843.387 1938.61,843.387 C1937.25,843.387 1936.25,843.899 1935.63,844.925 C1935.01,845.95 1934.7,847.598 1934.7,849.869 L1934.7,860.921 L1929.73,860.921 L1929.73,849.1 C1929.73,845.291 1928.63,843.387 1926.43,843.387 C1925.04,843.387 1924.03,843.907 1923.39,844.947 C1922.75,845.987 1922.44,847.627 1922.44,849.869 L1922.44,860.921 L1917.49,860.921 L1917.49,839.519 M1968.86,839.519 L1973.83,839.519 L1973.83,860.921 L1968.86,860.921 L1968.86,858.68 C1966.83,860.584 1964.64,861.536 1962.29,861.536 C1959.33,861.536 1956.89,860.467 1954.95,858.328 C1953.03,856.145 1952.07,853.421 1952.07,850.154 C1952.07,846.946 1953.03,844.273 1954.95,842.134 C1956.87,839.996 1959.27,838.926 1962.16,838.926 C1964.65,838.926 1966.88,839.952 1968.86,842.002 L1968.86,839.519 M1957.13,850.154 C1957.13,852.205 1957.68,853.875 1958.78,855.164 C1959.9,856.468 1961.33,857.12 1963.04,857.12 C1964.87,857.12 1966.35,856.49 1967.48,855.23 C1968.61,853.926 1969.17,852.271 1969.17,850.264 C1969.17,848.257 1968.61,846.602 1967.48,845.298 C1966.35,844.024 1964.88,843.387 1963.08,843.387 C1961.38,843.387 1959.96,844.031 1958.82,845.32 C1957.69,846.624 1957.13,848.235 1957.13,850.154 M1985.56,839.519 L1985.56,872.566 L1980.62,872.566 L1980.62,839.519 L1985.56,839.519 M1979.87,830.621 C1979.87,829.756 1980.18,829.009 1980.81,828.379 C1981.44,827.749 1982.2,827.434 1983.08,827.434 C1983.97,827.434 1984.73,827.749 1985.36,828.379 C1985.99,828.995 1986.31,829.749 1986.31,830.643 C1986.31,831.536 1985.99,832.298 1985.36,832.928 C1984.75,833.558 1983.99,833.872 1983.1,833.872 C1982.21,833.872 1981.44,833.558 1980.81,832.928 C1980.18,832.298 1979.87,831.529 1979.87,830.621 M1990.81,850.066 C1990.81,846.976 1991.91,844.346 1994.13,842.178 C1996.34,840.01 1999.03,838.926 2002.21,838.926 C2005.41,838.926 2008.12,840.018 2010.34,842.2 C2012.54,844.383 2013.64,847.063 2013.64,850.242 C2013.64,853.45 2012.53,856.138 2010.32,858.306 C2008.09,860.459 2005.36,861.536 2002.12,861.536 C1998.92,861.536 1996.23,860.437 1994.06,858.24 C1991.89,856.072 1990.81,853.348 1990.81,850.066 M1995.86,850.154 C1995.86,852.293 1996.43,853.985 1997.58,855.23 C1998.75,856.49 2000.29,857.12 2002.21,857.12 C2004.15,857.12 2005.69,856.497 2006.85,855.252 C2008.01,854.007 2008.58,852.344 2008.58,850.264 C2008.58,848.184 2008.01,846.521 2006.85,845.276 C2005.68,844.017 2004.13,843.387 2002.21,843.387 C2000.32,843.387 1998.79,844.017 1997.62,845.276 C1996.45,846.536 1995.86,848.162 1995.86,850.154 M2018.87,839.519 L2023.81,839.519 L2023.81,841.431 C2024.72,840.479 2025.52,839.827 2026.23,839.476 C2026.95,839.109 2027.79,838.926 2028.78,838.926 C2030.08,838.926 2031.44,839.351 2032.86,840.201 L2030.6,844.727 C2029.66,844.053 2028.75,843.716 2027.85,843.716 C2025.16,843.716 2023.81,845.752 2023.81,849.825 L2023.81,860.921 L2018.87,860.921 L2018.87,839.519 "/>
<path class="Lyrics" d="M1927.13,876.482 L1931.7,878.24 C1930.11,882.063 1928.99,885.594 1928.34,888.831 C1928.02,890.472 1927.78,892.196 1927.62,894.006 C1927.45,895.815 1927.37,897.789 1927.37,899.927 C1927.37,902.08 1927.45,904.062 1927.62,905.871 C1927.78,907.68 1928.02,909.405 1928.34,911.045 C1928.97,914.268 1930.09,917.791 1931.7,921.614 L1927.13,923.372 C1923.94,916.678 1922.34,908.863 1922.34,899.927 C1922.34,890.992 1923.94,883.177 1927.13,876.482 M1946.94,884.832 L1941.07,884.832 L1943.89,880.042 L1952.06,880.042 L1952.06,913.968 L1946.94,913.968 L1946.94,884.832 M1970.14,923.372 L1965.57,921.614 C1967.18,917.791 1968.3,914.268 1968.93,911.045 C1969.59,907.823 1969.92,904.117 1969.92,899.927 C1969.92,895.767 1969.59,892.068 1968.93,888.831 C1968.28,885.594 1967.16,882.063 1965.57,878.24 L1970.14,876.482 C1973.33,883.177 1974.93,890.992 1974.93,899.927 C1974.93,908.863 1973.33,916.678 1970.14,923.372"/>
<path class="Lyrics" d="M2165.89,831.807 L2154.07,831.807 L2154.07,839.959 L2165.47,839.959 L2165.47,844.771 L2154.07,844.771 L2154.07,860.921 L2148.95,860.921 L2148.95,826.995 L2165.89,826.995 L2165.89,831.807 M2184.74,839.519 L2189.68,839.519 L2189.68,841.497 C2190.63,840.501 2191.44,839.827 2192.12,839.476 C2192.84,839.109 2193.74,838.926 2194.82,838.926 C2197.24,838.926 2199.15,839.981 2200.56,842.09 C2202.11,839.981 2204.21,838.926 2206.86,838.926 C2211.68,838.926 2214.09,841.849 2214.09,847.693 L2214.09,860.921 L2209.13,860.921 L2209.13,849.034 C2209.13,846.983 2208.88,845.533 2208.38,844.683 C2207.87,843.819 2207.02,843.387 2205.85,843.387 C2204.49,843.387 2203.5,843.899 2202.87,844.925 C2202.25,845.95 2201.94,847.598 2201.94,849.869 L2201.94,860.921 L2196.97,860.921 L2196.97,849.1 C2196.97,845.291 2195.88,843.387 2193.68,843.387 C2192.29,843.387 2191.27,843.907 2190.64,844.947 C2190,845.987 2189.68,847.627 2189.68,849.869 L2189.68,860.921 L2184.74,860.921 L2184.74,839.519 M2236.11,839.519 L2241.07,839.519 L2241.07,860.921 L2236.11,860.921 L2236.11,858.68 C2234.07,860.584 2231.88,861.536 2229.54,861.536 C2226.58,861.536 2224.13,860.467 2222.2,858.328 C2220.28,856.145 2219.32,853.421 2219.32,850.154 C2219.32,846.946 2220.28,844.273 2222.2,842.134 C2224.12,839.996 2226.52,838.926 2229.4,838.926 C2231.89,838.926 2234.13,839.952 2236.11,842.002 L2236.11,839.519 M2224.37,850.154 C2224.37,852.205 2224.92,853.875 2226.02,855.164 C2227.15,856.468 2228.57,857.12 2230.28,857.12 C2232.11,857.12 2233.59,856.49 2234.72,855.23 C2235.85,853.926 2236.41,852.271 2236.41,850.264 C2236.41,848.257 2235.85,846.602 2234.72,845.298 C2233.59,844.024 2232.13,843.387 2230.33,843.387 C2228.63,843.387 2227.21,844.031 2226.06,845.32 C2224.94,846.624 2224.37,848.235 2224.37,850.154 M2252.8,839.519 L2252.8,872.566 L2247.86,872.566 L2247.86,839.519 L2252.8,839.519 M2247.11,830.621 C2247.11,829.756 2247.43,829.009 2248.06,828.379 C2248.69,827.749 2249.44,827.434 2250.32,827.434 C2251.22,827.434 2251.98,827.749 2252.61,828.379 C2253.24,828.995 2253.55,829.749 2253.55,830.643 C2253.55,831.536 2253.24,832.298 2252.61,832.928 C2251.99,833.558 2251.24,833.872 2250.34,833.872 C2249.45,833.872 2248.69,833.558 2248.06,832.928 C2247.43,832.298 2247.11,831.529 2247.11,830.621 M2258.05,850.066 C2258.05,846.976 2259.16,844.346 2261.37,842.178 C2263.58,840.01 2266.28,838.926 2269.46,838.926 C2272.65,838.926 2275.36,840.018 2277.59,842.2 C2279.78,844.383 2280.88,847.063 2280.88,850.242 C2280.88,853.45 2279.78,856.138 2277.56,858.306 C2275.34,860.459 2272.61,861.536 2269.37,861.536 C2266.16,861.536 2263.47,860.437 2261.3,858.24 C2259.14,856.072 2258.05,853.348 2258.05,850.066 M2263.11,850.154 C2263.11,852.293 2263.68,853.985 2264.82,855.23 C2265.99,856.49 2267.54,857.12 2269.46,857.12 C2271.39,857.12 2272.94,856.497 2274.09,855.252 C2275.25,854.007 2275.83,852.344 2275.83,850.264 C2275.83,848.184 2275.25,846.521 2274.09,845.276 C2272.92,844.017 2271.38,843.387 2269.46,843.387 C2267.57,843.387 2266.04,844.017 2264.86,845.276 C2263.69,846.536 2263.11,848.162 2263.11,850.154 M2286.11,839.519 L2291.05,839.519 L2291.05,841.431 C2291.96,840.479 2292.77,839.827 2293.47,839.476 C2294.19,839.109 2295.04,838.926 2296.02,838.926 C2297.32,838.926 2298.69,839.351 2300.11,840.201 L2297.84,844.727 C2296.91,844.053 2295.99,843.716 2295.1,843.716 C2292.4,843.716 2291.05,845.752 2291.05,849.825 L2291.05,860.921 L2286.11,860.921 L2286.11,839.519 "/>
<path class="Lyrics" d="M2202.74,876.482 L2207.31,878.24 C2205.71,882.063 2204.59,885.594 2203.94,888.831 C2203.62,890.472 2203.38,892.196 2203.22,894.006 C2203.06,895.815 2202.98,897.789 2202.98,899.927 C2202.98,902.08 2203.06,904.062 2203.22,905.871 C2203.38,907.68 2203.62,909.405 2203.94,911.045 C2204.57,914.268 2205.7,917.791 2207.31,921.614 L2202.74,923.372 C2199.54,916.678 2197.95,908.863 2197.95,899.927 C2197.95,890.992 2199.54,883.177 2202.74,876.482 M2222.54,884.832 L2216.68,884.832 L2219.49,880.042 L2227.66,880.042 L2227.66,913.968 L2222.54,913.968 L2222.54,884.832 M2245.74,923.372 L2241.17,921.614 C2242.78,917.791 2243.9,914.268 2244.53,911.045 C2245.19,907.823 2245.52,904.117 2245.52,899.927 C2245.52,895.767 2245.19,892.068 2244.53,888.831 C2243.89,885.594 2242.77,882.063 2241.17,878.24 L2245.74,876.482 C2248.93,883.177 2250.53,890.992 2250.53,899.927 C2250.53,908.863 2248.93,916.678 2245.74,923.372"/>
<path class="Lyrics" d="M2441.97,831.807 L2428.37,831.807 L2428.37,839.959 L2441.58,839.959 L2441.58,844.771 L2428.37,844.771 L2428.37,856.109 L2441.97,856.109 L2441.97,860.921 L2423.25,860.921 L2423.25,826.995 L2441.97,826.995 L2441.97,831.807 M2461.62,839.519 L2466.56,839.519 L2466.56,841.497 C2467.52,840.501 2468.33,839.827 2469,839.476 C2469.72,839.109 2470.62,838.926 2471.71,838.926 C2474.12,838.926 2476.03,839.981 2477.44,842.09 C2478.99,839.981 2481.1,838.926 2483.75,838.926 C2488.57,838.926 2490.98,841.849 2490.98,847.693 L2490.98,860.921 L2486.01,860.921 L2486.01,849.034 C2486.01,846.983 2485.76,845.533 2485.26,844.683 C2484.75,843.819 2483.91,843.387 2482.74,843.387 C2481.37,843.387 2480.38,843.899 2479.76,844.925 C2479.14,845.95 2478.82,847.598 2478.82,849.869 L2478.82,860.921 L2473.86,860.921 L2473.86,849.1 C2473.86,845.291 2472.76,843.387 2470.56,843.387 C2469.17,843.387 2468.16,843.907 2467.52,844.947 C2466.88,845.987 2466.56,847.627 2466.56,849.869 L2466.56,860.921 L2461.62,860.921 L2461.62,839.519 M2512.99,839.519 L2517.96,839.519 L2517.96,860.921 L2512.99,860.921 L2512.99,858.68 C2510.95,860.584 2508.76,861.536 2506.42,861.536 C2503.46,861.536 2501.02,860.467 2499.08,858.328 C2497.16,856.145 2496.2,853.421 2496.2,850.154 C2496.2,846.946 2497.16,844.273 2499.08,842.134 C2501,839.996 2503.4,838.926 2506.29,838.926 C2508.78,838.926 2511.01,839.952 2512.99,842.002 L2512.99,839.519 M2501.26,850.154 C2501.26,852.205 2501.81,853.875 2502.9,855.164 C2504.03,856.468 2505.45,857.12 2507.17,857.12 C2509,857.12 2510.48,856.49 2511.61,855.23 C2512.73,853.926 2513.3,852.271 2513.3,850.264 C2513.3,848.257 2512.73,846.602 2511.61,845.298 C2510.48,844.024 2509.01,843.387 2507.21,843.387 C2505.51,843.387 2504.09,844.031 2502.95,845.32 C2501.82,846.624 2501.26,848.235 2501.26,850.154 M2529.69,839.519 L2529.69,872.566 L2524.75,872.566 L2524.75,839.519 L2529.69,839.519 M2524,830.621 C2524,829.756 2524.31,829.009 2524.94,828.379 C2525.57,827.749 2526.33,827.434 2527.21,827.434 C2528.1,827.434 2528.86,827.749 2529.49,828.379 C2530.12,828.995 2530.44,829.749 2530.44,830.643 C2530.44,831.536 2530.12,832.298 2529.49,832.928 C2528.88,833.558 2528.12,833.872 2527.23,833.872 C2526.33,833.872 2525.57,833.558 2524.94,832.928 C2524.31,832.298 2524,831.529 2524,830.621 M2534.94,850.066 C2534.94,846.976 2536.04,844.346 2538.26,842.178 C2540.47,840.01 2543.16,838.926 2546.34,838.926 C2549.53,838.926 2552.24,840.018 2554.47,842.2 C2556.67,844.383 2557.77,847.063 2557.77,850.242 C2557.77,853.45 2556.66,856.138 2554.45,858.306 C2552.22,860.459 2549.49,861.536 2546.25,861.536 C2543.05,861.536 2540.36,860.437 2538.19,858.24 C2536.02,856.072 2534.94,853.348 2534.94,850.066 M2539.99,850.154 C2539.99,852.293 2540.56,853.985 2541.71,855.23 C2542.88,856.49 2544.42,857.12 2546.34,857.12 C2548.27,857.12 2549.82,856.497 2550.98,855.252 C2552.13,854.007 2552.71,852.344 2552.71,850.264 C2552.71,848.184 2552.13,846.521 2550.98,845.276 C2549.81,844.017 2548.26,843.387 2546.34,843.387 C2544.45,843.387 2542.92,844.017 2541.75,845.276 C2540.58,846.536 2539.99,848.162 2539.99,850.154 M2563,839.519 L2567.94,839.519 L2567.94,841.431 C2568.85,840.479 2569.65,839.827 2570.36,839.476 C2571.07,839.109 2571.92,838.926 2572.9,838.926 C2574.21,838.926 2575.57,839.351 2576.99,840.201 L2574.73,844.727 C2573.79,844.053 2572.88,843.716 2571.98,843.716 C2569.29,843.716 2567.94,845.752 2567.94,849.825 L2567.94,860.921 L2563,860.921 L2563,839.519 "/>
<path class="Lyrics" d="M2478.34,876.482 L2482.91,878.24 C2481.31,882.063 2480.19,885.594 2479.55,888.831 C2479.23,890.472 2478.98,892.196 2478.82,894.006 C2478.66,895.815 2478.58,897.789 2478.58,899.927 C2478.58,902.08 2478.66,904.062 2478.82,905.871 C2478.98,907.68 2479.23,909.405 2479.55,911.045 C2480.18,914.268 2481.3,917.791 2482.91,921.614 L2478.34,923.372 C2475.15,916.678 2473.55,908.863 2473.55,899.927 C2473.55,890.992 2475.15,883.177 2478.34,876.482 M2498.15,884.832 L2492.28,884.832 L2495.09,880.042 L2503.27,880.042 L2503.27,913.968 L2498.15,913.968 L2498.15,884.832 M2521.34,923.372 L2516.77,921.614 C2518.38,917.791 2519.5,914.268 2520.13,911.045 C2520.79,907.823 2521.12,904.117 2521.12,899.927 C2521.12,895.767 2520.79,892.068 2520.13,888.831 C2519.49,885.594 2518.37,882.063 2516.77,878.24 L2521.34,876.482 C2524.54,883.177 2526.13,890.992 2526.13,899.927 C2526.13,908.863 2524.54,916.678 2521.34,923.372"/>
<path class="Lyrics" d="M293.862,1332.18 L293.862,1298.25 L300.982,1298.25 C304.395,1298.25 307.09,1298.59 309.068,1299.27 C311.192,1299.92 313.118,1301.05 314.846,1302.63 C318.347,1305.82 320.098,1310.02 320.098,1315.22 C320.098,1320.43 318.274,1324.65 314.627,1327.87 C312.796,1329.49 310.877,1330.61 308.87,1331.24 C306.995,1331.87 304.336,1332.18 300.894,1332.18 L293.862,1332.18 M298.982,1327.37 L301.289,1327.37 C303.589,1327.37 305.501,1327.13 307.024,1326.64 C308.547,1326.13 309.924,1325.32 311.155,1324.2 C313.674,1321.9 314.934,1318.91 314.934,1315.22 C314.934,1311.5 313.689,1308.48 311.199,1306.17 C308.958,1304.1 305.654,1303.07 301.289,1303.07 L298.982,1303.07 L298.982,1327.37 M339.464,1310.78 L344.408,1310.78 L344.408,1312.76 C345.36,1311.76 346.173,1311.09 346.847,1310.74 C347.565,1310.37 348.466,1310.19 349.55,1310.19 C351.967,1310.19 353.879,1311.24 355.285,1313.35 C356.838,1311.24 358.94,1310.19 361.591,1310.19 C366.41,1310.19 368.82,1313.11 368.82,1318.95 L368.82,1332.18 L363.854,1332.18 L363.854,1320.29 C363.854,1318.24 363.605,1316.79 363.107,1315.94 C362.594,1315.08 361.752,1314.65 360.58,1314.65 C359.218,1314.65 358.225,1315.16 357.603,1316.18 C356.98,1317.21 356.669,1318.86 356.669,1321.13 L356.669,1332.18 L351.703,1332.18 L351.703,1320.36 C351.703,1316.55 350.605,1314.65 348.407,1314.65 C347.016,1314.65 346.001,1315.17 345.364,1316.21 C344.727,1317.25 344.408,1318.89 344.408,1321.13 L344.408,1332.18 L339.464,1332.18 L339.464,1310.78 M390.835,1310.78 L395.8,1310.78 L395.8,1332.18 L390.835,1332.18 L390.835,1329.94 C388.798,1331.84 386.609,1332.8 384.265,1332.8 C381.306,1332.8 378.859,1331.73 376.926,1329.59 C375.007,1327.41 374.047,1324.68 374.047,1321.41 C374.047,1318.21 375.007,1315.53 376.926,1313.39 C378.845,1311.26 381.247,1310.19 384.133,1310.19 C386.623,1310.19 388.857,1311.21 390.835,1313.26 L390.835,1310.78 M379.101,1321.41 C379.101,1323.46 379.651,1325.13 380.749,1326.42 C381.877,1327.73 383.298,1328.38 385.012,1328.38 C386.843,1328.38 388.322,1327.75 389.45,1326.49 C390.578,1325.19 391.142,1323.53 391.142,1321.52 C391.142,1319.52 390.578,1317.86 389.45,1316.56 C388.322,1315.28 386.858,1314.65 385.056,1314.65 C383.357,1314.65 381.936,1315.29 380.793,1316.58 C379.665,1317.88 379.101,1319.5 379.101,1321.41 M407.533,1310.78 L407.533,1343.83 L402.589,1343.83 L402.589,1310.78 L407.533,1310.78 M401.842,1301.88 C401.842,1301.02 402.157,1300.27 402.787,1299.64 C403.417,1299.01 404.172,1298.69 405.05,1298.69 C405.944,1298.69 406.706,1299.01 407.336,1299.64 C407.965,1300.25 408.28,1301.01 408.28,1301.9 C408.28,1302.8 407.965,1303.56 407.336,1304.19 C406.72,1304.82 405.966,1305.13 405.072,1305.13 C404.179,1305.13 403.417,1304.82 402.787,1304.19 C402.157,1303.56 401.842,1302.79 401.842,1301.88 M412.782,1321.33 C412.782,1318.24 413.888,1315.61 416.1,1313.44 C418.312,1311.27 421.007,1310.19 424.186,1310.19 C427.379,1310.19 430.089,1311.28 432.316,1313.46 C434.513,1315.64 435.611,1318.32 435.611,1321.5 C435.611,1324.71 434.505,1327.4 432.294,1329.57 C430.067,1331.72 427.335,1332.8 424.098,1332.8 C420.89,1332.8 418.202,1331.7 416.034,1329.5 C413.866,1327.33 412.782,1324.61 412.782,1321.33 M417.836,1321.41 C417.836,1323.55 418.407,1325.24 419.549,1326.49 C420.721,1327.75 422.267,1328.38 424.186,1328.38 C426.119,1328.38 427.665,1327.76 428.822,1326.51 C429.979,1325.27 430.558,1323.6 430.558,1321.52 C430.558,1319.44 429.979,1317.78 428.822,1316.54 C427.65,1315.28 426.105,1314.65 424.186,1314.65 C422.296,1314.65 420.765,1315.28 419.593,1316.54 C418.422,1317.8 417.836,1319.42 417.836,1321.41 M440.839,1310.78 L445.783,1310.78 L445.783,1312.69 C446.692,1311.74 447.497,1311.09 448.2,1310.74 C448.918,1310.37 449.768,1310.19 450.749,1310.19 C452.053,1310.19 453.415,1310.61 454.836,1311.46 L452.573,1315.99 C451.635,1315.31 450.72,1314.98 449.826,1314.98 C447.131,1314.98 445.783,1317.01 445.783,1321.08 L445.783,1332.18 L440.839,1332.18 L440.839,1310.78 "/>
<path class="Lyrics" d="M352.559,1347.74 L357.129,1349.5 C355.532,1353.32 354.412,1356.85 353.767,1360.09 C353.445,1361.73 353.203,1363.46 353.042,1365.27 C352.881,1367.07 352.8,1369.05 352.8,1371.19 C352.8,1373.34 352.881,1375.32 353.042,1377.13 C353.203,1378.94 353.445,1380.66 353.767,1382.31 C354.397,1385.53 355.518,1389.05 357.129,1392.87 L352.559,1394.63 C349.365,1387.94 347.769,1380.12 347.769,1371.19 C347.769,1362.25 349.365,1354.44 352.559,1347.74 M372.367,1356.09 L366.501,1356.09 L369.313,1351.3 L377.487,1351.3 L377.487,1385.23 L372.367,1385.23 L372.367,1356.09 M395.563,1394.63 L390.992,1392.87 C392.604,1389.05 393.724,1385.53 394.354,1382.31 C395.013,1379.08 395.343,1375.38 395.343,1371.19 C395.343,1367.03 395.013,1363.33 394.354,1360.09 C393.71,1356.85 392.589,1353.32 390.992,1349.5 L395.563,1347.74 C398.756,1354.44 400.353,1362.25 400.353,1371.19 C400.353,1380.12 398.756,1387.94 395.563,1394.63"/>
<path class="Lyrics" d="M805.765,1332.18 L805.765,1298.25 L812.884,1298.25 C816.297,1298.25 818.993,1298.59 820.97,1299.27 C823.094,1299.92 825.02,1301.05 826.749,1302.63 C830.25,1305.82 832,1310.02 832,1315.22 C832,1320.43 830.177,1324.65 826.529,1327.87 C824.698,1329.49 822.779,1330.61 820.772,1331.24 C818.897,1331.87 816.239,1332.18 812.796,1332.18 L805.765,1332.18 M810.885,1327.37 L813.192,1327.37 C815.492,1327.37 817.403,1327.13 818.927,1326.64 C820.45,1326.13 821.827,1325.32 823.057,1324.2 C825.577,1321.9 826.837,1318.91 826.837,1315.22 C826.837,1311.5 825.592,1308.48 823.101,1306.17 C820.86,1304.1 817.557,1303.07 813.192,1303.07 L810.885,1303.07 L810.885,1327.37 "/>
<path class="Lyrics" d="M852.057,1317.33 C852.057,1313.69 849.852,1311.35 847.152,1311.35 C843.327,1311.35 841.842,1313.6 841.212,1315.4 L841.212,1301.49 L838.557,1301.49 L838.557,1329.66 C844.227,1329.35 852.057,1326.87 852.057,1317.33 M848.817,1318.91 C848.817,1325.07 844.542,1327.32 841.212,1327.55 L841.212,1318.5 C841.212,1316.52 842.652,1313.51 845.847,1313.51 C847.692,1313.51 848.862,1315.89 848.862,1318.91 L848.817,1318.91 "/>
<path class="Lyrics" d="M873.226,1310.78 L878.17,1310.78 L878.17,1312.76 C879.122,1311.76 879.935,1311.09 880.609,1310.74 C881.327,1310.37 882.228,1310.19 883.312,1310.19 C885.729,1310.19 887.64,1311.24 889.047,1313.35 C890.599,1311.24 892.702,1310.19 895.353,1310.19 C900.172,1310.19 902.582,1313.11 902.582,1318.95 L902.582,1332.18 L897.616,1332.18 L897.616,1320.29 C897.616,1318.24 897.367,1316.79 896.869,1315.94 C896.356,1315.08 895.514,1314.65 894.342,1314.65 C892.98,1314.65 891.987,1315.16 891.365,1316.18 C890.742,1317.21 890.431,1318.86 890.431,1321.13 L890.431,1332.18 L885.465,1332.18 L885.465,1320.36 C885.465,1316.55 884.367,1314.65 882.169,1314.65 C880.778,1314.65 879.763,1315.17 879.126,1316.21 C878.489,1317.25 878.17,1318.89 878.17,1321.13 L878.17,1332.18 L873.226,1332.18 L873.226,1310.78 M924.597,1310.78 L929.562,1310.78 L929.562,1332.18 L924.597,1332.18 L924.597,1329.94 C922.56,1331.84 920.37,1332.8 918.027,1332.8 C915.068,1332.8 912.621,1331.73 910.688,1329.59 C908.769,1327.41 907.809,1324.68 907.809,1321.41 C907.809,1318.21 908.769,1315.53 910.688,1313.39 C912.607,1311.26 915.009,1310.19 917.895,1310.19 C920.385,1310.19 922.619,1311.21 924.597,1313.26 L924.597,1310.78 M912.863,1321.41 C912.863,1323.46 913.412,1325.13 914.511,1326.42 C915.639,1327.73 917.06,1328.38 918.774,1328.38 C920.605,1328.38 922.084,1327.75 923.212,1326.49 C924.34,1325.19 924.904,1323.53 924.904,1321.52 C924.904,1319.52 924.34,1317.86 923.212,1316.56 C922.084,1315.28 920.619,1314.65 918.818,1314.65 C917.118,1314.65 915.698,1315.29 914.555,1316.58 C913.427,1317.88 912.863,1319.5 912.863,1321.41 M941.295,1310.78 L941.295,1343.83 L936.351,1343.83 L936.351,1310.78 L941.295,1310.78 M935.604,1301.88 C935.604,1301.02 935.919,1300.27 936.549,1299.64 C937.179,1299.01 937.933,1298.69 938.812,1298.69 C939.706,1298.69 940.468,1299.01 941.097,1299.64 C941.727,1300.25 942.042,1301.01 942.042,1301.9 C942.042,1302.8 941.727,1303.56 941.097,1304.19 C940.482,1304.82 939.728,1305.13 938.834,1305.13 C937.941,1305.13 937.179,1304.82 936.549,1304.19 C935.919,1303.56 935.604,1302.79 935.604,1301.88 M946.544,1321.33 C946.544,1318.24 947.65,1315.61 949.862,1313.44 C952.074,1311.27 954.769,1310.19 957.948,1310.19 C961.141,1310.19 963.851,1311.28 966.077,1313.46 C968.275,1315.64 969.373,1318.32 969.373,1321.5 C969.373,1324.71 968.267,1327.4 966.056,1329.57 C963.829,1331.72 961.097,1332.8 957.86,1332.8 C954.652,1332.8 951.964,1331.7 949.796,1329.5 C947.628,1327.33 946.544,1324.61 946.544,1321.33 M951.597,1321.41 C951.597,1323.55 952.169,1325.24 953.311,1326.49 C954.483,1327.75 956.029,1328.38 957.948,1328.38 C959.881,1328.38 961.427,1327.76 962.584,1326.51 C963.741,1325.27 964.32,1323.6 964.32,1321.52 C964.32,1319.44 963.741,1317.78 962.584,1316.54 C961.412,1315.28 959.867,1314.65 957.948,1314.65 C956.058,1314.65 954.527,1315.28 953.355,1316.54 C952.183,1317.8 951.597,1319.42 951.597,1321.41 M974.601,1310.78 L979.545,1310.78 L979.545,1312.69 C980.453,1311.74 981.259,1311.09 981.962,1310.74 C982.68,1310.37 983.53,1310.19 984.511,1310.19 C985.815,1310.19 987.177,1310.61 988.598,1311.46 L986.335,1315.99 C985.397,1315.31 984.482,1314.98 983.588,1314.98 C980.893,1314.98 979.545,1317.01 979.545,1321.08 L979.545,1332.18 L974.601,1332.18 L974.601,1310.78 "/>
<path class="Lyrics" d="M875.399,1347.74 L879.969,1349.5 C878.372,1353.32 877.252,1356.85 876.607,1360.09 C876.285,1361.73 876.043,1363.46 875.882,1365.27 C875.721,1367.07 875.64,1369.05 875.64,1371.19 C875.64,1373.34 875.721,1375.32 875.882,1377.13 C876.043,1378.94 876.285,1380.66 876.607,1382.31 C877.237,1385.53 878.358,1389.05 879.969,1392.87 L875.399,1394.63 C872.205,1387.94 870.609,1380.12 870.609,1371.19 C870.609,1362.25 872.205,1354.44 875.399,1347.74 M895.207,1356.09 L889.341,1356.09 L892.153,1351.3 L900.327,1351.3 L900.327,1385.23 L895.207,1385.23 L895.207,1356.09 M918.403,1394.63 L913.832,1392.87 C915.444,1389.05 916.564,1385.53 917.194,1382.31 C917.853,1379.08 918.183,1375.38 918.183,1371.19 C918.183,1367.03 917.853,1363.33 917.194,1360.09 C916.55,1356.85 915.429,1353.32 913.832,1349.5 L918.403,1347.74 C921.596,1354.44 923.193,1362.25 923.193,1371.19 C923.193,1380.12 921.596,1387.94 918.403,1394.63"/>
<path class="Lyrics" d="M1339.54,1332.18 L1339.54,1298.25 L1346.66,1298.25 C1350.07,1298.25 1352.77,1298.59 1354.75,1299.27 C1356.87,1299.92 1358.8,1301.05 1360.53,1302.63 C1364.03,1305.82 1365.78,1310.02 1365.78,1315.22 C1365.78,1320.43 1363.95,1324.65 1360.31,1327.87 C1358.48,1329.49 1356.56,1330.61 1354.55,1331.24 C1352.67,1331.87 1350.02,1332.18 1346.57,1332.18 L1339.54,1332.18 M1344.66,1327.37 L1346.97,1327.37 C1349.27,1327.37 1351.18,1327.13 1352.7,1326.64 C1354.23,1326.13 1355.6,1325.32 1356.84,1324.2 C1359.35,1321.9 1360.61,1318.91 1360.61,1315.22 C1360.61,1311.5 1359.37,1308.48 1356.88,1306.17 C1354.64,1304.1 1351.33,1303.07 1346.97,1303.07 L1344.66,1303.07 L1344.66,1327.37 M1385.14,1310.78 L1390.09,1310.78 L1390.09,1312.76 C1391.04,1311.76 1391.85,1311.09 1392.53,1310.74 C1393.25,1310.37 1394.15,1310.19 1395.23,1310.19 C1397.65,1310.19 1399.56,1311.24 1400.96,1313.35 C1402.52,1311.24 1404.62,1310.19 1407.27,1310.19 C1412.09,1310.19 1414.5,1313.11 1414.5,1318.95 L1414.5,1332.18 L1409.53,1332.18 L1409.53,1320.29 C1409.53,1318.24 1409.29,1316.79 1408.79,1315.94 C1408.27,1315.08 1407.43,1314.65 1406.26,1314.65 C1404.9,1314.65 1403.91,1315.16 1403.28,1316.18 C1402.66,1317.21 1402.35,1318.86 1402.35,1321.13 L1402.35,1332.18 L1397.38,1332.18 L1397.38,1320.36 C1397.38,1316.55 1396.28,1314.65 1394.09,1314.65 C1392.7,1314.65 1391.68,1315.17 1391.04,1316.21 C1390.41,1317.25 1390.09,1318.89 1390.09,1321.13 L1390.09,1332.18 L1385.14,1332.18 L1385.14,1310.78 M1436.51,1310.78 L1441.48,1310.78 L1441.48,1332.18 L1436.51,1332.18 L1436.51,1329.94 C1434.48,1331.84 1432.29,1332.8 1429.94,1332.8 C1426.99,1332.8 1424.54,1331.73 1422.61,1329.59 C1420.69,1327.41 1419.73,1324.68 1419.73,1321.41 C1419.73,1318.21 1420.69,1315.53 1422.61,1313.39 C1424.52,1311.26 1426.93,1310.19 1429.81,1310.19 C1432.3,1310.19 1434.54,1311.21 1436.51,1313.26 L1436.51,1310.78 M1424.78,1321.41 C1424.78,1323.46 1425.33,1325.13 1426.43,1326.42 C1427.56,1327.73 1428.98,1328.38 1430.69,1328.38 C1432.52,1328.38 1434,1327.75 1435.13,1326.49 C1436.26,1325.19 1436.82,1323.53 1436.82,1321.52 C1436.82,1319.52 1436.26,1317.86 1435.13,1316.56 C1434,1315.28 1432.54,1314.65 1430.74,1314.65 C1429.04,1314.65 1427.62,1315.29 1426.47,1316.58 C1425.35,1317.88 1424.78,1319.5 1424.78,1321.41 M1453.21,1310.78 L1453.21,1343.83 L1448.27,1343.83 L1448.27,1310.78 L1453.21,1310.78 M1447.52,1301.88 C1447.52,1301.02 1447.84,1300.27 1448.47,1299.64 C1449.1,1299.01 1449.85,1298.69 1450.73,1298.69 C1451.62,1298.69 1452.39,1299.01 1453.02,1299.64 C1453.65,1300.25 1453.96,1301.01 1453.96,1301.9 C1453.96,1302.8 1453.65,1303.56 1453.02,1304.19 C1452.4,1304.82 1451.65,1305.13 1450.75,1305.13 C1449.86,1305.13 1449.1,1304.82 1448.47,1304.19 C1447.84,1303.56 1447.52,1302.79 1447.52,1301.88 M1458.46,1321.33 C1458.46,1318.24 1459.57,1315.61 1461.78,1313.44 C1463.99,1311.27 1466.69,1310.19 1469.87,1310.19 C1473.06,1310.19 1475.77,1311.28 1478,1313.46 C1480.19,1315.64 1481.29,1318.32 1481.29,1321.5 C1481.29,1324.71 1480.19,1327.4 1477.97,1329.57 C1475.75,1331.72 1473.02,1332.8 1469.78,1332.8 C1466.57,1332.8 1463.88,1331.7 1461.71,1329.5 C1459.55,1327.33 1458.46,1324.61 1458.46,1321.33 M1463.52,1321.41 C1463.52,1323.55 1464.09,1325.24 1465.23,1326.49 C1466.4,1327.75 1467.95,1328.38 1469.87,1328.38 C1471.8,1328.38 1473.34,1327.76 1474.5,1326.51 C1475.66,1325.27 1476.24,1323.6 1476.24,1321.52 C1476.24,1319.44 1475.66,1317.78 1474.5,1316.54 C1473.33,1315.28 1471.78,1314.65 1469.87,1314.65 C1467.98,1314.65 1466.45,1315.28 1465.27,1316.54 C1464.1,1317.8 1463.52,1319.42 1463.52,1321.41 M1486.52,1310.78 L1491.46,1310.78 L1491.46,1312.69 C1492.37,1311.74 1493.18,1311.09 1493.88,1310.74 C1494.6,1310.37 1495.45,1310.19 1496.43,1310.19 C1497.73,1310.19 1499.1,1310.61 1500.52,1311.46 L1498.25,1315.99 C1497.32,1315.31 1496.4,1314.98 1495.51,1314.98 C1492.81,1314.98 1491.46,1317.01 1491.46,1321.08 L1491.46,1332.18 L1486.52,1332.18 L1486.52,1310.78 "/>
<path class="Lyrics" d="M1398.24,1347.74 L1402.81,1349.5 C1401.21,1353.32 1400.09,1356.85 1399.45,1360.09 C1399.13,1361.73 1398.88,1363.46 1398.72,1365.27 C1398.56,1367.07 1398.48,1369.05 1398.48,1371.19 C1398.48,1373.34 1398.56,1375.32 1398.72,1377.13 C1398.88,1378.94 1399.13,1380.66 1399.45,1382.31 C1400.08,1385.53 1401.2,1389.05 1402.81,1392.87 L1398.24,1394.63 C1395.05,1387.94 1393.45,1380.12 1393.45,1371.19 C1393.45,1362.25 1395.05,1354.44 1398.24,1347.74 M1418.05,1356.09 L1412.18,1356.09 L1414.99,1351.3 L1423.17,1351.3 L1423.17,1385.23 L1418.05,1385.23 L1418.05,1356.09 M1441.24,1394.63 L1436.67,1392.87 C1438.28,1389.05 1439.4,1385.53 1440.03,1382.31 C1440.69,1379.08 1441.02,1375.38 1441.02,1371.19 C1441.02,1367.03 1440.69,1363.33 1440.03,1360.09 C1439.39,1356.85 1438.27,1353.32 1436.67,1349.5 L1441.24,1347.74 C1444.44,1354.44 1446.03,1362.25 1446.03,1371.19 C1446.03,1380.12 1444.44,1387.94 1441.24,1394.63"/>
<path class="NoteDot" transform="matrix(0.992126,0,0,0.992126,1448.25,1117.91)" d="M0,-0.00166016 C0,2.75977 2.23857,4.99834 5,4.99834 C7.76143,4.99834 10,2.75977 10,-0.00166016 C10,-2.76309 7.76143,-5.00166 5,-5.00166 C2.23857,-5.00166 0,-2.76309 0,-0.00166016"/>
</svg>
