<?xml version="1.0" encoding="UTF-8" standalone="no"?>
<svg width="2976.38px" height="4209.44px" viewBox="0 0 2976.38 4209.44"
 xmlns="http://www.w3.org/2000/svg" xmlns:xlink="http://www.w3.org/1999/xlink" version="1.2" baseProfile="tiny">
<title>tmpj92sysqc</title>
<desc>Generated by MuseScore 3.6.2</desc>
<polyline class="StaffLines" fill="none" stroke="#000000" stroke-width="2.73" stroke-linejoin="bevel" points="336.614,634.252 2763.78,634.252"/>
<polyline class="StaffLines" fill="none" stroke="#000000" stroke-width="2.73" stroke-linejoin="bevel" points="336.614,659.055 2763.78,659.055"/>
<polyline class="StaffLines" fill="none" stroke="#000000" stroke-width="2.73" stroke-linejoin="bevel" points="336.614,683.858 2763.78,683.858"/>
<polyline class="StaffLines" fill="none" stroke="#000000" stroke-width="2.73" stroke-linejoin="bevel" points="336.614,708.661 2763.78,708.661"/>
<polyline class="StaffLines" fill="none" stroke="#000000" stroke-width="2.73" stroke-linejoin="bevel" points="336.614,733.465 2763.78,733.465"/>
<path class="Text" d="M1244.92,466.537 L1244.92,398.685 L1255.11,398.685 C1259.65,398.685 1263.27,399.037 1265.97,399.74 C1268.69,400.443 1270.99,401.629 1272.86,403.299 C1274.77,405.028 1276.28,407.181 1277.39,409.759 C1278.53,412.367 1279.11,415.003 1279.11,417.669 C1279.11,422.533 1277.24,426.649 1273.52,430.018 C1277.13,431.249 1279.97,433.402 1282.05,436.478 C1284.16,439.525 1285.21,443.07 1285.21,447.113 C1285.21,452.416 1283.34,456.898 1279.59,460.56 C1277.33,462.816 1274.8,464.383 1271.99,465.262 C1268.91,466.112 1265.06,466.537 1260.43,466.537 L1244.92,466.537 M1255.16,427.821 L1258.36,427.821 C1262.17,427.821 1264.96,426.978 1266.73,425.294 C1268.51,423.609 1269.39,421.126 1269.39,417.845 C1269.39,414.652 1268.49,412.228 1266.67,410.572 C1264.85,408.917 1262.22,408.089 1258.76,408.089 L1255.16,408.089 L1255.16,427.821 M1255.16,456.913 L1261.48,456.913 C1266.11,456.913 1269.51,456.004 1271.68,454.188 C1273.96,452.225 1275.11,449.735 1275.11,446.717 C1275.11,443.788 1274.01,441.327 1271.81,439.334 C1269.67,437.372 1265.85,436.39 1260.34,436.39 L1255.16,436.39 L1255.16,456.913 M1327.78,423.734 L1337.71,423.734 L1337.71,466.537 L1327.78,466.537 L1327.78,462.054 C1323.71,465.863 1319.33,467.767 1314.64,467.767 C1308.72,467.767 1303.83,465.628 1299.96,461.351 C1296.13,456.986 1294.21,451.537 1294.21,445.003 C1294.21,438.587 1296.13,433.241 1299.96,428.963 C1303.8,424.686 1308.61,422.547 1314.38,422.547 C1319.36,422.547 1323.83,424.598 1327.78,428.7 L1327.78,423.734 M1304.32,445.003 C1304.32,449.105 1305.41,452.445 1307.61,455.023 C1309.87,457.63 1312.71,458.934 1316.14,458.934 C1319.8,458.934 1322.76,457.674 1325.01,455.155 C1327.27,452.547 1328.4,449.237 1328.4,445.223 C1328.4,441.209 1327.27,437.899 1325.01,435.291 C1322.76,432.743 1319.83,431.468 1316.22,431.468 C1312.83,431.468 1309.98,432.757 1307.7,435.335 C1305.44,437.943 1304.32,441.166 1304.32,445.003 M1350.18,423.734 L1360.07,423.734 L1360.07,427.557 C1361.89,425.653 1363.5,424.349 1364.9,423.646 C1366.34,422.914 1368.04,422.547 1370,422.547 C1372.61,422.547 1375.33,423.397 1378.18,425.096 L1373.65,434.149 C1371.77,432.801 1369.94,432.127 1368.16,432.127 C1362.77,432.127 1360.07,436.2 1360.07,444.344 L1360.07,466.537 L1350.18,466.537 L1350.18,423.734 M1385.2,423.734 L1395.09,423.734 L1395.09,427.557 C1396.9,425.653 1398.51,424.349 1399.92,423.646 C1401.36,422.914 1403.05,422.547 1405.02,422.547 C1407.62,422.547 1410.35,423.397 1413.19,425.096 L1408.66,434.149 C1406.79,432.801 1404.96,432.127 1403.17,432.127 C1397.78,432.127 1395.09,436.2 1395.09,444.344 L1395.09,466.537 L1385.2,466.537 L1385.2,423.734 M1436.3,458.582 L1417.05,423.734 L1428.52,423.734 L1441.62,448.343 L1453.83,423.734 L1464.99,423.734 L1430.89,489.828 L1419.6,489.828 L1436.3,458.582 M1511.61,425.228 L1540.88,425.228 L1540.88,398.685 L1551.11,398.685 L1551.11,466.537 L1540.88,466.537 L1540.88,434.852 L1511.61,434.852 L1511.61,466.537 L1501.37,466.537 L1501.37,398.685 L1511.61,398.685 L1511.61,425.228 M1597.03,423.734 L1606.96,423.734 L1606.96,466.537 L1597.03,466.537 L1597.03,462.054 C1592.96,465.863 1588.58,467.767 1583.89,467.767 C1577.97,467.767 1573.08,465.628 1569.21,461.351 C1565.38,456.986 1563.46,451.537 1563.46,445.003 C1563.46,438.587 1565.38,433.241 1569.21,428.963 C1573.05,424.686 1577.86,422.547 1583.63,422.547 C1588.61,422.547 1593.08,424.598 1597.03,428.7 L1597.03,423.734 M1573.57,445.003 C1573.57,449.105 1574.66,452.445 1576.86,455.023 C1579.12,457.63 1581.96,458.934 1585.39,458.934 C1589.05,458.934 1592.01,457.674 1594.26,455.155 C1596.52,452.547 1597.65,449.237 1597.65,445.223 C1597.65,441.209 1596.52,437.899 1594.26,435.291 C1592.01,432.743 1589.08,431.468 1585.47,431.468 C1582.08,431.468 1579.23,432.757 1576.95,435.335 C1574.69,437.943 1573.57,441.166 1573.57,445.003 M1619.43,423.734 L1629.32,423.734 L1629.32,427.557 C1631.14,425.653 1632.75,424.349 1634.15,423.646 C1635.59,422.914 1637.29,422.547 1639.25,422.547 C1641.86,422.547 1644.58,423.397 1647.43,425.096 L1642.9,434.149 C1641.02,432.801 1639.19,432.127 1637.41,432.127 C1632.02,432.127 1629.32,436.2 1629.32,444.344 L1629.32,466.537 L1619.43,466.537 L1619.43,423.734 M1654.45,423.734 L1664.34,423.734 L1664.34,427.557 C1666.15,425.653 1667.76,424.349 1669.17,423.646 C1670.61,422.914 1672.3,422.547 1674.27,422.547 C1676.87,422.547 1679.6,423.397 1682.44,425.096 L1677.91,434.149 C1676.04,432.801 1674.21,432.127 1672.42,432.127 C1667.03,432.127 1664.34,436.2 1664.34,444.344 L1664.34,466.537 L1654.45,466.537 L1654.45,423.734 M1699.35,423.734 L1699.35,466.537 L1689.46,466.537 L1689.46,423.734 L1699.35,423.734 M1687.97,405.936 C1687.97,404.207 1688.6,402.713 1689.86,401.454 C1691.12,400.194 1692.63,399.564 1694.39,399.564 C1696.17,399.564 1697.7,400.194 1698.96,401.454 C1700.22,402.684 1700.85,404.193 1700.85,405.98 C1700.85,407.767 1700.22,409.291 1698.96,410.55 C1697.73,411.81 1696.22,412.44 1694.43,412.44 C1692.64,412.44 1691.12,411.81 1689.86,410.55 C1688.6,409.291 1687.97,407.752 1687.97,405.936 M1736.74,431.029 L1728.57,435.379 C1727.28,432.743 1725.68,431.424 1723.78,431.424 C1722.87,431.424 1722.09,431.725 1721.45,432.325 C1720.81,432.926 1720.48,433.695 1720.48,434.632 C1720.48,436.273 1722.39,437.899 1726.2,439.51 C1731.44,441.766 1734.97,443.846 1736.79,445.75 C1738.6,447.655 1739.51,450.218 1739.51,453.441 C1739.51,457.572 1737.99,461.029 1734.94,463.812 C1731.98,466.449 1728.41,467.767 1724.22,467.767 C1717.04,467.767 1711.96,464.266 1708.97,457.264 L1717.41,453.353 C1718.58,455.404 1719.47,456.707 1720.09,457.264 C1721.29,458.377 1722.72,458.934 1724.39,458.934 C1727.73,458.934 1729.4,457.411 1729.4,454.364 C1729.4,452.606 1728.11,450.965 1725.54,449.442 C1724.54,448.944 1723.54,448.46 1722.55,447.992 C1721.55,447.523 1720.54,447.04 1719.52,446.541 C1716.65,445.135 1714.62,443.729 1713.45,442.323 C1711.96,440.536 1711.21,438.236 1711.21,435.423 C1711.21,431.703 1712.49,428.626 1715.03,426.195 C1717.64,423.763 1720.81,422.547 1724.53,422.547 C1730,422.547 1734.08,425.374 1736.74,431.029"/>
<polyline class="BarLine" fill="none" stroke="#000000" stroke-width="4.46" stroke-linejoin="bevel" points="1867.59,632.888 1867.59,734.829"/>
<polyline class="BarLine" fill="none" stroke="#000000" stroke-width="4.46" stroke-linejoin="bevel" points="2739.59,632.888 2739.59,734.829"/>
<polyline class="BarLine" fill="none" stroke="#000000" stroke-width="13.64" stroke-linejoin="bevel" points="2756.96,632.888 2756.96,734.829"/>
<path class="Accidental" transform="matrix(0.992126,0,0,0.992126,519.468,597.047)" d="M20.1,-7.9 C19.5,-11.8 17.1,-15.5 12,-15.5 C7,-15.5 4.1,-12.4 3.6,-11.8 L4,-43.9 C4,-44.7 3.4,-45.3 2.6,-45.3 L1.4,-45.3 C0.6,-45.3 0,-44.7 0,-43.9 L0.5,16.2 C0.5,17 1.1,17.6 1.9,17.6 C2.1,17.6 2.5,17.5 2.7,17.4 C3.1,17.2 9.6,14 15,7.9 C18.8,3.6 20.3,-1.3 20.3,-5.4 C20.3,-6.3 20.2,-7.1 20.1,-7.9 M13.2,-4 C13.2,-2.5 12.8,2.1 10.3,5.9 C8.6,8.5 5.2,11.2 3.3,12.7 L3.6,-6.8 C3.8,-7.7 5.3,-10.6 9.3,-10.6 C12.9,-10.6 13.2,-7.2 13.2,-5.1 L13.2,-4 "/>
<path class="Accidental" transform="matrix(0.992126,0,0,0.992126,851.798,621.85)" d="M23.3,-10.6 C23.9,-10.7 24.4,-11.4 24.4,-12 L24.4,-17.9 C24.4,-18.7 23.8,-19.3 23,-19.3 L22.8,-19.3 L19.5,-18.6 L19.5,-33.5 L16.7,-33.5 L16.7,-18 L7.8,-16.2 L7.8,-30.3 L5,-30.3 L5,-15.6 L1.1,-14.8 C0.5,-14.7 0,-14 0,-13.4 L0,-13.2 L0,-7.4 L0,-7.6 C0,-6.8 0.6,-6.2 1.4,-6.2 L1.7,-6.2 L5,-6.9 L5,9.6 L1.1,10.4 C0.5,10.5 0,11.2 0,11.8 L0,17.6 C0,18.4 0.6,19 1.4,19 L1.7,19 L5,18.3 L5,33.2 L7.8,33.2 L7.8,17.7 L16.7,15.9 L16.7,30 L19.5,30 L19.5,15.3 L23.3,14.6 C23.9,14.5 24.4,13.8 24.4,13.2 L24.4,7.3 C24.4,6.5 23.8,5.9 23,5.9 L22.8,5.9 L19.5,6.6 L19.5,-9.9 L23.3,-10.6 M7.8,9.1 L7.8,-7.5 L16.7,-9.3 L16.7,7.2 L7.8,9.1 "/>
<path class="Accidental" transform="matrix(0.992126,0,0,0.992126,1022.9,621.85)" d="M16.6,-18.3 C16.4,-18.5 16.1,-18.6 15.8,-18.6 C15.7,-18.6 15.5,-18.5 15.4,-18.5 L2.8,-15 L2.8,-32.5 L0,-32.5 L0,17 C0,17.8 0.6,18.3 1.4,18.3 L1.8,18.3 L14.4,14.8 L14.4,32.3 L17.1,32.3 L17.1,-17.2 C17.1,-17.6 16.9,-18.1 16.6,-18.3 M14.4,6.5 L2.8,9.7 L2.8,-6.7 L14.4,-10 L14.4,6.5 "/>
<path class="Accidental" transform="matrix(0.992126,0,0,0.992126,2055.2,671.457)" d="M23.3,-10.6 C23.9,-10.7 24.4,-11.4 24.4,-12 L24.4,-17.9 C24.4,-18.7 23.8,-19.3 23,-19.3 L22.8,-19.3 L19.5,-18.6 L19.5,-33.5 L16.7,-33.5 L16.7,-18 L7.8,-16.2 L7.8,-30.3 L5,-30.3 L5,-15.6 L1.1,-14.8 C0.5,-14.7 0,-14 0,-13.4 L0,-13.2 L0,-7.4 L0,-7.6 C0,-6.8 0.6,-6.2 1.4,-6.2 L1.7,-6.2 L5,-6.9 L5,9.6 L1.1,10.4 C0.5,10.5 0,11.2 0,11.8 L0,17.6 C0,18.4 0.6,19 1.4,19 L1.7,19 L5,18.3 L5,33.2 L7.8,33.2 L7.8,17.7 L16.7,15.9 L16.7,30 L19.5,30 L19.5,15.3 L23.3,14.6 C23.9,14.5 24.4,13.8 24.4,13.2 L24.4,7.3 C24.4,6.5 23.8,5.9 23,5.9 L22.8,5.9 L19.5,6.6 L19.5,-9.9 L23.3,-10.6 M7.8,9.1 L7.8,-7.5 L16.7,-9.3 L16.7,7.2 L7.8,9.1 "/>
<polyline class="LedgerLine" fill="none" stroke="#000000" stroke-width="3.97" stroke-linejoin="bevel" points="545.805,609.449 595.404,609.449"/>
<polyline class="LedgerLine" fill="none" stroke="#000000" stroke-width="3.97" stroke-linejoin="bevel" points="709.665,609.449 759.263,609.449"/>
<polyline class="Stem" fill="none" stroke="#000000" stroke-width="2.73" stroke-linejoin="bevel" points="555.851,600.381 555.851,677.657"/>
<polyline class="Stem" fill="none" stroke="#000000" stroke-width="2.73" stroke-linejoin="bevel" points="719.71,612.782 719.71,683.858"/>
<polyline class="Stem" fill="none" stroke="#000000" stroke-width="2.73" stroke-linejoin="bevel" points="883.569,625.184 883.569,702.461"/>
<polyline class="Stem" fill="none" stroke="#000000" stroke-width="2.73" stroke-linejoin="bevel" points="1047.43,625.184 1047.43,702.461"/>
<polyline class="Stem" fill="none" stroke="#000000" stroke-width="2.73" stroke-linejoin="bevel" points="1211.29,637.585 1211.29,708.661"/>
<polyline class="Stem" fill="none" stroke="#000000" stroke-width="2.73" stroke-linejoin="bevel" points="1375.15,625.184 1375.15,702.461"/>
<polyline class="Stem" fill="none" stroke="#000000" stroke-width="2.73" stroke-linejoin="bevel" points="1539.01,637.585 1539.01,708.661"/>
<polyline class="Stem" fill="none" stroke="#000000" stroke-width="2.73" stroke-linejoin="bevel" points="1702.87,649.987 1702.87,714.862"/>
<polyline class="Stem" fill="none" stroke="#000000" stroke-width="2.73" stroke-linejoin="bevel" points="1903.43,662.389 1903.43,733.465"/>
<polyline class="Stem" fill="none" stroke="#000000" stroke-width="2.73" stroke-linejoin="bevel" points="2086.98,674.79 2086.98,739.665"/>
<polyline class="Stem" fill="none" stroke="#000000" stroke-width="2.73" stroke-linejoin="bevel" points="2270.52,662.389 2270.52,742.766"/>
<path class="Note" transform="matrix(0.992126,0,0,0.992126,554.487,597.047)" d="M31.5,-8.1 C29.7,-11.4 25.9,-13.2 21.3,-13.2 C17.9,-13.2 14.2,-12.2 10.6,-10.3 C4,-6.8 0,-0.9 0,4.2 C0,5.6 0.3,7 1,8.3 C2.8,11.6 6.6,13.3 11.2,13.3 C14.6,13.3 18.3,12.4 21.9,10.5 C28.5,7 32.5,1.1 32.5,-4 C32.5,-5.4 32.2,-6.8 31.5,-8.1"/>
<path class="Note" transform="matrix(0.992126,0,0,0.992126,718.346,609.449)" d="M31.5,-8.1 C29.7,-11.4 25.9,-13.2 21.3,-13.2 C17.9,-13.2 14.2,-12.2 10.6,-10.3 C4,-6.8 0,-0.9 0,4.2 C0,5.6 0.3,7 1,8.3 C2.8,11.6 6.6,13.3 11.2,13.3 C14.6,13.3 18.3,12.4 21.9,10.5 C28.5,7 32.5,1.1 32.5,-4 C32.5,-5.4 32.2,-6.8 31.5,-8.1"/>
<path class="Note" transform="matrix(0.992126,0,0,0.992126,882.205,621.85)" d="M31.5,-8.1 C29.7,-11.4 25.9,-13.2 21.3,-13.2 C17.9,-13.2 14.2,-12.2 10.6,-10.3 C4,-6.8 0,-0.9 0,4.2 C0,5.6 0.3,7 1,8.3 C2.8,11.6 6.6,13.3 11.2,13.3 C14.6,13.3 18.3,12.4 21.9,10.5 C28.5,7 32.5,1.1 32.5,-4 C32.5,-5.4 32.2,-6.8 31.5,-8.1"/>
<path class="Note" transform="matrix(0.992126,0,0,0.992126,1046.06,621.85)" d="M31.5,-8.1 C29.7,-11.4 25.9,-13.2 21.3,-13.2 C17.9,-13.2 14.2,-12.2 10.6,-10.3 C4,-6.8 0,-0.9 0,4.2 C0,5.6 0.3,7 1,8.3 C2.8,11.6 6.6,13.3 11.2,13.3 C14.6,13.3 18.3,12.4 21.9,10.5 C28.5,7 32.5,1.1 32.5,-4 C32.5,-5.4 32.2,-6.8 31.5,-8.1"/>
<path class="Note" transform="matrix(0.992126,0,0,0.992126,1209.92,634.252)" d="M31.5,-8.1 C29.7,-11.4 25.9,-13.2 21.3,-13.2 C17.9,-13.2 14.2,-12.2 10.6,-10.3 C4,-6.8 0,-0.9 0,4.2 C0,5.6 0.3,7 1,8.3 C2.8,11.6 6.6,13.3 11.2,13.3 C14.6,13.3 18.3,12.4 21.9,10.5 C28.5,7 32.5,1.1 32.5,-4 C32.5,-5.4 32.2,-6.8 31.5,-8.1"/>
<path class="Note" transform="matrix(0.992126,0,0,0.992126,1373.78,621.85)" d="M31.5,-8.1 C29.7,-11.4 25.9,-13.2 21.3,-13.2 C17.9,-13.2 14.2,-12.2 10.6,-10.3 C4,-6.8 0,-0.9 0,4.2 C0,5.6 0.3,7 1,8.3 C2.8,11.6 6.6,13.3 11.2,13.3 C14.6,13.3 18.3,12.4 21.9,10.5 C28.5,7 32.5,1.1 32.5,-4 C32.5,-5.4 32.2,-6.8 31.5,-8.1"/>
<path class="Note" transform="matrix(0.992126,0,0,0.992126,1537.64,634.252)" d="M31.5,-8.1 C29.7,-11.4 25.9,-13.2 21.3,-13.2 C17.9,-13.2 14.2,-12.2 10.6,-10.3 C4,-6.8 0,-0.9 0,4.2 C0,5.6 0.3,7 1,8.3 C2.8,11.6 6.6,13.3 11.2,13.3 C14.6,13.3 18.3,12.4 21.9,10.5 C28.5,7 32.5,1.1 32.5,-4 C32.5,-5.4 32.2,-6.8 31.5,-8.1"/>
<path class="Note" transform="matrix(0.992126,0,0,0.992126,1701.5,646.653)" d="M31.5,-8.1 C29.7,-11.4 25.9,-13.2 21.3,-13.2 C17.9,-13.2 14.2,-12.2 10.6,-10.3 C4,-6.8 0,-0.9 0,4.2 C0,5.6 0.3,7 1,8.3 C2.8,11.6 6.6,13.3 11.2,13.3 C14.6,13.3 18.3,12.4 21.9,10.5 C28.5,7 32.5,1.1 32.5,-4 C32.5,-5.4 32.2,-6.8 31.5,-8.1"/>
<path class="Note" transform="matrix(0.992126,0,0,0.992126,1902.07,659.055)" d="M31.5,-8.1 C29.7,-11.4 25.9,-13.2 21.3,-13.2 C17.9,-13.2 14.2,-12.2 10.6,-10.3 C4,-6.8 0,-0.9 0,4.2 C0,5.6 0.3,7 1,8.3 C2.8,11.6 6.6,13.3 11.2,13.3 C14.6,13.3 18.3,12.4 21.9,10.5 C28.5,7 32.5,1.1 32.5,-4 C32.5,-5.4 32.2,-6.8 31.5,-8.1"/>
<path class="Note" transform="matrix(0.992126,0,0,0.992126,2085.61,671.457)" d="M31.5,-8.1 C29.7,-11.4 25.9,-13.2 21.3,-13.2 C17.9,-13.2 14.2,-12.2 10.6,-10.3 C4,-6.8 0,-0.9 0,4.2 C0,5.6 0.3,7 1,8.3 C2.8,11.6 6.6,13.3 11.2,13.3 C14.6,13.3 18.3,12.4 21.9,10.5 C28.5,7 32.5,1.1 32.5,-4 C32.5,-5.4 32.2,-6.8 31.5,-8.1"/>
<path class="Note" transform="matrix(0.992126,0,0,0.992126,2269.15,659.055)" d="M31.5,-8.1 C29.7,-11.4 25.9,-13.2 21.3,-13.2 C17.9,-13.2 14.2,-12.2 10.6,-10.3 C4,-6.8 0,-0.9 0,4.2 C0,5.6 0.3,7 1,8.3 C2.8,11.6 6.6,13.3 11.2,13.3 C14.6,13.3 18.3,12.4 21.9,10.5 C28.5,7 32.5,1.1 32.5,-4 C32.5,-5.4 32.2,-6.8 31.5,-8.1 M27.2,-1.3 C25.5,0.4 22.1,2.5 18.5,4.5 C14.9,6.5 11.3,8 8.9,8.5 C8.4,8.6 7.9,8.7 7.4,8.7 C5.8,8.7 4.6,8.1 3.9,6.8 C3.6,6.3 3.4,5.7 3.4,5.1 C3.4,4 4.1,2.7 5.2,1.6 C6.9,-0.1 10.2,-2.2 13.8,-4.2 C17.4,-6.2 21,-7.7 23.4,-8.2 C23.9,-8.3 24.4,-8.4 24.9,-8.4 C26.5,-8.4 27.8,-7.8 28.5,-6.5 C28.8,-6 28.9,-5.4 28.9,-4.8 C28.9,-3.7 28.3,-2.5 27.2,-1.3"/>
<path class="Clef" transform="matrix(0.992126,0,0,0.992126,356.457,708.661)" d="M63.35,-5.86992 C62.12,-11.3 59.48,-15.1199 58.7,-16.16 C55.51,-20.43 51.5,-23.28 46.81,-24.63 C43.7,-25.5199 40.7,-25.63 38.28,-25.45 C37.24,-31.46 36.24,-37.3399 35.33,-42.7899 C40.78,-48.96 44.4,-54.76 46.68,-59.06 C50.15,-65.6399 51.3,-70.2199 51.35,-70.4199 C53.07,-75.63 53.43,-83.33 52.33,-91.5399 C51.32,-99.0899 49.23,-105.8 46.88,-109.05 C45.85,-110.48 44.8,-111.21 43.76,-111.21 C42.54,-111.21 40.03,-109.97 37.14,-107.2 C34.84,-105 31.57,-101.11 29.01,-95.1 C26.01,-88.0399 25.8,-78.55 26.15,-71.83 C26.53,-64.56 27.64,-58.8699 27.65,-58.8199 C27.67,-58.73 27.93,-57.23 28.38,-54.66 C28.15,-54.43 27.91,-54.21 27.66,-53.9699 C26.62,-52.9699 25.43,-51.83 24.05,-50.45 C23.19,-49.5899 22.24,-48.68 21.24,-47.71 C12.79,-39.5699 0,-27.25 0,-8.1 C0,-3.4 0.9,1.02002 2.67998,5.03008 C4.27002,8.63008 6.57002,11.9101 9.5,14.7801 C17.23,22.3301 27.82,25.54 34.88,25.3801 C37.83,25.3101 40.46,25.07 42.85,24.62 C44.68,34.22 45.82,41.25 45.86,46.59 C45.9,53.1 44.25,57.07 40.35,59.84 C37.92,61.57 35.11,62.52 32.01,62.67 C29.42,62.79 27.16,62.32 25.73,61.9101 L25.72,61.9101 C25.72,61.9101 25.43,61.8301 25.42,61.6301 C25.41,61.45 25.76,61.4 25.77,61.4 L25.79,61.4 C27.71,60.9601 31.28,59.7301 33.64,56.4301 C35.44,53.9101 36.31,49.29 34.47,45.35 C33.36,42.9601 30.85,40.0101 25.23,39.5601 C22.74,39.3601 20.47,39.87 18.47,41.07 C16.66,42.15 15.16,43.79 14.11,45.79 C11.65,50.49 12.11,56.22 15.24,60.0601 C18.2,63.6801 22.82,65.99 28.25,66.57 C29.1,66.6601 29.95,66.7 30.8,66.7 C35.23,66.7 39.63,65.5 43.2,63.29 C46.86,60.72 48.98,56.74 49.66,51.1101 C50.22,46.47 49.83,40.5601 48.43,32.49 C48.07,30.4 47.53,27.37 46.87,23.6101 C52.62,21.69 56.78,18.12 60.55,12.27 C63.84,6.53008 64.78,0.430078 63.35,-5.86992 M29.14,20.32 C24.5,19.1 20.07,16.6 16.31,13.1 C15,11.87 13.13,9.7 11.66,6.31006 C10.29,3.15 9.62998,-0.27998 9.67998,-3.86992 C9.75,-8.55996 11.06,-13.38 13.57,-18.1699 C16.49,-23.75 21.05,-29.28 27.11,-34.61 C28.56,-35.8899 29.93,-37.1699 31.22,-38.45 C31.98,-34.1899 32.81,-29.5 33.69,-24.6199 C29.84,-23.35 25.09,-20.2 21.98,-14.55 C18.44,-7.97998 18.58,-2.45996 19.31,1.02002 C20.25,5.48008 22.78,9.24004 26.24,11.3301 C27.17,11.89 31.3,14.02 33.14,13.44 C33.51,13.32 33.78,13.1 33.92,12.77 C34.43,11.6 33.41,10.9601 31.85,10 C31.25,9.63008 30.58,9.21006 29.85,8.68008 C26.53,6.19004 25.08,1.74004 26.15,-2.63994 C26.73,-5.03994 28.01,-7.2 29.85,-8.9 C31.52,-10.45 33.56,-11.55 35.94,-12.1899 C37.98,-0.95 40.04,10.2 41.68,18.5601 C41.81,19.25 41.95,19.92 42.08,20.59 C37.7,21.52 33.35,21.4301 29.14,20.32 M40.46,-12.86 C50.81,-13.33 55.08,-5.88994 55.97,-1.05996 C56.44,1.47002 56.43,5.91006 54.89,10.12 C53.72,13.3 51.26,17.37 46.13,19.4301 C46.06,19.0101 45.98,18.5801 45.9,18.15 C44.36,9.38008 42.42,-1.60996 40.46,-12.86 M33.14,-83.8 C34.92,-89.5399 37.66,-92.7899 39.65,-94.5199 C41.4,-96.0399 43.05,-96.75 43.97,-96.75 C44.11,-96.75 44.23,-96.73 44.33,-96.7 C44.79,-96.56 45.32,-95.9899 45.79,-95.1199 C48.1,-90.83 47.36,-84.1199 46.02,-79.68 C44.39,-74.28 41.47,-68.66 32.67,-59.05 C32.5,-60.16 32.34,-61.21 32.19,-62.1899 C30.94,-70.48 31.26,-77.75 33.14,-83.8"/>
<path class="TimeSig" transform="matrix(0.992126,0,0,0.992126,443.376,659.187)" d="M3.59004,12.65 L20.77,12.65 L20.77,20.07 L12.54,20.07 C11.7601,20.07 11.1301,20.7 11.1301,21.48 L11.1301,23.39 C11.1301,24.17 11.7601,24.8 12.54,24.8 L42.79,24.8 C43.57,24.8 44.2,24.17 44.2,23.39 L44.2,21.48 C44.2,20.7 43.57,20.07 42.79,20.07 L33.85,20.07 L33.85,12.65 L42.79,12.65 C43.57,12.65 44.2,12.02 44.2,11.24 L44.2,9.32998 C44.2,8.55 43.57,7.92002 42.79,7.92002 L33.85,7.92002 L33.85,-8.04004 C33.85,-8.57998 33.55,-9.05996 33.07,-9.3 L31.8601,-9.9 C31.3301,-10.16 30.7,-10.07 30.27,-9.67002 L21.22,-1.35 C20.9301,-1.07998 20.7601,-0.709961 20.7601,-0.309961 L20.7601,7.92002 L9.25,7.92002 C9.25,7.92002 20.37,-4.10996 32.2101,-19.88 C33.0801,-21.03 32.5801,-22.08 32.39,-22.27 L30.22,-24.48 C29.95,-24.74 29.59,-24.89 29.22,-24.89 C28.62,-24.89 15.07,-24.87 14.35,-24.89 C13.6301,-24.91 13.09,-24.29 13.02,-23.67 C13.02,-23.67 12.4801,-16.31 9.88008,-8.17998 C7.28008,-0.0599609 4.34004,4.92002 1.68008,8.55 C1.68008,8.55 1.14004,9.54004 1.5,10.28 C1.85,11.03 2.48008,12.12 2.48008,12.12 C2.48008,12.12 2.74004,12.65 3.59004,12.65"/>
<path class="TimeSig" transform="matrix(0.992126,0,0,0.992126,443.376,708.53)" d="M3.59004,12.65 L20.77,12.65 L20.77,20.07 L12.54,20.07 C11.7601,20.07 11.1301,20.7 11.1301,21.48 L11.1301,23.39 C11.1301,24.17 11.7601,24.8 12.54,24.8 L42.79,24.8 C43.57,24.8 44.2,24.17 44.2,23.39 L44.2,21.48 C44.2,20.7 43.57,20.07 42.79,20.07 L33.85,20.07 L33.85,12.65 L42.79,12.65 C43.57,12.65 44.2,12.02 44.2,11.24 L44.2,9.32998 C44.2,8.55 43.57,7.92002 42.79,7.92002 L33.85,7.92002 L33.85,-8.04004 C33.85,-8.57998 33.55,-9.05996 33.07,-9.3 L31.8601,-9.9 C31.3301,-10.16 30.7,-10.07 30.27,-9.67002 L21.22,-1.35 C20.9301,-1.07998 20.7601,-0.709961 20.7601,-0.309961 L20.7601,7.92002 L9.25,7.92002 C9.25,7.92002 20.37,-4.10996 32.2101,-19.88 C33.0801,-21.03 32.5801,-22.08 32.39,-22.27 L30.22,-24.48 C29.95,-24.74 29.59,-24.89 29.22,-24.89 C28.62,-24.89 15.07,-24.87 14.35,-24.89 C13.6301,-24.91 13.09,-24.29 13.02,-23.67 C13.02,-23.67 12.4801,-16.31 9.88008,-8.17998 C7.28008,-0.0599609 4.34004,4.92002 1.68008,8.55 C1.68008,8.55 1.14004,9.54004 1.5,10.28 C1.85,11.03 2.48008,12.12 2.48008,12.12 C2.48008,12.12 2.74004,12.65 3.59004,12.65"/>
<path class="Beam" fill-rule="evenodd" d="M554.487,671.452 L721.074,677.756 L721.074,690.167 L554.487,683.863 L554.487,671.452 "/>
<path class="Beam" fill-rule="evenodd" d="M882.205,696.26 L1048.79,696.26 L1048.79,708.661 L882.205,708.661 L882.205,696.26 "/>
<path class="Beam" fill-rule="evenodd" d="M1209.92,702.456 L1376.51,696.152 L1376.51,708.563 L1209.92,714.867 L1209.92,702.456 "/>
<path class="Beam" fill-rule="evenodd" d="M1537.64,702.456 L1704.23,708.76 L1704.23,721.171 L1537.64,714.867 L1537.64,702.456 "/>
<path class="Beam" fill-rule="evenodd" d="M1902.07,727.26 L2088.34,733.553 L2088.34,745.962 L1902.07,739.669 L1902.07,727.26 "/>
<path class="Lyrics" d="M449.292,867.561 L449.292,829.866 L454.956,829.866 C457.479,829.866 459.489,830.061 460.986,830.452 C462.5,830.843 463.778,831.502 464.819,832.43 C465.877,833.39 466.715,834.586 467.334,836.018 C467.969,837.467 468.286,838.932 468.286,840.413 C468.286,843.115 467.253,845.402 465.185,847.273 C467.187,847.957 468.766,849.153 469.922,850.862 C471.094,852.555 471.68,854.524 471.68,856.77 C471.68,859.716 470.638,862.207 468.555,864.241 C467.301,865.494 465.894,866.365 464.331,866.853 C462.622,867.325 460.482,867.561 457.91,867.561 L449.292,867.561 M454.98,846.053 L456.763,846.053 C458.879,846.053 460.429,845.585 461.414,844.649 C462.398,843.713 462.891,842.334 462.891,840.511 C462.891,838.737 462.386,837.39 461.377,836.47 C460.368,835.551 458.903,835.091 456.982,835.091 L454.98,835.091 L454.98,846.053 M454.98,862.215 L458.496,862.215 C461.068,862.215 462.956,861.71 464.16,860.701 C465.43,859.611 466.064,858.227 466.064,856.551 C466.064,854.923 465.454,853.556 464.233,852.449 C463.045,851.359 460.921,850.813 457.861,850.813 L454.98,850.813 L454.98,862.215 "/>
<path class="Lyrics" d="M493.988,851.061 C493.988,847.011 491.538,844.411 488.538,844.411 C484.288,844.411 482.638,846.911 481.938,848.911 L481.938,833.461 L478.988,833.461 L478.988,864.761 C485.288,864.411 493.988,861.661 493.988,851.061 M490.388,852.811 C490.388,859.661 485.638,862.161 481.938,862.411 L481.938,852.361 C481.938,850.161 483.538,846.811 487.088,846.811 C489.138,846.811 490.438,849.461 490.438,852.811 L490.388,852.811 "/>
<path class="Lyrics" d="M536.029,844.808 L536.029,852.107 C534.776,850.577 533.653,849.528 532.66,848.958 C531.684,848.372 530.536,848.079 529.218,848.079 C527.151,848.079 525.434,848.803 524.066,850.252 C522.699,851.7 522.016,853.515 522.016,855.696 C522.016,857.926 522.675,859.757 523.993,861.189 C525.328,862.622 527.029,863.338 529.096,863.338 C530.414,863.338 531.578,863.053 532.587,862.483 C533.563,861.93 534.711,860.856 536.029,859.261 L536.029,866.512 C533.799,867.667 531.57,868.245 529.34,868.245 C525.661,868.245 522.585,867.057 520.111,864.681 C517.637,862.288 516.4,859.318 516.4,855.769 C516.4,852.221 517.654,849.226 520.16,846.785 C522.667,844.344 525.743,843.123 529.389,843.123 C531.732,843.123 533.946,843.684 536.029,844.808 M542.633,826.326 L548.126,826.326 L548.126,845.76 C550.079,844.002 552.236,843.123 554.596,843.123 C557.281,843.123 559.43,843.994 561.041,845.735 C562.408,847.249 563.092,849.666 563.092,852.986 L563.092,867.561 L557.599,867.561 L557.599,853.499 C557.599,851.595 557.261,850.215 556.585,849.361 C555.91,848.506 554.824,848.079 553.326,848.079 C551.406,848.079 550.055,848.673 549.273,849.861 C548.508,851.066 548.126,853.133 548.126,856.062 L548.126,867.561 L542.633,867.561 L542.633,826.326 M570.039,843.782 L575.532,843.782 L575.532,845.906 C576.541,844.848 577.436,844.124 578.218,843.733 C579.015,843.326 579.959,843.123 581.05,843.123 C582.498,843.123 584.012,843.595 585.591,844.539 L583.076,849.568 C582.034,848.82 581.017,848.445 580.024,848.445 C577.03,848.445 575.532,850.708 575.532,855.232 L575.532,867.561 L570.039,867.561 L570.039,843.782 M587.166,855.501 C587.166,852.067 588.395,849.145 590.852,846.736 C593.31,844.327 596.305,843.123 599.837,843.123 C603.385,843.123 606.396,844.336 608.87,846.761 C611.311,849.186 612.532,852.164 612.532,855.696 C612.532,859.261 611.303,862.247 608.846,864.656 C606.372,867.049 603.336,868.245 599.739,868.245 C596.175,868.245 593.188,867.024 590.779,864.583 C588.37,862.174 587.166,859.147 587.166,855.501 M592.781,855.599 C592.781,857.975 593.416,859.855 594.685,861.238 C595.988,862.638 597.705,863.338 599.837,863.338 C601.985,863.338 603.702,862.646 604.988,861.263 C606.274,859.879 606.917,858.032 606.917,855.721 C606.917,853.409 606.274,851.562 604.988,850.179 C603.686,848.779 601.969,848.079 599.837,848.079 C597.737,848.079 596.036,848.779 594.734,850.179 C593.432,851.578 592.781,853.385 592.781,855.599 M618.336,843.782 L623.829,843.782 L623.829,845.979 C624.887,844.873 625.79,844.124 626.539,843.733 C627.337,843.326 628.338,843.123 629.542,843.123 C632.227,843.123 634.352,844.295 635.914,846.639 C637.639,844.295 639.975,843.123 642.921,843.123 C648.276,843.123 650.953,846.37 650.953,852.864 L650.953,867.561 L645.435,867.561 L645.435,854.353 C645.435,852.075 645.159,850.463 644.605,849.519 C644.036,848.559 643.1,848.079 641.798,848.079 C640.284,848.079 639.181,848.649 638.49,849.788 C637.798,850.927 637.452,852.758 637.452,855.281 L637.452,867.561 L631.935,867.561 L631.935,854.427 C631.935,850.195 630.714,848.079 628.272,848.079 C626.726,848.079 625.599,848.657 624.891,849.812 C624.183,850.968 623.829,852.791 623.829,855.281 L623.829,867.561 L618.336,867.561 L618.336,843.782 M675.412,843.782 L680.93,843.782 L680.93,867.561 L675.412,867.561 L675.412,865.071 C673.15,867.187 670.716,868.245 668.112,868.245 C664.824,868.245 662.106,867.057 659.958,864.681 C657.826,862.255 656.76,859.228 656.76,855.599 C656.76,852.034 657.826,849.064 659.958,846.687 C662.09,844.311 664.759,843.123 667.966,843.123 C670.733,843.123 673.215,844.262 675.412,846.541 L675.412,843.782 M662.375,855.599 C662.375,857.877 662.985,859.733 664.206,861.165 C665.459,862.614 667.038,863.338 668.942,863.338 C670.977,863.338 672.621,862.638 673.874,861.238 C675.127,859.79 675.754,857.95 675.754,855.721 C675.754,853.491 675.127,851.652 673.874,850.203 C672.621,848.787 670.993,848.079 668.991,848.079 C667.103,848.079 665.524,848.795 664.255,850.227 C663.002,851.676 662.375,853.466 662.375,855.599 M693.516,848.909 L693.516,867.561 L688.022,867.561 L688.022,848.909 L685.679,848.909 L685.679,843.782 L688.022,843.782 L688.022,835.066 L693.516,835.066 L693.516,843.782 L697.788,843.782 L697.788,848.909 L693.516,848.909 M707.017,843.782 L707.017,867.561 L701.523,867.561 L701.523,843.782 L707.017,843.782 M700.693,833.894 C700.693,832.934 701.043,832.104 701.743,831.404 C702.443,830.704 703.281,830.354 704.258,830.354 C705.251,830.354 706.097,830.704 706.797,831.404 C707.497,832.088 707.847,832.926 707.847,833.919 C707.847,834.912 707.497,835.758 706.797,836.458 C706.113,837.158 705.275,837.508 704.282,837.508 C703.289,837.508 702.443,837.158 701.743,836.458 C701.043,835.758 700.693,834.904 700.693,833.894 M732.467,844.808 L732.467,852.107 C731.213,850.577 730.09,849.528 729.098,848.958 C728.121,848.372 726.974,848.079 725.655,848.079 C723.588,848.079 721.871,848.803 720.504,850.252 C719.137,851.7 718.453,853.515 718.453,855.696 C718.453,857.926 719.112,859.757 720.431,861.189 C721.765,862.622 723.466,863.338 725.533,863.338 C726.852,863.338 728.015,863.053 729.024,862.483 C730.001,861.93 731.148,860.856 732.467,859.261 L732.467,866.512 C730.237,867.667 728.007,868.245 725.777,868.245 C722.099,868.245 719.023,867.057 716.549,864.681 C714.075,862.288 712.838,859.318 712.838,855.769 C712.838,852.221 714.091,849.226 716.598,846.785 C719.104,844.344 722.18,843.123 725.826,843.123 C728.17,843.123 730.383,843.684 732.467,844.808"/>
<path class="Lyrics" d="M486.101,885.599 L491.179,887.552 C489.405,891.8 488.16,895.722 487.444,899.319 C487.086,901.142 486.817,903.059 486.638,905.069 C486.459,907.079 486.37,909.272 486.37,911.648 C486.37,914.041 486.459,916.242 486.638,918.252 C486.817,920.262 487.086,922.179 487.444,924.002 C488.144,927.583 489.389,931.497 491.179,935.745 L486.101,937.698 C482.553,930.26 480.779,921.577 480.779,911.648 C480.779,901.72 482.553,893.037 486.101,885.599 M503.519,886.014 L503.519,927.249 L498.026,927.249 L498.026,886.014 L503.519,886.014 M509.341,915.188 C509.341,911.754 510.569,908.833 513.027,906.424 C515.485,904.015 518.48,902.81 522.012,902.81 C525.56,902.81 528.571,904.023 531.045,906.448 C533.486,908.873 534.707,911.852 534.707,915.384 C534.707,918.948 533.478,921.935 531.02,924.344 C528.546,926.736 525.511,927.933 521.914,927.933 C518.349,927.933 515.363,926.712 512.954,924.27 C510.545,921.862 509.341,918.834 509.341,915.188 M514.956,915.286 C514.956,917.662 515.591,919.542 516.86,920.926 C518.162,922.325 519.879,923.025 522.012,923.025 C524.16,923.025 525.877,922.334 527.163,920.95 C528.449,919.567 529.092,917.719 529.092,915.408 C529.092,913.097 528.449,911.25 527.163,909.866 C525.861,908.466 524.144,907.767 522.012,907.767 C519.912,907.767 518.211,908.466 516.909,909.866 C515.607,911.266 514.956,913.073 514.956,915.286 M539.387,915.188 C539.387,911.754 540.616,908.833 543.074,906.424 C545.532,904.015 548.526,902.81 552.058,902.81 C555.607,902.81 558.618,904.023 561.092,906.448 C563.533,908.873 564.754,911.852 564.754,915.384 C564.754,918.948 563.525,921.935 561.067,924.344 C558.593,926.736 555.558,927.933 551.961,927.933 C548.396,927.933 545.41,926.712 543.001,924.27 C540.592,921.862 539.387,918.834 539.387,915.188 M545.003,915.286 C545.003,917.662 545.637,919.542 546.907,920.926 C548.209,922.325 549.926,923.025 552.058,923.025 C554.207,923.025 555.924,922.334 557.21,920.95 C558.496,919.567 559.138,917.719 559.138,915.408 C559.138,913.097 558.496,911.25 557.21,909.866 C555.908,908.466 554.191,907.767 552.058,907.767 C549.959,907.767 548.258,908.466 546.956,909.866 C545.654,911.266 545.003,913.073 545.003,915.286 M576.051,940.188 L570.557,940.188 L570.557,903.47 L576.051,903.47 L576.051,906.058 C578.215,903.893 580.673,902.81 583.424,902.81 C586.695,902.81 589.389,904.015 591.505,906.424 C593.653,908.816 594.727,911.836 594.727,915.481 C594.727,919.046 593.661,922.016 591.529,924.393 C589.413,926.753 586.744,927.933 583.521,927.933 C580.738,927.933 578.248,926.818 576.051,924.588 L576.051,940.188 M589.112,915.506 C589.112,913.227 588.494,911.372 587.257,909.939 C586.003,908.491 584.425,907.767 582.52,907.767 C580.502,907.767 578.866,908.466 577.613,909.866 C576.36,911.266 575.733,913.105 575.733,915.384 C575.733,917.614 576.36,919.453 577.613,920.901 C578.85,922.317 580.478,923.025 582.496,923.025 C584.4,923.025 585.971,922.309 587.208,920.877 C588.477,919.445 589.112,917.654 589.112,915.506 M637.139,916.726 L641.143,916.726 L641.143,921.902 L637.139,921.902 L637.139,927.249 L631.451,927.249 L631.451,921.902 L612.945,921.902 L637.139,886.746 L637.139,916.726 M631.451,916.726 L631.451,904.104 L622.76,916.726 L631.451,916.726 "/>
<path class="Lyrics" d="M674.9,930.276 L685.447,919.729 L676.707,919.729 L676.707,891.116 L673.094,891.116 L673.094,919.729 L664.353,919.729 L674.9,930.276 "/>
<path class="Lyrics" d="M699.484,937.698 L694.406,935.745 C696.196,931.497 697.442,927.583 698.141,924.002 C698.874,920.421 699.24,916.303 699.24,911.648 C699.24,907.026 698.874,902.916 698.141,899.319 C697.425,895.722 696.18,891.8 694.406,887.552 L699.484,885.599 C703.032,893.037 704.806,901.72 704.806,911.648 C704.806,921.577 703.032,930.26 699.484,937.698"/>
<path class="Lyrics" d="M1103.19,835.213 L1090.06,835.213 L1090.06,844.27 L1102.73,844.27 L1102.73,849.617 L1090.06,849.617 L1090.06,867.561 L1084.37,867.561 L1084.37,829.866 L1103.19,829.866 L1103.19,835.213 M1127.13,843.782 L1133.35,857.356 L1140.07,841.609 L1146.83,857.356 L1152.98,843.782 L1159.13,843.782 L1146.68,869.344 L1140.07,854.036 L1133.38,869.344 L1120.95,843.782 L1127.13,843.782 M1162.84,826.326 L1168.33,826.326 L1168.33,845.76 C1170.28,844.002 1172.44,843.123 1174.8,843.123 C1177.49,843.123 1179.63,843.994 1181.25,845.735 C1182.61,847.249 1183.3,849.666 1183.3,852.986 L1183.3,867.561 L1177.8,867.561 L1177.8,853.499 C1177.8,851.595 1177.47,850.215 1176.79,849.361 C1176.11,848.506 1175.03,848.079 1173.53,848.079 C1171.61,848.079 1170.26,848.673 1169.48,849.861 C1168.71,851.066 1168.33,853.133 1168.33,856.062 L1168.33,867.561 L1162.84,867.561 L1162.84,826.326 M1189.12,855.501 C1189.12,852.067 1190.35,849.145 1192.81,846.736 C1195.26,844.327 1198.26,843.123 1201.79,843.123 C1205.34,843.123 1208.35,844.336 1210.82,846.761 C1213.27,849.186 1214.49,852.164 1214.49,855.696 C1214.49,859.261 1213.26,862.247 1210.8,864.656 C1208.33,867.049 1205.29,868.245 1201.69,868.245 C1198.13,868.245 1195.14,867.024 1192.73,864.583 C1190.32,862.174 1189.12,859.147 1189.12,855.501 M1194.74,855.599 C1194.74,857.975 1195.37,859.855 1196.64,861.238 C1197.94,862.638 1199.66,863.338 1201.79,863.338 C1203.94,863.338 1205.66,862.646 1206.94,861.263 C1208.23,859.879 1208.87,858.032 1208.87,855.721 C1208.87,853.409 1208.23,851.562 1206.94,850.179 C1205.64,848.779 1203.92,848.079 1201.79,848.079 C1199.69,848.079 1197.99,848.779 1196.69,850.179 C1195.39,851.578 1194.74,853.385 1194.74,855.599 M1225.78,826.326 L1225.78,867.561 L1220.29,867.561 L1220.29,826.326 L1225.78,826.326 M1254.38,856.966 L1237.34,856.966 C1237.49,858.919 1238.12,860.473 1239.25,861.629 C1240.37,862.768 1241.81,863.338 1243.57,863.338 C1244.93,863.338 1246.07,863.012 1246.96,862.361 C1247.84,861.71 1248.84,860.506 1249.96,858.748 L1254.6,861.336 C1253.89,862.557 1253.13,863.602 1252.33,864.473 C1251.53,865.344 1250.68,866.06 1249.77,866.622 C1248.86,867.183 1247.87,867.594 1246.81,867.854 C1245.76,868.115 1244.61,868.245 1243.37,868.245 C1239.82,868.245 1236.98,867.106 1234.83,864.827 C1232.68,862.532 1231.6,859.489 1231.6,855.696 C1231.6,851.936 1232.65,848.893 1234.73,846.565 C1236.83,844.27 1239.61,843.123 1243.08,843.123 C1246.58,843.123 1249.35,844.238 1251.38,846.468 C1253.4,848.681 1254.41,851.749 1254.41,855.672 L1254.38,856.966 M1248.74,852.474 C1247.98,849.544 1246.13,848.079 1243.2,848.079 C1242.53,848.079 1241.91,848.181 1241.32,848.384 C1240.74,848.588 1240.2,848.881 1239.72,849.263 C1239.24,849.646 1238.83,850.105 1238.49,850.643 C1238.15,851.18 1237.89,851.79 1237.71,852.474 L1248.74,852.474 M1278.11,825.911 L1282.65,827.913 L1261.07,877.864 L1256.58,875.838 L1278.11,825.911 M1286.27,826.326 L1291.77,826.326 L1291.77,845.76 C1293.72,844.002 1295.88,843.123 1298.24,843.123 C1300.92,843.123 1303.07,843.994 1304.68,845.735 C1306.05,847.249 1306.73,849.666 1306.73,852.986 L1306.73,867.561 L1301.24,867.561 L1301.24,853.499 C1301.24,851.595 1300.9,850.215 1300.23,849.361 C1299.55,848.506 1298.47,848.079 1296.97,848.079 C1295.05,848.079 1293.7,848.673 1292.92,849.861 C1292.15,851.066 1291.77,853.133 1291.77,856.062 L1291.77,867.561 L1286.27,867.561 L1286.27,826.326 M1331.21,843.782 L1336.73,843.782 L1336.73,867.561 L1331.21,867.561 L1331.21,865.071 C1328.95,867.187 1326.51,868.245 1323.91,868.245 C1320.62,868.245 1317.9,867.057 1315.76,864.681 C1313.62,862.255 1312.56,859.228 1312.56,855.599 C1312.56,852.034 1313.62,849.064 1315.76,846.687 C1317.89,844.311 1320.56,843.123 1323.76,843.123 C1326.53,843.123 1329.01,844.262 1331.21,846.541 L1331.21,843.782 M1318.17,855.599 C1318.17,857.877 1318.78,859.733 1320,861.165 C1321.26,862.614 1322.84,863.338 1324.74,863.338 C1326.77,863.338 1328.42,862.638 1329.67,861.238 C1330.93,859.79 1331.55,857.95 1331.55,855.721 C1331.55,853.491 1330.93,851.652 1329.67,850.203 C1328.42,848.787 1326.79,848.079 1324.79,848.079 C1322.9,848.079 1321.32,848.795 1320.05,850.227 C1318.8,851.676 1318.17,853.466 1318.17,855.599 M1349.14,826.326 L1349.14,867.561 L1343.65,867.561 L1343.65,826.326 L1349.14,826.326 M1361.78,848.909 L1361.78,867.561 L1356.26,867.561 L1356.26,848.909 L1354.3,848.909 L1354.3,843.782 L1356.26,843.782 L1356.26,834.602 C1356.26,831.608 1356.78,829.492 1357.82,828.255 C1359.25,826.53 1361.34,825.667 1364.07,825.667 C1365.05,825.667 1366.28,825.952 1367.76,826.521 L1367.76,832.137 L1367.2,831.844 C1366.01,831.241 1365.03,830.94 1364.27,830.94 C1363.29,830.94 1362.63,831.29 1362.29,831.99 C1361.95,832.674 1361.78,833.992 1361.78,835.945 L1361.78,843.782 L1367.76,843.782 L1367.76,848.909 L1361.78,848.909 "/>
<path class="Lyrics" d="M1023.99,885.599 L1029.07,887.552 C1027.3,891.8 1026.05,895.722 1025.33,899.319 C1024.98,901.142 1024.71,903.059 1024.53,905.069 C1024.35,907.079 1024.26,909.272 1024.26,911.648 C1024.26,914.041 1024.35,916.242 1024.53,918.252 C1024.71,920.262 1024.98,922.179 1025.33,924.002 C1026.03,927.583 1027.28,931.497 1029.07,935.745 L1023.99,937.698 C1020.44,930.26 1018.67,921.577 1018.67,911.648 C1018.67,901.72 1020.44,893.037 1023.99,885.599 M1046,894.876 L1039.48,894.876 L1042.61,889.554 L1051.69,889.554 L1051.69,927.249 L1046,927.249 L1046,894.876 M1067.87,920.193 L1072.76,922.098 L1065.8,936.038 L1062.09,934.5 L1067.87,920.193 "/>
<path class="Lyrics" d="M1107.99,888.089 L1118.54,898.636 L1109.8,898.636 L1109.8,927.249 L1106.19,927.249 L1106.19,898.636 L1097.45,898.636 L1107.99,888.089 "/>
<path class="Lyrics" d="M1130.97,920.193 L1135.85,922.098 L1128.89,936.038 L1125.18,934.5 L1130.97,920.193 M1163.91,886.014 L1163.91,927.249 L1158.42,927.249 L1158.42,886.014 L1163.91,886.014 M1169.73,915.188 C1169.73,911.754 1170.96,908.833 1173.42,906.424 C1175.87,904.015 1178.87,902.81 1182.4,902.81 C1185.95,902.81 1188.96,904.023 1191.43,906.448 C1193.88,908.873 1195.1,911.852 1195.1,915.384 C1195.1,918.948 1193.87,921.935 1191.41,924.344 C1188.94,926.736 1185.9,927.933 1182.3,927.933 C1178.74,927.933 1175.75,926.712 1173.34,924.27 C1170.94,921.862 1169.73,918.834 1169.73,915.188 M1175.35,915.286 C1175.35,917.662 1175.98,919.542 1177.25,920.926 C1178.55,922.325 1180.27,923.025 1182.4,923.025 C1184.55,923.025 1186.27,922.334 1187.55,920.95 C1188.84,919.567 1189.48,917.719 1189.48,915.408 C1189.48,913.097 1188.84,911.25 1187.55,909.866 C1186.25,908.466 1184.53,907.767 1182.4,907.767 C1180.3,907.767 1178.6,908.466 1177.3,909.866 C1176,911.266 1175.35,913.073 1175.35,915.286 M1199.78,915.188 C1199.78,911.754 1201.01,908.833 1203.46,906.424 C1205.92,904.015 1208.92,902.81 1212.45,902.81 C1216,902.81 1219.01,904.023 1221.48,906.448 C1223.92,908.873 1225.14,911.852 1225.14,915.384 C1225.14,918.948 1223.92,921.935 1221.46,924.344 C1218.98,926.736 1215.95,927.933 1212.35,927.933 C1208.79,927.933 1205.8,926.712 1203.39,924.27 C1200.98,921.862 1199.78,918.834 1199.78,915.188 M1205.39,915.286 C1205.39,917.662 1206.03,919.542 1207.3,920.926 C1208.6,922.325 1210.32,923.025 1212.45,923.025 C1214.6,923.025 1216.31,922.334 1217.6,920.95 C1218.89,919.567 1219.53,917.719 1219.53,915.408 C1219.53,913.097 1218.89,911.25 1217.6,909.866 C1216.3,908.466 1214.58,907.767 1212.45,907.767 C1210.35,907.767 1208.65,908.466 1207.35,909.866 C1206.04,911.266 1205.39,913.073 1205.39,915.286 M1236.44,940.188 L1230.95,940.188 L1230.95,903.47 L1236.44,903.47 L1236.44,906.058 C1238.61,903.893 1241.06,902.81 1243.81,902.81 C1247.09,902.81 1249.78,904.015 1251.89,906.424 C1254.04,908.816 1255.12,911.836 1255.12,915.481 C1255.12,919.046 1254.05,922.016 1251.92,924.393 C1249.8,926.753 1247.13,927.933 1243.91,927.933 C1241.13,927.933 1238.64,926.818 1236.44,924.588 L1236.44,940.188 M1249.5,915.506 C1249.5,913.227 1248.88,911.372 1247.65,909.939 C1246.39,908.491 1244.81,907.767 1242.91,907.767 C1240.89,907.767 1239.26,908.466 1238,909.866 C1236.75,911.266 1236.12,913.105 1236.12,915.384 C1236.12,917.614 1236.75,919.453 1238,920.901 C1239.24,922.317 1240.87,923.025 1242.89,923.025 C1244.79,923.025 1246.36,922.309 1247.6,920.877 C1248.87,919.445 1249.5,917.654 1249.5,915.506 M1297.53,916.726 L1301.53,916.726 L1301.53,921.902 L1297.53,921.902 L1297.53,927.249 L1291.84,927.249 L1291.84,921.902 L1273.34,921.902 L1297.53,886.746 L1297.53,916.726 M1291.84,916.726 L1291.84,904.104 L1283.15,916.726 L1291.84,916.726 "/>
<path class="Lyrics" d="M1335.29,930.276 L1345.84,919.729 L1337.1,919.729 L1337.1,891.116 L1333.48,891.116 L1333.48,919.729 L1324.74,919.729 L1335.29,930.276 "/>
<path class="Lyrics" d="M1358.26,920.193 L1363.15,922.098 L1356.19,936.038 L1352.48,934.5 L1358.26,920.193 "/>
<path class="Lyrics" d="M1398.38,888.089 L1408.93,898.636 L1400.19,898.636 L1400.19,927.249 L1396.58,927.249 L1396.58,898.636 L1387.84,898.636 L1398.38,888.089 "/>
<path class="Lyrics" d="M1422.97,937.698 L1417.89,935.745 C1419.68,931.497 1420.93,927.583 1421.63,924.002 C1422.36,920.421 1422.72,916.303 1422.72,911.648 C1422.72,907.026 1422.36,902.916 1421.63,899.319 C1420.91,895.722 1419.66,891.8 1417.89,887.552 L1422.97,885.599 C1426.52,893.037 1428.29,901.72 1428.29,911.648 C1428.29,921.577 1426.52,930.26 1422.97,937.698"/>
<path class="NoteDot" transform="matrix(0.992126,0,0,0.992126,2313.79,646.653)" d="M0,-0.00166016 C0,2.75977 2.23857,4.99834 5,4.99834 C7.76143,4.99834 10,2.75977 10,-0.00166016 C10,-2.76309 7.76143,-5.00166 5,-5.00166 C2.23857,-5.00166 0,-2.76309 0,-0.00166016"/>
</svg>
