<?xml version="1.0" encoding="UTF-8" standalone="no"?>
<svg
   width="2555.166"
   height="677.01501"
   viewBox="0 0 2555.1661 677.01498"
   version="1.2"
   id="svg124"
   sodipodi:docname="barry-harris-1.svg"
   inkscape:export-filename="barry-harris-1.png"
   inkscape:export-xdpi="200"
   inkscape:export-ydpi="200"
   inkscape:version="1.2.1 (9c6d41e, 2022-07-14)"
   xmlns:inkscape="http://www.inkscape.org/namespaces/inkscape"
   xmlns:sodipodi="http://sodipodi.sourceforge.net/DTD/sodipodi-0.dtd"
   xmlns="http://www.w3.org/2000/svg"
   xmlns:svg="http://www.w3.org/2000/svg"
   xmlns:rdf="http://www.w3.org/1999/02/22-rdf-syntax-ns#"
   xmlns:cc="http://creativecommons.org/ns#"
   xmlns:dc="http://purl.org/dc/elements/1.1/">
  <sodipodi:namedview
     id="namedview65"
     pagecolor="#ffffff"
     bordercolor="#999999"
     borderopacity="1"
     inkscape:showpageshadow="0"
     inkscape:pageopacity="0"
     inkscape:pagecheckerboard="0"
     inkscape:deskcolor="#d1d1d1"
     showgrid="false"
     inkscape:zoom="0.26004789"
     inkscape:cx="509.52153"
     inkscape:cy="311.48108"
     inkscape:window-width="1280"
     inkscape:window-height="772"
     inkscape:window-x="0"
     inkscape:window-y="0"
     inkscape:window-maximized="0"
     inkscape:current-layer="svg124" />
  <defs
     id="defs128" />
  <title
     id="title2">Barry_Harris</title>
  <desc
     id="desc4">Generated by MuseScore 3.6.2</desc>
  <g
     inkscape:groupmode="layer"
     id="layer4"
     inkscape:label="Layer 1">
    <rect
       style="fill:#ffffff;stroke:#000000;stroke-width:2.13543;stroke-linejoin:round"
       id="rect967"
       width="2603.3667"
       height="772.93457"
       x="-30.763563"
       y="-38.454456" />
  </g>
  <polyline
     class="StaffLines"
     fill="none"
     stroke="#000000"
     stroke-width="2.73"
     stroke-linejoin="bevel"
     points="336.614,634.252 2763.78,634.252"
     id="polyline6"
     transform="translate(-272.614,-334.614)" />
  <polyline
     class="StaffLines"
     fill="none"
     stroke="#000000"
     stroke-width="2.73"
     stroke-linejoin="bevel"
     points="336.614,659.055 2763.78,659.055"
     id="polyline8"
     transform="translate(-272.614,-334.614)" />
  <polyline
     class="StaffLines"
     fill="none"
     stroke="#000000"
     stroke-width="2.73"
     stroke-linejoin="bevel"
     points="336.614,683.858 2763.78,683.858"
     id="polyline10"
     transform="translate(-272.614,-334.614)" />
  <polyline
     class="StaffLines"
     fill="none"
     stroke="#000000"
     stroke-width="2.73"
     stroke-linejoin="bevel"
     points="336.614,708.661 2763.78,708.661"
     id="polyline12"
     transform="translate(-272.614,-334.614)" />
  <polyline
     class="StaffLines"
     fill="none"
     stroke="#000000"
     stroke-width="2.73"
     stroke-linejoin="bevel"
     points="336.614,733.465 2763.78,733.465"
     id="polyline14"
     transform="translate(-272.614,-334.614)" />
  <path
     class="Text"
     d="M 972.306,131.852 V 64 h 10.19 c 4.54,0 8.16,0.352 10.86,1.055 2.72,0.703 5.02,1.89 6.9,3.559 1.9,1.729 3.41,3.882 4.52,6.46 1.14,2.608 1.72,5.245 1.72,7.911 0,4.863 -1.87,8.979 -5.59,12.348 3.61,1.231 6.45,3.384 8.53,6.46 2.11,3.047 3.16,6.592 3.16,10.635 0,5.303 -1.87,9.785 -5.62,13.447 -2.26,2.256 -4.79,3.823 -7.6,4.702 -3.08,0.85 -6.93,1.275 -11.56,1.275 h -15.51 m 10.24,-38.716 h 3.2 c 3.81,0 6.6,-0.842 8.37,-2.527 1.78,-1.684 2.66,-4.167 2.66,-7.449 0,-3.193 -0.9,-5.617 -2.72,-7.273 -1.82,-1.655 -4.45,-2.482 -7.91,-2.482 h -3.6 v 19.731 m 0,29.092 h 6.32 c 4.63,0 8.03,-0.908 10.2,-2.725 2.28,-1.963 3.43,-4.453 3.43,-7.471 0,-2.929 -1.1,-5.39 -3.3,-7.382 -2.14,-1.963 -5.96,-2.945 -11.47,-2.945 h -5.18 v 20.523 m 72.62,-33.179 h 9.93 v 42.803 h -9.93 v -4.483 c -4.07,3.809 -8.45,5.713 -13.14,5.713 -5.92,0 -10.81,-2.138 -14.68,-6.416 -3.83,-4.365 -5.75,-9.814 -5.75,-16.347 0,-6.416 1.92,-11.763 5.75,-16.04 3.84,-4.278 8.65,-6.416 14.42,-6.416 4.98,0 9.45,2.05 13.4,6.152 v -4.966 m -23.46,21.27 c 0,4.101 1.09,7.441 3.29,10.019 2.26,2.608 5.1,3.911 8.53,3.911 3.66,0 6.62,-1.26 8.87,-3.779 2.26,-2.607 3.39,-5.918 3.39,-9.932 0,-4.013 -1.13,-7.324 -3.39,-9.931 -2.25,-2.549 -5.18,-3.824 -8.79,-3.824 -3.39,0 -6.24,1.29 -8.52,3.868 -2.26,2.607 -3.38,5.83 -3.38,9.668 m 45.86,-21.27 h 9.89 v 3.823 c 1.82,-1.904 3.43,-3.208 4.83,-3.911 1.44,-0.732 3.14,-1.098 5.1,-1.098 2.61,0 5.33,0.849 8.18,2.548 l -4.53,9.053 c -1.88,-1.348 -3.71,-2.021 -5.49,-2.021 -5.39,0 -8.09,4.072 -8.09,12.216 v 22.193 h -9.89 V 89.049 m 35.02,0 h 9.89 v 3.823 c 1.81,-1.904 3.42,-3.208 4.83,-3.911 1.44,-0.732 3.13,-1.098 5.1,-1.098 2.6,0 5.33,0.849 8.17,2.548 l -4.53,9.053 c -1.87,-1.348 -3.7,-2.021 -5.49,-2.021 -5.39,0 -8.08,4.072 -8.08,12.216 v 22.193 h -9.89 V 89.049 m 51.1,34.849 -19.25,-34.849 h 11.47 l 13.1,24.609 12.21,-24.609 h 11.16 l -34.1,66.094 h -11.29 l 16.7,-31.245 m 75.31,-33.355 h 29.27 V 64 h 10.24 v 67.852 h -10.24 v -31.685 h -29.27 v 31.685 h -10.24 V 64 h 10.24 v 26.543 m 85.42,-1.494 h 9.93 v 42.803 h -9.93 v -4.483 c -4.07,3.809 -8.45,5.713 -13.14,5.713 -5.92,0 -10.81,-2.138 -14.68,-6.416 -3.83,-4.365 -5.75,-9.814 -5.75,-16.347 0,-6.416 1.92,-11.763 5.75,-16.04 3.84,-4.278 8.65,-6.416 14.42,-6.416 4.98,0 9.45,2.05 13.4,6.152 v -4.966 m -23.46,21.27 c 0,4.101 1.09,7.441 3.29,10.019 2.26,2.608 5.1,3.911 8.53,3.911 3.66,0 6.62,-1.26 8.87,-3.779 2.26,-2.607 3.39,-5.918 3.39,-9.932 0,-4.013 -1.13,-7.324 -3.39,-9.931 -2.25,-2.549 -5.18,-3.824 -8.79,-3.824 -3.39,0 -6.24,1.29 -8.52,3.868 -2.26,2.607 -3.38,5.83 -3.38,9.668 m 45.86,-21.27 h 9.89 v 3.823 c 1.82,-1.904 3.43,-3.208 4.83,-3.911 1.44,-0.732 3.14,-1.098 5.1,-1.098 2.61,0 5.33,0.849 8.18,2.548 l -4.53,9.053 c -1.88,-1.348 -3.71,-2.021 -5.49,-2.021 -5.39,0 -8.09,4.072 -8.09,12.216 v 22.193 h -9.89 V 89.049 m 35.02,0 h 9.89 v 3.823 c 1.81,-1.904 3.42,-3.208 4.83,-3.911 1.44,-0.732 3.13,-1.098 5.1,-1.098 2.6,0 5.33,0.849 8.17,2.548 l -4.53,9.053 c -1.87,-1.348 -3.7,-2.021 -5.49,-2.021 -5.39,0 -8.08,4.072 -8.08,12.216 v 22.193 h -9.89 V 89.049 m 44.9,0 v 42.803 h -9.89 V 89.049 h 9.89 m -11.38,-17.798 c 0,-1.728 0.63,-3.222 1.89,-4.482 1.26,-1.26 2.77,-1.89 4.53,-1.89 1.78,0 3.31,0.63 4.57,1.89 1.26,1.23 1.89,2.739 1.89,4.526 0,1.787 -0.63,3.311 -1.89,4.57 -1.23,1.26 -2.74,1.89 -4.53,1.89 -1.79,0 -3.31,-0.63 -4.57,-1.89 -1.26,-1.259 -1.89,-2.797 -1.89,-4.614 m 48.77,25.093 -8.17,4.351 c -1.29,-2.637 -2.89,-3.956 -4.79,-3.956 -0.91,0 -1.69,0.301 -2.33,0.901 -0.64,0.601 -0.97,1.37 -0.97,2.308 0,1.64 1.91,3.266 5.72,4.877 5.24,2.256 8.77,4.336 10.59,6.241 1.81,1.904 2.72,4.467 2.72,7.69 0,4.131 -1.52,7.588 -4.57,10.371 -2.96,2.637 -6.53,3.955 -10.72,3.955 -7.18,0 -12.26,-3.501 -15.25,-10.503 l 8.44,-3.911 c 1.17,2.051 2.06,3.355 2.68,3.911 1.2,1.114 2.63,1.67 4.3,1.67 3.34,0 5.01,-1.523 5.01,-4.57 0,-1.758 -1.28,-3.398 -3.86,-4.922 -1,-0.498 -2,-0.981 -2.99,-1.45 -1,-0.469 -2.01,-0.952 -3.03,-1.45 -2.87,-1.407 -4.9,-2.813 -6.07,-4.219 -1.49,-1.787 -2.24,-4.087 -2.24,-6.899 0,-3.721 1.28,-6.797 3.82,-9.229 2.61,-2.432 5.78,-3.647 9.5,-3.647 5.47,0 9.55,2.827 12.21,8.481"
     id="path16" />
  <polyline
     class="BarLine"
     fill="none"
     stroke="#000000"
     stroke-width="4.46"
     stroke-linejoin="bevel"
     points="1855.69,632.888 1855.69,734.829"
     id="polyline18"
     transform="translate(-272.614,-334.614)" />
  <polyline
     class="BarLine"
     fill="none"
     stroke="#000000"
     stroke-width="4.46"
     stroke-linejoin="bevel"
     points="2739.6,632.888 2739.6,734.829"
     id="polyline20"
     transform="translate(-272.614,-334.614)" />
  <polyline
     class="BarLine"
     fill="none"
     stroke="#000000"
     stroke-width="13.64"
     stroke-linejoin="bevel"
     points="2756.96,632.888 2756.96,734.829"
     id="polyline22"
     transform="translate(-272.614,-334.614)" />
  <path
     class="Accidental"
     d="m 266.79573,254.5952 c -0.59527,-3.86929 -2.97638,-7.54015 -8.03622,-7.54015 -4.96063,0 -7.83779,3.07559 -8.33386,3.67086 l 0.39685,-31.84724 c 0,-0.7937 -0.59527,-1.38898 -1.38897,-1.38898 h -1.19055 c -0.7937,0 -1.38898,0.59528 -1.38898,1.38898 l 0.49606,59.62677 c 0,0.7937 0.59528,1.38898 1.38898,1.38898 0.19842,0 0.59527,-0.0992 0.7937,-0.19843 0.39685,-0.19842 6.84567,-3.37323 12.20315,-9.42519 3.77008,-4.26615 5.25827,-9.12756 5.25827,-13.19528 0,-0.89291 -0.0992,-1.68661 -0.19843,-2.48032 m -6.84567,3.8693 c 0,1.48819 -0.39685,6.05196 -2.87716,9.82204 -1.68662,2.57953 -5.05984,5.25827 -6.94488,6.74646 l 0.29763,-19.34646 c 0.19843,-0.89291 1.68662,-3.77008 5.65512,-3.77008 3.57166,0 3.86929,3.37323 3.86929,5.4567 v 1.09134"
     id="path24"
     style="stroke-width:0.992126" />
  <path
     class="Accidental"
     d="m 599.32454,276.71946 c 0.59527,-0.0992 1.09133,-0.7937 1.09133,-1.38897 v -5.85355 c 0,-0.7937 -0.59527,-1.38897 -1.38897,-1.38897 h -0.19843 l -3.27401,0.69449 v -14.78268 h -2.77796 v 15.37795 l -8.82992,1.78583 v -13.98898 h -2.77795 v 14.58425 l -3.86929,0.79371 c -0.59528,0.0992 -1.09134,0.7937 -1.09134,1.38897 v 0.19843 5.75433 -0.19843 c 0,0.7937 0.59528,1.38898 1.38898,1.38898 h 0.29763 l 3.27402,-0.69449 v 16.37008 l -3.86929,0.7937 c -0.59528,0.0992 -1.09134,0.7937 -1.09134,1.38898 v 5.75433 c 0,0.7937 0.59528,1.38897 1.38898,1.38897 h 0.29763 l 3.27402,-0.69448 v 14.78267 h 2.77795 v -15.37795 l 8.82992,-1.78583 v 13.98898 h 2.77796 v -14.58425 l 3.77008,-0.69449 c 0.59527,-0.0992 1.09133,-0.7937 1.09133,-1.38898 v -5.85354 c 0,-0.7937 -0.59527,-1.38898 -1.38897,-1.38898 h -0.19843 l -3.27401,0.69449 v -16.37008 l 3.77008,-0.69449 m -15.37796,19.54489 v -16.46929 l 8.82992,-1.78583 v 16.37008 l -8.82992,1.88504"
     id="path26"
     style="stroke-width:0.992126" />
  <path
     class="Accidental"
     d="m 762.29529,269.08009 c -0.19842,-0.19842 -0.49606,-0.29763 -0.7937,-0.29763 -0.0992,0 -0.29764,0.0992 -0.39685,0.0992 l -12.50079,3.47244 V 254.9919 H 745.826 v 49.11023 c 0,0.7937 0.59528,1.28977 1.38898,1.28977 h 0.39685 l 12.50078,-3.47245 v 17.36221 h 2.67874 v -49.11024 c 0,-0.39685 -0.19842,-0.89291 -0.49606,-1.09134 m -2.18268,24.60473 -11.50866,3.1748 v -16.27086 l 11.50866,-3.27402 v 16.37008"
     id="path28"
     style="stroke-width:0.992126" />
  <path
     class="Accidental"
     d="m 1796.4225,326.32646 c 0.5953,-0.0992 1.0914,-0.7937 1.0914,-1.38897 v -5.85355 c 0,-0.7937 -0.5953,-1.38897 -1.389,-1.38897 h -0.1984 l -3.274,0.69449 v -14.78268 h -2.778 v 15.37795 l -8.8299,1.78583 v -13.98898 h -2.778 v 14.58425 l -3.8693,0.79371 c -0.5952,0.0992 -1.0913,0.7937 -1.0913,1.38897 v 0.19843 5.75433 -0.19843 c 0,0.7937 0.5953,1.38898 1.389,1.38898 h 0.2976 l 3.274,-0.69449 v 16.37008 l -3.8693,0.7937 c -0.5952,0.0992 -1.0913,0.7937 -1.0913,1.38898 v 5.75433 c 0,0.7937 0.5953,1.38897 1.389,1.38897 h 0.2976 l 3.274,-0.69448 v 14.78267 h 2.778 v -15.37795 l 8.8299,-1.78583 v 13.98898 h 2.778 v -14.58425 l 3.77,-0.69449 c 0.5953,-0.0992 1.0914,-0.7937 1.0914,-1.38898 v -5.85354 c 0,-0.7937 -0.5953,-1.38898 -1.389,-1.38898 h -0.1984 l -3.274,0.69449 v -16.37008 l 3.77,-0.69449 m -15.3779,19.54489 v -16.46929 l 8.8299,-1.78583 v 16.37008 l -8.8299,1.88504"
     id="path30"
     style="stroke-width:0.992126" />
  <polyline
     class="LedgerLine"
     fill="none"
     stroke="#000000"
     stroke-width="3.97"
     stroke-linejoin="bevel"
     points="545.805,609.449 595.404,609.449"
     id="polyline32"
     transform="translate(-272.614,-334.614)" />
  <polyline
     class="LedgerLine"
     fill="none"
     stroke="#000000"
     stroke-width="3.97"
     stroke-linejoin="bevel"
     points="708.177,609.449 757.775,609.449"
     id="polyline34"
     transform="translate(-272.614,-334.614)" />
  <polyline
     class="Stem"
     fill="none"
     stroke="#000000"
     stroke-width="2.73"
     stroke-linejoin="bevel"
     points="555.851,600.381 555.851,677.657"
     id="polyline36"
     transform="translate(-272.614,-334.614)" />
  <polyline
     class="Stem"
     fill="none"
     stroke="#000000"
     stroke-width="2.73"
     stroke-linejoin="bevel"
     points="718.222,612.782 718.222,683.858"
     id="polyline38"
     transform="translate(-272.614,-334.614)" />
  <polyline
     class="Stem"
     fill="none"
     stroke="#000000"
     stroke-width="2.73"
     stroke-linejoin="bevel"
     points="880.593,625.184 880.593,702.461"
     id="polyline40"
     transform="translate(-272.614,-334.614)" />
  <polyline
     class="Stem"
     fill="none"
     stroke="#000000"
     stroke-width="2.73"
     stroke-linejoin="bevel"
     points="1042.96,625.184 1042.96,702.461"
     id="polyline42"
     transform="translate(-272.614,-334.614)" />
  <polyline
     class="Stem"
     fill="none"
     stroke="#000000"
     stroke-width="2.73"
     stroke-linejoin="bevel"
     points="1205.34,637.586 1205.34,708.661"
     id="polyline44"
     transform="translate(-272.614,-334.614)" />
  <polyline
     class="Stem"
     fill="none"
     stroke="#000000"
     stroke-width="2.73"
     stroke-linejoin="bevel"
     points="1367.71,625.184 1367.71,702.461"
     id="polyline46"
     transform="translate(-272.614,-334.614)" />
  <polyline
     class="Stem"
     fill="none"
     stroke="#000000"
     stroke-width="2.73"
     stroke-linejoin="bevel"
     points="1530.08,637.586 1530.08,708.661"
     id="polyline48"
     transform="translate(-272.614,-334.614)" />
  <polyline
     class="Stem"
     fill="none"
     stroke="#000000"
     stroke-width="2.73"
     stroke-linejoin="bevel"
     points="1692.45,649.987 1692.45,714.862"
     id="polyline50"
     transform="translate(-272.614,-334.614)" />
  <polyline
     class="Stem"
     fill="none"
     stroke="#000000"
     stroke-width="2.73"
     stroke-linejoin="bevel"
     points="1891.53,662.389 1891.53,733.465"
     id="polyline52"
     transform="translate(-272.614,-334.614)" />
  <polyline
     class="Stem"
     fill="none"
     stroke="#000000"
     stroke-width="2.73"
     stroke-linejoin="bevel"
     points="2077.69,674.79 2077.69,739.665"
     id="polyline54"
     transform="translate(-272.614,-334.614)" />
  <polyline
     class="Stem"
     fill="none"
     stroke="#000000"
     stroke-width="2.73"
     stroke-linejoin="bevel"
     points="2263.84,662.389 2263.84,742.766"
     id="polyline56"
     transform="translate(-272.614,-334.614)" />
  <path
     class="Note"
     d="m 313.12497,254.39678 c -1.78583,-3.27402 -5.55591,-5.05984 -10.11969,-5.05984 -3.37322,0 -7.04409,0.99212 -10.61574,2.87716 -6.54804,3.47244 -10.51654,9.32599 -10.51654,14.38583 0,1.38898 0.29764,2.77795 0.99213,4.06772 1.78582,3.27401 5.5559,4.96063 10.11968,4.96063 3.37323,0 7.0441,-0.89292 10.61575,-2.77796 6.54803,-3.47244 10.51653,-9.32598 10.51653,-14.38582 0,-1.38898 -0.29763,-2.77796 -0.99212,-4.06772"
     id="path58"
     style="stroke-width:0.992126" />
  <path
     class="Note"
     d="m 475.49597,266.79878 c -1.78583,-3.27402 -5.55591,-5.05984 -10.11969,-5.05984 -3.37322,0 -7.04409,0.99212 -10.61574,2.87716 -6.54804,3.47244 -10.51654,9.32599 -10.51654,14.38583 0,1.38898 0.29764,2.77795 0.99213,4.06772 1.78582,3.27401 5.5559,4.96063 10.11968,4.96063 3.37323,0 7.0441,-0.89292 10.61575,-2.77796 6.54803,-3.47244 10.51653,-9.32598 10.51653,-14.38582 0,-1.38898 -0.29763,-2.77796 -0.99212,-4.06772"
     id="path60"
     style="stroke-width:0.992126" />
  <path
     class="Note"
     d="m 637.86697,279.19978 c -1.78583,-3.27402 -5.55591,-5.05984 -10.11969,-5.05984 -3.37322,0 -7.04409,0.99212 -10.61574,2.87716 -6.54804,3.47244 -10.51654,9.32599 -10.51654,14.38583 0,1.38898 0.29764,2.77795 0.99213,4.06772 1.78582,3.27401 5.5559,4.96063 10.11968,4.96063 3.37323,0 7.0441,-0.89292 10.61575,-2.77796 6.54803,-3.47244 10.51654,-9.32598 10.51654,-14.38582 0,-1.38898 -0.29764,-2.77796 -0.99213,-4.06772"
     id="path62"
     style="stroke-width:0.992126" />
  <path
     class="Note"
     d="m 800.23797,279.19978 c -1.78583,-3.27402 -5.55591,-5.05984 -10.11969,-5.05984 -3.37322,0 -7.04409,0.99212 -10.61574,2.87716 -6.54804,3.47244 -10.51654,9.32599 -10.51654,14.38583 0,1.38898 0.29764,2.77795 0.99213,4.06772 1.78582,3.27401 5.5559,4.96063 10.11968,4.96063 3.37323,0 7.0441,-0.89292 10.61575,-2.77796 6.54803,-3.47244 10.51653,-9.32598 10.51653,-14.38582 0,-1.38898 -0.29763,-2.77796 -0.99212,-4.06772"
     id="path64"
     style="stroke-width:0.992126" />
  <path
     class="Note"
     d="m 962.60797,291.60178 c -1.78583,-3.27402 -5.55591,-5.05984 -10.11969,-5.05984 -3.37322,0 -7.04409,0.99212 -10.61574,2.87716 -6.54804,3.47244 -10.51654,9.32599 -10.51654,14.38583 0,1.38898 0.29764,2.77795 0.99213,4.06772 1.78582,3.27401 5.5559,4.96063 10.11968,4.96063 3.37323,0 7.0441,-0.89292 10.61575,-2.77796 6.54803,-3.47244 10.51653,-9.32598 10.51653,-14.38582 0,-1.38898 -0.29763,-2.77796 -0.99212,-4.06772"
     id="path66"
     style="stroke-width:0.992126" />
  <path
     class="Note"
     d="m 1124.978,279.19978 c -1.7859,-3.27402 -5.5559,-5.05984 -10.1197,-5.05984 -3.3732,0 -7.0441,0.99212 -10.6158,2.87716 -6.548,3.47244 -10.5165,9.32599 -10.5165,14.38583 0,1.38898 0.2976,2.77795 0.9921,4.06772 1.7859,3.27401 5.5559,4.96063 10.1197,4.96063 3.3732,0 7.0441,-0.89292 10.6158,-2.77796 6.548,-3.47244 10.5165,-9.32598 10.5165,-14.38582 0,-1.38898 -0.2976,-2.77796 -0.9921,-4.06772"
     id="path68"
     style="stroke-width:0.992126" />
  <path
     class="Note"
     d="m 1287.348,291.60178 c -1.7859,-3.27402 -5.5559,-5.05984 -10.1197,-5.05984 -3.3732,0 -7.0441,0.99212 -10.6158,2.87716 -6.548,3.47244 -10.5165,9.32599 -10.5165,14.38583 0,1.38898 0.2976,2.77795 0.9921,4.06772 1.7859,3.27401 5.5559,4.96063 10.1197,4.96063 3.3732,0 7.0441,-0.89292 10.6158,-2.77796 6.548,-3.47244 10.5165,-9.32598 10.5165,-14.38582 0,-1.38898 -0.2976,-2.77796 -0.9921,-4.06772"
     id="path70"
     style="stroke-width:0.992126" />
  <path
     class="Note"
     d="m 1449.728,304.00378 c -1.7859,-3.27402 -5.5559,-5.05984 -10.1197,-5.05984 -3.3732,0 -7.0441,0.99212 -10.6158,2.87716 -6.548,3.47244 -10.5165,9.32599 -10.5165,14.38583 0,1.38898 0.2976,2.77795 0.9921,4.06772 1.7859,3.27401 5.5559,4.96063 10.1197,4.96063 3.3732,0 7.0441,-0.89292 10.6158,-2.77796 6.548,-3.47244 10.5165,-9.32598 10.5165,-14.38582 0,-1.38898 -0.2976,-2.77796 -0.9921,-4.06772"
     id="path72"
     style="stroke-width:0.992126" />
  <path
     class="Note"
     d="m 1648.808,316.40478 c -1.7859,-3.27402 -5.5559,-5.05984 -10.1197,-5.05984 -3.3732,0 -7.0441,0.99212 -10.6158,2.87716 -6.548,3.47244 -10.5165,9.32599 -10.5165,14.38583 0,1.38898 0.2976,2.77795 0.9921,4.06772 1.7859,3.27401 5.5559,4.96063 10.1197,4.96063 3.3732,0 7.0441,-0.89292 10.6158,-2.77796 6.548,-3.47244 10.5165,-9.32598 10.5165,-14.38582 0,-1.38898 -0.2976,-2.77796 -0.9921,-4.06772"
     id="path74"
     style="stroke-width:0.992126" />
  <path
     class="Note"
     d="m 1834.958,328.80678 c -1.7859,-3.27402 -5.5559,-5.05984 -10.1197,-5.05984 -3.3732,0 -7.0441,0.99212 -10.6158,2.87716 -6.548,3.47244 -10.5165,9.32599 -10.5165,14.38583 0,1.38898 0.2976,2.77795 0.9921,4.06772 1.7859,3.27401 5.5559,4.96063 10.1197,4.96063 3.3732,0 7.0441,-0.89292 10.6158,-2.77796 6.548,-3.47244 10.5165,-9.32598 10.5165,-14.38582 0,-1.38898 -0.2976,-2.77796 -0.9921,-4.06772"
     id="path76"
     style="stroke-width:0.992126" />
  <path
     class="Note"
     d="m 2021.118,316.40478 c -1.7859,-3.27402 -5.5559,-5.05984 -10.1197,-5.05984 -3.3732,0 -7.0441,0.99212 -10.6158,2.87716 -6.548,3.47244 -10.5165,9.32599 -10.5165,14.38583 0,1.38898 0.2976,2.77795 0.9921,4.06772 1.7859,3.27401 5.5559,4.96063 10.1197,4.96063 3.3732,0 7.0441,-0.89292 10.6158,-2.77796 6.548,-3.47244 10.5165,-9.32598 10.5165,-14.38582 0,-1.38898 -0.2976,-2.77796 -0.9921,-4.06772 m -4.2662,6.74646 c -1.6866,1.68661 -5.0598,3.77007 -8.6315,5.75433 -3.5716,1.98425 -7.1433,3.47244 -9.5244,3.9685 -0.496,0.0992 -0.9921,0.19843 -1.4882,0.19843 -1.5874,0 -2.7779,-0.59528 -3.4724,-1.88504 -0.2976,-0.49607 -0.4961,-1.09134 -0.4961,-1.68662 0,-1.09134 0.6945,-2.3811 1.7859,-3.47244 1.6866,-1.68661 4.9606,-3.77008 8.5322,-5.75433 3.5717,-1.98425 7.1433,-3.47244 9.5244,-3.9685 0.4961,-0.0992 0.9922,-0.19843 1.4882,-0.19843 1.5874,0 2.8772,0.59528 3.5717,1.88504 0.2976,0.49606 0.3968,1.09134 0.3968,1.68662 0,1.09133 -0.5952,2.28188 -1.6866,3.47244"
     id="path78"
     style="stroke-width:0.992126" />
  <path
     class="Clef"
     d="m 146.69418,368.2233 c -1.22031,-5.38732 -3.83953,-9.17715 -4.61338,-10.20906 -3.16489,-4.23637 -7.14331,-7.06393 -11.79638,-8.4033 -3.08551,-0.8829 -6.06189,-0.99213 -8.46284,-0.81355 -1.03181,-5.96267 -2.02393,-11.79628 -2.92677,-17.20336 5.40709,-6.12152 8.99858,-11.87585 11.26063,-16.14199 3.44268,-6.52809 4.58362,-11.07203 4.63323,-11.27045 1.70646,-5.16908 2.06362,-12.80845 0.97228,-20.9537 -1.00204,-7.49056 -3.07559,-14.14782 -5.40708,-17.37223 -1.02189,-1.41874 -2.06363,-2.14299 -3.09544,-2.14299 -1.21039,0 -3.70063,1.23023 -6.56787,3.97842 -2.28189,2.18268 -5.52614,6.04205 -8.06599,12.00473 -2.97637,7.00451 -3.18472,16.41968 -2.83748,23.08677 0.37701,7.21276 1.47827,12.85805 1.48819,12.90766 0.0198,0.0892 0.2778,1.57738 0.72426,4.12714 -0.22819,0.22819 -0.4663,0.44646 -0.71433,0.68467 -1.03182,0.99212 -2.21245,2.12305 -3.58158,3.49218 -0.85323,0.85333 -1.79575,1.75607 -2.78787,2.71843 -8.383468,8.076 -21.07276,20.2989 -21.07276,39.29811 0,4.66299 0.892913,9.04821 2.658878,13.02669 1.57752,3.57166 3.85941,6.82585 6.766319,9.67325 7.669133,7.49055 18.175753,10.67518 25.180153,10.51654 2.92678,-0.0695 5.53607,-0.30766 7.90725,-0.75412 1.81559,9.52441 2.94661,16.49906 2.9863,21.79701 0.0397,6.45874 -1.59732,10.39748 -5.46662,13.14567 -2.41086,1.71638 -5.19874,2.6589 -8.27433,2.80772 -2.5696,0.11905 -4.81181,-0.34725 -6.23055,-0.75392 h -0.01 c 0,0 -0.28772,-0.0794 -0.29764,-0.2778 -0.01,-0.17868 0.33733,-0.22828 0.34725,-0.22828 h 0.0198 c 1.90488,-0.43644 5.44677,-1.65675 7.78819,-4.93077 1.78583,-2.50016 2.64898,-7.08388 0.82346,-10.99286 -1.10126,-2.37108 -3.59149,-5.29785 -9.16724,-5.74431 -2.4704,-0.19842 -4.72252,0.30746 -6.70678,1.49801 -1.79574,1.0715 -3.283932,2.69859 -4.325664,4.68284 -2.44063,4.66299 -1.984252,10.34787 1.121102,14.15774 2.936692,3.59149 7.520312,5.8832 12.907562,6.45864 0.8433,0.0894 1.68661,0.12897 2.52992,0.12897 4.39512,0 8.76047,-1.19055 12.30236,-3.38315 3.63118,-2.54976 5.73449,-6.49842 6.40914,-12.08399 0.55559,-4.60356 0.16866,-10.46693 -1.22032,-18.47349 -0.35716,-2.07354 -0.89291,-5.07968 -1.54771,-8.80998 5.70472,-1.90498 9.83196,-5.44687 13.57228,-11.2508 3.26409,-5.69473 4.19669,-11.7467 2.77795,-17.99709 m -33.94065,25.9837 c -4.60346,-1.21039 -8.99858,-3.69071 -12.72897,-7.16315 -1.29969,-1.22031 -3.154966,-3.37323 -4.613391,-6.73648 -1.359212,-3.13517 -2.014035,-6.53815 -1.964429,-10.09982 0.06947,-4.65311 1.369154,-9.4352 3.85939,-14.18738 2.89701,-5.53616 7.4211,-11.02262 13.43339,-16.31065 1.43858,-1.26982 2.79779,-2.53974 4.07763,-3.80976 0.75402,4.22655 1.57748,8.87952 2.45055,13.7212 -3.81968,1.2599 -8.53228,4.38509 -11.61779,9.99061 -3.51213,6.51828 -3.37323,11.99484 -2.64898,15.44742 0.9326,4.42494 3.44268,8.15529 6.87544,10.2289 0.92267,0.55549 5.02015,2.66872 6.84567,2.09328 0.36708,-0.11905 0.63496,-0.33732 0.77385,-0.66472 0.50599,-1.16079 -0.50598,-1.79565 -2.0537,-2.74819 -0.59527,-0.36701 -1.26,-0.78372 -1.98425,-1.30953 -3.29386,-2.47043 -4.73244,-6.88539 -3.67087,-11.23088 0.57544,-2.38111 1.84536,-4.52416 3.67087,-6.21077 1.65685,-1.5378 3.68079,-2.62914 6.04205,-3.264 2.02394,11.1514 4.06772,22.21361 5.6948,30.50788 0.12898,0.68447 0.26788,1.34919 0.39685,2.01391 -4.34551,0.92268 -8.66126,0.83349 -12.83811,-0.26787 m 11.23087,-32.91874 c 10.2685,-0.4663 14.50488,6.91518 15.38787,11.70713 0.4663,2.51006 0.45638,6.91513 -1.07149,11.09193 -1.16079,3.15496 -3.60142,7.19291 -8.69103,9.23679 -0.0695,-0.4167 -0.14882,-0.84331 -0.22819,-1.27002 -1.52787,-8.70087 -3.4526,-19.60437 -5.39716,-30.76583 m -7.26236,-70.38142 c 1.76598,-5.6947 4.48441,-8.91911 6.45874,-10.63549 1.73622,-1.50803 3.37322,-2.21254 4.28598,-2.21254 0.1389,0 0.25795,0.0198 0.35717,0.0496 0.45637,0.13889 0.9822,0.7045 1.4485,1.56765 2.29181,4.25613 1.55764,10.91339 0.22819,15.31833 -1.61717,5.35748 -4.51417,10.93323 -13.24488,20.46756 -0.16866,-1.10126 -0.32741,-2.14299 -0.47622,-3.11518 -1.24016,-8.22482 -0.92268,-15.43758 0.94252,-21.43994"
     id="path80"
     style="stroke-width:0.992126" />
  <path
     class="TimeSig"
     d="m 174.32377,337.12339 h 17.04469 v 7.36158 h -8.1652 c -0.77376,0 -1.3988,0.62504 -1.3988,1.3989 v 1.89496 c 0,0.77386 0.62504,1.39889 1.3988,1.39889 h 30.01181 c 0.77386,0 1.3989,-0.62503 1.3989,-1.39889 v -1.89496 c 0,-0.77386 -0.62504,-1.3989 -1.3989,-1.3989 h -8.8696 v -7.36158 h 8.8696 c 0.77386,0 1.3989,-0.62504 1.3989,-1.39889 v -1.89498 c 0,-0.77384 -0.62504,-1.39886 -1.3989,-1.39886 h -8.8696 v -15.83439 c 0,-0.53569 -0.29764,-1.01189 -0.77386,-1.25004 l -1.20038,-0.59528 c -0.52582,-0.25795 -1.15096,-0.16866 -1.57758,0.22817 l -8.97874,8.25451 c -0.28761,0.26789 -0.45628,0.635 -0.45628,1.03185 v 8.16518 h -11.41946 c 0,0 11.03244,-11.93526 22.77931,-27.58112 0.86315,-1.14095 0.36708,-2.18268 0.17848,-2.37119 l -2.15291,-2.19259 c -0.26788,-0.25796 -0.62504,-0.40678 -0.99213,-0.40678 -0.59527,0 -14.03858,0.0198 -14.75291,0 -0.71423,-0.0198 -1.25008,0.59528 -1.31953,1.2104 0,0 -0.53565,7.30204 -3.1152,15.36805 -2.57952,8.05608 -5.49641,12.99685 -8.13543,16.59825 0,0 -0.53579,0.98224 -0.17866,1.71638 0.34724,0.74409 0.97236,1.82551 0.97236,1.82551 0,0 0.25791,0.52582 1.10122,0.52582"
     id="path82"
     style="stroke-width:0.992126" />
  <path
     class="TimeSig"
     d="m 174.32377,386.46639 h 17.04469 v 7.36158 h -8.1652 c -0.77376,0 -1.3988,0.62504 -1.3988,1.3989 v 1.89496 c 0,0.77386 0.62504,1.39889 1.3988,1.39889 h 30.01181 c 0.77386,0 1.3989,-0.62503 1.3989,-1.39889 v -1.89496 c 0,-0.77386 -0.62504,-1.3989 -1.3989,-1.3989 h -8.8696 v -7.36158 h 8.8696 c 0.77386,0 1.3989,-0.62504 1.3989,-1.39889 v -1.89498 c 0,-0.77384 -0.62504,-1.39886 -1.3989,-1.39886 h -8.8696 v -15.83439 c 0,-0.53569 -0.29764,-1.01189 -0.77386,-1.25004 l -1.20038,-0.59528 c -0.52582,-0.25795 -1.15096,-0.16866 -1.57758,0.22817 l -8.97874,8.25451 c -0.28761,0.26789 -0.45628,0.635 -0.45628,1.03185 v 8.16518 h -11.41946 c 0,0 11.03244,-11.93526 22.77931,-27.58112 0.86315,-1.14095 0.36708,-2.18268 0.17848,-2.37119 l -2.15291,-2.19259 c -0.26788,-0.25796 -0.62504,-0.40678 -0.99213,-0.40678 -0.59527,0 -14.03858,0.0199 -14.75291,0 -0.71423,-0.0198 -1.25008,0.59528 -1.31953,1.2104 0,0 -0.53565,7.30204 -3.1152,15.36805 -2.57952,8.05608 -5.49641,12.99685 -8.13543,16.59825 0,0 -0.53579,0.98224 -0.17866,1.71638 0.34724,0.74409 0.97236,1.82551 0.97236,1.82551 0,0 0.25791,0.52582 1.10122,0.52582"
     id="path84"
     style="stroke-width:0.992126" />
  <path
     class="Beam"
     fill-rule="evenodd"
     d="m 281.873,336.838 165.099,6.305 v 12.411 l -165.099,-6.305 v -12.411"
     id="path86" />
  <path
     class="Beam"
     fill-rule="evenodd"
     d="m 606.615,361.646 h 165.101 v 12.401 H 606.615 v -12.401"
     id="path88" />
  <path
     class="Beam"
     fill-rule="evenodd"
     d="m 931.356,367.842 165.1,-6.305 v 12.411 l -165.1,6.305 v -12.411"
     id="path90" />
  <path
     class="Beam"
     fill-rule="evenodd"
     d="m 1256.096,367.842 165.1,6.305 v 12.411 l -165.1,-6.305 v -12.411"
     id="path92" />
  <path
     class="Beam"
     fill-rule="evenodd"
     d="m 1617.556,392.646 188.88,6.292 v 12.408 l -188.88,-6.291 v -12.409"
     id="path94" />
  <path
     class="Lyrics"
     d="m 156.835,532.948 v -37.696 h 5.665 c 2.522,0 4.532,0.196 6.03,0.586 1.513,0.391 2.791,1.05 3.833,1.978 1.058,0.96 1.896,2.156 2.514,3.589 0.635,1.448 0.953,2.913 0.953,4.394 0,2.702 -1.034,4.989 -3.101,6.86 2.002,0.684 3.581,1.88 4.736,3.589 1.172,1.693 1.758,3.662 1.758,5.909 0,2.945 -1.041,5.436 -3.125,7.47 -1.253,1.253 -2.661,2.124 -4.223,2.613 -1.709,0.472 -3.85,0.708 -6.421,0.708 h -8.619 m 5.689,-21.509 h 1.782 c 2.116,0 3.666,-0.468 4.651,-1.404 0.985,-0.936 1.477,-2.315 1.477,-4.138 0,-1.774 -0.504,-3.121 -1.514,-4.041 -1.009,-0.919 -2.474,-1.379 -4.394,-1.379 h -2.002 v 10.962 m 0,16.162 h 3.516 c 2.571,0 4.459,-0.505 5.664,-1.514 1.269,-1.09 1.904,-2.474 1.904,-4.15 0,-1.628 -0.61,-2.995 -1.831,-4.102 -1.188,-1.09 -3.312,-1.636 -6.372,-1.636 h -2.881 v 11.402"
     id="path96" />
  <path
     class="Lyrics"
     d="m 201.531,516.448 c 0,-4.05 -2.45,-6.65 -5.45,-6.65 -4.25,0 -5.9,2.5 -6.6,4.5 v -15.45 h -2.95 v 31.3 c 6.3,-0.35 15,-3.1 15,-13.7 m -3.6,1.75 c 0,6.85 -4.75,9.35 -8.45,9.6 v -10.05 c 0,-2.2 1.6,-5.55 5.15,-5.55 2.05,0 3.35,2.65 3.35,6 h -0.05"
     id="path98" />
  <path
     class="Lyrics"
     d="m 243.573,510.194 v 7.299 c -1.253,-1.53 -2.377,-2.579 -3.369,-3.149 -0.977,-0.586 -2.124,-0.879 -3.443,-0.879 -2.067,0 -3.784,0.724 -5.151,2.173 -1.367,1.449 -2.051,3.263 -2.051,5.444 0,2.23 0.659,4.061 1.978,5.493 1.334,1.433 3.035,2.149 5.102,2.149 1.319,0 2.482,-0.285 3.491,-0.855 0.977,-0.553 2.124,-1.627 3.443,-3.222 v 7.251 c -2.23,1.155 -4.46,1.733 -6.69,1.733 -3.678,0 -6.754,-1.188 -9.228,-3.564 -2.474,-2.393 -3.711,-5.363 -3.711,-8.911 0,-3.549 1.253,-6.543 3.76,-8.985 2.506,-2.441 5.582,-3.662 9.228,-3.662 2.344,0 4.557,0.562 6.641,1.685 m 6.603,-18.482 h 5.493 v 19.434 c 1.954,-1.758 4.11,-2.637 6.47,-2.637 2.686,0 4.834,0.871 6.446,2.612 1.367,1.514 2.05,3.931 2.05,7.251 v 14.576 h -5.493 v -14.063 c 0,-1.904 -0.338,-3.284 -1.013,-4.138 -0.676,-0.855 -1.762,-1.282 -3.259,-1.282 -1.921,0 -3.272,0.594 -4.053,1.782 -0.765,1.205 -1.148,3.272 -1.148,6.201 v 11.5 h -5.493 v -41.236 m 27.407,17.456 h 5.493 v 2.124 c 1.009,-1.058 1.904,-1.782 2.685,-2.173 0.798,-0.407 1.742,-0.61 2.832,-0.61 1.449,0 2.963,0.472 4.541,1.416 l -2.514,5.029 c -1.042,-0.748 -2.059,-1.123 -3.052,-1.123 -2.995,0 -4.492,2.263 -4.492,6.787 v 12.33 h -5.493 v -23.78 m 17.127,11.719 c 0,-3.434 1.228,-6.356 3.686,-8.765 2.458,-2.409 5.453,-3.613 8.984,-3.613 3.549,0 6.56,1.213 9.034,3.638 2.441,2.425 3.662,5.403 3.662,8.935 0,3.565 -1.229,6.551 -3.687,8.96 -2.474,2.393 -5.509,3.589 -9.106,3.589 -3.565,0 -6.551,-1.221 -8.96,-3.662 -2.409,-2.409 -3.613,-5.436 -3.613,-9.082 m 5.615,0.098 c 0,2.376 0.635,4.256 1.904,5.639 1.302,1.4 3.019,2.1 5.151,2.1 2.149,0 3.866,-0.692 5.152,-2.075 1.286,-1.384 1.928,-3.231 1.928,-5.542 0,-2.312 -0.642,-4.159 -1.928,-5.542 -1.302,-1.4 -3.019,-2.1 -5.152,-2.1 -2.099,0 -3.8,0.7 -5.102,2.1 -1.302,1.399 -1.953,3.206 -1.953,5.42 m 25.554,-11.817 h 5.494 v 2.197 c 1.058,-1.106 1.961,-1.855 2.71,-2.246 0.797,-0.407 1.798,-0.61 3.002,-0.61 2.686,0 4.81,1.172 6.373,3.516 1.725,-2.344 4.06,-3.516 7.006,-3.516 5.355,0 8.033,3.247 8.033,9.741 v 14.698 h -5.518 V 519.74 c 0,-2.279 -0.277,-3.89 -0.83,-4.834 -0.57,-0.961 -1.506,-1.441 -2.808,-1.441 -1.513,0 -2.616,0.57 -3.308,1.709 -0.691,1.139 -1.037,2.97 -1.037,5.493 v 12.281 h -5.518 v -13.135 c 0,-4.232 -1.221,-6.348 -3.662,-6.348 -1.546,0 -2.673,0.578 -3.381,1.733 -0.708,1.156 -1.062,2.979 -1.062,5.469 v 12.281 h -5.494 v -23.78 m 57.077,0 h 5.517 v 23.78 h -5.517 v -2.491 c -2.263,2.116 -4.696,3.174 -7.3,3.174 -3.288,0 -6.006,-1.188 -8.154,-3.564 -2.133,-2.425 -3.199,-5.453 -3.199,-9.082 0,-3.565 1.066,-6.535 3.199,-8.912 2.132,-2.376 4.801,-3.564 8.007,-3.564 2.767,0 5.249,1.139 7.447,3.418 v -2.759 m -13.038,11.817 c 0,2.278 0.611,4.134 1.832,5.566 1.253,1.449 2.832,2.173 4.736,2.173 2.034,0 3.678,-0.7 4.932,-2.1 1.253,-1.448 1.879,-3.287 1.879,-5.517 0,-2.23 -0.626,-4.069 -1.879,-5.518 -1.254,-1.416 -2.881,-2.124 -4.883,-2.124 -1.888,0 -3.467,0.716 -4.737,2.149 -1.253,1.448 -1.88,3.238 -1.88,5.371 m 31.141,-6.69 v 18.653 h -5.493 v -18.653 h -2.344 v -5.127 h 2.344 v -8.716 h 5.493 v 8.716 h 4.273 v 5.127 h -4.273 m 13.501,-5.127 v 23.78 h -5.493 v -23.78 h 5.493 m -6.323,-9.887 c 0,-0.961 0.35,-1.791 1.05,-2.491 0.7,-0.7 1.538,-1.05 2.514,-1.05 0.993,0 1.84,0.35 2.539,1.05 0.7,0.684 1.05,1.522 1.05,2.515 0,0.993 -0.35,1.839 -1.05,2.539 -0.683,0.7 -1.521,1.05 -2.514,1.05 -0.993,0 -1.839,-0.35 -2.539,-1.05 -0.7,-0.7 -1.05,-1.554 -1.05,-2.563 m 31.773,10.913 v 7.299 c -1.253,-1.53 -2.376,-2.579 -3.369,-3.149 -0.976,-0.586 -2.124,-0.879 -3.442,-0.879 -2.067,0 -3.784,0.724 -5.152,2.173 -1.367,1.449 -2.05,3.263 -2.05,5.444 0,2.23 0.659,4.061 1.977,5.493 1.335,1.433 3.036,2.149 5.103,2.149 1.318,0 2.482,-0.285 3.491,-0.855 0.976,-0.553 2.124,-1.627 3.442,-3.222 v 7.251 c -2.23,1.155 -4.459,1.733 -6.689,1.733 -3.679,0 -6.755,-1.188 -9.229,-3.564 -2.474,-2.393 -3.711,-5.363 -3.711,-8.911 0,-3.549 1.254,-6.543 3.76,-8.985 2.507,-2.441 5.583,-3.662 9.229,-3.662 2.343,0 4.557,0.562 6.64,1.685"
     id="path100" />
  <path
     class="Lyrics"
     d="m 188.684,558.426 5.078,1.953 c -1.774,4.248 -3.019,8.17 -3.735,11.767 -0.358,1.823 -0.627,3.74 -0.806,5.75 -0.179,2.01 -0.268,4.203 -0.268,6.579 0,2.393 0.089,4.594 0.268,6.604 0.179,2.01 0.448,3.927 0.806,5.75 0.7,3.581 1.945,7.495 3.735,11.743 l -5.078,1.953 c -3.548,-7.438 -5.322,-16.121 -5.322,-26.05 0,-9.928 1.774,-18.611 5.322,-26.049 m 17.418,0.415 v 41.235 h -5.493 v -41.235 h 5.493 m 5.822,29.174 c 0,-3.434 1.228,-6.355 3.686,-8.764 2.458,-2.409 5.453,-3.614 8.984,-3.614 3.549,0 6.56,1.213 9.034,3.638 2.441,2.425 3.662,5.404 3.662,8.936 0,3.564 -1.229,6.551 -3.687,8.96 -2.474,2.392 -5.509,3.589 -9.106,3.589 -3.565,0 -6.551,-1.221 -8.96,-3.663 -2.409,-2.408 -3.613,-5.436 -3.613,-9.082 m 5.615,0.098 c 0,2.376 0.635,4.256 1.904,5.64 1.302,1.399 3.019,2.099 5.151,2.099 2.149,0 3.866,-0.691 5.152,-2.075 1.286,-1.383 1.929,-3.231 1.929,-5.542 0,-2.311 -0.643,-4.158 -1.929,-5.542 -1.302,-1.4 -3.019,-2.099 -5.152,-2.099 -2.099,0 -3.8,0.699 -5.102,2.099 -1.302,1.4 -1.953,3.207 -1.953,5.42 m 24.431,-0.098 c 0,-3.434 1.229,-6.355 3.687,-8.764 2.458,-2.409 5.452,-3.614 8.984,-3.614 3.548,0 6.56,1.213 9.034,3.638 2.441,2.425 3.662,5.404 3.662,8.936 0,3.564 -1.229,6.551 -3.687,8.96 -2.474,2.392 -5.509,3.589 -9.106,3.589 -3.565,0 -6.551,-1.221 -8.96,-3.663 -2.409,-2.408 -3.614,-5.436 -3.614,-9.082 m 5.616,0.098 c 0,2.376 0.634,4.256 1.904,5.64 1.302,1.399 3.019,2.099 5.151,2.099 2.149,0 3.866,-0.691 5.152,-2.075 1.285,-1.383 1.928,-3.231 1.928,-5.542 0,-2.311 -0.643,-4.158 -1.928,-5.542 -1.302,-1.4 -3.02,-2.099 -5.152,-2.099 -2.099,0 -3.8,0.699 -5.102,2.099 -1.302,1.4 -1.953,3.207 -1.953,5.42 m 31.047,24.902 h -5.493 v -36.718 h 5.493 v 2.588 c 2.165,-2.165 4.623,-3.248 7.374,-3.248 3.271,0 5.965,1.205 8.081,3.614 2.148,2.392 3.222,5.412 3.222,9.057 0,3.565 -1.066,6.535 -3.198,8.912 -2.116,2.36 -4.785,3.54 -8.008,3.54 -2.783,0 -5.273,-1.115 -7.471,-3.345 v 15.6 m 13.062,-24.682 c 0,-2.279 -0.618,-4.134 -1.855,-5.567 -1.254,-1.448 -2.832,-2.172 -4.737,-2.172 -2.018,0 -3.654,0.699 -4.907,2.099 -1.253,1.4 -1.88,3.239 -1.88,5.518 0,2.23 0.627,4.069 1.88,5.517 1.237,1.416 2.865,2.124 4.883,2.124 1.904,0 3.475,-0.716 4.712,-2.148 1.269,-1.432 1.904,-3.223 1.904,-5.371 m 48.027,1.22 h 4.004 v 5.176 h -4.004 v 5.347 h -5.688 v -5.347 h -18.506 l 24.194,-35.156 v 29.98 m -5.688,0 v -12.622 l -8.692,12.622 h 8.692"
     id="path102" />
  <path
     class="Lyrics"
     d="m 377.483,603.103 10.547,-10.547 h -8.74 v -28.613 h -3.614 v 28.613 h -8.74 l 10.547,10.547"
     id="path104" />
  <path
     class="Lyrics"
     d="m 402.067,610.525 -5.078,-1.953 c 1.79,-4.248 3.035,-8.162 3.735,-11.743 0.733,-3.581 1.099,-7.699 1.099,-12.354 0,-4.622 -0.366,-8.732 -1.099,-12.329 -0.716,-3.597 -1.961,-7.519 -3.735,-11.767 l 5.078,-1.953 c 3.548,7.438 5.322,16.121 5.322,26.049 0,9.929 -1.774,18.612 -5.322,26.05"
     id="path106" />
  <path
     class="Lyrics"
     d="m 803.406,500.599 h -13.13 v 9.058 h 12.67 v 5.346 h -12.67 v 17.945 h -5.69 v -37.696 h 18.82 v 5.347 m 26.45,-8.887 v 20.215 c 2.2,-2.279 4.69,-3.418 7.47,-3.418 3.21,0 5.88,1.196 8.01,3.589 2.13,2.376 3.2,5.338 3.2,8.887 0,3.662 -1.08,6.689 -3.22,9.082 -2.14,2.376 -4.83,3.564 -8.09,3.564 -2.75,0 -5.2,-1.058 -7.37,-3.174 v 2.491 h -5.49 v -41.236 h 5.49 m 13.06,29.517 c 0,-2.279 -0.62,-4.134 -1.85,-5.567 -1.26,-1.464 -2.83,-2.197 -4.71,-2.197 -2.02,0 -3.67,0.708 -4.94,2.124 -1.25,1.4 -1.88,3.223 -1.88,5.469 0,2.311 0.62,4.158 1.86,5.542 1.24,1.416 2.86,2.124 4.88,2.124 1.91,0 3.49,-0.708 4.74,-2.124 1.27,-1.432 1.9,-3.223 1.9,-5.371 m 33.07,1.123 h -17.04 c 0.15,1.953 0.78,3.507 1.91,4.663 1.12,1.139 2.56,1.709 4.32,1.709 1.36,0 2.5,-0.326 3.39,-0.977 0.88,-0.651 1.88,-1.855 3,-3.613 l 4.64,2.588 c -0.71,1.221 -1.47,2.266 -2.27,3.137 -0.8,0.871 -1.65,1.587 -2.56,2.149 -0.91,0.561 -1.9,0.972 -2.96,1.232 -1.05,0.261 -2.2,0.391 -3.44,0.391 -3.55,0 -6.39,-1.139 -8.54,-3.418 -2.15,-2.295 -3.23,-5.338 -3.23,-9.131 0,-3.759 1.05,-6.803 3.13,-9.131 2.1,-2.294 4.88,-3.442 8.35,-3.442 3.5,0 6.26,1.115 8.3,3.345 2.02,2.213 3.03,5.281 3.03,9.204 l -0.03,1.294 m -5.64,-4.492 c -0.76,-2.93 -2.61,-4.395 -5.54,-4.395 -0.67,0 -1.29,0.102 -1.88,0.305 -0.59,0.204 -1.12,0.497 -1.6,0.879 -0.48,0.383 -0.89,0.842 -1.23,1.38 -0.34,0.537 -0.6,1.147 -0.78,1.831 h 11.03 m 17.14,-26.148 v 20.215 c 2.19,-2.279 4.68,-3.418 7.47,-3.418 3.2,0 5.87,1.196 8.01,3.589 2.13,2.376 3.19,5.338 3.19,8.887 0,3.662 -1.07,6.689 -3.22,9.082 -2.13,2.376 -4.83,3.564 -8.08,3.564 -2.75,0 -5.21,-1.058 -7.37,-3.174 v 2.491 h -5.5 v -41.236 h 5.5 m 13.06,29.517 c 0,-2.279 -0.62,-4.134 -1.86,-5.567 -1.25,-1.464 -2.82,-2.197 -4.71,-2.197 -2.02,0 -3.66,0.708 -4.93,2.124 -1.25,1.4 -1.88,3.223 -1.88,5.469 0,2.311 0.62,4.158 1.85,5.542 1.24,1.416 2.87,2.124 4.89,2.124 1.9,0 3.48,-0.708 4.73,-2.124 1.27,-1.432 1.91,-3.223 1.91,-5.371 m 10.29,-0.342 c 0,-3.434 1.23,-6.356 3.69,-8.765 2.45,-2.409 5.45,-3.613 8.98,-3.613 3.55,0 6.56,1.213 9.03,3.638 2.44,2.425 3.67,5.403 3.67,8.935 0,3.565 -1.23,6.551 -3.69,8.96 -2.48,2.393 -5.51,3.589 -9.11,3.589 -3.56,0 -6.55,-1.221 -8.96,-3.662 -2.41,-2.409 -3.61,-5.436 -3.61,-9.082 m 5.61,0.098 c 0,2.376 0.64,4.256 1.91,5.639 1.3,1.4 3.02,2.1 5.15,2.1 2.15,0 3.87,-0.692 5.15,-2.075 1.29,-1.384 1.93,-3.231 1.93,-5.542 0,-2.312 -0.64,-4.159 -1.93,-5.542 -1.3,-1.4 -3.02,-2.1 -5.15,-2.1 -2.1,0 -3.8,0.7 -5.1,2.1 -1.3,1.399 -1.96,3.206 -1.96,5.42 m 31.05,24.902 h -5.49 v -36.719 h 5.49 v 2.588 c 2.17,-2.165 4.62,-3.247 7.38,-3.247 3.27,0 5.96,1.204 8.08,3.613 2.14,2.393 3.22,5.412 3.22,9.058 0,3.564 -1.07,6.535 -3.2,8.911 -2.12,2.36 -4.78,3.54 -8.01,3.54 -2.78,0 -5.27,-1.115 -7.47,-3.345 v 15.601 m 13.06,-24.683 c 0,-2.278 -0.61,-4.134 -1.85,-5.566 -1.26,-1.449 -2.83,-2.173 -4.74,-2.173 -2.02,0 -3.65,0.7 -4.91,2.1 -1.25,1.399 -1.88,3.239 -1.88,5.517 0,2.23 0.63,4.069 1.88,5.518 1.24,1.416 2.87,2.124 4.89,2.124 1.9,0 3.47,-0.716 4.71,-2.149 1.27,-1.432 1.9,-3.222 1.9,-5.371 m 7.95,-2.734 h 10.89 v 4.785 h -10.89 v -4.785 m 14.34,-9.302 h 5.5 v 2.197 c 1.05,-1.106 1.96,-1.855 2.71,-2.246 0.79,-0.407 1.79,-0.61 3,-0.61 2.68,0 4.81,1.172 6.37,3.516 1.73,-2.344 4.06,-3.516 7.01,-3.516 5.35,0 8.03,3.247 8.03,9.741 v 14.698 h -5.52 V 519.74 c 0,-2.279 -0.27,-3.89 -0.83,-4.834 -0.57,-0.961 -1.5,-1.441 -2.81,-1.441 -1.51,0 -2.61,0.57 -3.3,1.709 -0.7,1.139 -1.04,2.97 -1.04,5.493 v 12.281 h -5.52 v -13.135 c 0,-4.232 -1.22,-6.348 -3.66,-6.348 -1.55,0 -2.67,0.578 -3.38,1.733 -0.71,1.156 -1.06,2.979 -1.06,5.469 v 12.281 h -5.5 v -23.78 m 57.08,0 h 5.52 v 23.78 h -5.52 v -2.491 c -2.26,2.116 -4.7,3.174 -7.3,3.174 -3.29,0 -6.01,-1.188 -8.16,-3.564 -2.13,-2.425 -3.19,-5.453 -3.19,-9.082 0,-3.565 1.06,-6.535 3.19,-8.912 2.14,-2.376 4.81,-3.564 8.01,-3.564 2.77,0 5.25,1.139 7.45,3.418 v -2.759 m -13.04,11.817 c 0,2.278 0.61,4.134 1.83,5.566 1.26,1.449 2.83,2.173 4.74,2.173 2.03,0 3.68,-0.7 4.93,-2.1 1.25,-1.448 1.88,-3.287 1.88,-5.517 0,-2.23 -0.63,-4.069 -1.88,-5.518 -1.25,-1.416 -2.88,-2.124 -4.88,-2.124 -1.89,0 -3.47,0.716 -4.74,2.149 -1.25,1.448 -1.88,3.238 -1.88,5.371 m 31.58,-11.817 v 36.719 h -5.49 v -36.719 h 5.49 m -6.32,-9.887 c 0,-0.961 0.35,-1.791 1.05,-2.491 0.7,-0.7 1.54,-1.05 2.51,-1.05 0.99,0 1.84,0.35 2.54,1.05 0.7,0.684 1.05,1.522 1.05,2.515 0,0.993 -0.35,1.839 -1.05,2.539 -0.68,0.7 -1.52,1.05 -2.51,1.05 -1,0 -1.84,-0.35 -2.54,-1.05 -0.7,-0.7 -1.05,-1.554 -1.05,-2.563 m 12.14,21.606 c 0,-3.434 1.23,-6.356 3.69,-8.765 2.46,-2.409 5.45,-3.613 8.98,-3.613 3.55,0 6.56,1.213 9.04,3.638 2.44,2.425 3.66,5.403 3.66,8.935 0,3.565 -1.23,6.551 -3.69,8.96 -2.47,2.393 -5.51,3.589 -9.1,3.589 -3.57,0 -6.56,-1.221 -8.96,-3.662 -2.41,-2.409 -3.62,-5.436 -3.62,-9.082 m 5.62,0.098 c 0,2.376 0.63,4.256 1.9,5.639 1.3,1.4 3.02,2.1 5.15,2.1 2.15,0 3.87,-0.692 5.15,-2.075 1.29,-1.384 1.93,-3.231 1.93,-5.542 0,-2.312 -0.64,-4.159 -1.93,-5.542 -1.3,-1.4 -3.01,-2.1 -5.15,-2.1 -2.1,0 -3.8,0.7 -5.1,2.1 -1.3,1.399 -1.95,3.206 -1.95,5.42 m 25.55,-11.817 h 5.5 v 2.124 c 1,-1.058 1.9,-1.782 2.68,-2.173 0.8,-0.407 1.74,-0.61 2.83,-0.61 1.45,0 2.97,0.472 4.54,1.416 l -2.51,5.029 c -1.04,-0.748 -2.06,-1.123 -3.05,-1.123 -3,0 -4.49,2.263 -4.49,6.787 v 12.33 h -5.5 v -23.78"
     id="path108" />
  <path
     class="Lyrics"
     d="m 740.466,558.426 5.08,1.953 c -1.78,4.248 -3.02,8.17 -3.74,11.767 -0.36,1.823 -0.63,3.74 -0.8,5.75 -0.18,2.01 -0.27,4.203 -0.27,6.579 0,2.393 0.09,4.594 0.27,6.604 0.17,2.01 0.44,3.927 0.8,5.75 0.7,3.581 1.95,7.495 3.74,11.743 l -5.08,1.953 c -3.55,-7.438 -5.32,-16.121 -5.32,-26.05 0,-9.928 1.77,-18.611 5.32,-26.049 m 22.01,9.277 h -6.52 l 3.12,-5.322 h 9.08 v 37.695 h -5.68 v -32.373 m 21.87,25.317 4.88,1.905 -6.96,13.94 -3.71,-1.538 5.79,-14.307"
     id="path110" />
  <path
     class="Lyrics"
     d="m 824.466,560.916 10.55,10.547 h -8.74 v 28.613 h -3.62 v -28.613 h -8.74 l 10.55,-10.547"
     id="path112" />
  <path
     class="Lyrics"
     d="m 847.436,593.02 4.89,1.905 -6.96,13.94 -3.71,-1.538 5.78,-14.307 m 32.95,-34.179 v 41.235 h -5.5 v -41.235 h 5.5 m 5.82,29.174 c 0,-3.434 1.23,-6.355 3.68,-8.764 2.46,-2.409 5.46,-3.614 8.99,-3.614 3.55,0 6.56,1.213 9.03,3.638 2.44,2.425 3.66,5.404 3.66,8.936 0,3.564 -1.22,6.551 -3.68,8.96 -2.48,2.392 -5.51,3.589 -9.11,3.589 -3.56,0 -6.55,-1.221 -8.96,-3.663 -2.41,-2.408 -3.61,-5.436 -3.61,-9.082 m 5.61,0.098 c 0,2.376 0.64,4.256 1.91,5.64 1.3,1.399 3.02,2.099 5.15,2.099 2.15,0 3.86,-0.691 5.15,-2.075 1.29,-1.383 1.93,-3.231 1.93,-5.542 0,-2.311 -0.64,-4.158 -1.93,-5.542 -1.3,-1.4 -3.02,-2.099 -5.15,-2.099 -2.1,0 -3.8,0.699 -5.1,2.099 -1.31,1.4 -1.96,3.207 -1.96,5.42 m 24.43,-0.098 c 0,-3.434 1.23,-6.355 3.69,-8.764 2.46,-2.409 5.45,-3.614 8.99,-3.614 3.54,0 6.55,1.213 9.03,3.638 2.44,2.425 3.66,5.404 3.66,8.936 0,3.564 -1.23,6.551 -3.69,8.96 -2.47,2.392 -5.51,3.589 -9.1,3.589 -3.57,0 -6.55,-1.221 -8.96,-3.663 -2.41,-2.408 -3.62,-5.436 -3.62,-9.082 m 5.62,0.098 c 0,2.376 0.63,4.256 1.9,5.64 1.31,1.399 3.02,2.099 5.16,2.099 2.14,0 3.86,-0.691 5.15,-2.075 1.28,-1.383 1.93,-3.231 1.93,-5.542 0,-2.311 -0.65,-4.158 -1.93,-5.542 -1.31,-1.4 -3.02,-2.099 -5.15,-2.099 -2.1,0 -3.8,0.699 -5.11,2.099 -1.3,1.4 -1.95,3.207 -1.95,5.42 m 31.05,24.902 h -5.5 v -36.718 h 5.5 v 2.588 c 2.16,-2.165 4.62,-3.248 7.37,-3.248 3.27,0 5.97,1.205 8.08,3.614 2.15,2.392 3.22,5.412 3.22,9.057 0,3.565 -1.06,6.535 -3.19,8.912 -2.12,2.36 -4.79,3.54 -8.01,3.54 -2.78,0 -5.27,-1.115 -7.47,-3.345 v 15.6 m 13.06,-24.682 c 0,-2.279 -0.62,-4.134 -1.86,-5.567 -1.25,-1.448 -2.83,-2.172 -4.73,-2.172 -2.02,0 -3.66,0.699 -4.91,2.099 -1.25,1.4 -1.88,3.239 -1.88,5.518 0,2.23 0.63,4.069 1.88,5.517 1.24,1.416 2.86,2.124 4.88,2.124 1.91,0 3.48,-0.716 4.72,-2.148 1.26,-1.432 1.9,-3.223 1.9,-5.371 m 48.03,1.22 h 4 v 5.176 h -4 v 5.347 h -5.69 v -5.347 h -18.51 l 24.2,-35.156 v 29.98 m -5.69,0 v -12.622 l -8.69,12.622 h 8.69"
     id="path114" />
  <path
     class="Lyrics"
     d="m 1051.766,603.103 10.54,-10.547 h -8.74 v -28.613 h -3.61 v 28.613 h -8.74 l 10.55,10.547"
     id="path116" />
  <path
     class="Lyrics"
     d="m 1074.736,593.02 4.88,1.905 -6.96,13.94 -3.71,-1.538 5.79,-14.307"
     id="path118" />
  <path
     class="Lyrics"
     d="m 1114.856,560.916 10.55,10.547 h -8.74 v 28.613 h -3.62 v -28.613 h -8.74 l 10.55,-10.547"
     id="path120" />
  <path
     class="Lyrics"
     d="m 1139.446,610.525 -5.08,-1.953 c 1.79,-4.248 3.03,-8.162 3.73,-11.743 0.73,-3.581 1.1,-7.699 1.1,-12.354 0,-4.622 -0.37,-8.732 -1.1,-12.329 -0.71,-3.597 -1.96,-7.519 -3.73,-11.767 l 5.08,-1.953 c 3.54,7.438 5.32,16.121 5.32,26.049 0,9.929 -1.78,18.612 -5.32,26.05"
     id="path122" />
  <metadata
     id="metadata969">
    <rdf:RDF>
      <cc:Work
         rdf:about="">
        <dc:title>Barry_Harris</dc:title>
      </cc:Work>
    </rdf:RDF>
  </metadata>
</svg>
