<?xml version="1.0" encoding="UTF-8" standalone="no"?>
<svg
   width="2571.1909"
   height="1015.945"
   viewBox="0 0 2571.191 1015.945"
   version="1.2"
   id="svg168"
   xmlns="http://www.w3.org/2000/svg"
   xmlns:svg="http://www.w3.org/2000/svg">
  <defs
     id="defs172" />
  <title
     id="title2">tmp04ngn6d0</title>
  <desc
     id="desc4">Generated by MuseScore 3.6.2</desc>
  <polyline
     class="StaffLines"
     fill="none"
     stroke="#000000"
     stroke-width="2.73"
     stroke-linejoin="bevel"
     points="336.614,634.252 2763.78,634.252"
     id="polyline6"
     transform="translate(-202.589,-388.685)" />
  <polyline
     class="StaffLines"
     fill="none"
     stroke="#000000"
     stroke-width="2.73"
     stroke-linejoin="bevel"
     points="336.614,659.055 2763.78,659.055"
     id="polyline8"
     transform="translate(-202.589,-388.685)" />
  <polyline
     class="StaffLines"
     fill="none"
     stroke="#000000"
     stroke-width="2.73"
     stroke-linejoin="bevel"
     points="336.614,683.858 2763.78,683.858"
     id="polyline10"
     transform="translate(-202.589,-388.685)" />
  <polyline
     class="StaffLines"
     fill="none"
     stroke="#000000"
     stroke-width="2.73"
     stroke-linejoin="bevel"
     points="336.614,708.661 2763.78,708.661"
     id="polyline12"
     transform="translate(-202.589,-388.685)" />
  <polyline
     class="StaffLines"
     fill="none"
     stroke="#000000"
     stroke-width="2.73"
     stroke-linejoin="bevel"
     points="336.614,733.465 2763.78,733.465"
     id="polyline14"
     transform="translate(-202.589,-388.685)" />
  <polyline
     class="StaffLines"
     fill="none"
     stroke="#000000"
     stroke-width="2.73"
     stroke-linejoin="bevel"
     points="212.598,1105.51 2763.78,1105.51"
     id="polyline16"
     transform="translate(-202.589,-388.685)" />
  <polyline
     class="StaffLines"
     fill="none"
     stroke="#000000"
     stroke-width="2.73"
     stroke-linejoin="bevel"
     points="212.598,1130.31 2763.78,1130.31"
     id="polyline18"
     transform="translate(-202.589,-388.685)" />
  <polyline
     class="StaffLines"
     fill="none"
     stroke="#000000"
     stroke-width="2.73"
     stroke-linejoin="bevel"
     points="212.598,1155.12 2763.78,1155.12"
     id="polyline20"
     transform="translate(-202.589,-388.685)" />
  <polyline
     class="StaffLines"
     fill="none"
     stroke="#000000"
     stroke-width="2.73"
     stroke-linejoin="bevel"
     points="212.598,1179.92 2763.78,1179.92"
     id="polyline22"
     transform="translate(-202.589,-388.685)" />
  <polyline
     class="StaffLines"
     fill="none"
     stroke="#000000"
     stroke-width="2.73"
     stroke-linejoin="bevel"
     points="212.598,1204.72 2763.78,1204.72"
     id="polyline24"
     transform="translate(-202.589,-388.685)" />
  <path
     class="Text"
     d="M 1042.331,77.852 V 10 h 10.19 c 4.54,0 8.16,0.352 10.86,1.055 2.72,0.703 5.02,1.889 6.89,3.559 1.91,1.729 3.42,3.882 4.53,6.46 1.14,2.608 1.72,5.244 1.72,7.91 0,4.864 -1.87,8.98 -5.59,12.349 3.61,1.231 6.45,3.384 8.53,6.46 2.11,3.047 3.16,6.592 3.16,10.635 0,5.303 -1.87,9.785 -5.62,13.447 -2.26,2.256 -4.79,3.823 -7.6,4.702 -3.08,0.85 -6.93,1.275 -11.56,1.275 h -15.51 m 10.24,-38.716 h 3.2 c 3.81,0 6.6,-0.843 8.37,-2.527 1.78,-1.685 2.66,-4.168 2.66,-7.449 0,-3.193 -0.9,-5.617 -2.72,-7.273 -1.82,-1.655 -4.45,-2.483 -7.91,-2.483 h -3.6 v 19.732 m 0,29.092 h 6.32 c 4.63,0 8.03,-0.909 10.2,-2.725 2.28,-1.963 3.43,-4.453 3.43,-7.471 0,-2.929 -1.1,-5.39 -3.3,-7.383 -2.14,-1.962 -5.96,-2.944 -11.47,-2.944 h -5.18 v 20.523 m 72.62,-33.179 h 9.93 v 42.803 h -9.93 v -4.483 c -4.07,3.809 -8.45,5.713 -13.14,5.713 -5.92,0 -10.81,-2.139 -14.68,-6.416 -3.83,-4.365 -5.75,-9.814 -5.75,-16.348 0,-6.416 1.92,-11.762 5.75,-16.04 3.84,-4.277 8.65,-6.416 14.42,-6.416 4.98,0 9.45,2.051 13.4,6.153 v -4.966 m -23.46,21.269 c 0,4.102 1.09,7.442 3.29,10.02 2.26,2.607 5.1,3.911 8.53,3.911 3.66,0 6.62,-1.26 8.87,-3.779 2.26,-2.608 3.39,-5.918 3.39,-9.932 0,-4.014 -1.13,-7.324 -3.39,-9.932 -2.25,-2.548 -5.18,-3.823 -8.79,-3.823 -3.39,0 -6.24,1.289 -8.52,3.867 -2.26,2.608 -3.38,5.831 -3.38,9.668 m 45.86,-21.269 h 9.89 v 3.823 c 1.82,-1.904 3.43,-3.208 4.83,-3.911 1.44,-0.732 3.14,-1.099 5.1,-1.099 2.61,0 5.33,0.85 8.18,2.549 l -4.53,9.053 c -1.88,-1.348 -3.71,-2.022 -5.49,-2.022 -5.39,0 -8.09,4.073 -8.09,12.217 v 22.193 h -9.89 V 35.049 m 35.02,0 h 9.89 v 3.823 c 1.81,-1.904 3.42,-3.208 4.83,-3.911 1.44,-0.732 3.13,-1.099 5.1,-1.099 2.6,0 5.33,0.85 8.17,2.549 l -4.53,9.053 c -1.87,-1.348 -3.7,-2.022 -5.49,-2.022 -5.39,0 -8.08,4.073 -8.08,12.217 v 22.193 h -9.89 V 35.049 m 51.1,34.848 -19.25,-34.848 h 11.47 l 13.1,24.609 12.21,-24.609 h 11.16 l -34.1,66.094 h -11.29 l 16.7,-31.246 m 75.31,-33.354 h 29.27 V 10 h 10.23 v 67.852 h -10.23 V 46.167 h -29.27 v 31.685 h -10.24 V 10 h 10.24 v 26.543 m 85.42,-1.494 h 9.93 v 42.803 h -9.93 v -4.483 c -4.07,3.809 -8.45,5.713 -13.14,5.713 -5.92,0 -10.81,-2.139 -14.68,-6.416 -3.83,-4.365 -5.75,-9.814 -5.75,-16.348 0,-6.416 1.92,-11.762 5.75,-16.04 3.84,-4.277 8.65,-6.416 14.42,-6.416 4.98,0 9.45,2.051 13.4,6.153 v -4.966 m -23.46,21.269 c 0,4.102 1.09,7.442 3.29,10.02 2.26,2.607 5.1,3.911 8.53,3.911 3.66,0 6.62,-1.26 8.87,-3.779 2.26,-2.608 3.39,-5.918 3.39,-9.932 0,-4.014 -1.13,-7.324 -3.39,-9.932 -2.25,-2.548 -5.18,-3.823 -8.79,-3.823 -3.39,0 -6.24,1.289 -8.52,3.867 -2.26,2.608 -3.38,5.831 -3.38,9.668 m 45.86,-21.269 h 9.89 v 3.823 c 1.82,-1.904 3.43,-3.208 4.83,-3.911 1.44,-0.732 3.14,-1.099 5.1,-1.099 2.61,0 5.33,0.85 8.18,2.549 l -4.53,9.053 c -1.88,-1.348 -3.71,-2.022 -5.49,-2.022 -5.39,0 -8.09,4.073 -8.09,12.217 v 22.193 h -9.89 V 35.049 m 35.02,0 h 9.89 v 3.823 c 1.81,-1.904 3.42,-3.208 4.83,-3.911 1.44,-0.732 3.13,-1.099 5.1,-1.099 2.6,0 5.33,0.85 8.17,2.549 l -4.53,9.053 c -1.87,-1.348 -3.7,-2.022 -5.49,-2.022 -5.39,0 -8.08,4.073 -8.08,12.217 v 22.193 h -9.89 V 35.049 m 44.9,0 v 42.803 h -9.89 V 35.049 h 9.89 m -11.38,-17.798 c 0,-1.729 0.63,-3.223 1.89,-4.482 1.26,-1.26 2.77,-1.89 4.53,-1.89 1.78,0 3.31,0.63 4.57,1.89 1.26,1.23 1.89,2.739 1.89,4.526 0,1.787 -0.63,3.311 -1.89,4.57 -1.23,1.26 -2.74,1.89 -4.53,1.89 -1.79,0 -3.31,-0.63 -4.57,-1.89 -1.26,-1.259 -1.89,-2.798 -1.89,-4.614 m 48.77,25.093 -8.17,4.35 c -1.29,-2.636 -2.89,-3.955 -4.79,-3.955 -0.91,0 -1.69,0.301 -2.33,0.901 -0.64,0.601 -0.97,1.37 -0.97,2.307 0,1.641 1.91,3.267 5.72,4.878 5.24,2.256 8.77,4.336 10.59,6.24 1.81,1.905 2.72,4.468 2.72,7.691 0,4.131 -1.52,7.588 -4.57,10.371 -2.96,2.637 -6.53,3.955 -10.72,3.955 -7.18,0 -12.26,-3.501 -15.25,-10.503 l 8.44,-3.911 c 1.17,2.051 2.06,3.354 2.68,3.911 1.2,1.113 2.63,1.67 4.3,1.67 3.34,0 5.01,-1.523 5.01,-4.57 0,-1.758 -1.29,-3.399 -3.86,-4.922 -1,-0.498 -2,-0.982 -2.99,-1.45 -1,-0.469 -2.01,-0.952 -3.03,-1.451 -2.87,-1.406 -4.9,-2.812 -6.07,-4.218 -1.49,-1.787 -2.24,-4.087 -2.24,-6.9 0,-3.72 1.28,-6.797 3.82,-9.228 2.61,-2.432 5.78,-3.648 9.5,-3.648 5.47,0 9.55,2.827 12.21,8.482"
     id="path26" />
  <path
     class="MeasureNumber"
     d="m 28.8,658.945 -1.04,1.84 c -1.6,2.76 -1.92,3 -3.96,3.04 h -9.28 c 0.96,-1.28 2.72,-2.76 5.92,-5 5.28,-3.64 5.64,-3.88 6.76,-4.76 3.2,-2.48 4.52,-4.84 4.52,-8 0,-4.2 -3.12,-7 -7.72,-7 -5.12,0 -9.56,3.76 -9.56,8.12 0,2.24 1.2,3.68 3.12,3.68 1.44,0 2.56,-1.08 2.56,-2.56 0,-1.04 -0.52,-1.72 -1.84,-2.44 -0.96,-0.48 -1.12,-0.68 -1.12,-1.16 0,-1.72 2.96,-3.64 5.68,-3.64 2.8,0 4.68,1.88 4.68,4.68 0,3 -1.32,5.2 -4.92,8.32 -10.64,9.24 -12.24,10.92 -12.6,13.16 h 17.16 l 3.08,-7.72 -1.44,-0.56"
     id="path28" />
  <polyline
     class="BarLine"
     fill="none"
     stroke="#000000"
     stroke-width="4.46"
     stroke-linejoin="bevel"
     points="2761.55,632.888 2761.55,734.829"
     id="polyline30"
     transform="translate(-202.589,-388.685)" />
  <polyline
     class="BarLine"
     fill="none"
     stroke="#000000"
     stroke-width="4.46"
     stroke-linejoin="bevel"
     points="2739.59,1104.15 2739.59,1206.09"
     id="polyline32"
     transform="translate(-202.589,-388.685)" />
  <polyline
     class="BarLine"
     fill="none"
     stroke="#000000"
     stroke-width="13.64"
     stroke-linejoin="bevel"
     points="2756.96,1104.15 2756.96,1206.09"
     id="polyline34"
     transform="translate(-202.589,-388.685)" />
  <path
     class="Accidental"
     d="m 336.82073,200.5242 c -0.59527,-3.86929 -2.97638,-7.54015 -8.03622,-7.54015 -4.96063,0 -7.83779,3.07559 -8.33386,3.67086 l 0.39685,-31.84724 c 0,-0.7937 -0.59527,-1.38898 -1.38897,-1.38898 h -1.19055 c -0.7937,0 -1.38898,0.59528 -1.38898,1.38898 l 0.49606,59.62677 c 0,0.7937 0.59528,1.38898 1.38898,1.38898 0.19842,0 0.59527,-0.0992 0.7937,-0.19843 0.39685,-0.19842 6.84567,-3.37323 12.20315,-9.42519 3.77008,-4.26615 5.25827,-9.12756 5.25827,-13.19528 0,-0.89291 -0.0992,-1.68661 -0.19843,-2.48032 m -6.84567,3.8693 c 0,1.48819 -0.39685,6.05196 -2.87716,9.82204 -1.68662,2.57953 -5.05984,5.25827 -6.94488,6.74646 l 0.29763,-19.34646 c 0.19843,-0.89291 1.68662,-3.77008 5.65512,-3.77008 3.57166,0 3.86929,3.37323 3.86929,5.4567 v 1.09134"
     id="path36"
     style="stroke-width:0.992126" />
  <path
     class="Accidental"
     d="m 895.81754,222.64846 c 0.59527,-0.0992 1.09133,-0.7937 1.09133,-1.38897 v -5.85355 c 0,-0.7937 -0.59527,-1.38897 -1.38897,-1.38897 h -0.19843 l -3.27401,0.69449 v -14.78268 h -2.77796 v 15.37795 l -8.82992,1.78583 v -13.98898 h -2.77795 v 14.58425 l -3.86929,0.79371 c -0.59528,0.0992 -1.09134,0.7937 -1.09134,1.38897 v 0.19843 5.75433 -0.19843 c 0,0.7937 0.59528,1.38898 1.38898,1.38898 h 0.29763 l 3.27402,-0.69449 v 16.37008 l -3.86929,0.7937 c -0.59528,0.0992 -1.09134,0.7937 -1.09134,1.38898 v 5.75433 c 0,0.7937 0.59528,1.38897 1.38898,1.38897 h 0.29763 l 3.27402,-0.69448 v 14.78267 h 2.77795 v -15.37795 l 8.82992,-1.78583 v 13.98898 h 2.77796 v -14.58425 l 3.77008,-0.69449 c 0.59527,-0.0992 1.09133,-0.7937 1.09133,-1.38898 v -5.85354 c 0,-0.7937 -0.59527,-1.38898 -1.38897,-1.38898 h -0.19843 l -3.27401,0.69449 v -16.37008 l 3.77008,-0.69449 m -15.37796,19.54489 v -16.46929 l 8.82992,-1.78583 v 16.37008 l -8.82992,1.88504"
     id="path38"
     style="stroke-width:0.992126" />
  <path
     class="Accidental"
     d="m 1172.0203,215.00909 c -0.1984,-0.19842 -0.4961,-0.29763 -0.7937,-0.29763 -0.099,0 -0.2976,0.0992 -0.3969,0.0992 l -12.5007,3.47244 v -17.3622 h -2.778 v 49.11024 c 0,0.7937 0.5953,1.28977 1.389,1.28977 h 0.3968 l 12.5008,-3.47245 v 17.36221 h 2.6788 v -49.11024 c 0,-0.39685 -0.1985,-0.89291 -0.4961,-1.09134 m -2.1827,24.60473 -11.5086,3.1748 v -16.27086 l 11.5086,-3.27402 v 16.37008"
     id="path40"
     style="stroke-width:0.992126" />
  <path
     class="Accidental"
     d="m 670.88954,743.51846 c 0.59527,-0.0992 1.09133,-0.7937 1.09133,-1.38897 v -5.85355 c 0,-0.7937 -0.59527,-1.38897 -1.38897,-1.38897 h -0.19843 l -3.27401,0.69449 v -14.78268 h -2.77796 v 15.37795 l -8.82992,1.78583 v -13.98898 h -2.77795 v 14.58425 l -3.86929,0.79371 c -0.59528,0.0992 -1.09134,0.7937 -1.09134,1.38897 v 0.19843 5.75433 -0.19843 c 0,0.7937 0.59528,1.38898 1.38898,1.38898 h 0.29763 l 3.27402,-0.69449 v 16.37008 l -3.86929,0.7937 c -0.59528,0.0992 -1.09134,0.7937 -1.09134,1.38898 v 5.75433 c 0,0.7937 0.59528,1.38897 1.38898,1.38897 h 0.29763 l 3.27402,-0.69448 v 14.78267 h 2.77795 v -15.37795 l 8.82992,-1.78583 v 13.98898 h 2.77796 v -14.58425 l 3.77008,-0.69449 c 0.59527,-0.0992 1.09133,-0.7937 1.09133,-1.38898 v -5.85354 c 0,-0.7937 -0.59527,-1.38898 -1.38897,-1.38898 h -0.19843 l -3.27401,0.69449 v -16.37008 l 3.77008,-0.69449 m -15.37796,19.54489 v -16.46929 l 8.82992,-1.78583 v 16.37008 l -8.82992,1.88504"
     id="path42"
     style="stroke-width:0.992126" />
  <polyline
     class="LedgerLine"
     fill="none"
     stroke="#000000"
     stroke-width="3.97"
     stroke-linejoin="bevel"
     points="545.805,609.449 595.404,609.449"
     id="polyline44"
     transform="translate(-202.589,-388.685)" />
  <polyline
     class="LedgerLine"
     fill="none"
     stroke="#000000"
     stroke-width="3.97"
     stroke-linejoin="bevel"
     points="821.409,609.449 871.007,609.449"
     id="polyline46"
     transform="translate(-202.589,-388.685)" />
  <polyline
     class="Stem"
     fill="none"
     stroke="#000000"
     stroke-width="2.73"
     stroke-linejoin="bevel"
     points="555.851,600.381 555.851,677.657"
     id="polyline48"
     transform="translate(-202.589,-388.685)" />
  <polyline
     class="Stem"
     fill="none"
     stroke="#000000"
     stroke-width="2.73"
     stroke-linejoin="bevel"
     points="831.454,612.782 831.454,683.858"
     id="polyline50"
     transform="translate(-202.589,-388.685)" />
  <polyline
     class="Stem"
     fill="none"
     stroke="#000000"
     stroke-width="2.73"
     stroke-linejoin="bevel"
     points="1107.06,625.184 1107.06,702.461"
     id="polyline52"
     transform="translate(-202.589,-388.685)" />
  <polyline
     class="Stem"
     fill="none"
     stroke="#000000"
     stroke-width="2.73"
     stroke-linejoin="bevel"
     points="1382.66,625.184 1382.66,702.461"
     id="polyline54"
     transform="translate(-202.589,-388.685)" />
  <polyline
     class="Stem"
     fill="none"
     stroke="#000000"
     stroke-width="2.73"
     stroke-linejoin="bevel"
     points="1658.26,637.585 1658.26,708.661"
     id="polyline56"
     transform="translate(-202.589,-388.685)" />
  <polyline
     class="Stem"
     fill="none"
     stroke="#000000"
     stroke-width="2.73"
     stroke-linejoin="bevel"
     points="1933.87,625.184 1933.87,702.461"
     id="polyline58"
     transform="translate(-202.589,-388.685)" />
  <polyline
     class="Stem"
     fill="none"
     stroke="#000000"
     stroke-width="2.73"
     stroke-linejoin="bevel"
     points="2209.47,637.585 2209.47,708.661"
     id="polyline60"
     transform="translate(-202.589,-388.685)" />
  <polyline
     class="Stem"
     fill="none"
     stroke="#000000"
     stroke-width="2.73"
     stroke-linejoin="bevel"
     points="2485.07,649.987 2485.07,714.862"
     id="polyline62"
     transform="translate(-202.589,-388.685)" />
  <polyline
     class="Stem"
     fill="none"
     stroke="#000000"
     stroke-width="2.73"
     stroke-linejoin="bevel"
     points="359.293,1133.65 359.293,1204.72"
     id="polyline64"
     transform="translate(-202.589,-388.685)" />
  <polyline
     class="Stem"
     fill="none"
     stroke="#000000"
     stroke-width="2.73"
     stroke-linejoin="bevel"
     points="882.134,1146.05 882.134,1210.93"
     id="polyline66"
     transform="translate(-202.589,-388.685)" />
  <polyline
     class="Stem"
     fill="none"
     stroke="#000000"
     stroke-width="2.73"
     stroke-linejoin="bevel"
     points="1404.97,1133.65 1404.97,1214.03"
     id="polyline68"
     transform="translate(-202.589,-388.685)" />
  <path
     class="Note"
     d="m 383.14997,200.32578 c -1.78583,-3.27402 -5.55591,-5.05984 -10.11969,-5.05984 -3.37322,0 -7.04409,0.99212 -10.61574,2.87716 -6.54804,3.47244 -10.51654,9.32599 -10.51654,14.38583 0,1.38898 0.29764,2.77795 0.99213,4.06772 1.78582,3.27401 5.5559,4.96063 10.11968,4.96063 3.37323,0 7.0441,-0.89292 10.61575,-2.77796 6.54803,-3.47244 10.51653,-9.32598 10.51653,-14.38582 0,-1.38898 -0.29763,-2.77796 -0.99212,-4.06772"
     id="path70"
     style="stroke-width:0.992126" />
  <path
     class="Note"
     d="m 658.75297,212.72778 c -1.78583,-3.27402 -5.55591,-5.05984 -10.11969,-5.05984 -3.37322,0 -7.04409,0.99212 -10.61574,2.87716 -6.54804,3.47244 -10.51654,9.32599 -10.51654,14.38583 0,1.38898 0.29764,2.77795 0.99213,4.06772 1.78582,3.27401 5.5559,4.96063 10.11968,4.96063 3.37323,0 7.0441,-0.89292 10.61575,-2.77796 6.54803,-3.47244 10.51653,-9.32598 10.51653,-14.38582 0,-1.38898 -0.29763,-2.77796 -0.99212,-4.06772"
     id="path72"
     style="stroke-width:0.992126" />
  <path
     class="Note"
     d="m 934.35297,225.12878 c -1.78583,-3.27402 -5.55591,-5.05984 -10.11969,-5.05984 -3.37322,0 -7.04409,0.99212 -10.61574,2.87716 -6.54804,3.47244 -10.51654,9.32599 -10.51654,14.38583 0,1.38898 0.29764,2.77795 0.99213,4.06772 1.78582,3.27401 5.5559,4.96063 10.11968,4.96063 3.37323,0 7.0441,-0.89292 10.61575,-2.77796 6.54803,-3.47244 10.51654,-9.32598 10.51654,-14.38582 0,-1.38898 -0.29764,-2.77796 -0.99213,-4.06772"
     id="path74"
     style="stroke-width:0.992126" />
  <path
     class="Note"
     d="m 1209.963,225.12878 c -1.7859,-3.27402 -5.5559,-5.05984 -10.1197,-5.05984 -3.3732,0 -7.0441,0.99212 -10.6158,2.87716 -6.548,3.47244 -10.5165,9.32599 -10.5165,14.38583 0,1.38898 0.2976,2.77795 0.9921,4.06772 1.7859,3.27401 5.5559,4.96063 10.1197,4.96063 3.3732,0 7.0441,-0.89292 10.6158,-2.77796 6.548,-3.47244 10.5165,-9.32598 10.5165,-14.38582 0,-1.38898 -0.2976,-2.77796 -0.9921,-4.06772"
     id="path76"
     style="stroke-width:0.992126" />
  <path
     class="Note"
     d="m 1485.563,237.53078 c -1.7859,-3.27402 -5.5559,-5.05984 -10.1197,-5.05984 -3.3732,0 -7.0441,0.99212 -10.6158,2.87716 -6.548,3.47244 -10.5165,9.32599 -10.5165,14.38583 0,1.38898 0.2976,2.77795 0.9921,4.06772 1.7859,3.27401 5.5559,4.96063 10.1197,4.96063 3.3732,0 7.0441,-0.89292 10.6158,-2.77796 6.548,-3.47244 10.5165,-9.32598 10.5165,-14.38582 0,-1.38898 -0.2976,-2.77796 -0.9921,-4.06772"
     id="path78"
     style="stroke-width:0.992126" />
  <path
     class="Note"
     d="m 1761.163,225.12878 c -1.7859,-3.27402 -5.5559,-5.05984 -10.1197,-5.05984 -3.3732,0 -7.0441,0.99212 -10.6158,2.87716 -6.548,3.47244 -10.5165,9.32599 -10.5165,14.38583 0,1.38898 0.2976,2.77795 0.9921,4.06772 1.7859,3.27401 5.5559,4.96063 10.1197,4.96063 3.3732,0 7.0441,-0.89292 10.6158,-2.77796 6.548,-3.47244 10.5165,-9.32598 10.5165,-14.38582 0,-1.38898 -0.2976,-2.77796 -0.9921,-4.06772"
     id="path80"
     style="stroke-width:0.992126" />
  <path
     class="Note"
     d="m 2036.773,237.53078 c -1.7859,-3.27402 -5.5559,-5.05984 -10.1197,-5.05984 -3.3732,0 -7.0441,0.99212 -10.6158,2.87716 -6.548,3.47244 -10.5165,9.32599 -10.5165,14.38583 0,1.38898 0.2976,2.77795 0.9921,4.06772 1.7859,3.27401 5.5559,4.96063 10.1197,4.96063 3.3732,0 7.0441,-0.89292 10.6158,-2.77796 6.548,-3.47244 10.5165,-9.32598 10.5165,-14.38582 0,-1.38898 -0.2976,-2.77796 -0.9921,-4.06772"
     id="path82"
     style="stroke-width:0.992126" />
  <path
     class="Note"
     d="m 2312.373,249.93178 c -1.7859,-3.27402 -5.5559,-5.05984 -10.1197,-5.05984 -3.3732,0 -7.0441,0.99212 -10.6158,2.87716 -6.548,3.47244 -10.5165,9.32599 -10.5165,14.38583 0,1.38898 0.2976,2.77795 0.9921,4.06772 1.7859,3.27401 5.5559,4.96063 10.1197,4.96063 3.3732,0 7.0441,-0.89292 10.6158,-2.77796 6.548,-3.47244 10.5165,-9.32598 10.5165,-14.38582 0,-1.38898 -0.2976,-2.77796 -0.9921,-4.06772"
     id="path84"
     style="stroke-width:0.992126" />
  <path
     class="Note"
     d="m 186.59197,733.58878 c -1.78583,-3.27402 -5.55591,-5.05984 -10.11969,-5.05984 -3.37322,0 -7.04409,0.99212 -10.61574,2.87716 -6.54804,3.47244 -10.51654,9.32599 -10.51654,14.38583 0,1.38898 0.29764,2.77795 0.99213,4.06772 1.78582,3.27401 5.5559,4.96063 10.11968,4.96063 3.37323,0 7.0441,-0.89292 10.61575,-2.77796 6.54803,-3.47244 10.51653,-9.32598 10.51653,-14.38582 0,-1.38898 -0.29763,-2.77796 -0.99212,-4.06772"
     id="path86"
     style="stroke-width:0.992126" />
  <path
     class="Note"
     d="m 709.43197,745.99878 c -1.78583,-3.27402 -5.55591,-5.05984 -10.11969,-5.05984 -3.37322,0 -7.04409,0.99212 -10.61574,2.87716 -6.54804,3.47244 -10.51654,9.32599 -10.51654,14.38583 0,1.38898 0.29764,2.77795 0.99213,4.06772 1.78582,3.27401 5.5559,4.96063 10.11968,4.96063 3.37323,0 7.0441,-0.89292 10.61575,-2.77796 6.54803,-3.47244 10.51654,-9.32598 10.51654,-14.38582 0,-1.38898 -0.29764,-2.77796 -0.99213,-4.06772"
     id="path88"
     style="stroke-width:0.992126" />
  <path
     class="Note"
     d="m 1232.273,733.58878 c -1.7859,-3.27402 -5.5559,-5.05984 -10.1197,-5.05984 -3.3732,0 -7.0441,0.99212 -10.6158,2.87716 -6.548,3.47244 -10.5165,9.32599 -10.5165,14.38583 0,1.38898 0.2976,2.77795 0.9921,4.06772 1.7859,3.27401 5.5559,4.96063 10.1197,4.96063 3.3732,0 7.0441,-0.89292 10.6158,-2.77796 6.548,-3.47244 10.5165,-9.32598 10.5165,-14.38582 0,-1.38898 -0.2976,-2.77796 -0.9921,-4.06772 m -4.2662,6.74646 c -1.6866,1.68661 -5.0598,3.77008 -8.6315,5.75433 -3.5716,1.98425 -7.1433,3.47244 -9.5244,3.9685 -0.496,0.0992 -0.9921,0.19843 -1.4882,0.19843 -1.5874,0 -2.7779,-0.59528 -3.4724,-1.88504 -0.2976,-0.49607 -0.4961,-1.09134 -0.4961,-1.68662 0,-1.09134 0.6945,-2.3811 1.7859,-3.47244 1.6866,-1.68661 4.9606,-3.77008 8.5322,-5.75433 3.5717,-1.98425 7.1433,-3.47244 9.5244,-3.9685 0.4961,-0.0992 0.9922,-0.19843 1.4882,-0.19843 1.5874,0 2.8772,0.59528 3.5717,1.88504 0.2976,0.49606 0.3968,1.09134 0.3968,1.68662 0,1.09133 -0.5952,2.28188 -1.6866,3.47244"
     id="path90"
     style="stroke-width:0.992126" />
  <path
     class="Clef"
     d="m 216.71918,314.1523 c -1.22031,-5.38732 -3.83953,-9.17715 -4.61338,-10.20906 -3.16489,-4.23637 -7.14331,-7.06393 -11.79638,-8.4033 -3.08551,-0.8829 -6.06189,-0.99213 -8.46284,-0.81355 -1.03181,-5.96267 -2.02393,-11.79628 -2.92677,-17.20336 5.40709,-6.12152 8.99858,-11.87585 11.26063,-16.14199 3.44268,-6.52809 4.58362,-11.07203 4.63323,-11.27045 1.70646,-5.16908 2.06362,-12.80845 0.97228,-20.9537 -1.00204,-7.49056 -3.07559,-14.14782 -5.40708,-17.37223 -1.02189,-1.41874 -2.06363,-2.14299 -3.09544,-2.14299 -1.21039,0 -3.70063,1.23023 -6.56787,3.97842 -2.28189,2.18268 -5.52614,6.04205 -8.06598,12.00473 -2.97638,7.00451 -3.18473,16.41968 -2.83749,23.08677 0.37701,7.21276 1.47827,12.85805 1.48819,12.90766 0.0199,0.0892 0.2778,1.57738 0.72426,4.12714 -0.22819,0.22819 -0.4663,0.44646 -0.71433,0.68467 -1.03182,0.99212 -2.21245,2.12305 -3.58158,3.49218 -0.85323,0.85333 -1.79575,1.75607 -2.78787,2.71843 -8.38347,8.076 -21.07276,20.2989 -21.07276,39.29811 0,4.66299 0.89291,9.04821 2.65888,13.02669 1.57752,3.57166 3.85941,6.82585 6.76632,9.67325 7.66913,7.49055 18.17575,10.67518 25.18015,10.51654 2.92678,-0.0694 5.53607,-0.30766 7.90725,-0.75412 1.81559,9.52441 2.94661,16.49906 2.9863,21.79701 0.0397,6.45874 -1.59732,10.39748 -5.46662,13.14567 -2.41086,1.71638 -5.19874,2.6589 -8.27433,2.80772 -2.5696,0.11905 -4.81181,-0.34725 -6.23055,-0.75392 h -0.01 c 0,0 -0.28772,-0.0794 -0.29764,-0.2778 -0.01,-0.17868 0.33733,-0.22828 0.34725,-0.22828 h 0.0198 c 1.90488,-0.43644 5.44677,-1.65675 7.78819,-4.93077 1.78583,-2.50016 2.64898,-7.08388 0.82346,-10.99286 -1.10126,-2.37108 -3.59149,-5.29785 -9.16724,-5.74431 -2.47039,-0.19842 -4.72252,0.30746 -6.70677,1.49801 -1.79575,1.0715 -3.28394,2.69859 -4.32567,4.68284 -2.44063,4.66299 -1.98425,10.34787 1.1211,14.15774 2.93669,3.59149 7.52032,5.8832 12.90756,6.45864 0.84331,0.0894 1.68661,0.12897 2.52992,0.12897 4.39512,0 8.76047,-1.19055 12.30236,-3.38315 3.63118,-2.54976 5.73449,-6.49842 6.40914,-12.08399 0.55559,-4.60356 0.16866,-10.46693 -1.22032,-18.47349 -0.35716,-2.07354 -0.89291,-5.07968 -1.54771,-8.80998 5.70472,-1.90498 9.83196,-5.44687 13.57228,-11.2508 3.26409,-5.69473 4.19669,-11.7467 2.77795,-17.99709 m -33.94063,25.9837 c -4.60346,-1.21039 -8.99858,-3.69071 -12.72897,-7.16315 -1.29969,-1.22031 -3.15497,-3.37323 -4.61339,-6.73648 -1.35921,-3.13517 -2.01404,-6.53815 -1.96443,-10.09982 0.0695,-4.65311 1.36915,-9.4352 3.85939,-14.18738 2.89701,-5.53616 7.4211,-11.02262 13.43339,-16.31065 1.43858,-1.26982 2.79779,-2.53974 4.07763,-3.80976 0.75402,4.22655 1.57748,8.87952 2.45055,13.7212 -3.81968,1.2599 -8.53228,4.38509 -11.61779,9.99061 -3.51213,6.51828 -3.37323,11.99484 -2.64898,15.44742 0.9326,4.42494 3.44268,8.15529 6.87544,10.2289 0.92267,0.55549 5.02015,2.66872 6.84567,2.09328 0.36708,-0.11905 0.63496,-0.33732 0.77385,-0.66472 0.50599,-1.16079 -0.50598,-1.79565 -2.0537,-2.74819 -0.59527,-0.36701 -1.26,-0.78372 -1.98425,-1.30953 -3.29386,-2.47043 -4.73244,-6.88539 -3.67087,-11.23088 0.57544,-2.38111 1.84536,-4.52416 3.67087,-6.21077 1.65685,-1.5378 3.68079,-2.62914 6.04205,-3.264 2.02394,11.1514 4.06772,22.21361 5.6948,30.50788 0.12898,0.68447 0.26788,1.34919 0.39685,2.01391 -4.34551,0.92268 -8.66126,0.83349 -12.83811,-0.26787 m 11.23087,-32.91874 c 10.2685,-0.4663 14.50488,6.91518 15.38787,11.70713 0.4663,2.51006 0.45638,6.91513 -1.07149,11.09193 -1.16079,3.15496 -3.60142,7.19291 -8.69103,9.23679 -0.0694,-0.4167 -0.14882,-0.84331 -0.22819,-1.27002 -1.52787,-8.70087 -3.4526,-19.60437 -5.39716,-30.76583 m -7.26236,-70.38142 c 1.76598,-5.6947 4.48441,-8.91911 6.45874,-10.63549 1.73622,-1.50803 3.37322,-2.21254 4.28598,-2.21254 0.1389,0 0.25795,0.0198 0.35717,0.0496 0.45637,0.13889 0.9822,0.7045 1.4485,1.56765 2.29181,4.25613 1.55764,10.91339 0.22819,15.31833 -1.61717,5.35748 -4.51417,10.93323 -13.24488,20.46756 -0.16867,-1.10126 -0.32741,-2.14299 -0.47622,-3.11518 -1.24016,-8.22482 -0.92268,-15.43758 0.94252,-21.43994"
     id="path92"
     style="stroke-width:0.992126" />
  <path
     class="Clef"
     d="m 92.703182,785.4113 c -1.220315,-5.38732 -3.839528,-9.17715 -4.613386,-10.20906 -3.164882,-4.23637 -7.143307,-7.06393 -11.796378,-8.4033 -3.085512,-0.8829 -6.06189,-0.99213 -8.462835,-0.81355 -1.031811,-5.96267 -2.023937,-11.79628 -2.926771,-17.20336 5.407086,-6.12152 8.998582,-11.87585 11.26063,-16.14199 3.442677,-6.52809 4.583622,-11.07203 4.633228,-11.27045 1.706457,-5.16908 2.063622,-12.80845 0.972284,-20.9537 -1.002048,-7.49056 -3.075591,-14.14782 -5.407087,-17.37223 -1.02189,-1.41874 -2.063622,-2.14299 -3.095433,-2.14299 -1.210394,0 -3.70063,1.23023 -6.567874,3.97842 -2.28189,2.18268 -5.526142,6.04205 -8.065985,12.00473 -2.976378,7.00451 -3.184724,16.41968 -2.83748,23.08677 0.377008,7.21276 1.478268,12.85805 1.488189,12.90766 0.01984,0.0892 0.277795,1.57738 0.724252,4.12714 -0.228189,0.22819 -0.466299,0.44646 -0.714331,0.68467 -1.031811,0.99212 -2.212441,2.12305 -3.581575,3.49218 -0.853228,0.85333 -1.795748,1.75607 -2.787874,2.71843 -8.383464,8.076 -21.072756,20.2989 -21.072756,39.29811 0,4.66299 0.892913,9.04821 2.658878,13.02669 1.57752,3.57166 3.85941,6.82585 6.766319,9.67325 7.669134,7.49055 18.175748,10.67518 25.180158,10.51654 2.926772,-0.0694 5.536063,-0.30766 7.907244,-0.75412 1.815591,9.52441 2.946614,16.49906 2.986299,21.79701 0.03969,6.45874 -1.597323,10.39748 -5.466614,13.14567 -2.410866,1.71638 -5.19874,2.6589 -8.274331,2.80772 -2.569606,0.11905 -4.811811,-0.34725 -6.230551,-0.75392 h -0.0099 c 0,0 -0.287717,-0.0794 -0.297638,-0.2778 -0.0099,-0.17868 0.337323,-0.22828 0.347244,-0.22828 h 0.01984 c 1.904881,-0.43644 5.446771,-1.65675 7.788189,-4.93077 1.785826,-2.50016 2.648976,-7.08388 0.823464,-10.99286 -1.10126,-2.37108 -3.591496,-5.29785 -9.167244,-5.74431 -2.470394,-0.19842 -4.72252,0.30746 -6.706772,1.49801 -1.795748,1.0715 -3.283937,2.69859 -4.325669,4.68284 -2.44063,4.66299 -1.984252,10.34787 1.121102,14.15774 2.936693,3.59149 7.520315,5.8832 12.907559,6.45864 0.843308,0.0894 1.686615,0.12897 2.529922,0.12897 4.395118,0 8.760472,-1.19055 12.302362,-3.38315 3.631181,-2.54976 5.734488,-6.49842 6.409134,-12.08399 0.555591,-4.60356 0.168662,-10.46693 -1.220315,-18.47349 -0.357165,-2.07354 -0.892913,-5.07968 -1.547716,-8.80998 5.704724,-1.90498 9.831968,-5.44687 13.572283,-11.2508 3.264095,-5.69473 4.196693,-11.7467 2.777953,-17.99709 M 58.76257,811.395 c -4.603465,-1.21039 -8.998583,-3.69071 -12.728977,-7.16315 -1.299685,-1.22031 -3.154961,-3.37323 -4.613386,-6.73648 -1.359212,-3.13517 -2.014035,-6.53815 -1.964429,-10.09982 0.06947,-4.65311 1.369154,-9.4352 3.85939,-14.18738 2.897008,-5.53616 7.421102,-11.02262 13.433386,-16.31065 1.438583,-1.26982 2.797795,-2.53974 4.077638,-3.80976 0.754015,4.22655 1.57748,8.87952 2.450551,13.7212 -3.819685,1.2599 -8.532284,4.38509 -11.617796,9.99061 -3.512126,6.51828 -3.373228,11.99484 -2.648976,15.44742 0.932598,4.42494 3.442677,8.15529 6.875433,10.2289 0.922677,0.55549 5.020158,2.66872 6.84567,2.09328 0.367086,-0.11905 0.63496,-0.33732 0.773858,-0.66472 0.505984,-1.16079 -0.505984,-1.79565 -2.053701,-2.74819 -0.595276,-0.36701 -1.26,-0.78372 -1.984252,-1.30953 -3.293858,-2.47043 -4.732441,-6.88539 -3.670866,-11.23088 0.575433,-2.38111 1.845354,-4.52416 3.670866,-6.21077 1.656851,-1.5378 3.680788,-2.62914 6.042047,-3.264 2.023937,11.1514 4.067717,22.21361 5.694804,30.50788 0.128976,0.68447 0.267874,1.34919 0.39685,2.01391 -4.345512,0.92268 -8.66126,0.83349 -12.83811,-0.26787 m 11.230866,-32.91874 c 10.268504,-0.4663 14.504882,6.91518 15.387874,11.70713 0.466299,2.51006 0.456378,6.91513 -1.071496,11.09193 -1.160787,3.15496 -3.601417,7.19291 -8.691024,9.23679 -0.06945,-0.4167 -0.148819,-0.84331 -0.228189,-1.27002 -1.527874,-8.70087 -3.452598,-19.60437 -5.397165,-30.76583 m -7.262362,-70.38142 c 1.765984,-5.6947 4.484409,-8.91911 6.45874,-10.63549 1.73622,-1.50803 3.373228,-2.21254 4.285984,-2.21254 0.138898,0 0.257953,0.0198 0.357166,0.0496 0.456378,0.13889 0.982204,0.7045 1.448504,1.56765 2.291811,4.25613 1.557637,10.91339 0.228189,15.31833 -1.617166,5.35748 -4.514174,10.93323 -13.244883,20.46756 -0.168661,-1.10126 -0.327401,-2.14299 -0.47622,-3.11518 -1.240158,-8.22482 -0.922677,-15.43758 0.94252,-21.43994"
     id="path94"
     style="stroke-width:0.992126" />
  <path
     class="TimeSig"
     d="m 244.34877,283.05239 h 17.04469 v 7.36158 h -8.1652 c -0.77376,0 -1.3988,0.62504 -1.3988,1.3989 v 1.89496 c 0,0.77386 0.62504,1.39889 1.3988,1.39889 h 30.01181 c 0.77386,0 1.3989,-0.62503 1.3989,-1.39889 v -1.89496 c 0,-0.77386 -0.62504,-1.3989 -1.3989,-1.3989 h -8.8696 v -7.36158 h 8.8696 c 0.77386,0 1.3989,-0.62504 1.3989,-1.39889 v -1.89498 c 0,-0.77384 -0.62504,-1.39886 -1.3989,-1.39886 h -8.8696 v -15.83439 c 0,-0.53569 -0.29764,-1.01189 -0.77386,-1.25004 l -1.20038,-0.59528 c -0.52582,-0.25795 -1.15096,-0.16866 -1.57758,0.22817 l -8.97874,8.25451 c -0.28761,0.26789 -0.45628,0.635 -0.45628,1.03185 v 8.16518 h -11.41946 c 0,0 11.03244,-11.93526 22.77931,-27.58112 0.86315,-1.14095 0.36708,-2.18268 0.17848,-2.37119 l -2.15291,-2.19259 c -0.26788,-0.25796 -0.62504,-0.40678 -0.99213,-0.40678 -0.59527,0 -14.03858,0.0199 -14.75291,0 -0.71423,-0.0198 -1.25008,0.59528 -1.31953,1.2104 0,0 -0.53565,7.30204 -3.1152,15.36805 -2.57952,8.05608 -5.49641,12.99685 -8.13543,16.59825 0,0 -0.53579,0.98224 -0.17866,1.71638 0.34724,0.74409 0.97236,1.82551 0.97236,1.82551 0,0 0.25791,0.52582 1.10122,0.52582"
     id="path96"
     style="stroke-width:0.992126" />
  <path
     class="TimeSig"
     d="m 244.34877,332.39539 h 17.04469 v 7.36158 h -8.1652 c -0.77376,0 -1.3988,0.62504 -1.3988,1.3989 v 1.89496 c 0,0.77386 0.62504,1.39889 1.3988,1.39889 h 30.01181 c 0.77386,0 1.3989,-0.62503 1.3989,-1.39889 v -1.89496 c 0,-0.77386 -0.62504,-1.3989 -1.3989,-1.3989 h -8.8696 v -7.36158 h 8.8696 c 0.77386,0 1.3989,-0.62504 1.3989,-1.39889 v -1.89498 c 0,-0.77384 -0.62504,-1.39886 -1.3989,-1.39886 h -8.8696 v -15.83439 c 0,-0.53569 -0.29764,-1.01189 -0.77386,-1.25004 l -1.20038,-0.59528 c -0.52582,-0.25795 -1.15096,-0.16866 -1.57758,0.22817 l -8.97874,8.25451 c -0.28761,0.26789 -0.45628,0.635 -0.45628,1.03185 v 8.16518 h -11.41946 c 0,0 11.03244,-11.93526 22.77931,-27.58112 0.86315,-1.14095 0.36708,-2.18268 0.17848,-2.37119 l -2.15291,-2.19259 c -0.26788,-0.25796 -0.62504,-0.40678 -0.99213,-0.40678 -0.59527,0 -14.03858,0.0199 -14.75291,0 -0.71423,-0.0198 -1.25008,0.59528 -1.31953,1.2104 0,0 -0.53565,7.30204 -3.1152,15.36805 -2.57952,8.05608 -5.49641,12.99685 -8.13543,16.59825 0,0 -0.53579,0.98224 -0.17866,1.71638 0.34724,0.74409 0.97236,1.82551 0.97236,1.82551 0,0 0.25791,0.52582 1.10122,0.52582"
     id="path98"
     style="stroke-width:0.992126" />
  <path
     class="Beam"
     fill-rule="evenodd"
     d="m 351.898,282.77 278.331,6.262 v 12.405 L 351.898,295.175 V 282.77"
     id="path100" />
  <path
     class="Beam"
     fill-rule="evenodd"
     d="m 903.101,307.575 h 278.33 v 12.401 h -278.33 v -12.401"
     id="path102" />
  <path
     class="Beam"
     fill-rule="evenodd"
     d="m 1454.311,313.774 278.33,-6.262 v 12.405 l -278.33,6.262 v -12.405"
     id="path104" />
  <path
     class="Beam"
     fill-rule="evenodd"
     d="m 2005.521,313.774 278.33,6.262 v 12.405 l -278.33,-6.262 v -12.405"
     id="path106" />
  <path
     class="Beam"
     fill-rule="evenodd"
     d="m 155.34,809.835 525.569,6.24 v 12.4 l -525.569,-6.23 v -12.41"
     id="path108" />
  <path
     class="Lyrics"
     d="M 279.94,472.236 V 438.31 h 5.098 c 2.27,0 4.079,0.176 5.427,0.527 1.362,0.352 2.512,0.945 3.45,1.78 0.952,0.864 1.706,1.941 2.263,3.23 0.571,1.304 0.857,2.622 0.857,3.955 0,2.432 -0.93,4.49 -2.791,6.175 1.802,0.615 3.223,1.691 4.263,3.23 1.055,1.523 1.582,3.295 1.582,5.317 0,2.651 -0.938,4.892 -2.813,6.724 -1.127,1.127 -2.395,1.911 -3.801,2.351 -1.538,0.424 -3.464,0.637 -5.779,0.637 h -7.756 m 5.12,-19.358 h 1.604 c 1.904,0 3.299,-0.421 4.185,-1.264 0.887,-0.842 1.33,-2.083 1.33,-3.724 0,-1.597 -0.454,-2.809 -1.363,-3.636 -0.908,-0.828 -2.226,-1.242 -3.955,-1.242 h -1.801 v 9.866 m 0,14.546 h 3.164 c 2.314,0 4.013,-0.454 5.097,-1.362 1.143,-0.982 1.714,-2.227 1.714,-3.736 0,-1.465 -0.549,-2.695 -1.648,-3.691 -1.069,-0.982 -2.981,-1.472 -5.735,-1.472 h -2.592 v 10.261"
     id="path110" />
  <path
     class="Lyrics"
     d="m 320.154,457.386 c 0,-3.645 -2.205,-5.985 -4.905,-5.985 -3.825,0 -5.31,2.25 -5.94,4.05 v -13.905 h -2.655 v 28.17 c 5.67,-0.315 13.5,-2.79 13.5,-12.33 m -3.24,1.575 c 0,6.165 -4.275,8.415 -7.605,8.64 v -9.045 c 0,-1.98 1.44,-4.995 4.635,-4.995 1.845,0 3.015,2.385 3.015,5.4 h -0.045"
     id="path112" />
  <path
     class="Lyrics"
     d="m 341.323,450.834 h 4.944 v 1.978 c 0.952,-0.996 1.765,-1.67 2.439,-2.021 0.718,-0.367 1.619,-0.55 2.703,-0.55 2.417,0 4.328,1.055 5.735,3.164 1.552,-2.109 3.654,-3.164 6.306,-3.164 4.819,0 7.229,2.923 7.229,8.767 v 13.228 h -4.966 v -11.887 c 0,-2.051 -0.249,-3.501 -0.747,-4.351 -0.513,-0.864 -1.355,-1.296 -2.527,-1.296 -1.362,0 -2.355,0.512 -2.977,1.538 -0.623,1.025 -0.934,2.673 -0.934,4.944 v 11.052 h -4.966 v -11.821 c 0,-3.809 -1.099,-5.713 -3.296,-5.713 -1.391,0 -2.406,0.52 -3.043,1.56 -0.637,1.04 -0.956,2.68 -0.956,4.922 v 11.052 h -4.944 v -21.402 m 51.37,0 h 4.966 v 21.402 h -4.966 v -2.241 c -2.036,1.904 -4.226,2.856 -6.569,2.856 -2.959,0 -5.406,-1.069 -7.339,-3.208 -1.919,-2.183 -2.879,-4.907 -2.879,-8.174 0,-3.208 0.96,-5.881 2.879,-8.02 1.919,-2.138 4.321,-3.208 7.207,-3.208 2.49,0 4.724,1.026 6.701,3.076 v -2.483 m -11.733,10.635 c 0,2.051 0.549,3.721 1.648,5.01 1.128,1.304 2.549,1.956 4.263,1.956 1.831,0 3.31,-0.63 4.438,-1.89 1.128,-1.304 1.692,-2.959 1.692,-4.966 0,-2.007 -0.564,-3.662 -1.692,-4.966 -1.128,-1.274 -2.593,-1.911 -4.394,-1.911 -1.7,0 -3.12,0.644 -4.263,1.933 -1.128,1.304 -1.692,2.915 -1.692,4.834 m 28.432,-10.635 v 33.047 h -4.944 v -33.047 h 4.944 m -5.691,-8.898 c 0,-0.865 0.315,-1.612 0.945,-2.242 0.63,-0.63 1.384,-0.945 2.263,-0.945 0.894,0 1.656,0.315 2.285,0.945 0.63,0.616 0.945,1.37 0.945,2.264 0,0.893 -0.315,1.655 -0.945,2.285 -0.615,0.63 -1.369,0.944 -2.263,0.944 -0.893,0 -1.655,-0.314 -2.285,-0.944 -0.63,-0.63 -0.945,-1.399 -0.945,-2.307 m 10.94,19.445 c 0,-3.09 1.106,-5.72 3.318,-7.888 2.211,-2.168 4.907,-3.252 8.086,-3.252 3.193,0 5.903,1.092 8.129,3.274 2.198,2.183 3.296,4.863 3.296,8.042 0,3.208 -1.106,5.896 -3.318,8.064 -2.226,2.153 -4.958,3.23 -8.195,3.23 -3.208,0 -5.896,-1.099 -8.064,-3.296 -2.168,-2.168 -3.252,-4.892 -3.252,-8.174 m 5.053,0.088 c 0,2.139 0.572,3.831 1.714,5.076 1.172,1.26 2.718,1.89 4.637,1.89 1.933,0 3.479,-0.623 4.636,-1.868 1.157,-1.245 1.736,-2.908 1.736,-4.988 0,-2.08 -0.579,-3.743 -1.736,-4.988 -1.172,-1.259 -2.718,-1.889 -4.636,-1.889 -1.89,0 -3.421,0.63 -4.593,1.889 -1.172,1.26 -1.758,2.886 -1.758,4.878 m 23.004,-10.635 h 4.944 v 1.912 c 0.908,-0.952 1.714,-1.604 2.417,-1.955 0.718,-0.367 1.568,-0.55 2.549,-0.55 1.304,0 2.666,0.425 4.087,1.275 l -2.263,4.526 c -0.938,-0.674 -1.853,-1.011 -2.747,-1.011 -2.695,0 -4.043,2.036 -4.043,6.109 v 11.096 h -4.944 v -21.402"
     id="path114" />
  <path
     class="Lyrics"
     d="m 346.527,487.797 4.57,1.758 c -1.596,3.823 -2.717,7.354 -3.362,10.591 -0.322,1.641 -0.564,3.365 -0.725,5.175 -0.161,1.809 -0.241,3.783 -0.241,5.921 0,2.153 0.08,4.135 0.241,5.944 0.161,1.809 0.403,3.534 0.725,5.174 0.63,3.223 1.751,6.746 3.362,10.569 l -4.57,1.758 c -3.193,-6.694 -4.79,-14.509 -4.79,-23.445 0,-8.935 1.597,-16.75 4.79,-23.445 m 19.809,8.35 h -5.867 l 2.812,-4.79 h 8.174 v 33.926 h -5.119 v -29.136 m 23.195,38.54 -4.57,-1.758 c 1.611,-3.823 2.731,-7.346 3.361,-10.569 0.66,-3.222 0.989,-6.928 0.989,-11.118 0,-4.16 -0.329,-7.859 -0.989,-11.096 -0.644,-3.237 -1.765,-6.768 -3.361,-10.591 l 4.57,-1.758 c 3.193,6.695 4.79,14.51 4.79,23.445 0,8.936 -1.597,16.751 -4.79,23.445"
     id="path116" />
  <path
     class="Lyrics"
     d="m 584.973,463.996 h -14.524 l -3.78,8.24 h -5.515 l 16.787,-36.057 16.194,36.057 h -5.603 l -3.559,-8.24 m -2.088,-4.812 -5.032,-11.536 -5.273,11.536 h 10.305 m 28.417,-8.35 h 4.944 v 1.978 c 0.952,-0.996 1.765,-1.67 2.438,-2.021 0.718,-0.367 1.619,-0.55 2.703,-0.55 2.417,0 4.329,1.055 5.735,3.164 1.553,-2.109 3.655,-3.164 6.306,-3.164 4.819,0 7.229,2.923 7.229,8.767 v 13.228 h -4.966 v -11.887 c 0,-2.051 -0.249,-3.501 -0.747,-4.351 -0.512,-0.864 -1.355,-1.296 -2.527,-1.296 -1.362,0 -2.354,0.512 -2.977,1.538 -0.622,1.025 -0.934,2.673 -0.934,4.944 v 11.052 h -4.966 v -11.821 c 0,-3.809 -1.098,-5.713 -3.295,-5.713 -1.392,0 -2.406,0.52 -3.044,1.56 -0.637,1.04 -0.955,2.68 -0.955,4.922 v 11.052 h -4.944 v -21.402 m 51.37,0 h 4.966 v 21.402 h -4.966 v -2.241 c -2.036,1.904 -4.226,2.856 -6.57,2.856 -2.959,0 -5.405,-1.069 -7.339,-3.208 -1.919,-2.183 -2.878,-4.907 -2.878,-8.174 0,-3.208 0.959,-5.881 2.878,-8.02 1.919,-2.138 4.321,-3.208 7.207,-3.208 2.49,0 4.724,1.026 6.702,3.076 v -2.483 m -11.734,10.635 c 0,2.051 0.55,3.721 1.648,5.01 1.128,1.304 2.549,1.956 4.263,1.956 1.831,0 3.311,-0.63 4.439,-1.89 1.127,-1.304 1.691,-2.959 1.691,-4.966 0,-2.007 -0.564,-3.662 -1.691,-4.966 -1.128,-1.274 -2.593,-1.911 -4.395,-1.911 -1.699,0 -3.12,0.644 -4.263,1.933 -1.128,1.304 -1.692,2.915 -1.692,4.834 m 28.433,-10.635 v 33.047 h -4.944 v -33.047 h 4.944 m -5.691,-8.898 c 0,-0.865 0.315,-1.612 0.944,-2.242 0.63,-0.63 1.385,-0.945 2.264,-0.945 0.893,0 1.655,0.315 2.285,0.945 0.63,0.616 0.945,1.37 0.945,2.264 0,0.893 -0.315,1.655 -0.945,2.285 -0.615,0.63 -1.37,0.944 -2.263,0.944 -0.894,0 -1.656,-0.314 -2.286,-0.944 -0.629,-0.63 -0.944,-1.399 -0.944,-2.307 m 10.939,19.445 c 0,-3.09 1.106,-5.72 3.318,-7.888 2.212,-2.168 4.907,-3.252 8.086,-3.252 3.193,0 5.903,1.092 8.13,3.274 2.197,2.183 3.296,4.863 3.296,8.042 0,3.208 -1.106,5.896 -3.318,8.064 -2.227,2.153 -4.959,3.23 -8.196,3.23 -3.208,0 -5.896,-1.099 -8.064,-3.296 -2.168,-2.168 -3.252,-4.892 -3.252,-8.174 m 5.054,0.088 c 0,2.139 0.571,3.831 1.714,5.076 1.172,1.26 2.717,1.89 4.636,1.89 1.933,0 3.479,-0.623 4.636,-1.868 1.157,-1.245 1.736,-2.908 1.736,-4.988 0,-2.08 -0.579,-3.743 -1.736,-4.988 -1.172,-1.259 -2.717,-1.889 -4.636,-1.889 -1.89,0 -3.421,0.63 -4.592,1.889 -1.172,1.26 -1.758,2.886 -1.758,4.878 m 23.004,-10.635 h 4.944 v 1.912 c 0.908,-0.952 1.713,-1.604 2.417,-1.955 0.717,-0.367 1.567,-0.55 2.548,-0.55 1.304,0 2.666,0.425 4.087,1.275 l -2.263,4.526 c -0.937,-0.674 -1.853,-1.011 -2.747,-1.011 -2.695,0 -4.042,2.036 -4.042,6.109 v 11.096 h -4.944 v -21.402"
     id="path118" />
  <path
     class="Lyrics"
     d="m 622.13,487.797 4.571,1.758 c -1.597,3.823 -2.718,7.354 -3.362,10.591 -0.322,1.641 -0.564,3.365 -0.725,5.175 -0.161,1.809 -0.242,3.783 -0.242,5.921 0,2.153 0.081,4.135 0.242,5.944 0.161,1.809 0.403,3.534 0.725,5.174 0.63,3.223 1.75,6.746 3.362,10.569 l -4.571,1.758 c -3.193,-6.694 -4.79,-14.509 -4.79,-23.445 0,-8.935 1.597,-16.75 4.79,-23.445 m 19.809,8.35 h -5.867 l 2.813,-4.79 h 8.174 v 33.926 h -5.12 v -29.136 m 23.195,38.54 -4.57,-1.758 c 1.611,-3.823 2.732,-7.346 3.362,-10.569 0.659,-3.222 0.988,-6.928 0.988,-11.118 0,-4.16 -0.329,-7.859 -0.988,-11.096 -0.645,-3.237 -1.765,-6.768 -3.362,-10.591 l 4.57,-1.758 c 3.194,6.695 4.79,14.51 4.79,23.445 0,8.936 -1.596,16.751 -4.79,23.445"
     id="path120" />
  <path
     class="Lyrics"
     d="m 849.651,463.996 h -14.52 l -3.78,8.24 h -5.52 l 16.79,-36.057 16.2,36.057 h -5.61 l -3.56,-8.24 m -2.08,-4.812 -5.04,-11.536 -5.27,11.536 h 10.31"
     id="path122" />
  <path
     class="Lyrics"
     d="m 876.671,457.386 c 0,-3.645 -2.2,-5.985 -4.9,-5.985 -3.83,0 -5.31,2.25 -5.94,4.05 v -13.905 h -2.66 v 28.17 c 5.67,-0.315 13.5,-2.79 13.5,-12.33 m -3.24,1.575 c 0,6.165 -4.27,8.415 -7.6,8.64 v -9.045 c 0,-1.98 1.44,-4.995 4.63,-4.995 1.85,0 3.02,2.385 3.02,5.4 h -0.05"
     id="path124" />
  <path
     class="Lyrics"
     d="m 897.841,450.834 h 4.95 v 1.978 c 0.95,-0.996 1.76,-1.67 2.43,-2.021 0.72,-0.367 1.62,-0.55 2.71,-0.55 2.41,0 4.33,1.055 5.73,3.164 1.55,-2.109 3.66,-3.164 6.31,-3.164 4.82,0 7.23,2.923 7.23,8.767 v 13.228 h -4.97 v -11.887 c 0,-2.051 -0.25,-3.501 -0.75,-4.351 -0.51,-0.864 -1.35,-1.296 -2.52,-1.296 -1.37,0 -2.36,0.512 -2.98,1.538 -0.62,1.025 -0.93,2.673 -0.93,4.944 v 11.052 h -4.97 v -11.821 c 0,-3.809 -1.1,-5.713 -3.3,-5.713 -1.39,0 -2.4,0.52 -3.04,1.56 -0.64,1.04 -0.95,2.68 -0.95,4.922 v 11.052 h -4.95 v -21.402 m 51.37,0 h 4.97 v 21.402 h -4.97 v -2.241 c -2.03,1.904 -4.22,2.856 -6.57,2.856 -2.96,0 -5.4,-1.069 -7.34,-3.208 -1.92,-2.183 -2.88,-4.907 -2.88,-8.174 0,-3.208 0.96,-5.881 2.88,-8.02 1.92,-2.138 4.32,-3.208 7.21,-3.208 2.49,0 4.72,1.026 6.7,3.076 v -2.483 m -11.73,10.635 c 0,2.051 0.55,3.721 1.65,5.01 1.12,1.304 2.55,1.956 4.26,1.956 1.83,0 3.31,-0.63 4.44,-1.89 1.13,-1.304 1.69,-2.959 1.69,-4.966 0,-2.007 -0.56,-3.662 -1.69,-4.966 -1.13,-1.274 -2.6,-1.911 -4.4,-1.911 -1.7,0 -3.12,0.644 -4.26,1.933 -1.13,1.304 -1.69,2.915 -1.69,4.834 m 28.43,-10.635 v 33.047 h -4.94 v -33.047 h 4.94 m -5.69,-8.898 c 0,-0.865 0.31,-1.612 0.94,-2.242 0.63,-0.63 1.39,-0.945 2.27,-0.945 0.89,0 1.65,0.315 2.28,0.945 0.63,0.616 0.95,1.37 0.95,2.264 0,0.893 -0.32,1.655 -0.95,2.285 -0.61,0.63 -1.37,0.944 -2.26,0.944 -0.89,0 -1.66,-0.314 -2.29,-0.944 -0.63,-0.63 -0.94,-1.399 -0.94,-2.307 m 10.94,19.445 c 0,-3.09 1.1,-5.72 3.32,-7.888 2.21,-2.168 4.9,-3.252 8.08,-3.252 3.2,0 5.91,1.092 8.13,3.274 2.2,2.183 3.3,4.863 3.3,8.042 0,3.208 -1.11,5.896 -3.32,8.064 -2.23,2.153 -4.96,3.23 -8.2,3.23 -3.2,0 -5.89,-1.099 -8.06,-3.296 -2.17,-2.168 -3.25,-4.892 -3.25,-8.174 m 5.05,0.088 c 0,2.139 0.57,3.831 1.72,5.076 1.17,1.26 2.71,1.89 4.63,1.89 1.94,0 3.48,-0.623 4.64,-1.868 1.16,-1.245 1.73,-2.908 1.73,-4.988 0,-2.08 -0.57,-3.743 -1.73,-4.988 -1.17,-1.259 -2.72,-1.889 -4.64,-1.889 -1.89,0 -3.42,0.63 -4.59,1.889 -1.17,1.26 -1.76,2.886 -1.76,4.878 m 23.01,-10.635 h 4.94 v 1.912 c 0.91,-0.952 1.71,-1.604 2.42,-1.955 0.72,-0.367 1.56,-0.55 2.55,-0.55 1.3,0 2.66,0.425 4.08,1.275 l -2.26,4.526 c -0.94,-0.674 -1.85,-1.011 -2.75,-1.011 -2.69,0 -4.04,2.036 -4.04,6.109 v 11.096 h -4.94 v -21.402"
     id="path126" />
  <path
     class="Lyrics"
     d="m 897.731,487.797 4.57,1.758 c -1.59,3.823 -2.71,7.354 -3.36,10.591 -0.32,1.641 -0.56,3.365 -0.72,5.175 -0.17,1.809 -0.25,3.783 -0.25,5.921 0,2.153 0.08,4.135 0.25,5.944 0.16,1.809 0.4,3.534 0.72,5.174 0.63,3.223 1.75,6.746 3.36,10.569 l -4.57,1.758 c -3.19,-6.694 -4.79,-14.509 -4.79,-23.445 0,-8.935 1.6,-16.75 4.79,-23.445 m 19.81,8.35 h -5.87 l 2.82,-4.79 h 8.17 v 33.926 h -5.12 v -29.136 m 23.2,38.54 -4.57,-1.758 c 1.61,-3.823 2.73,-7.346 3.36,-10.569 0.66,-3.222 0.99,-6.928 0.99,-11.118 0,-4.16 -0.33,-7.859 -0.99,-11.096 -0.65,-3.237 -1.77,-6.768 -3.36,-10.591 l 4.57,-1.758 c 3.19,6.695 4.79,14.51 4.79,23.445 0,8.936 -1.6,16.751 -4.79,23.445"
     id="path128" />
  <path
     class="Lyrics"
     d="m 1130.321,454.57 h 14.02 v 1.12 c 0,2.549 -0.3,4.805 -0.9,6.768 -0.59,1.816 -1.58,3.516 -2.97,5.098 -3.15,3.545 -7.15,5.317 -12.02,5.317 -4.74,0 -8.81,-1.714 -12.19,-5.142 -3.39,-3.442 -5.08,-7.573 -5.08,-12.392 0,-4.922 1.72,-9.097 5.17,-12.525 3.44,-3.442 7.63,-5.163 12.56,-5.163 2.66,0 5.13,0.542 7.43,1.626 2.2,1.084 4.36,2.842 6.48,5.273 l -3.64,3.494 c -2.79,-3.706 -6.18,-5.559 -10.18,-5.559 -3.59,0 -6.6,1.238 -9.03,3.713 -2.43,2.432 -3.65,5.479 -3.65,9.141 0,3.779 1.36,6.892 4.07,9.338 2.53,2.271 5.28,3.406 8.24,3.406 2.52,0 4.78,-0.85 6.79,-2.549 2,-1.714 3.13,-3.764 3.36,-6.152 h -8.46 v -4.812 m 33.37,-3.736 h 4.95 v 1.978 c 0.95,-0.996 1.76,-1.67 2.44,-2.021 0.72,-0.367 1.62,-0.55 2.7,-0.55 2.42,0 4.33,1.055 5.74,3.164 1.55,-2.109 3.65,-3.164 6.3,-3.164 4.82,0 7.23,2.923 7.23,8.767 v 13.228 h -4.97 v -11.887 c 0,-2.051 -0.24,-3.501 -0.74,-4.351 -0.52,-0.864 -1.36,-1.296 -2.53,-1.296 -1.36,0 -2.35,0.512 -2.98,1.538 -0.62,1.025 -0.93,2.673 -0.93,4.944 v 11.052 h -4.97 v -11.821 c 0,-3.809 -1.09,-5.713 -3.29,-5.713 -1.39,0 -2.41,0.52 -3.05,1.56 -0.63,1.04 -0.95,2.68 -0.95,4.922 v 11.052 h -4.95 v -21.402 m 51.38,0 h 4.96 v 21.402 h -4.96 v -2.241 c -2.04,1.904 -4.23,2.856 -6.57,2.856 -2.96,0 -5.41,-1.069 -7.34,-3.208 -1.92,-2.183 -2.88,-4.907 -2.88,-8.174 0,-3.208 0.96,-5.881 2.88,-8.02 1.92,-2.138 4.32,-3.208 7.2,-3.208 2.49,0 4.73,1.026 6.71,3.076 v -2.483 m -11.74,10.635 c 0,2.051 0.55,3.721 1.65,5.01 1.13,1.304 2.55,1.956 4.26,1.956 1.83,0 3.31,-0.63 4.44,-1.89 1.13,-1.304 1.69,-2.959 1.69,-4.966 0,-2.007 -0.56,-3.662 -1.69,-4.966 -1.13,-1.274 -2.59,-1.911 -4.39,-1.911 -1.7,0 -3.12,0.644 -4.27,1.933 -1.12,1.304 -1.69,2.915 -1.69,4.834 m 28.43,-10.635 v 33.047 h -4.94 v -33.047 h 4.94 m -5.69,-8.898 c 0,-0.865 0.32,-1.612 0.95,-2.242 0.63,-0.63 1.38,-0.945 2.26,-0.945 0.89,0 1.66,0.315 2.29,0.945 0.63,0.616 0.94,1.37 0.94,2.264 0,0.893 -0.31,1.655 -0.94,2.285 -0.62,0.63 -1.37,0.944 -2.27,0.944 -0.89,0 -1.65,-0.314 -2.28,-0.944 -0.63,-0.63 -0.95,-1.399 -0.95,-2.307 m 10.94,19.445 c 0,-3.09 1.11,-5.72 3.32,-7.888 2.21,-2.168 4.91,-3.252 8.09,-3.252 3.19,0 5.9,1.092 8.13,3.274 2.19,2.183 3.29,4.863 3.29,8.042 0,3.208 -1.1,5.896 -3.32,8.064 -2.22,2.153 -4.95,3.23 -8.19,3.23 -3.21,0 -5.9,-1.099 -8.07,-3.296 -2.16,-2.168 -3.25,-4.892 -3.25,-8.174 m 5.06,0.088 c 0,2.139 0.57,3.831 1.71,5.076 1.17,1.26 2.72,1.89 4.64,1.89 1.93,0 3.48,-0.623 4.63,-1.868 1.16,-1.245 1.74,-2.908 1.74,-4.988 0,-2.08 -0.58,-3.743 -1.74,-4.988 -1.17,-1.259 -2.71,-1.889 -4.63,-1.889 -1.89,0 -3.42,0.63 -4.6,1.889 -1.17,1.26 -1.75,2.886 -1.75,4.878 m 23,-10.635 h 4.94 v 1.912 c 0.91,-0.952 1.72,-1.604 2.42,-1.955 0.72,-0.367 1.57,-0.55 2.55,-0.55 1.3,0 2.67,0.425 4.09,1.275 l -2.27,4.526 c -0.93,-0.674 -1.85,-1.011 -2.74,-1.011 -2.7,0 -4.05,2.036 -4.05,6.109 v 11.096 h -4.94 v -21.402"
     id="path130" />
  <path
     class="Lyrics"
     d="m 1173.341,487.797 4.57,1.758 c -1.6,3.823 -2.72,7.354 -3.37,10.591 -0.32,1.641 -0.56,3.365 -0.72,5.175 -0.16,1.809 -0.24,3.783 -0.24,5.921 0,2.153 0.08,4.135 0.24,5.944 0.16,1.809 0.4,3.534 0.72,5.174 0.63,3.223 1.75,6.746 3.37,10.569 l -4.57,1.758 c -3.2,-6.694 -4.79,-14.509 -4.79,-23.445 0,-8.935 1.59,-16.75 4.79,-23.445 m 19.8,8.35 h -5.86 l 2.81,-4.79 h 8.17 v 33.926 h -5.12 v -29.136 m 23.2,38.54 -4.57,-1.758 c 1.61,-3.823 2.73,-7.346 3.36,-10.569 0.66,-3.222 0.99,-6.928 0.99,-11.118 0,-4.16 -0.33,-7.859 -0.99,-11.096 -0.64,-3.237 -1.76,-6.768 -3.36,-10.591 l 4.57,-1.758 c 3.19,6.695 4.79,14.51 4.79,23.445 0,8.936 -1.6,16.751 -4.79,23.445"
     id="path132" />
  <path
     class="Lyrics"
     d="m 1412.091,443.122 h -11.82 v 8.152 h 11.4 v 4.812 h -11.4 v 16.15 h -5.12 V 438.31 h 16.94 v 4.812 m 18.85,7.712 h 4.94 v 1.978 c 0.95,-0.996 1.77,-1.67 2.44,-2.021 0.72,-0.367 1.62,-0.55 2.7,-0.55 2.42,0 4.33,1.055 5.74,3.164 1.55,-2.109 3.65,-3.164 6.31,-3.164 4.81,0 7.22,2.923 7.22,8.767 v 13.228 h -4.96 v -11.887 c 0,-2.051 -0.25,-3.501 -0.75,-4.351 -0.51,-0.864 -1.35,-1.296 -2.53,-1.296 -1.36,0 -2.35,0.512 -2.97,1.538 -0.63,1.025 -0.94,2.673 -0.94,4.944 v 11.052 h -4.96 v -11.821 c 0,-3.809 -1.1,-5.713 -3.3,-5.713 -1.39,0 -2.4,0.52 -3.04,1.56 -0.64,1.04 -0.96,2.68 -0.96,4.922 v 11.052 h -4.94 v -21.402 m 51.37,0 h 4.96 v 21.402 h -4.96 v -2.241 c -2.04,1.904 -4.23,2.856 -6.57,2.856 -2.96,0 -5.41,-1.069 -7.34,-3.208 -1.92,-2.183 -2.88,-4.907 -2.88,-8.174 0,-3.208 0.96,-5.881 2.88,-8.02 1.92,-2.138 4.32,-3.208 7.21,-3.208 2.49,0 4.72,1.026 6.7,3.076 v -2.483 m -11.73,10.635 c 0,2.051 0.54,3.721 1.64,5.01 1.13,1.304 2.55,1.956 4.27,1.956 1.83,0 3.31,-0.63 4.43,-1.89 1.13,-1.304 1.7,-2.959 1.7,-4.966 0,-2.007 -0.57,-3.662 -1.7,-4.966 -1.12,-1.274 -2.59,-1.911 -4.39,-1.911 -1.7,0 -3.12,0.644 -4.26,1.933 -1.13,1.304 -1.69,2.915 -1.69,4.834 m 28.43,-10.635 v 33.047 h -4.95 v -33.047 h 4.95 m -5.69,-8.898 c 0,-0.865 0.31,-1.612 0.94,-2.242 0.63,-0.63 1.39,-0.945 2.26,-0.945 0.9,0 1.66,0.315 2.29,0.945 0.63,0.616 0.94,1.37 0.94,2.264 0,0.893 -0.31,1.655 -0.94,2.285 -0.62,0.63 -1.37,0.944 -2.26,0.944 -0.9,0 -1.66,-0.314 -2.29,-0.944 -0.63,-0.63 -0.94,-1.399 -0.94,-2.307 m 10.94,19.445 c 0,-3.09 1.1,-5.72 3.31,-7.888 2.22,-2.168 4.91,-3.252 8.09,-3.252 3.19,0 5.9,1.092 8.13,3.274 2.2,2.183 3.3,4.863 3.3,8.042 0,3.208 -1.11,5.896 -3.32,8.064 -2.23,2.153 -4.96,3.23 -8.2,3.23 -3.21,0 -5.89,-1.099 -8.06,-3.296 -2.17,-2.168 -3.25,-4.892 -3.25,-8.174 m 5.05,0.088 c 0,2.139 0.57,3.831 1.71,5.076 1.18,1.26 2.72,1.89 4.64,1.89 1.93,0 3.48,-0.623 4.64,-1.868 1.15,-1.245 1.73,-2.908 1.73,-4.988 0,-2.08 -0.58,-3.743 -1.73,-4.988 -1.18,-1.259 -2.72,-1.889 -4.64,-1.889 -1.89,0 -3.42,0.63 -4.59,1.889 -1.17,1.26 -1.76,2.886 -1.76,4.878 m 23,-10.635 h 4.95 v 1.912 c 0.91,-0.952 1.71,-1.604 2.41,-1.955 0.72,-0.367 1.57,-0.55 2.55,-0.55 1.31,0 2.67,0.425 4.09,1.275 l -2.26,4.526 c -0.94,-0.674 -1.86,-1.011 -2.75,-1.011 -2.69,0 -4.04,2.036 -4.04,6.109 v 11.096 h -4.95 v -21.402"
     id="path134" />
  <path
     class="Lyrics"
     d="m 1448.941,487.797 4.57,1.758 c -1.6,3.823 -2.72,7.354 -3.36,10.591 -0.32,1.641 -0.57,3.365 -0.73,5.175 -0.16,1.809 -0.24,3.783 -0.24,5.921 0,2.153 0.08,4.135 0.24,5.944 0.16,1.809 0.41,3.534 0.73,5.174 0.63,3.223 1.75,6.746 3.36,10.569 l -4.57,1.758 c -3.19,-6.694 -4.79,-14.509 -4.79,-23.445 0,-8.935 1.6,-16.75 4.79,-23.445 m 19.81,8.35 h -5.87 l 2.81,-4.79 h 8.18 v 33.926 h -5.12 v -29.136 m 23.19,38.54 -4.57,-1.758 c 1.61,-3.823 2.73,-7.346 3.36,-10.569 0.66,-3.222 0.99,-6.928 0.99,-11.118 0,-4.16 -0.33,-7.859 -0.99,-11.096 -0.64,-3.237 -1.76,-6.768 -3.36,-10.591 l 4.57,-1.758 c 3.2,6.695 4.79,14.51 4.79,23.445 0,8.936 -1.59,16.751 -4.79,23.445"
     id="path136" />
  <path
     class="Lyrics"
     d="m 1681.531,454.57 h 14.02 v 1.12 c 0,2.549 -0.3,4.805 -0.91,6.768 -0.58,1.816 -1.57,3.516 -2.96,5.098 -3.15,3.545 -7.16,5.317 -12.02,5.317 -4.75,0 -8.81,-1.714 -12.2,-5.142 -3.38,-3.442 -5.07,-7.573 -5.07,-12.392 0,-4.922 1.72,-9.097 5.16,-12.525 3.44,-3.442 7.63,-5.163 12.57,-5.163 2.65,0 5.13,0.542 7.43,1.626 2.19,1.084 4.36,2.842 6.48,5.273 l -3.65,3.494 c -2.78,-3.706 -6.17,-5.559 -10.17,-5.559 -3.59,0 -6.6,1.238 -9.03,3.713 -2.43,2.432 -3.65,5.479 -3.65,9.141 0,3.779 1.36,6.892 4.07,9.338 2.53,2.271 5.28,3.406 8.24,3.406 2.51,0 4.78,-0.85 6.78,-2.549 2.01,-1.714 3.13,-3.764 3.37,-6.152 h -8.46 v -4.812 m 33.37,-3.736 h 4.95 v 1.978 c 0.95,-0.996 1.76,-1.67 2.43,-2.021 0.72,-0.367 1.62,-0.55 2.71,-0.55 2.41,0 4.33,1.055 5.73,3.164 1.55,-2.109 3.66,-3.164 6.31,-3.164 4.82,0 7.23,2.923 7.23,8.767 v 13.228 h -4.97 v -11.887 c 0,-2.051 -0.25,-3.501 -0.75,-4.351 -0.51,-0.864 -1.35,-1.296 -2.52,-1.296 -1.36,0 -2.36,0.512 -2.98,1.538 -0.62,1.025 -0.93,2.673 -0.93,4.944 v 11.052 h -4.97 v -11.821 c 0,-3.809 -1.1,-5.713 -3.3,-5.713 -1.39,0 -2.4,0.52 -3.04,1.56 -0.64,1.04 -0.95,2.68 -0.95,4.922 v 11.052 h -4.95 v -21.402 m 51.37,0 h 4.97 v 21.402 h -4.97 v -2.241 c -2.03,1.904 -4.22,2.856 -6.57,2.856 -2.96,0 -5.4,-1.069 -7.34,-3.208 -1.92,-2.183 -2.88,-4.907 -2.88,-8.174 0,-3.208 0.96,-5.881 2.88,-8.02 1.92,-2.138 4.32,-3.208 7.21,-3.208 2.49,0 4.72,1.026 6.7,3.076 v -2.483 m -11.73,10.635 c 0,2.051 0.55,3.721 1.65,5.01 1.12,1.304 2.55,1.956 4.26,1.956 1.83,0 3.31,-0.63 4.44,-1.89 1.13,-1.304 1.69,-2.959 1.69,-4.966 0,-2.007 -0.56,-3.662 -1.69,-4.966 -1.13,-1.274 -2.6,-1.911 -4.4,-1.911 -1.7,0 -3.12,0.644 -4.26,1.933 -1.13,1.304 -1.69,2.915 -1.69,4.834 m 28.43,-10.635 v 33.047 h -4.94 v -33.047 h 4.94 m -5.69,-8.898 c 0,-0.865 0.31,-1.612 0.94,-2.242 0.63,-0.63 1.39,-0.945 2.27,-0.945 0.89,0 1.65,0.315 2.28,0.945 0.63,0.616 0.95,1.37 0.95,2.264 0,0.893 -0.32,1.655 -0.95,2.285 -0.61,0.63 -1.37,0.944 -2.26,0.944 -0.89,0 -1.66,-0.314 -2.29,-0.944 -0.63,-0.63 -0.94,-1.399 -0.94,-2.307 m 10.94,19.445 c 0,-3.09 1.1,-5.72 3.32,-7.888 2.21,-2.168 4.9,-3.252 8.08,-3.252 3.2,0 5.91,1.092 8.13,3.274 2.2,2.183 3.3,4.863 3.3,8.042 0,3.208 -1.11,5.896 -3.32,8.064 -2.23,2.153 -4.96,3.23 -8.2,3.23 -3.2,0 -5.89,-1.099 -8.06,-3.296 -2.17,-2.168 -3.25,-4.892 -3.25,-8.174 m 5.05,0.088 c 0,2.139 0.57,3.831 1.72,5.076 1.17,1.26 2.71,1.89 4.63,1.89 1.94,0 3.48,-0.623 4.64,-1.868 1.16,-1.245 1.73,-2.908 1.73,-4.988 0,-2.08 -0.57,-3.743 -1.73,-4.988 -1.17,-1.259 -2.72,-1.889 -4.64,-1.889 -1.89,0 -3.42,0.63 -4.59,1.889 -1.17,1.26 -1.76,2.886 -1.76,4.878 m 23.01,-10.635 h 4.94 v 1.912 c 0.91,-0.952 1.71,-1.604 2.42,-1.955 0.72,-0.367 1.56,-0.55 2.55,-0.55 1.3,0 2.66,0.425 4.08,1.275 l -2.26,4.526 c -0.94,-0.674 -1.85,-1.011 -2.75,-1.011 -2.69,0 -4.04,2.036 -4.04,6.109 v 11.096 h -4.94 v -21.402"
     id="path138" />
  <path
     class="Lyrics"
     d="m 1724.541,487.797 4.57,1.758 c -1.59,3.823 -2.71,7.354 -3.36,10.591 -0.32,1.641 -0.56,3.365 -0.72,5.175 -0.17,1.809 -0.25,3.783 -0.25,5.921 0,2.153 0.08,4.135 0.25,5.944 0.16,1.809 0.4,3.534 0.72,5.174 0.63,3.223 1.75,6.746 3.36,10.569 l -4.57,1.758 c -3.19,-6.694 -4.79,-14.509 -4.79,-23.445 0,-8.935 1.6,-16.75 4.79,-23.445 m 19.81,8.35 h -5.87 l 2.82,-4.79 h 8.17 v 33.926 h -5.12 v -29.136 m 23.2,38.54 -4.57,-1.758 c 1.61,-3.823 2.73,-7.346 3.36,-10.569 0.66,-3.222 0.99,-6.928 0.99,-11.118 0,-4.16 -0.33,-7.859 -0.99,-11.096 -0.65,-3.237 -1.77,-6.768 -3.36,-10.591 l 4.57,-1.758 c 3.19,6.695 4.79,14.51 4.79,23.445 0,8.936 -1.6,16.751 -4.79,23.445"
     id="path140" />
  <path
     class="Lyrics"
     d="m 1963.301,443.122 h -11.82 v 8.152 h 11.4 v 4.812 h -11.4 v 16.15 h -5.12 V 438.31 h 16.94 v 4.812 m 18.85,7.712 h 4.94 v 1.978 c 0.95,-0.996 1.76,-1.67 2.44,-2.021 0.72,-0.367 1.62,-0.55 2.7,-0.55 2.42,0 4.33,1.055 5.74,3.164 1.55,-2.109 3.65,-3.164 6.3,-3.164 4.82,0 7.23,2.923 7.23,8.767 v 13.228 h -4.96 v -11.887 c 0,-2.051 -0.25,-3.501 -0.75,-4.351 -0.51,-0.864 -1.36,-1.296 -2.53,-1.296 -1.36,0 -2.35,0.512 -2.98,1.538 -0.62,1.025 -0.93,2.673 -0.93,4.944 v 11.052 h -4.97 v -11.821 c 0,-3.809 -1.09,-5.713 -3.29,-5.713 -1.39,0 -2.41,0.52 -3.04,1.56 -0.64,1.04 -0.96,2.68 -0.96,4.922 v 11.052 h -4.94 v -21.402 m 51.37,0 h 4.96 v 21.402 h -4.96 v -2.241 c -2.04,1.904 -4.23,2.856 -6.57,2.856 -2.96,0 -5.41,-1.069 -7.34,-3.208 -1.92,-2.183 -2.88,-4.907 -2.88,-8.174 0,-3.208 0.96,-5.881 2.88,-8.02 1.92,-2.138 4.32,-3.208 7.2,-3.208 2.49,0 4.73,1.026 6.71,3.076 v -2.483 m -11.74,10.635 c 0,2.051 0.55,3.721 1.65,5.01 1.13,1.304 2.55,1.956 4.26,1.956 1.83,0 3.31,-0.63 4.44,-1.89 1.13,-1.304 1.69,-2.959 1.69,-4.966 0,-2.007 -0.56,-3.662 -1.69,-4.966 -1.13,-1.274 -2.59,-1.911 -4.39,-1.911 -1.7,0 -3.12,0.644 -4.27,1.933 -1.12,1.304 -1.69,2.915 -1.69,4.834 m 28.43,-10.635 v 33.047 h -4.94 v -33.047 h 4.94 m -5.69,-8.898 c 0,-0.865 0.32,-1.612 0.95,-2.242 0.63,-0.63 1.38,-0.945 2.26,-0.945 0.9,0 1.66,0.315 2.29,0.945 0.63,0.616 0.94,1.37 0.94,2.264 0,0.893 -0.31,1.655 -0.94,2.285 -0.62,0.63 -1.37,0.944 -2.27,0.944 -0.89,0 -1.65,-0.314 -2.28,-0.944 -0.63,-0.63 -0.95,-1.399 -0.95,-2.307 m 10.94,19.445 c 0,-3.09 1.11,-5.72 3.32,-7.888 2.21,-2.168 4.91,-3.252 8.09,-3.252 3.19,0 5.9,1.092 8.13,3.274 2.19,2.183 3.29,4.863 3.29,8.042 0,3.208 -1.1,5.896 -3.32,8.064 -2.22,2.153 -4.95,3.23 -8.19,3.23 -3.21,0 -5.9,-1.099 -8.07,-3.296 -2.16,-2.168 -3.25,-4.892 -3.25,-8.174 m 5.06,0.088 c 0,2.139 0.57,3.831 1.71,5.076 1.17,1.26 2.72,1.89 4.64,1.89 1.93,0 3.48,-0.623 4.63,-1.868 1.16,-1.245 1.74,-2.908 1.74,-4.988 0,-2.08 -0.58,-3.743 -1.74,-4.988 -1.17,-1.259 -2.71,-1.889 -4.63,-1.889 -1.89,0 -3.42,0.63 -4.6,1.889 -1.17,1.26 -1.75,2.886 -1.75,4.878 m 23,-10.635 h 4.94 v 1.912 c 0.91,-0.952 1.72,-1.604 2.42,-1.955 0.72,-0.367 1.57,-0.55 2.55,-0.55 1.3,0 2.67,0.425 4.09,1.275 l -2.27,4.526 c -0.93,-0.674 -1.85,-1.011 -2.74,-1.011 -2.7,0 -4.05,2.036 -4.05,6.109 v 11.096 h -4.94 v -21.402"
     id="path142" />
  <path
     class="Lyrics"
     d="m 2000.151,487.797 4.57,1.758 c -1.6,3.823 -2.72,7.354 -3.37,10.591 -0.32,1.641 -0.56,3.365 -0.72,5.175 -0.16,1.809 -0.24,3.783 -0.24,5.921 0,2.153 0.08,4.135 0.24,5.944 0.16,1.809 0.4,3.534 0.72,5.174 0.63,3.223 1.76,6.746 3.37,10.569 l -4.57,1.758 c -3.2,-6.694 -4.79,-14.509 -4.79,-23.445 0,-8.935 1.59,-16.75 4.79,-23.445 m 19.8,8.35 h -5.86 l 2.81,-4.79 h 8.17 v 33.926 h -5.12 v -29.136 m 23.2,38.54 -4.57,-1.758 c 1.61,-3.823 2.73,-7.346 3.36,-10.569 0.66,-3.222 0.99,-6.928 0.99,-11.118 0,-4.16 -0.33,-7.859 -0.99,-11.096 -0.64,-3.237 -1.76,-6.768 -3.36,-10.591 l 4.57,-1.758 c 3.19,6.695 4.79,14.51 4.79,23.445 0,8.936 -1.6,16.751 -4.79,23.445"
     id="path144" />
  <path
     class="Lyrics"
     d="m 2239.381,443.122 h -13.6 v 8.152 h 13.21 v 4.812 h -13.21 v 11.338 h 13.6 v 4.812 h -18.72 V 438.31 h 18.72 v 4.812 m 19.65,7.712 h 4.94 v 1.978 c 0.96,-0.996 1.77,-1.67 2.44,-2.021 0.72,-0.367 1.62,-0.55 2.71,-0.55 2.41,0 4.32,1.055 5.73,3.164 1.55,-2.109 3.66,-3.164 6.31,-3.164 4.82,0 7.23,2.923 7.23,8.767 v 13.228 h -4.97 v -11.887 c 0,-2.051 -0.25,-3.501 -0.75,-4.351 -0.51,-0.864 -1.35,-1.296 -2.52,-1.296 -1.37,0 -2.36,0.512 -2.98,1.538 -0.62,1.025 -0.94,2.673 -0.94,4.944 v 11.052 h -4.96 v -11.821 c 0,-3.809 -1.1,-5.713 -3.3,-5.713 -1.39,0 -2.4,0.52 -3.04,1.56 -0.64,1.04 -0.96,2.68 -0.96,4.922 v 11.052 h -4.94 v -21.402 m 51.37,0 h 4.97 v 21.402 h -4.97 v -2.241 c -2.04,1.904 -4.23,2.856 -6.57,2.856 -2.96,0 -5.4,-1.069 -7.34,-3.208 -1.92,-2.183 -2.88,-4.907 -2.88,-8.174 0,-3.208 0.96,-5.881 2.88,-8.02 1.92,-2.138 4.32,-3.208 7.21,-3.208 2.49,0 4.72,1.026 6.7,3.076 v -2.483 m -11.73,10.635 c 0,2.051 0.55,3.721 1.64,5.01 1.13,1.304 2.55,1.956 4.27,1.956 1.83,0 3.31,-0.63 4.44,-1.89 1.12,-1.304 1.69,-2.959 1.69,-4.966 0,-2.007 -0.57,-3.662 -1.69,-4.966 -1.13,-1.274 -2.6,-1.911 -4.4,-1.911 -1.7,0 -3.12,0.644 -4.26,1.933 -1.13,1.304 -1.69,2.915 -1.69,4.834 m 28.43,-10.635 v 33.047 h -4.94 v -33.047 h 4.94 m -5.69,-8.898 c 0,-0.865 0.31,-1.612 0.94,-2.242 0.63,-0.63 1.39,-0.945 2.27,-0.945 0.89,0 1.65,0.315 2.28,0.945 0.63,0.616 0.95,1.37 0.95,2.264 0,0.893 -0.32,1.655 -0.95,2.285 -0.61,0.63 -1.37,0.944 -2.26,0.944 -0.9,0 -1.66,-0.314 -2.29,-0.944 -0.63,-0.63 -0.94,-1.399 -0.94,-2.307 m 10.94,19.445 c 0,-3.09 1.1,-5.72 3.32,-7.888 2.21,-2.168 4.9,-3.252 8.08,-3.252 3.19,0 5.9,1.092 8.13,3.274 2.2,2.183 3.3,4.863 3.3,8.042 0,3.208 -1.11,5.896 -3.32,8.064 -2.23,2.153 -4.96,3.23 -8.2,3.23 -3.2,0 -5.89,-1.099 -8.06,-3.296 -2.17,-2.168 -3.25,-4.892 -3.25,-8.174 m 5.05,0.088 c 0,2.139 0.57,3.831 1.72,5.076 1.17,1.26 2.71,1.89 4.63,1.89 1.93,0 3.48,-0.623 4.64,-1.868 1.15,-1.245 1.73,-2.908 1.73,-4.988 0,-2.08 -0.58,-3.743 -1.73,-4.988 -1.17,-1.259 -2.72,-1.889 -4.64,-1.889 -1.89,0 -3.42,0.63 -4.59,1.889 -1.17,1.26 -1.76,2.886 -1.76,4.878 m 23.01,-10.635 h 4.94 v 1.912 c 0.91,-0.952 1.71,-1.604 2.42,-1.955 0.71,-0.367 1.56,-0.55 2.54,-0.55 1.31,0 2.67,0.425 4.09,1.275 l -2.26,4.526 c -0.94,-0.674 -1.85,-1.011 -2.75,-1.011 -2.69,0 -4.04,2.036 -4.04,6.109 v 11.096 h -4.94 v -21.402"
     id="path146" />
  <path
     class="Lyrics"
     d="m 2275.751,487.797 4.57,1.758 c -1.6,3.823 -2.72,7.354 -3.36,10.591 -0.32,1.641 -0.57,3.365 -0.73,5.175 -0.16,1.809 -0.24,3.783 -0.24,5.921 0,2.153 0.08,4.135 0.24,5.944 0.16,1.809 0.41,3.534 0.73,5.174 0.63,3.223 1.75,6.746 3.36,10.569 l -4.57,1.758 c -3.19,-6.694 -4.79,-14.509 -4.79,-23.445 0,-8.935 1.6,-16.75 4.79,-23.445 m 19.81,8.35 h -5.87 l 2.81,-4.79 h 8.18 v 33.926 h -5.12 v -29.136 m 23.19,38.54 -4.57,-1.758 c 1.61,-3.823 2.73,-7.346 3.36,-10.569 0.66,-3.222 0.99,-6.928 0.99,-11.118 0,-4.16 -0.33,-7.859 -0.99,-11.096 -0.64,-3.237 -1.76,-6.768 -3.36,-10.591 l 4.57,-1.758 c 3.2,6.695 4.79,14.51 4.79,23.445 0,8.936 -1.59,16.751 -4.79,23.445"
     id="path148" />
  <path
     class="Lyrics"
     d="m 91.273,943.495 v -33.93 h 7.12 c 3.413,0 6.108,0.34 8.086,1.02 2.124,0.65 4.05,1.78 5.778,3.36 3.501,3.19 5.252,7.39 5.252,12.59 0,5.21 -1.824,9.43 -5.471,12.65 -1.831,1.62 -3.75,2.74 -5.757,3.37 -1.875,0.63 -4.534,0.94 -7.976,0.94 h -7.032 m 5.12,-4.81 H 98.7 c 2.3,0 4.212,-0.24 5.735,-0.73 1.523,-0.51 2.9,-1.32 4.131,-2.44 2.519,-2.3 3.779,-5.29 3.779,-8.98 0,-3.72 -1.245,-6.74 -3.735,-9.05 -2.241,-2.07 -5.545,-3.1 -9.91,-3.1 h -2.307 v 24.3 m 40.482,-16.59 h 4.944 v 1.98 c 0.952,-1 1.765,-1.67 2.439,-2.02 0.718,-0.37 1.619,-0.55 2.703,-0.55 2.417,0 4.329,1.05 5.735,3.16 1.553,-2.11 3.655,-3.16 6.306,-3.16 4.819,0 7.229,2.92 7.229,8.76 v 13.23 h -4.966 v -11.89 c 0,-2.05 -0.249,-3.5 -0.747,-4.35 -0.513,-0.86 -1.355,-1.29 -2.527,-1.29 -1.362,0 -2.355,0.51 -2.977,1.53 -0.623,1.03 -0.934,2.68 -0.934,4.95 v 11.05 h -4.966 v -11.82 c 0,-3.81 -1.098,-5.71 -3.296,-5.71 -1.391,0 -2.406,0.52 -3.043,1.56 -0.637,1.04 -0.956,2.68 -0.956,4.92 v 11.05 h -4.944 v -21.4 m 51.371,0 h 4.965 v 21.4 h -4.965 v -2.24 c -2.037,1.9 -4.226,2.86 -6.57,2.86 -2.959,0 -5.406,-1.07 -7.339,-3.21 -1.919,-2.18 -2.879,-4.91 -2.879,-8.18 0,-3.2 0.96,-5.88 2.879,-8.02 1.919,-2.13 4.321,-3.2 7.207,-3.2 2.49,0 4.724,1.02 6.702,3.07 v -2.48 m -11.734,10.63 c 0,2.05 0.55,3.72 1.648,5.01 1.128,1.31 2.549,1.96 4.263,1.96 1.831,0 3.31,-0.63 4.438,-1.89 1.128,-1.3 1.692,-2.96 1.692,-4.97 0,-2 -0.564,-3.66 -1.692,-4.96 -1.128,-1.28 -2.592,-1.91 -4.394,-1.91 -1.699,0 -3.12,0.64 -4.263,1.93 -1.128,1.3 -1.692,2.92 -1.692,4.83 m 28.432,-10.63 v 33.05 H 200 v -33.05 h 4.944 m -5.691,-8.9 c 0,-0.86 0.315,-1.61 0.945,-2.24 0.63,-0.63 1.385,-0.95 2.263,-0.95 0.894,0 1.656,0.32 2.286,0.95 0.629,0.61 0.944,1.37 0.944,2.26 0,0.9 -0.315,1.66 -0.944,2.29 -0.616,0.63 -1.37,0.94 -2.264,0.94 -0.893,0 -1.655,-0.31 -2.285,-0.94 -0.63,-0.63 -0.945,-1.4 -0.945,-2.31 m 10.94,19.45 c 0,-3.09 1.106,-5.72 3.318,-7.89 2.212,-2.17 4.907,-3.25 8.086,-3.25 3.193,0 5.903,1.09 8.13,3.27 2.197,2.18 3.295,4.86 3.295,8.04 0,3.21 -1.106,5.9 -3.317,8.07 -2.227,2.15 -4.959,3.23 -8.196,3.23 -3.208,0 -5.896,-1.1 -8.064,-3.3 -2.168,-2.17 -3.252,-4.89 -3.252,-8.17 m 5.054,0.08 c 0,2.14 0.571,3.83 1.713,5.08 1.172,1.26 2.718,1.89 4.637,1.89 1.933,0 3.479,-0.62 4.636,-1.87 1.157,-1.24 1.736,-2.91 1.736,-4.99 0,-2.08 -0.579,-3.74 -1.736,-4.98 -1.172,-1.26 -2.717,-1.89 -4.636,-1.89 -1.89,0 -3.421,0.63 -4.593,1.89 -1.171,1.26 -1.757,2.88 -1.757,4.87 m 23.003,-10.63 h 4.944 v 1.91 c 0.909,-0.95 1.714,-1.6 2.417,-1.95 0.718,-0.37 1.568,-0.55 2.549,-0.55 1.304,0 2.666,0.42 4.087,1.27 l -2.263,4.53 c -0.938,-0.68 -1.853,-1.01 -2.747,-1.01 -2.695,0 -4.043,2.03 -4.043,6.1 v 11.1 h -4.944 v -21.4"
     id="path150" />
  <path
     class="Lyrics"
     d="m 149.97,959.055 4.57,1.76 c -1.597,3.82 -2.717,7.35 -3.362,10.59 -0.322,1.64 -0.564,3.37 -0.725,5.18 -0.161,1.8 -0.242,3.78 -0.242,5.92 0,2.15 0.081,4.13 0.242,5.94 0.161,1.81 0.403,3.53 0.725,5.18 0.63,3.22 1.751,6.74 3.362,10.56 l -4.57,1.76 c -3.194,-6.69 -4.79,-14.51 -4.79,-23.44 0,-8.94 1.596,-16.75 4.79,-23.45 m 19.808,8.35 h -5.866 l 2.812,-4.79 h 8.174 v 33.93 h -5.12 v -29.14 m 23.196,38.54 -4.571,-1.76 c 1.612,-3.82 2.732,-7.34 3.362,-10.56 0.659,-3.23 0.989,-6.93 0.989,-11.12 0,-4.16 -0.33,-7.86 -0.989,-11.1 -0.644,-3.24 -1.765,-6.77 -3.362,-10.59 l 4.571,-1.76 c 3.193,6.7 4.79,14.51 4.79,23.45 0,8.93 -1.597,16.75 -4.79,23.44"
     id="path152" />
  <path
     class="Lyrics"
     d="m 603.176,943.495 v -33.93 h 7.119 c 3.413,0 6.109,0.34 8.086,1.02 2.124,0.65 4.05,1.78 5.779,3.36 3.501,3.19 5.251,7.39 5.251,12.59 0,5.21 -1.823,9.43 -5.471,12.65 -1.831,1.62 -3.75,2.74 -5.757,3.37 -1.875,0.63 -4.533,0.94 -7.976,0.94 h -7.031 m 5.12,-4.81 h 2.307 c 2.3,0 4.211,-0.24 5.735,-0.73 1.523,-0.51 2.9,-1.32 4.13,-2.44 2.52,-2.3 3.78,-5.29 3.78,-8.98 0,-3.72 -1.245,-6.74 -3.736,-9.05 -2.241,-2.07 -5.544,-3.1 -9.909,-3.1 h -2.307 v 24.3"
     id="path154" />
  <path
     class="Lyrics"
     d="m 649.468,928.645 c 0,-3.64 -2.205,-5.98 -4.905,-5.98 -3.825,0 -5.31,2.25 -5.94,4.05 v -13.91 h -2.655 v 28.17 c 5.67,-0.31 13.5,-2.79 13.5,-12.33 m -3.24,1.58 c 0,6.16 -4.275,8.41 -7.605,8.64 v -9.05 c 0,-1.98 1.44,-4.99 4.635,-4.99 1.845,0 3.015,2.38 3.015,5.4 h -0.045"
     id="path156" />
  <path
     class="Lyrics"
     d="m 670.637,922.095 h 4.944 v 1.98 c 0.952,-1 1.765,-1.67 2.439,-2.02 0.718,-0.37 1.619,-0.55 2.703,-0.55 2.417,0 4.328,1.05 5.735,3.16 1.552,-2.11 3.655,-3.16 6.306,-3.16 4.819,0 7.229,2.92 7.229,8.76 v 13.23 h -4.966 v -11.89 c 0,-2.05 -0.249,-3.5 -0.747,-4.35 -0.513,-0.86 -1.355,-1.29 -2.527,-1.29 -1.362,0 -2.355,0.51 -2.977,1.53 -0.623,1.03 -0.934,2.68 -0.934,4.95 v 11.05 h -4.966 v -11.82 c 0,-3.81 -1.098,-5.71 -3.296,-5.71 -1.391,0 -2.406,0.52 -3.043,1.56 -0.637,1.04 -0.956,2.68 -0.956,4.92 v 11.05 h -4.944 v -21.4 m 51.371,0 h 4.965 v 21.4 h -4.965 v -2.24 c -2.037,1.9 -4.227,2.86 -6.57,2.86 -2.959,0 -5.406,-1.07 -7.339,-3.21 -1.919,-2.18 -2.879,-4.91 -2.879,-8.18 0,-3.2 0.96,-5.88 2.879,-8.02 1.919,-2.13 4.321,-3.2 7.207,-3.2 2.49,0 4.724,1.02 6.702,3.07 v -2.48 m -11.734,10.63 c 0,2.05 0.549,3.72 1.648,5.01 1.128,1.31 2.549,1.96 4.263,1.96 1.831,0 3.31,-0.63 4.438,-1.89 1.128,-1.3 1.692,-2.96 1.692,-4.97 0,-2 -0.564,-3.66 -1.692,-4.96 -1.128,-1.28 -2.593,-1.91 -4.394,-1.91 -1.7,0 -3.12,0.64 -4.263,1.93 -1.128,1.3 -1.692,2.92 -1.692,4.83 m 28.432,-10.63 v 33.05 h -4.944 v -33.05 h 4.944 m -5.691,-8.9 c 0,-0.86 0.315,-1.61 0.945,-2.24 0.63,-0.63 1.384,-0.95 2.263,-0.95 0.894,0 1.656,0.32 2.285,0.95 0.63,0.61 0.945,1.37 0.945,2.26 0,0.9 -0.315,1.66 -0.945,2.29 -0.615,0.63 -1.369,0.94 -2.263,0.94 -0.893,0 -1.655,-0.31 -2.285,-0.94 -0.63,-0.63 -0.945,-1.4 -0.945,-2.31 m 10.94,19.45 c 0,-3.09 1.106,-5.72 3.318,-7.89 2.212,-2.17 4.907,-3.25 8.086,-3.25 3.193,0 5.903,1.09 8.129,3.27 2.198,2.18 3.296,4.86 3.296,8.04 0,3.21 -1.106,5.9 -3.317,8.07 -2.227,2.15 -4.959,3.23 -8.196,3.23 -3.208,0 -5.896,-1.1 -8.064,-3.3 -2.168,-2.17 -3.252,-4.89 -3.252,-8.17 m 5.053,0.08 c 0,2.14 0.572,3.83 1.714,5.08 1.172,1.26 2.718,1.89 4.637,1.89 1.933,0 3.479,-0.62 4.636,-1.87 1.157,-1.24 1.736,-2.91 1.736,-4.99 0,-2.08 -0.579,-3.74 -1.736,-4.98 -1.172,-1.26 -2.717,-1.89 -4.636,-1.89 -1.89,0 -3.421,0.63 -4.593,1.89 -1.172,1.26 -1.758,2.88 -1.758,4.87 m 23.004,-10.63 h 4.944 v 1.91 c 0.908,-0.95 1.714,-1.6 2.417,-1.95 0.718,-0.37 1.568,-0.55 2.549,-0.55 1.304,0 2.666,0.42 4.087,1.27 l -2.263,4.53 c -0.938,-0.68 -1.853,-1.01 -2.747,-1.01 -2.695,0 -4.043,2.03 -4.043,6.1 v 11.1 h -4.944 v -21.4"
     id="path158" />
  <path
     class="Lyrics"
     d="m 672.81,959.055 4.57,1.76 c -1.597,3.82 -2.717,7.35 -3.362,10.59 -0.322,1.64 -0.564,3.37 -0.725,5.18 -0.161,1.8 -0.242,3.78 -0.242,5.92 0,2.15 0.081,4.13 0.242,5.94 0.161,1.81 0.403,3.53 0.725,5.18 0.63,3.22 1.751,6.74 3.362,10.56 l -4.57,1.76 c -3.194,-6.69 -4.79,-14.51 -4.79,-23.44 0,-8.94 1.596,-16.75 4.79,-23.45 m 19.808,8.35 h -5.866 l 2.812,-4.79 h 8.174 v 33.93 h -5.12 v -29.14 m 23.196,38.54 -4.571,-1.76 c 1.612,-3.82 2.732,-7.34 3.362,-10.56 0.659,-3.23 0.989,-6.93 0.989,-11.12 0,-4.16 -0.33,-7.86 -0.989,-11.1 -0.644,-3.24 -1.765,-6.77 -3.362,-10.59 l 4.571,-1.76 c 3.193,6.7 4.79,14.51 4.79,23.45 0,8.93 -1.597,16.75 -4.79,23.44"
     id="path160" />
  <path
     class="Lyrics"
     d="m 1136.951,943.495 v -33.93 h 7.12 c 3.41,0 6.11,0.34 8.09,1.02 2.12,0.65 4.05,1.78 5.78,3.36 3.5,3.19 5.25,7.39 5.25,12.59 0,5.21 -1.83,9.43 -5.47,12.65 -1.83,1.62 -3.75,2.74 -5.76,3.37 -1.88,0.63 -4.53,0.94 -7.98,0.94 h -7.03 m 5.12,-4.81 h 2.31 c 2.3,0 4.21,-0.24 5.73,-0.73 1.53,-0.51 2.9,-1.32 4.14,-2.44 2.51,-2.3 3.77,-5.29 3.77,-8.98 0,-3.72 -1.24,-6.74 -3.73,-9.05 -2.24,-2.07 -5.55,-3.1 -9.91,-3.1 h -2.31 v 24.3 m 40.48,-16.59 h 4.95 v 1.98 c 0.95,-1 1.76,-1.67 2.44,-2.02 0.72,-0.37 1.62,-0.55 2.7,-0.55 2.42,0 4.33,1.05 5.73,3.16 1.56,-2.11 3.66,-3.16 6.31,-3.16 4.82,0 7.23,2.92 7.23,8.76 v 13.23 h -4.97 v -11.89 c 0,-2.05 -0.24,-3.5 -0.74,-4.35 -0.52,-0.86 -1.36,-1.29 -2.53,-1.29 -1.36,0 -2.35,0.51 -2.98,1.53 -0.62,1.03 -0.93,2.68 -0.93,4.95 v 11.05 h -4.97 v -11.82 c 0,-3.81 -1.1,-5.71 -3.29,-5.71 -1.39,0 -2.41,0.52 -3.05,1.56 -0.63,1.04 -0.95,2.68 -0.95,4.92 v 11.05 h -4.95 v -21.4 m 51.37,0 h 4.97 v 21.4 h -4.97 v -2.24 c -2.03,1.9 -4.22,2.86 -6.57,2.86 -2.95,0 -5.4,-1.07 -7.33,-3.21 -1.92,-2.18 -2.88,-4.91 -2.88,-8.18 0,-3.2 0.96,-5.88 2.88,-8.02 1.91,-2.13 4.32,-3.2 7.2,-3.2 2.49,0 4.73,1.02 6.7,3.07 v -2.48 m -11.73,10.63 c 0,2.05 0.55,3.72 1.65,5.01 1.13,1.31 2.55,1.96 4.26,1.96 1.83,0 3.31,-0.63 4.44,-1.89 1.13,-1.3 1.69,-2.96 1.69,-4.97 0,-2 -0.56,-3.66 -1.69,-4.96 -1.13,-1.28 -2.59,-1.91 -4.39,-1.91 -1.7,0 -3.12,0.64 -4.27,1.93 -1.12,1.3 -1.69,2.92 -1.69,4.83 m 28.43,-10.63 v 33.05 h -4.94 v -33.05 h 4.94 m -5.69,-8.9 c 0,-0.86 0.32,-1.61 0.95,-2.24 0.63,-0.63 1.38,-0.95 2.26,-0.95 0.89,0 1.66,0.32 2.29,0.95 0.63,0.61 0.94,1.37 0.94,2.26 0,0.9 -0.31,1.66 -0.94,2.29 -0.62,0.63 -1.37,0.94 -2.27,0.94 -0.89,0 -1.65,-0.31 -2.28,-0.94 -0.63,-0.63 -0.95,-1.4 -0.95,-2.31 m 10.94,19.45 c 0,-3.09 1.11,-5.72 3.32,-7.89 2.21,-2.17 4.91,-3.25 8.09,-3.25 3.19,0 5.9,1.09 8.13,3.27 2.19,2.18 3.29,4.86 3.29,8.04 0,3.21 -1.1,5.9 -3.32,8.07 -2.22,2.15 -4.95,3.23 -8.19,3.23 -3.21,0 -5.9,-1.1 -8.07,-3.3 -2.16,-2.17 -3.25,-4.89 -3.25,-8.17 m 5.06,0.08 c 0,2.14 0.57,3.83 1.71,5.08 1.17,1.26 2.72,1.89 4.64,1.89 1.93,0 3.47,-0.62 4.63,-1.87 1.16,-1.24 1.74,-2.91 1.74,-4.99 0,-2.08 -0.58,-3.74 -1.74,-4.98 -1.17,-1.26 -2.72,-1.89 -4.63,-1.89 -1.89,0 -3.42,0.63 -4.6,1.89 -1.17,1.26 -1.75,2.88 -1.75,4.87 m 23,-10.63 h 4.94 v 1.91 c 0.91,-0.95 1.72,-1.6 2.42,-1.95 0.72,-0.37 1.57,-0.55 2.55,-0.55 1.3,0 2.67,0.42 4.09,1.27 l -2.27,4.53 c -0.93,-0.68 -1.85,-1.01 -2.74,-1.01 -2.7,0 -4.05,2.03 -4.05,6.1 v 11.1 h -4.94 v -21.4"
     id="path162" />
  <path
     class="Lyrics"
     d="m 1195.651,959.055 4.57,1.76 c -1.6,3.82 -2.72,7.35 -3.36,10.59 -0.32,1.64 -0.57,3.37 -0.73,5.18 -0.16,1.8 -0.24,3.78 -0.24,5.92 0,2.15 0.08,4.13 0.24,5.94 0.16,1.81 0.41,3.53 0.73,5.18 0.63,3.22 1.75,6.74 3.36,10.56 l -4.57,1.76 c -3.19,-6.69 -4.79,-14.51 -4.79,-23.44 0,-8.94 1.6,-16.75 4.79,-23.45 m 19.81,8.35 h -5.87 l 2.81,-4.79 h 8.18 v 33.93 h -5.12 v -29.14 m 23.19,38.54 -4.57,-1.76 c 1.61,-3.82 2.73,-7.34 3.36,-10.56 0.66,-3.23 0.99,-6.93 0.99,-11.12 0,-4.16 -0.33,-7.86 -0.99,-11.1 -0.64,-3.24 -1.76,-6.77 -3.36,-10.59 l 4.57,-1.76 c 3.2,6.7 4.79,14.51 4.79,23.45 0,8.93 -1.59,16.75 -4.79,23.44"
     id="path164" />
  <path
     class="NoteDot"
     d="m 1245.661,729.22335 c 0,2.73969 2.2209,4.96063 4.9606,4.96063 2.7397,0 4.9607,-2.22094 4.9607,-4.96063 0,-2.73968 -2.221,-4.96063 -4.9607,-4.96063 -2.7397,0 -4.9606,2.22095 -4.9606,4.96063"
     id="path166"
     style="stroke-width:0.992126" />
</svg>
