<?xml version="1.0" encoding="UTF-8" standalone="no"?>
<svg
   width="2447.166"
   height="561.50299"
   viewBox="0 0 2447.1661 561.503"
   version="1.2"
   id="svg126"
   xmlns="http://www.w3.org/2000/svg"
   xmlns:svg="http://www.w3.org/2000/svg">
  <defs
     id="defs130" />
  <title
     id="title2">tmpj92sysqc</title>
  <desc
     id="desc4">Generated by MuseScore 3.6.2</desc>
  <polyline
     class="StaffLines"
     fill="none"
     stroke="#000000"
     stroke-width="2.73"
     stroke-linejoin="bevel"
     points="336.614,634.252 2763.78,634.252"
     id="polyline6"
     transform="translate(-326.614,-388.685)" />
  <polyline
     class="StaffLines"
     fill="none"
     stroke="#000000"
     stroke-width="2.73"
     stroke-linejoin="bevel"
     points="336.614,659.055 2763.78,659.055"
     id="polyline8"
     transform="translate(-326.614,-388.685)" />
  <polyline
     class="StaffLines"
     fill="none"
     stroke="#000000"
     stroke-width="2.73"
     stroke-linejoin="bevel"
     points="336.614,683.858 2763.78,683.858"
     id="polyline10"
     transform="translate(-326.614,-388.685)" />
  <polyline
     class="StaffLines"
     fill="none"
     stroke="#000000"
     stroke-width="2.73"
     stroke-linejoin="bevel"
     points="336.614,708.661 2763.78,708.661"
     id="polyline12"
     transform="translate(-326.614,-388.685)" />
  <polyline
     class="StaffLines"
     fill="none"
     stroke="#000000"
     stroke-width="2.73"
     stroke-linejoin="bevel"
     points="336.614,733.465 2763.78,733.465"
     id="polyline14"
     transform="translate(-326.614,-388.685)" />
  <path
     class="Text"
     d="M 918.306,77.852 V 10 h 10.19 c 4.54,0 8.16,0.352 10.86,1.055 2.72,0.703 5.02,1.889 6.89,3.559 1.91,1.729 3.42,3.882 4.53,6.46 1.14,2.608 1.72,5.244 1.72,7.91 0,4.864 -1.87,8.98 -5.59,12.349 3.61,1.231 6.45,3.384 8.53,6.46 2.11,3.047 3.16,6.592 3.16,10.635 0,5.303 -1.87,9.785 -5.62,13.447 -2.26,2.256 -4.79,3.823 -7.6,4.702 -3.08,0.85 -6.93,1.275 -11.56,1.275 h -15.51 m 10.24,-38.716 h 3.2 c 3.81,0 6.6,-0.843 8.37,-2.527 1.78,-1.685 2.66,-4.168 2.66,-7.449 0,-3.193 -0.9,-5.617 -2.72,-7.273 -1.82,-1.655 -4.45,-2.483 -7.91,-2.483 h -3.6 v 19.732 m 0,29.092 h 6.32 c 4.63,0 8.03,-0.909 10.2,-2.725 2.28,-1.963 3.43,-4.453 3.43,-7.471 0,-2.929 -1.1,-5.39 -3.3,-7.383 -2.14,-1.962 -5.96,-2.944 -11.47,-2.944 h -5.18 v 20.523 m 72.62,-33.179 h 9.93 v 42.803 h -9.93 v -4.483 c -4.07,3.809 -8.45,5.713 -13.14,5.713 -5.92,0 -10.81,-2.139 -14.68,-6.416 -3.83,-4.365 -5.75,-9.814 -5.75,-16.348 0,-6.416 1.92,-11.762 5.75,-16.04 3.84,-4.277 8.65,-6.416 14.42,-6.416 4.98,0 9.45,2.051 13.4,6.153 v -4.966 m -23.46,21.269 c 0,4.102 1.09,7.442 3.29,10.02 2.26,2.607 5.1,3.911 8.53,3.911 3.66,0 6.62,-1.26 8.87,-3.779 2.26,-2.608 3.39,-5.918 3.39,-9.932 0,-4.014 -1.13,-7.324 -3.39,-9.932 -2.25,-2.548 -5.18,-3.823 -8.79,-3.823 -3.39,0 -6.24,1.289 -8.52,3.867 -2.26,2.608 -3.38,5.831 -3.38,9.668 m 45.86,-21.269 h 9.89 v 3.823 c 1.82,-1.904 3.43,-3.208 4.83,-3.911 1.44,-0.732 3.14,-1.099 5.1,-1.099 2.61,0 5.33,0.85 8.18,2.549 l -4.53,9.053 c -1.88,-1.348 -3.71,-2.022 -5.49,-2.022 -5.39,0 -8.09,4.073 -8.09,12.217 v 22.193 h -9.89 V 35.049 m 35.02,0 h 9.89 v 3.823 c 1.81,-1.904 3.42,-3.208 4.83,-3.911 1.44,-0.732 3.13,-1.099 5.1,-1.099 2.6,0 5.33,0.85 8.17,2.549 l -4.53,9.053 c -1.87,-1.348 -3.7,-2.022 -5.49,-2.022 -5.39,0 -8.08,4.073 -8.08,12.217 v 22.193 h -9.89 V 35.049 m 51.1,34.848 -19.25,-34.848 h 11.47 l 13.1,24.609 12.21,-24.609 h 11.16 l -34.1,66.094 h -11.29 l 16.7,-31.246 m 75.31,-33.354 h 29.27 V 10 h 10.23 v 67.852 h -10.23 V 46.167 h -29.27 v 31.685 h -10.24 V 10 h 10.24 v 26.543 m 85.42,-1.494 h 9.93 v 42.803 h -9.93 v -4.483 c -4.07,3.809 -8.45,5.713 -13.14,5.713 -5.92,0 -10.81,-2.139 -14.68,-6.416 -3.83,-4.365 -5.75,-9.814 -5.75,-16.348 0,-6.416 1.92,-11.762 5.75,-16.04 3.84,-4.277 8.65,-6.416 14.42,-6.416 4.98,0 9.45,2.051 13.4,6.153 v -4.966 m -23.46,21.269 c 0,4.102 1.09,7.442 3.29,10.02 2.26,2.607 5.1,3.911 8.53,3.911 3.66,0 6.62,-1.26 8.87,-3.779 2.26,-2.608 3.39,-5.918 3.39,-9.932 0,-4.014 -1.13,-7.324 -3.39,-9.932 -2.25,-2.548 -5.18,-3.823 -8.79,-3.823 -3.39,0 -6.24,1.289 -8.52,3.867 -2.26,2.608 -3.38,5.831 -3.38,9.668 m 45.86,-21.269 h 9.89 v 3.823 c 1.82,-1.904 3.43,-3.208 4.83,-3.911 1.44,-0.732 3.14,-1.099 5.1,-1.099 2.61,0 5.33,0.85 8.18,2.549 l -4.53,9.053 c -1.88,-1.348 -3.71,-2.022 -5.49,-2.022 -5.39,0 -8.09,4.073 -8.09,12.217 v 22.193 h -9.89 V 35.049 m 35.02,0 h 9.89 v 3.823 c 1.81,-1.904 3.42,-3.208 4.83,-3.911 1.44,-0.732 3.13,-1.099 5.1,-1.099 2.6,0 5.33,0.85 8.17,2.549 l -4.53,9.053 c -1.87,-1.348 -3.7,-2.022 -5.49,-2.022 -5.39,0 -8.08,4.073 -8.08,12.217 v 22.193 h -9.89 V 35.049 m 44.9,0 v 42.803 h -9.89 V 35.049 h 9.89 m -11.38,-17.798 c 0,-1.729 0.63,-3.223 1.89,-4.482 1.26,-1.26 2.77,-1.89 4.53,-1.89 1.78,0 3.31,0.63 4.57,1.89 1.26,1.23 1.89,2.739 1.89,4.526 0,1.787 -0.63,3.311 -1.89,4.57 -1.23,1.26 -2.74,1.89 -4.53,1.89 -1.79,0 -3.31,-0.63 -4.57,-1.89 -1.26,-1.259 -1.89,-2.798 -1.89,-4.614 m 48.77,25.093 -8.17,4.35 c -1.29,-2.636 -2.89,-3.955 -4.79,-3.955 -0.91,0 -1.69,0.301 -2.33,0.901 -0.64,0.601 -0.97,1.37 -0.97,2.307 0,1.641 1.91,3.267 5.72,4.878 5.24,2.256 8.77,4.336 10.59,6.24 1.81,1.905 2.72,4.468 2.72,7.691 0,4.131 -1.52,7.588 -4.57,10.371 -2.96,2.637 -6.53,3.955 -10.72,3.955 -7.18,0 -12.26,-3.501 -15.25,-10.503 l 8.44,-3.911 c 1.17,2.051 2.06,3.354 2.68,3.911 1.2,1.113 2.63,1.67 4.3,1.67 3.34,0 5.01,-1.523 5.01,-4.57 0,-1.758 -1.29,-3.399 -3.86,-4.922 -1,-0.498 -2,-0.982 -2.99,-1.45 -1,-0.469 -2.01,-0.952 -3.03,-1.451 -2.87,-1.406 -4.9,-2.812 -6.07,-4.218 -1.49,-1.787 -2.24,-4.087 -2.24,-6.9 0,-3.72 1.28,-6.797 3.82,-9.228 2.61,-2.432 5.78,-3.648 9.5,-3.648 5.47,0 9.55,2.827 12.21,8.482"
     id="path16" />
  <polyline
     class="BarLine"
     fill="none"
     stroke="#000000"
     stroke-width="4.46"
     stroke-linejoin="bevel"
     points="1867.59,632.888 1867.59,734.829"
     id="polyline18"
     transform="translate(-326.614,-388.685)" />
  <polyline
     class="BarLine"
     fill="none"
     stroke="#000000"
     stroke-width="4.46"
     stroke-linejoin="bevel"
     points="2739.59,632.888 2739.59,734.829"
     id="polyline20"
     transform="translate(-326.614,-388.685)" />
  <polyline
     class="BarLine"
     fill="none"
     stroke="#000000"
     stroke-width="13.64"
     stroke-linejoin="bevel"
     points="2756.96,632.888 2756.96,734.829"
     id="polyline22"
     transform="translate(-326.614,-388.685)" />
  <path
     class="Accidental"
     d="m 212.79573,200.5242 c -0.59527,-3.86929 -2.97638,-7.54015 -8.03622,-7.54015 -4.96063,0 -7.83779,3.07559 -8.33386,3.67086 l 0.39685,-31.84724 c 0,-0.7937 -0.59527,-1.38898 -1.38897,-1.38898 h -1.19055 c -0.7937,0 -1.38898,0.59528 -1.38898,1.38898 l 0.49606,59.62677 c 0,0.7937 0.59528,1.38898 1.38898,1.38898 0.19842,0 0.59527,-0.0992 0.7937,-0.19843 0.39685,-0.19842 6.84567,-3.37323 12.20315,-9.42519 3.77008,-4.26615 5.25827,-9.12756 5.25827,-13.19528 0,-0.89291 -0.0992,-1.68661 -0.19843,-2.48032 m -6.84567,3.8693 c 0,1.48819 -0.39685,6.05196 -2.87716,9.82204 -1.68662,2.57953 -5.05984,5.25827 -6.94488,6.74646 l 0.29763,-19.34646 c 0.19843,-0.89291 1.68662,-3.77008 5.65512,-3.77008 3.57166,0 3.86929,3.37323 3.86929,5.4567 v 1.09134"
     id="path24"
     style="stroke-width:0.992126" />
  <path
     class="Accidental"
     d="m 548.30054,222.64846 c 0.59527,-0.0992 1.09133,-0.7937 1.09133,-1.38897 v -5.85355 c 0,-0.7937 -0.59527,-1.38897 -1.38897,-1.38897 h -0.19843 l -3.27401,0.69449 v -14.78268 h -2.77796 v 15.37795 l -8.82992,1.78583 v -13.98898 h -2.77795 v 14.58425 l -3.86929,0.79371 c -0.59528,0.0992 -1.09134,0.7937 -1.09134,1.38897 v 0.19843 5.75433 -0.19843 c 0,0.7937 0.59528,1.38898 1.38898,1.38898 h 0.29763 l 3.27402,-0.69449 v 16.37008 l -3.86929,0.7937 c -0.59528,0.0992 -1.09134,0.7937 -1.09134,1.38898 v 5.75433 c 0,0.7937 0.59528,1.38897 1.38898,1.38897 h 0.29763 l 3.27402,-0.69448 v 14.78267 h 2.77795 v -15.37795 l 8.82992,-1.78583 v 13.98898 h 2.77796 v -14.58425 l 3.77008,-0.69449 c 0.59527,-0.0992 1.09133,-0.7937 1.09133,-1.38898 v -5.85354 c 0,-0.7937 -0.59527,-1.38898 -1.38897,-1.38898 h -0.19843 l -3.27401,0.69449 v -16.37008 l 3.77008,-0.69449 m -15.37796,19.54489 v -16.46929 l 8.82992,-1.78583 v 16.37008 l -8.82992,1.88504"
     id="path26"
     style="stroke-width:0.992126" />
  <path
     class="Accidental"
     d="m 712.75529,215.00909 c -0.19842,-0.19842 -0.49606,-0.29763 -0.7937,-0.29763 -0.0992,0 -0.29764,0.0992 -0.39685,0.0992 l -12.50079,3.47244 V 200.9209 H 696.286 v 49.11024 c 0,0.7937 0.59528,1.28977 1.38898,1.28977 h 0.39685 l 12.50078,-3.47245 v 17.36221 h 2.67874 v -49.11024 c 0,-0.39685 -0.19842,-0.89291 -0.49606,-1.09134 m -2.18268,24.60473 -11.50866,3.1748 v -16.27086 l 11.50866,-3.27402 v 16.37008"
     id="path28"
     style="stroke-width:0.992126" />
  <path
     class="Accidental"
     d="m 1751.7025,272.25546 c 0.5953,-0.0992 1.0914,-0.7937 1.0914,-1.38897 v -5.85355 c 0,-0.7937 -0.5953,-1.38897 -1.389,-1.38897 h -0.1984 l -3.274,0.69449 v -14.78268 h -2.778 v 15.37795 l -8.8299,1.78583 v -13.98898 h -2.778 v 14.58425 l -3.8693,0.79371 c -0.5952,0.0992 -1.0913,0.7937 -1.0913,1.38897 v 0.19843 5.75433 -0.19843 c 0,0.7937 0.5953,1.38898 1.389,1.38898 h 0.2976 l 3.274,-0.69449 v 16.37008 l -3.8693,0.7937 c -0.5952,0.0992 -1.0913,0.7937 -1.0913,1.38898 v 5.75433 c 0,0.7937 0.5953,1.38897 1.389,1.38897 h 0.2976 l 3.274,-0.69448 v 14.78267 h 2.778 v -15.37795 l 8.8299,-1.78583 v 13.98898 h 2.778 v -14.58425 l 3.77,-0.69449 c 0.5953,-0.0992 1.0914,-0.7937 1.0914,-1.38898 v -5.85354 c 0,-0.7937 -0.5953,-1.38898 -1.389,-1.38898 h -0.1984 l -3.274,0.69449 v -16.37008 l 3.77,-0.69449 m -15.3779,19.54489 v -16.4693 l 8.8299,-1.78582 v 16.37008 l -8.8299,1.88504"
     id="path30"
     style="stroke-width:0.992126" />
  <polyline
     class="LedgerLine"
     fill="none"
     stroke="#000000"
     stroke-width="3.97"
     stroke-linejoin="bevel"
     points="545.805,609.449 595.404,609.449"
     id="polyline32"
     transform="translate(-326.614,-388.685)" />
  <polyline
     class="LedgerLine"
     fill="none"
     stroke="#000000"
     stroke-width="3.97"
     stroke-linejoin="bevel"
     points="709.665,609.449 759.263,609.449"
     id="polyline34"
     transform="translate(-326.614,-388.685)" />
  <polyline
     class="Stem"
     fill="none"
     stroke="#000000"
     stroke-width="2.73"
     stroke-linejoin="bevel"
     points="555.851,600.381 555.851,677.657"
     id="polyline36"
     transform="translate(-326.614,-388.685)" />
  <polyline
     class="Stem"
     fill="none"
     stroke="#000000"
     stroke-width="2.73"
     stroke-linejoin="bevel"
     points="719.71,612.782 719.71,683.858"
     id="polyline38"
     transform="translate(-326.614,-388.685)" />
  <polyline
     class="Stem"
     fill="none"
     stroke="#000000"
     stroke-width="2.73"
     stroke-linejoin="bevel"
     points="883.569,625.184 883.569,702.461"
     id="polyline40"
     transform="translate(-326.614,-388.685)" />
  <polyline
     class="Stem"
     fill="none"
     stroke="#000000"
     stroke-width="2.73"
     stroke-linejoin="bevel"
     points="1047.43,625.184 1047.43,702.461"
     id="polyline42"
     transform="translate(-326.614,-388.685)" />
  <polyline
     class="Stem"
     fill="none"
     stroke="#000000"
     stroke-width="2.73"
     stroke-linejoin="bevel"
     points="1211.29,637.585 1211.29,708.661"
     id="polyline44"
     transform="translate(-326.614,-388.685)" />
  <polyline
     class="Stem"
     fill="none"
     stroke="#000000"
     stroke-width="2.73"
     stroke-linejoin="bevel"
     points="1375.15,625.184 1375.15,702.461"
     id="polyline46"
     transform="translate(-326.614,-388.685)" />
  <polyline
     class="Stem"
     fill="none"
     stroke="#000000"
     stroke-width="2.73"
     stroke-linejoin="bevel"
     points="1539.01,637.585 1539.01,708.661"
     id="polyline48"
     transform="translate(-326.614,-388.685)" />
  <polyline
     class="Stem"
     fill="none"
     stroke="#000000"
     stroke-width="2.73"
     stroke-linejoin="bevel"
     points="1702.87,649.987 1702.87,714.862"
     id="polyline50"
     transform="translate(-326.614,-388.685)" />
  <polyline
     class="Stem"
     fill="none"
     stroke="#000000"
     stroke-width="2.73"
     stroke-linejoin="bevel"
     points="1903.43,662.389 1903.43,733.465"
     id="polyline52"
     transform="translate(-326.614,-388.685)" />
  <polyline
     class="Stem"
     fill="none"
     stroke="#000000"
     stroke-width="2.73"
     stroke-linejoin="bevel"
     points="2086.98,674.79 2086.98,739.665"
     id="polyline54"
     transform="translate(-326.614,-388.685)" />
  <polyline
     class="Stem"
     fill="none"
     stroke="#000000"
     stroke-width="2.73"
     stroke-linejoin="bevel"
     points="2270.52,662.389 2270.52,742.766"
     id="polyline56"
     transform="translate(-326.614,-388.685)" />
  <path
     class="Note"
     d="m 259.12497,200.32578 c -1.78583,-3.27402 -5.55591,-5.05984 -10.11969,-5.05984 -3.37322,0 -7.04409,0.99212 -10.61574,2.87716 -6.54804,3.47244 -10.51654,9.32599 -10.51654,14.38583 0,1.38898 0.29764,2.77795 0.99213,4.06772 1.78582,3.27401 5.5559,4.96063 10.11968,4.96063 3.37323,0 7.0441,-0.89292 10.61575,-2.77796 6.54803,-3.47244 10.51653,-9.32598 10.51653,-14.38582 0,-1.38898 -0.29763,-2.77796 -0.99212,-4.06772"
     id="path58"
     style="stroke-width:0.992126" />
  <path
     class="Note"
     d="m 422.98397,212.72778 c -1.78583,-3.27402 -5.55591,-5.05984 -10.11969,-5.05984 -3.37322,0 -7.04409,0.99212 -10.61574,2.87716 -6.54804,3.47244 -10.51654,9.32599 -10.51654,14.38583 0,1.38898 0.29764,2.77795 0.99213,4.06772 1.78582,3.27401 5.5559,4.96063 10.11968,4.96063 3.37323,0 7.0441,-0.89292 10.61575,-2.77796 6.54803,-3.47244 10.51654,-9.32598 10.51654,-14.38582 0,-1.38898 -0.29764,-2.77796 -0.99213,-4.06772"
     id="path60"
     style="stroke-width:0.992126" />
  <path
     class="Note"
     d="m 586.84297,225.12878 c -1.78583,-3.27402 -5.55591,-5.05984 -10.11969,-5.05984 -3.37322,0 -7.04409,0.99212 -10.61574,2.87716 -6.54804,3.47244 -10.51654,9.32599 -10.51654,14.38583 0,1.38898 0.29764,2.77795 0.99213,4.06772 1.78582,3.27401 5.5559,4.96063 10.11968,4.96063 3.37323,0 7.0441,-0.89292 10.61575,-2.77796 6.54803,-3.47244 10.51654,-9.32598 10.51654,-14.38582 0,-1.38898 -0.29764,-2.77796 -0.99213,-4.06772"
     id="path62"
     style="stroke-width:0.992126" />
  <path
     class="Note"
     d="m 750.69797,225.12878 c -1.78583,-3.27402 -5.55591,-5.05984 -10.11969,-5.05984 -3.37322,0 -7.04409,0.99212 -10.61574,2.87716 -6.54804,3.47244 -10.51654,9.32599 -10.51654,14.38583 0,1.38898 0.29764,2.77795 0.99213,4.06772 1.78582,3.27401 5.5559,4.96063 10.11968,4.96063 3.37323,0 7.0441,-0.89292 10.61575,-2.77796 6.54803,-3.47244 10.51653,-9.32598 10.51653,-14.38582 0,-1.38898 -0.29763,-2.77796 -0.99212,-4.06772"
     id="path64"
     style="stroke-width:0.992126" />
  <path
     class="Note"
     d="m 914.55797,237.53078 c -1.78583,-3.27402 -5.55591,-5.05984 -10.11969,-5.05984 -3.37322,0 -7.04409,0.99212 -10.61574,2.87716 -6.54804,3.47244 -10.51654,9.32599 -10.51654,14.38583 0,1.38898 0.29764,2.77795 0.99213,4.06772 1.78582,3.27401 5.5559,4.96063 10.11968,4.96063 3.37323,0 7.0441,-0.89292 10.61575,-2.77796 6.54803,-3.47244 10.51654,-9.32598 10.51654,-14.38582 0,-1.38898 -0.29764,-2.77796 -0.99213,-4.06772"
     id="path66"
     style="stroke-width:0.992126" />
  <path
     class="Note"
     d="m 1078.418,225.12878 c -1.7859,-3.27402 -5.5559,-5.05984 -10.1197,-5.05984 -3.3732,0 -7.0441,0.99212 -10.6158,2.87716 -6.548,3.47244 -10.5165,9.32599 -10.5165,14.38583 0,1.38898 0.2976,2.77795 0.9921,4.06772 1.7859,3.27401 5.5559,4.96063 10.1197,4.96063 3.3732,0 7.0441,-0.89292 10.6158,-2.77796 6.548,-3.47244 10.5165,-9.32598 10.5165,-14.38582 0,-1.38898 -0.2976,-2.77796 -0.9921,-4.06772"
     id="path68"
     style="stroke-width:0.992126" />
  <path
     class="Note"
     d="m 1242.278,237.53078 c -1.7859,-3.27402 -5.5559,-5.05984 -10.1197,-5.05984 -3.3732,0 -7.0441,0.99212 -10.6158,2.87716 -6.548,3.47244 -10.5165,9.32599 -10.5165,14.38583 0,1.38898 0.2976,2.77795 0.9921,4.06772 1.7859,3.27401 5.5559,4.96063 10.1197,4.96063 3.3732,0 7.0441,-0.89292 10.6158,-2.77796 6.548,-3.47244 10.5165,-9.32598 10.5165,-14.38582 0,-1.38898 -0.2976,-2.77796 -0.9921,-4.06772"
     id="path70"
     style="stroke-width:0.992126" />
  <path
     class="Note"
     d="m 1406.138,249.93178 c -1.7859,-3.27402 -5.5559,-5.05984 -10.1197,-5.05984 -3.3732,0 -7.0441,0.99212 -10.6158,2.87716 -6.548,3.47244 -10.5165,9.32599 -10.5165,14.38583 0,1.38898 0.2976,2.77795 0.9921,4.06772 1.7859,3.27401 5.5559,4.96063 10.1197,4.96063 3.3732,0 7.0441,-0.89292 10.6158,-2.77796 6.548,-3.47244 10.5165,-9.32598 10.5165,-14.38582 0,-1.38898 -0.2976,-2.77796 -0.9921,-4.06772"
     id="path72"
     style="stroke-width:0.992126" />
  <path
     class="Note"
     d="m 1606.708,262.33378 c -1.7859,-3.27402 -5.5559,-5.05984 -10.1197,-5.05984 -3.3732,0 -7.0441,0.99212 -10.6158,2.87716 -6.548,3.47244 -10.5165,9.32599 -10.5165,14.38583 0,1.38898 0.2976,2.77795 0.9921,4.06772 1.7859,3.27401 5.5559,4.96063 10.1197,4.96063 3.3732,0 7.0441,-0.89292 10.6158,-2.77796 6.548,-3.47244 10.5165,-9.32598 10.5165,-14.38582 0,-1.38898 -0.2976,-2.77796 -0.9921,-4.06772"
     id="path74"
     style="stroke-width:0.992126" />
  <path
     class="Note"
     d="m 1790.248,274.73578 c -1.7859,-3.27402 -5.5559,-5.05984 -10.1197,-5.05984 -3.3732,0 -7.0441,0.99212 -10.6158,2.87716 -6.548,3.47244 -10.5165,9.32599 -10.5165,14.38583 0,1.38898 0.2976,2.77795 0.9921,4.06772 1.7859,3.27401 5.5559,4.96063 10.1197,4.96063 3.3732,0 7.0441,-0.89292 10.6158,-2.77796 6.548,-3.47244 10.5165,-9.32598 10.5165,-14.38582 0,-1.38898 -0.2976,-2.77796 -0.9921,-4.06772"
     id="path76"
     style="stroke-width:0.992126" />
  <path
     class="Note"
     d="m 1973.788,262.33378 c -1.7859,-3.27402 -5.5559,-5.05984 -10.1197,-5.05984 -3.3732,0 -7.0441,0.99212 -10.6158,2.87716 -6.548,3.47244 -10.5165,9.32599 -10.5165,14.38583 0,1.38898 0.2976,2.77795 0.9921,4.06772 1.7859,3.27401 5.5559,4.96063 10.1197,4.96063 3.3732,0 7.0441,-0.89292 10.6158,-2.77796 6.548,-3.47244 10.5165,-9.32598 10.5165,-14.38582 0,-1.38898 -0.2976,-2.77796 -0.9921,-4.06772 m -4.2662,6.74646 c -1.6866,1.68661 -5.0598,3.77007 -8.6315,5.75433 -3.5716,1.98425 -7.1433,3.47244 -9.5244,3.9685 -0.496,0.0992 -0.9921,0.19843 -1.4882,0.19843 -1.5874,0 -2.7779,-0.59528 -3.4724,-1.88504 -0.2976,-0.49607 -0.4961,-1.09134 -0.4961,-1.68662 0,-1.09134 0.6945,-2.3811 1.7859,-3.47244 1.6866,-1.68661 4.9606,-3.77008 8.5322,-5.75433 3.5717,-1.98425 7.1433,-3.47244 9.5244,-3.9685 0.4961,-0.0992 0.9922,-0.19843 1.4882,-0.19843 1.5874,0 2.8772,0.59528 3.5717,1.88504 0.2976,0.49606 0.3968,1.09134 0.3968,1.68662 0,1.09133 -0.5952,2.28188 -1.6866,3.47244"
     id="path78"
     style="stroke-width:0.992126" />
  <path
     class="Clef"
     d="m 92.694182,314.1523 c -1.220315,-5.38732 -3.839528,-9.17715 -4.613386,-10.20906 -3.164882,-4.23637 -7.143307,-7.06393 -11.796378,-8.4033 -3.085512,-0.8829 -6.06189,-0.99213 -8.462835,-0.81355 -1.031811,-5.96267 -2.023937,-11.79628 -2.926771,-17.20336 5.407086,-6.12152 8.998582,-11.87585 11.26063,-16.14199 3.442677,-6.52809 4.583622,-11.07203 4.633228,-11.27045 1.706457,-5.16908 2.063622,-12.80845 0.972284,-20.9537 -1.002048,-7.49056 -3.075591,-14.14782 -5.407087,-17.37223 -1.02189,-1.41874 -2.063622,-2.14299 -3.095433,-2.14299 -1.210394,0 -3.70063,1.23023 -6.567874,3.97842 -2.28189,2.18268 -5.526142,6.04205 -8.065985,12.00473 -2.976378,7.00451 -3.184724,16.41968 -2.83748,23.08677 0.377008,7.21276 1.478268,12.85805 1.488189,12.90766 0.01984,0.0892 0.277795,1.57738 0.724252,4.12714 -0.228189,0.22819 -0.466299,0.44646 -0.714331,0.68467 -1.031811,0.99212 -2.212441,2.12305 -3.581575,3.49218 -0.853228,0.85333 -1.795748,1.75607 -2.787874,2.71843 -8.383464,8.076 -21.072756,20.2989 -21.072756,39.29811 0,4.66299 0.892913,9.04821 2.658878,13.02669 1.57752,3.57166 3.85941,6.82585 6.766319,9.67325 7.669134,7.49055 18.175748,10.67518 25.180158,10.51654 2.926772,-0.0694 5.536063,-0.30766 7.907244,-0.75412 1.815591,9.52441 2.946614,16.49906 2.986299,21.79701 0.03969,6.45874 -1.597322,10.39748 -5.466614,13.14567 -2.410866,1.71638 -5.19874,2.6589 -8.274331,2.80772 -2.569606,0.11905 -4.811811,-0.34725 -6.230551,-0.75392 h -0.0099 c 0,0 -0.287717,-0.0794 -0.297638,-0.2778 -0.0099,-0.17868 0.337323,-0.22828 0.347244,-0.22828 h 0.01984 c 1.904881,-0.43644 5.446771,-1.65675 7.788189,-4.93077 1.785826,-2.50016 2.648976,-7.08388 0.823464,-10.99286 -1.10126,-2.37108 -3.591496,-5.29785 -9.167244,-5.74431 -2.470394,-0.19842 -4.72252,0.30746 -6.706772,1.49801 -1.795748,1.0715 -3.283937,2.69859 -4.325669,4.68284 -2.44063,4.66299 -1.984252,10.34787 1.121102,14.15774 2.936693,3.59149 7.520315,5.8832 12.90756,6.45864 0.843307,0.0894 1.686614,0.12897 2.529921,0.12897 4.395118,0 8.760472,-1.19055 12.302362,-3.38315 3.631181,-2.54976 5.734488,-6.49842 6.409134,-12.08399 0.555591,-4.60356 0.168662,-10.46693 -1.220315,-18.47349 -0.357165,-2.07354 -0.892913,-5.07968 -1.547716,-8.80998 5.704724,-1.90498 9.831968,-5.44687 13.572283,-11.2508 3.264095,-5.69473 4.196693,-11.7467 2.777953,-17.99709 M 58.75357,340.136 c -4.603465,-1.21039 -8.998583,-3.69071 -12.728977,-7.16315 -1.299685,-1.22031 -3.154961,-3.37323 -4.613386,-6.73648 -1.359212,-3.13517 -2.014035,-6.53815 -1.964429,-10.09982 0.06947,-4.65311 1.369154,-9.4352 3.85939,-14.18738 2.897008,-5.53616 7.421102,-11.02262 13.433386,-16.31065 1.438583,-1.26982 2.797795,-2.53974 4.077638,-3.80976 0.754015,4.22655 1.57748,8.87952 2.450551,13.7212 -3.819685,1.2599 -8.532284,4.38509 -11.617796,9.99061 -3.512126,6.51828 -3.373228,11.99484 -2.648976,15.44742 0.932599,4.42494 3.442677,8.15529 6.875433,10.2289 0.922677,0.55549 5.020158,2.66872 6.84567,2.09328 0.367086,-0.11905 0.63496,-0.33732 0.773858,-0.66472 0.505984,-1.16079 -0.505984,-1.79565 -2.053701,-2.74819 -0.595275,-0.36701 -1.26,-0.78372 -1.984252,-1.30953 -3.293858,-2.47043 -4.732441,-6.88539 -3.670866,-11.23088 0.575433,-2.38111 1.845354,-4.52416 3.670866,-6.21077 1.656851,-1.5378 3.680788,-2.62914 6.042047,-3.264 2.023937,11.1514 4.067717,22.21361 5.694804,30.50788 0.128976,0.68447 0.267874,1.34919 0.39685,2.01391 -4.345512,0.92268 -8.66126,0.83349 -12.83811,-0.26787 m 11.230866,-32.91874 c 10.268504,-0.4663 14.504882,6.91518 15.387874,11.70713 0.466299,2.51006 0.456378,6.91513 -1.071496,11.09193 -1.160787,3.15496 -3.601417,7.19291 -8.691024,9.23679 -0.06945,-0.4167 -0.148819,-0.84331 -0.228189,-1.27002 -1.527874,-8.70087 -3.452598,-19.60437 -5.397165,-30.76583 m -7.262362,-70.38142 c 1.765984,-5.6947 4.484409,-8.91911 6.45874,-10.63549 1.73622,-1.50803 3.373228,-2.21254 4.285984,-2.21254 0.138898,0 0.257953,0.0198 0.357166,0.0496 0.456378,0.13889 0.982204,0.7045 1.448504,1.56765 2.291811,4.25613 1.557637,10.91339 0.228189,15.31833 -1.617166,5.35748 -4.514174,10.93323 -13.244883,20.46756 -0.168661,-1.10126 -0.327401,-2.14299 -0.47622,-3.11518 -1.240158,-8.22482 -0.922677,-15.43758 0.94252,-21.43994"
     id="path80"
     style="stroke-width:0.992126" />
  <path
     class="TimeSig"
     d="m 120.32377,283.05239 h 17.04469 v 7.36158 h -8.1652 c -0.77376,0 -1.3988,0.62504 -1.3988,1.3989 v 1.89496 c 0,0.77386 0.62504,1.39889 1.3988,1.39889 h 30.01181 c 0.77386,0 1.3989,-0.62503 1.3989,-1.39889 v -1.89496 c 0,-0.77386 -0.62504,-1.3989 -1.3989,-1.3989 h -8.8696 v -7.36158 h 8.8696 c 0.77386,0 1.3989,-0.62504 1.3989,-1.39889 v -1.89498 c 0,-0.77384 -0.62504,-1.39886 -1.3989,-1.39886 h -8.8696 v -15.83439 c 0,-0.53569 -0.29764,-1.01189 -0.77386,-1.25004 l -1.20038,-0.59528 c -0.52582,-0.25795 -1.15096,-0.16866 -1.57758,0.22817 l -8.97874,8.25451 c -0.28761,0.26789 -0.45628,0.635 -0.45628,1.03185 v 8.16518 h -11.41946 c 0,0 11.03244,-11.93526 22.77931,-27.58112 0.86315,-1.14095 0.36708,-2.18268 0.17848,-2.37119 l -2.15291,-2.19259 c -0.26788,-0.25796 -0.62504,-0.40678 -0.99213,-0.40678 -0.59527,0 -14.03858,0.0199 -14.75291,0 -0.71423,-0.0198 -1.25008,0.59528 -1.31953,1.2104 0,0 -0.53565,7.30204 -3.1152,15.36805 -2.57952,8.05608 -5.49641,12.99685 -8.13543,16.59825 0,0 -0.53579,0.98224 -0.17866,1.71638 0.34724,0.74409 0.97236,1.82551 0.97236,1.82551 0,0 0.25791,0.52582 1.10122,0.52582"
     id="path82"
     style="stroke-width:0.992126" />
  <path
     class="TimeSig"
     d="m 120.32377,332.39539 h 17.04469 v 7.36158 h -8.1652 c -0.77376,0 -1.3988,0.62504 -1.3988,1.3989 v 1.89496 c 0,0.77386 0.62504,1.39889 1.3988,1.39889 h 30.01181 c 0.77386,0 1.3989,-0.62503 1.3989,-1.39889 v -1.89496 c 0,-0.77386 -0.62504,-1.3989 -1.3989,-1.3989 h -8.8696 v -7.36158 h 8.8696 c 0.77386,0 1.3989,-0.62504 1.3989,-1.39889 v -1.89498 c 0,-0.77384 -0.62504,-1.39886 -1.3989,-1.39886 h -8.8696 v -15.83439 c 0,-0.53569 -0.29764,-1.01189 -0.77386,-1.25004 l -1.20038,-0.59528 c -0.52582,-0.25795 -1.15096,-0.16866 -1.57758,0.22817 l -8.97874,8.25451 c -0.28761,0.26789 -0.45628,0.635 -0.45628,1.03185 v 8.16518 h -11.41946 c 0,0 11.03244,-11.93526 22.77931,-27.58112 0.86315,-1.14095 0.36708,-2.18268 0.17848,-2.37119 l -2.15291,-2.19259 c -0.26788,-0.25796 -0.62504,-0.40678 -0.99213,-0.40678 -0.59527,0 -14.03858,0.0199 -14.75291,0 -0.71423,-0.0198 -1.25008,0.59528 -1.31953,1.2104 0,0 -0.53565,7.30204 -3.1152,15.36805 -2.57952,8.05608 -5.49641,12.99685 -8.13543,16.59825 0,0 -0.53579,0.98224 -0.17866,1.71638 0.34724,0.74409 0.97236,1.82551 0.97236,1.82551 0,0 0.25791,0.52582 1.10122,0.52582"
     id="path84"
     style="stroke-width:0.992126" />
  <path
     class="Beam"
     fill-rule="evenodd"
     d="m 227.873,282.767 166.587,6.304 v 12.411 l -166.587,-6.304 v -12.411"
     id="path86" />
  <path
     class="Beam"
     fill-rule="evenodd"
     d="m 555.591,307.575 h 166.585 v 12.401 H 555.591 v -12.401"
     id="path88" />
  <path
     class="Beam"
     fill-rule="evenodd"
     d="m 883.306,313.771 166.59,-6.304 v 12.411 l -166.59,6.304 v -12.411"
     id="path90" />
  <path
     class="Beam"
     fill-rule="evenodd"
     d="m 1211.026,313.771 166.59,6.304 v 12.411 l -166.59,-6.304 v -12.411"
     id="path92" />
  <path
     class="Beam"
     fill-rule="evenodd"
     d="m 1575.456,338.575 186.27,6.293 v 12.409 l -186.27,-6.293 v -12.409"
     id="path94" />
  <path
     class="Lyrics"
     d="m 122.678,478.876 v -37.695 h 5.664 c 2.523,0 4.533,0.195 6.03,0.586 1.514,0.391 2.792,1.05 3.833,1.978 1.058,0.96 1.896,2.156 2.515,3.588 0.635,1.449 0.952,2.914 0.952,4.395 0,2.702 -1.033,4.989 -3.101,6.86 2.002,0.684 3.581,1.88 4.737,3.589 1.172,1.693 1.758,3.662 1.758,5.908 0,2.946 -1.042,5.437 -3.125,7.471 -1.254,1.253 -2.661,2.124 -4.224,2.612 -1.709,0.472 -3.849,0.708 -6.421,0.708 h -8.618 m 5.688,-21.508 h 1.783 c 2.116,0 3.666,-0.468 4.651,-1.404 0.984,-0.936 1.477,-2.315 1.477,-4.138 0,-1.774 -0.505,-3.121 -1.514,-4.041 -1.009,-0.919 -2.474,-1.379 -4.395,-1.379 h -2.002 v 10.962 m 0,16.162 h 3.516 c 2.572,0 4.46,-0.505 5.664,-1.514 1.27,-1.09 1.904,-2.474 1.904,-4.15 0,-1.628 -0.61,-2.995 -1.831,-4.102 -1.188,-1.09 -3.312,-1.636 -6.372,-1.636 h -2.881 v 11.402"
     id="path96" />
  <path
     class="Lyrics"
     d="m 167.374,462.376 c 0,-4.05 -2.45,-6.65 -5.45,-6.65 -4.25,0 -5.9,2.5 -6.6,4.5 v -15.45 h -2.95 v 31.3 c 6.3,-0.35 15,-3.1 15,-13.7 m -3.6,1.75 c 0,6.85 -4.75,9.35 -8.45,9.6 v -10.05 c 0,-2.2 1.6,-5.55 5.15,-5.55 2.05,0 3.35,2.65 3.35,6 h -0.05"
     id="path98" />
  <path
     class="Lyrics"
     d="m 209.415,456.123 v 7.299 c -1.253,-1.53 -2.376,-2.579 -3.369,-3.149 -0.976,-0.586 -2.124,-0.879 -3.442,-0.879 -2.067,0 -3.784,0.724 -5.152,2.173 -1.367,1.448 -2.05,3.263 -2.05,5.444 0,2.23 0.659,4.061 1.977,5.493 1.335,1.433 3.036,2.149 5.103,2.149 1.318,0 2.482,-0.285 3.491,-0.855 0.976,-0.553 2.124,-1.627 3.442,-3.222 v 7.251 c -2.23,1.155 -4.459,1.733 -6.689,1.733 -3.679,0 -6.755,-1.188 -9.229,-3.564 -2.474,-2.393 -3.711,-5.363 -3.711,-8.912 0,-3.548 1.254,-6.543 3.76,-8.984 2.507,-2.441 5.583,-3.662 9.229,-3.662 2.343,0 4.557,0.561 6.64,1.685 m 6.604,-18.482 h 5.493 v 19.434 c 1.953,-1.758 4.11,-2.637 6.47,-2.637 2.685,0 4.834,0.871 6.445,2.612 1.367,1.514 2.051,3.931 2.051,7.251 v 14.575 h -5.493 v -14.062 c 0,-1.904 -0.338,-3.284 -1.014,-4.138 -0.675,-0.855 -1.761,-1.282 -3.259,-1.282 -1.92,0 -3.271,0.594 -4.053,1.782 -0.765,1.205 -1.147,3.272 -1.147,6.201 v 11.499 h -5.493 v -41.235 m 27.406,17.456 h 5.493 v 2.124 c 1.009,-1.058 1.904,-1.782 2.686,-2.173 0.797,-0.407 1.741,-0.61 2.832,-0.61 1.448,0 2.962,0.472 4.541,1.416 l -2.515,5.029 c -1.042,-0.748 -2.059,-1.123 -3.052,-1.123 -2.994,0 -4.492,2.263 -4.492,6.787 v 12.329 h -5.493 v -23.779 m 17.127,11.719 c 0,-3.434 1.229,-6.356 3.686,-8.765 2.458,-2.409 5.453,-3.613 8.985,-3.613 3.548,0 6.559,1.213 9.033,3.638 2.441,2.425 3.662,5.403 3.662,8.935 0,3.565 -1.229,6.551 -3.686,8.96 -2.474,2.393 -5.51,3.589 -9.107,3.589 -3.564,0 -6.551,-1.221 -8.96,-3.662 -2.409,-2.409 -3.613,-5.436 -3.613,-9.082 m 5.615,0.098 c 0,2.376 0.635,4.256 1.904,5.639 1.303,1.4 3.02,2.1 5.152,2.1 2.148,0 3.865,-0.692 5.151,-2.075 1.286,-1.384 1.929,-3.231 1.929,-5.542 0,-2.312 -0.643,-4.159 -1.929,-5.542 -1.302,-1.4 -3.019,-2.1 -5.151,-2.1 -2.1,0 -3.801,0.7 -5.103,2.1 -1.302,1.399 -1.953,3.206 -1.953,5.42 m 25.555,-11.817 h 5.493 v 2.197 c 1.058,-1.106 1.961,-1.855 2.71,-2.246 0.798,-0.407 1.799,-0.61 3.003,-0.61 2.685,0 4.81,1.172 6.372,3.516 1.725,-2.344 4.061,-3.516 7.007,-3.516 5.355,0 8.032,3.247 8.032,9.741 v 14.697 h -5.518 v -13.208 c 0,-2.278 -0.276,-3.89 -0.83,-4.834 -0.569,-0.96 -1.505,-1.44 -2.807,-1.44 -1.514,0 -2.617,0.57 -3.308,1.709 -0.692,1.139 -1.038,2.97 -1.038,5.493 v 12.28 h -5.517 v -13.134 c 0,-4.232 -1.221,-6.348 -3.663,-6.348 -1.546,0 -2.673,0.578 -3.381,1.733 -0.708,1.156 -1.062,2.979 -1.062,5.469 v 12.28 h -5.493 v -23.779 m 57.076,0 h 5.518 v 23.779 h -5.518 v -2.49 c -2.262,2.116 -4.696,3.174 -7.3,3.174 -3.288,0 -6.006,-1.188 -8.154,-3.564 -2.132,-2.426 -3.198,-5.453 -3.198,-9.082 0,-3.565 1.066,-6.535 3.198,-8.912 2.132,-2.376 4.801,-3.564 8.008,-3.564 2.767,0 5.249,1.139 7.446,3.418 v -2.759 m -13.037,11.817 c 0,2.278 0.61,4.134 1.831,5.566 1.253,1.449 2.832,2.173 4.736,2.173 2.035,0 3.679,-0.7 4.932,-2.1 1.253,-1.448 1.88,-3.288 1.88,-5.517 0,-2.23 -0.627,-4.069 -1.88,-5.518 -1.253,-1.416 -2.881,-2.124 -4.883,-2.124 -1.888,0 -3.467,0.716 -4.736,2.148 -1.253,1.449 -1.88,3.239 -1.88,5.372 m 31.141,-6.69 v 18.652 h -5.494 v -18.652 h -2.343 v -5.127 h 2.343 v -8.716 h 5.494 v 8.716 h 4.272 v 5.127 h -4.272 m 13.501,-5.127 v 23.779 h -5.494 v -23.779 h 5.494 m -6.324,-9.888 c 0,-0.96 0.35,-1.79 1.05,-2.49 0.7,-0.7 1.538,-1.05 2.515,-1.05 0.993,0 1.839,0.35 2.539,1.05 0.7,0.684 1.05,1.522 1.05,2.515 0,0.993 -0.35,1.839 -1.05,2.539 -0.684,0.7 -1.522,1.05 -2.515,1.05 -0.993,0 -1.839,-0.35 -2.539,-1.05 -0.7,-0.7 -1.05,-1.554 -1.05,-2.564 m 31.774,10.914 v 7.299 c -1.254,-1.53 -2.377,-2.579 -3.369,-3.149 -0.977,-0.586 -2.124,-0.879 -3.443,-0.879 -2.067,0 -3.784,0.724 -5.151,2.173 -1.367,1.448 -2.051,3.263 -2.051,5.444 0,2.23 0.659,4.061 1.978,5.493 1.334,1.433 3.035,2.149 5.102,2.149 1.319,0 2.482,-0.285 3.491,-0.855 0.977,-0.553 2.124,-1.627 3.443,-3.222 v 7.251 c -2.23,1.155 -4.46,1.733 -6.69,1.733 -3.678,0 -6.754,-1.188 -9.228,-3.564 -2.474,-2.393 -3.711,-5.363 -3.711,-8.912 0,-3.548 1.253,-6.543 3.76,-8.984 2.506,-2.441 5.582,-3.662 9.228,-3.662 2.344,0 4.557,0.561 6.641,1.685"
     id="path100" />
  <path
     class="Lyrics"
     d="m 159.487,496.914 5.078,1.953 c -1.774,4.248 -3.019,8.17 -3.735,11.767 -0.358,1.823 -0.627,3.74 -0.806,5.75 -0.179,2.01 -0.268,4.203 -0.268,6.579 0,2.393 0.089,4.594 0.268,6.604 0.179,2.01 0.448,3.927 0.806,5.75 0.7,3.581 1.945,7.495 3.735,11.743 l -5.078,1.953 c -3.548,-7.438 -5.322,-16.121 -5.322,-26.05 0,-9.928 1.774,-18.611 5.322,-26.049 m 17.418,0.415 v 41.235 h -5.493 v -41.235 h 5.493 m 5.822,29.174 c 0,-3.434 1.228,-6.355 3.686,-8.764 2.458,-2.409 5.453,-3.614 8.985,-3.614 3.548,0 6.559,1.213 9.033,3.638 2.441,2.425 3.662,5.404 3.662,8.936 0,3.564 -1.229,6.551 -3.687,8.96 -2.474,2.392 -5.509,3.589 -9.106,3.589 -3.565,0 -6.551,-1.221 -8.96,-3.663 -2.409,-2.408 -3.613,-5.436 -3.613,-9.082 m 5.615,0.098 c 0,2.376 0.635,4.256 1.904,5.64 1.302,1.399 3.019,2.099 5.152,2.099 2.148,0 3.865,-0.691 5.151,-2.075 1.286,-1.383 1.929,-3.231 1.929,-5.542 0,-2.311 -0.643,-4.158 -1.929,-5.542 -1.302,-1.4 -3.019,-2.099 -5.151,-2.099 -2.1,0 -3.801,0.699 -5.103,2.099 -1.302,1.4 -1.953,3.207 -1.953,5.42 m 24.431,-0.098 c 0,-3.434 1.229,-6.355 3.687,-8.764 2.458,-2.409 5.452,-3.614 8.984,-3.614 3.549,0 6.56,1.213 9.034,3.638 2.441,2.425 3.662,5.404 3.662,8.936 0,3.564 -1.229,6.551 -3.687,8.96 -2.474,2.392 -5.509,3.589 -9.106,3.589 -3.565,0 -6.551,-1.221 -8.96,-3.663 -2.409,-2.408 -3.614,-5.436 -3.614,-9.082 m 5.616,0.098 c 0,2.376 0.634,4.256 1.904,5.64 1.302,1.399 3.019,2.099 5.151,2.099 2.149,0 3.866,-0.691 5.152,-2.075 1.286,-1.383 1.928,-3.231 1.928,-5.542 0,-2.311 -0.642,-4.158 -1.928,-5.542 -1.302,-1.4 -3.019,-2.099 -5.152,-2.099 -2.099,0 -3.8,0.699 -5.102,2.099 -1.302,1.4 -1.953,3.207 -1.953,5.42 m 31.048,24.902 h -5.494 v -36.718 h 5.494 v 2.588 c 2.164,-2.165 4.622,-3.248 7.373,-3.248 3.271,0 5.965,1.205 8.081,3.614 2.148,2.392 3.222,5.412 3.222,9.057 0,3.565 -1.066,6.535 -3.198,8.912 -2.116,2.36 -4.785,3.54 -8.008,3.54 -2.783,0 -5.273,-1.115 -7.47,-3.345 v 15.6 m 13.061,-24.682 c 0,-2.279 -0.618,-4.134 -1.855,-5.567 -1.254,-1.448 -2.832,-2.172 -4.737,-2.172 -2.018,0 -3.654,0.699 -4.907,2.099 -1.253,1.4 -1.88,3.239 -1.88,5.518 0,2.23 0.627,4.069 1.88,5.517 1.237,1.416 2.865,2.124 4.883,2.124 1.904,0 3.475,-0.716 4.712,-2.148 1.269,-1.432 1.904,-3.223 1.904,-5.371 m 48.027,1.22 h 4.004 v 5.176 h -4.004 v 5.347 h -5.688 v -5.347 h -18.506 l 24.194,-35.156 v 29.98 m -5.688,0 v -12.622 l -8.691,12.622 h 8.691"
     id="path102" />
  <path
     class="Lyrics"
     d="m 348.286,541.591 10.547,-10.547 h -8.74 v -28.613 h -3.613 v 28.613 h -8.741 l 10.547,10.547"
     id="path104" />
  <path
     class="Lyrics"
     d="m 372.87,549.013 -5.078,-1.953 c 1.79,-4.248 3.036,-8.162 3.735,-11.743 0.733,-3.581 1.099,-7.699 1.099,-12.354 0,-4.622 -0.366,-8.732 -1.099,-12.329 -0.716,-3.597 -1.961,-7.519 -3.735,-11.767 l 5.078,-1.953 c 3.548,7.438 5.322,16.121 5.322,26.049 0,9.929 -1.774,18.612 -5.322,26.05"
     id="path106" />
  <path
     class="Lyrics"
     d="m 776.576,446.528 h -13.13 v 9.057 h 12.67 v 5.347 h -12.67 v 17.944 h -5.69 v -37.695 h 18.82 v 5.347 m 23.94,8.569 6.22,13.574 6.72,-15.747 6.76,15.747 6.15,-13.574 h 6.15 l -12.45,25.562 -6.61,-15.308 -6.69,15.308 -12.43,-25.562 h 6.18 m 35.71,-17.456 h 5.49 v 19.434 c 1.95,-1.758 4.11,-2.637 6.47,-2.637 2.69,0 4.83,0.871 6.45,2.612 1.36,1.514 2.05,3.931 2.05,7.251 v 14.575 h -5.5 v -14.062 c 0,-1.904 -0.33,-3.284 -1.01,-4.138 -0.68,-0.855 -1.76,-1.282 -3.26,-1.282 -1.92,0 -3.27,0.594 -4.05,1.782 -0.77,1.205 -1.15,3.272 -1.15,6.201 v 11.499 h -5.49 v -41.235 m 26.28,29.175 c 0,-3.434 1.23,-6.356 3.69,-8.765 2.45,-2.409 5.45,-3.613 8.98,-3.613 3.55,0 6.56,1.213 9.03,3.638 2.45,2.425 3.67,5.403 3.67,8.935 0,3.565 -1.23,6.551 -3.69,8.96 -2.47,2.393 -5.51,3.589 -9.11,3.589 -3.56,0 -6.55,-1.221 -8.96,-3.662 -2.41,-2.409 -3.61,-5.436 -3.61,-9.082 m 5.62,0.098 c 0,2.376 0.63,4.256 1.9,5.639 1.3,1.4 3.02,2.1 5.15,2.1 2.15,0 3.87,-0.692 5.15,-2.075 1.29,-1.384 1.93,-3.231 1.93,-5.542 0,-2.312 -0.64,-4.159 -1.93,-5.542 -1.3,-1.4 -3.02,-2.1 -5.15,-2.1 -2.1,0 -3.8,0.7 -5.1,2.1 -1.3,1.399 -1.95,3.206 -1.95,5.42 m 31.04,-29.273 v 41.235 h -5.49 v -41.235 h 5.49 m 28.6,30.64 h -17.04 c 0.15,1.953 0.78,3.507 1.91,4.663 1.12,1.139 2.56,1.709 4.32,1.709 1.36,0 2.5,-0.326 3.39,-0.977 0.88,-0.651 1.88,-1.855 3,-3.613 l 4.64,2.588 c -0.71,1.221 -1.47,2.266 -2.27,3.137 -0.8,0.871 -1.65,1.587 -2.56,2.149 -0.91,0.561 -1.9,0.972 -2.96,1.232 -1.05,0.261 -2.2,0.391 -3.44,0.391 -3.55,0 -6.39,-1.139 -8.54,-3.418 -2.15,-2.295 -3.23,-5.338 -3.23,-9.131 0,-3.76 1.05,-6.803 3.13,-9.131 2.1,-2.295 4.88,-3.442 8.35,-3.442 3.5,0 6.27,1.115 8.3,3.345 2.02,2.213 3.03,5.281 3.03,9.204 l -0.03,1.294 m -5.64,-4.492 c -0.76,-2.93 -2.61,-4.395 -5.54,-4.395 -0.67,0 -1.29,0.102 -1.88,0.305 -0.58,0.204 -1.12,0.497 -1.6,0.879 -0.48,0.383 -0.89,0.842 -1.23,1.38 -0.34,0.537 -0.6,1.147 -0.78,1.831 h 11.03 m 29.37,-26.563 4.54,2.002 -21.58,49.951 -4.49,-2.026 21.53,-49.927 m 8.16,0.415 h 5.5 v 19.434 c 1.95,-1.758 4.11,-2.637 6.47,-2.637 2.68,0 4.83,0.871 6.44,2.612 1.37,1.514 2.05,3.931 2.05,7.251 v 14.575 h -5.49 v -14.062 c 0,-1.904 -0.34,-3.284 -1.01,-4.138 -0.68,-0.855 -1.76,-1.282 -3.26,-1.282 -1.92,0 -3.27,0.594 -4.05,1.782 -0.77,1.205 -1.15,3.272 -1.15,6.201 v 11.499 h -5.5 v -41.235 m 44.94,17.456 h 5.52 v 23.779 h -5.52 v -2.49 c -2.26,2.116 -4.7,3.174 -7.3,3.174 -3.29,0 -6.01,-1.188 -8.15,-3.564 -2.14,-2.426 -3.2,-5.453 -3.2,-9.082 0,-3.565 1.06,-6.535 3.2,-8.912 2.13,-2.376 4.8,-3.564 8,-3.564 2.77,0 5.25,1.139 7.45,3.418 v -2.759 m -13.04,11.817 c 0,2.278 0.61,4.134 1.83,5.566 1.26,1.449 2.84,2.173 4.74,2.173 2.03,0 3.68,-0.7 4.93,-2.1 1.26,-1.448 1.88,-3.288 1.88,-5.517 0,-2.23 -0.62,-4.069 -1.88,-5.518 -1.25,-1.416 -2.88,-2.124 -4.88,-2.124 -1.89,0 -3.47,0.716 -4.74,2.148 -1.25,1.449 -1.88,3.239 -1.88,5.372 m 30.97,-29.273 v 41.235 h -5.49 v -41.235 h 5.49 m 12.64,22.583 v 18.652 h -5.52 v -18.652 h -1.96 v -5.127 h 1.96 v -9.18 c 0,-2.994 0.52,-5.11 1.56,-6.347 1.43,-1.725 3.52,-2.588 6.25,-2.588 0.98,0 2.21,0.285 3.69,0.854 v 5.616 l -0.56,-0.293 c -1.19,-0.603 -2.17,-0.904 -2.93,-0.904 -0.98,0 -1.64,0.35 -1.98,1.05 -0.34,0.684 -0.51,2.002 -0.51,3.955 v 7.837 h 5.98 v 5.127 h -5.98"
     id="path108" />
  <path
     class="Lyrics"
     d="m 697.376,496.914 5.08,1.953 c -1.77,4.248 -3.02,8.17 -3.74,11.767 -0.35,1.823 -0.62,3.74 -0.8,5.75 -0.18,2.01 -0.27,4.203 -0.27,6.579 0,2.393 0.09,4.594 0.27,6.604 0.18,2.01 0.45,3.927 0.8,5.75 0.7,3.581 1.95,7.495 3.74,11.743 l -5.08,1.953 c -3.55,-7.438 -5.32,-16.121 -5.32,-26.05 0,-9.928 1.77,-18.611 5.32,-26.049 m 22.01,9.277 h -6.52 l 3.13,-5.322 h 9.08 v 37.695 h -5.69 v -32.373 m 21.87,25.317 4.89,1.905 -6.96,13.94 -3.71,-1.538 5.78,-14.307"
     id="path110" />
  <path
     class="Lyrics"
     d="m 781.376,499.404 10.55,10.547 h -8.74 v 28.613 h -3.61 v -28.613 h -8.74 l 10.54,-10.547"
     id="path112" />
  <path
     class="Lyrics"
     d="m 804.356,531.508 4.88,1.905 -6.96,13.94 -3.71,-1.538 5.79,-14.307 m 32.94,-34.179 v 41.235 h -5.49 v -41.235 h 5.49 m 5.82,29.174 c 0,-3.434 1.23,-6.355 3.69,-8.764 2.45,-2.409 5.45,-3.614 8.98,-3.614 3.55,0 6.56,1.213 9.03,3.638 2.45,2.425 3.67,5.404 3.67,8.936 0,3.564 -1.23,6.551 -3.69,8.96 -2.47,2.392 -5.51,3.589 -9.11,3.589 -3.56,0 -6.55,-1.221 -8.96,-3.663 -2.4,-2.408 -3.61,-5.436 -3.61,-9.082 m 5.62,0.098 c 0,2.376 0.63,4.256 1.9,5.64 1.3,1.399 3.02,2.099 5.15,2.099 2.15,0 3.87,-0.691 5.15,-2.075 1.29,-1.383 1.93,-3.231 1.93,-5.542 0,-2.311 -0.64,-4.158 -1.93,-5.542 -1.3,-1.4 -3.02,-2.099 -5.15,-2.099 -2.1,0 -3.8,0.699 -5.1,2.099 -1.3,1.4 -1.95,3.207 -1.95,5.42 m 24.43,-0.098 c 0,-3.434 1.23,-6.355 3.68,-8.764 2.46,-2.409 5.46,-3.614 8.99,-3.614 3.55,0 6.56,1.213 9.03,3.638 2.44,2.425 3.66,5.404 3.66,8.936 0,3.564 -1.22,6.551 -3.68,8.96 -2.48,2.392 -5.51,3.589 -9.11,3.589 -3.56,0 -6.55,-1.221 -8.96,-3.663 -2.41,-2.408 -3.61,-5.436 -3.61,-9.082 m 5.61,0.098 c 0,2.376 0.64,4.256 1.91,5.64 1.3,1.399 3.02,2.099 5.15,2.099 2.15,0 3.86,-0.691 5.15,-2.075 1.29,-1.383 1.93,-3.231 1.93,-5.542 0,-2.311 -0.64,-4.158 -1.93,-5.542 -1.3,-1.4 -3.02,-2.099 -5.15,-2.099 -2.1,0 -3.8,0.699 -5.1,2.099 -1.31,1.4 -1.96,3.207 -1.96,5.42 m 31.05,24.902 h -5.49 v -36.718 h 5.49 v 2.588 c 2.17,-2.165 4.62,-3.248 7.37,-3.248 3.28,0 5.97,1.205 8.08,3.614 2.15,2.392 3.23,5.412 3.23,9.057 0,3.565 -1.07,6.535 -3.2,8.912 -2.12,2.36 -4.79,3.54 -8.01,3.54 -2.78,0 -5.27,-1.115 -7.47,-3.345 v 15.6 m 13.06,-24.682 c 0,-2.279 -0.62,-4.134 -1.85,-5.567 -1.26,-1.448 -2.84,-2.172 -4.74,-2.172 -2.02,0 -3.65,0.699 -4.91,2.099 -1.25,1.4 -1.88,3.239 -1.88,5.518 0,2.23 0.63,4.069 1.88,5.517 1.24,1.416 2.87,2.124 4.89,2.124 1.9,0 3.47,-0.716 4.71,-2.148 1.27,-1.432 1.9,-3.223 1.9,-5.371 m 48.03,1.22 h 4 v 5.176 h -4 v 5.347 h -5.69 v -5.347 h -18.5 l 24.19,-35.156 v 29.98 m -5.69,0 v -12.622 l -8.69,12.622 h 8.69"
     id="path114" />
  <path
     class="Lyrics"
     d="m 1008.676,541.591 10.55,-10.547 h -8.74 v -28.613 h -3.62 v 28.613 h -8.74 l 10.55,10.547"
     id="path116" />
  <path
     class="Lyrics"
     d="m 1031.646,531.508 4.89,1.905 -6.96,13.94 -3.71,-1.538 5.78,-14.307"
     id="path118" />
  <path
     class="Lyrics"
     d="m 1071.766,499.404 10.55,10.547 h -8.74 v 28.613 h -3.61 v -28.613 h -8.74 l 10.54,-10.547"
     id="path120" />
  <path
     class="Lyrics"
     d="m 1096.356,549.013 -5.08,-1.953 c 1.79,-4.248 3.04,-8.162 3.74,-11.743 0.73,-3.581 1.09,-7.699 1.09,-12.354 0,-4.622 -0.36,-8.732 -1.09,-12.329 -0.72,-3.597 -1.97,-7.519 -3.74,-11.767 l 5.08,-1.953 c 3.55,7.438 5.32,16.121 5.32,26.049 0,9.929 -1.77,18.612 -5.32,26.05"
     id="path122" />
  <path
     class="NoteDot"
     d="m 1987.176,257.96635 c 0,2.73969 2.2209,4.96063 4.9606,4.96063 2.7397,0 4.9607,-2.22094 4.9607,-4.96063 0,-2.73968 -2.221,-4.96063 -4.9607,-4.96063 -2.7397,0 -4.9606,2.22095 -4.9606,4.96063"
     id="path124"
     style="stroke-width:0.992126" />
</svg>
