<?xml version="1.0" encoding="UTF-8" standalone="no"?>
<svg
   width="2447.166"
   height="573.97198"
   viewBox="0 0 2447.1661 573.97196"
   version="1.2"
   id="svg208"
   xmlns="http://www.w3.org/2000/svg"
   xmlns:svg="http://www.w3.org/2000/svg">
  <defs
     id="defs212" />
  <title
     id="title2">tmpbrn3ayfs</title>
  <desc
     id="desc4">Generated by MuseScore 3.6.2</desc>
  <polyline
     class="StaffLines"
     fill="none"
     stroke="#000000"
     stroke-width="2.73"
     stroke-linejoin="bevel"
     points="336.614,634.252 2763.78,634.252"
     id="polyline6"
     transform="translate(-326.614,-383.657)" />
  <polyline
     class="StaffLines"
     fill="none"
     stroke="#000000"
     stroke-width="2.73"
     stroke-linejoin="bevel"
     points="336.614,659.055 2763.78,659.055"
     id="polyline8"
     transform="translate(-326.614,-383.657)" />
  <polyline
     class="StaffLines"
     fill="none"
     stroke="#000000"
     stroke-width="2.73"
     stroke-linejoin="bevel"
     points="336.614,683.858 2763.78,683.858"
     id="polyline10"
     transform="translate(-326.614,-383.657)" />
  <polyline
     class="StaffLines"
     fill="none"
     stroke="#000000"
     stroke-width="2.73"
     stroke-linejoin="bevel"
     points="336.614,708.661 2763.78,708.661"
     id="polyline12"
     transform="translate(-326.614,-383.657)" />
  <polyline
     class="StaffLines"
     fill="none"
     stroke="#000000"
     stroke-width="2.73"
     stroke-linejoin="bevel"
     points="336.614,733.465 2763.78,733.465"
     id="polyline14"
     transform="translate(-326.614,-383.657)" />
  <path
     class="Text"
     d="M 914.616,84.223 V 16.372 h 10.19 c 4.54,0 8.16,0.351 10.86,1.054 2.72,0.703 5.02,1.89 6.9,3.56 1.9,1.728 3.41,3.882 4.52,6.46 1.15,2.607 1.72,5.244 1.72,7.91 0,4.863 -1.86,8.979 -5.58,12.349 3.6,1.23 6.44,3.383 8.52,6.46 2.11,3.046 3.17,6.591 3.17,10.634 0,5.303 -1.88,9.785 -5.63,13.448 -2.25,2.255 -4.79,3.823 -7.6,4.702 -3.08,0.849 -6.93,1.274 -11.56,1.274 h -15.51 m 10.24,-38.716 h 3.21 c 3.8,0 6.59,-0.842 8.37,-2.527 1.77,-1.684 2.66,-4.167 2.66,-7.448 0,-3.194 -0.91,-5.618 -2.73,-7.273 -1.82,-1.655 -4.45,-2.483 -7.91,-2.483 h -3.6 v 19.731 m 0,29.092 h 6.33 c 4.62,0 8.02,-0.908 10.19,-2.724 2.29,-1.963 3.43,-4.454 3.43,-7.471 0,-2.93 -1.1,-5.391 -3.3,-7.383 -2.14,-1.963 -5.96,-2.944 -11.47,-2.944 h -5.18 v 20.522 m 50.96,-33.179 v 42.803 h -9.89 V 41.42 h 9.89 m -11.38,-17.797 c 0,-1.729 0.63,-3.223 1.89,-4.483 1.26,-1.26 2.77,-1.889 4.52,-1.889 1.79,0 3.31,0.629 4.57,1.889 1.26,1.231 1.89,2.739 1.89,4.527 0,1.787 -0.63,3.31 -1.89,4.57 -1.23,1.26 -2.74,1.889 -4.52,1.889 -1.79,0 -3.31,-0.629 -4.57,-1.889 -1.26,-1.26 -1.89,-2.798 -1.89,-4.614 M 998.226,10 v 74.223 h -9.89 V 10 h 9.89 m 22.4,0 v 74.223 h -9.89 V 10 h 9.89 m 79.62,15.996 h -27.2 v 16.303 h 26.41 v 9.624 h -26.41 v 22.676 h 27.2 v 9.624 h -37.44 V 16.372 h 37.44 v 9.624 m 16.86,15.424 11.07,24.039 11.03,-24.039 h 11.12 l -22.24,45.748 -22.06,-45.748 h 11.08 m 69.91,0 h 9.93 v 42.803 h -9.93 v -4.482 c -4.08,3.808 -8.46,5.713 -13.14,5.713 -5.92,0 -10.81,-2.139 -14.68,-6.416 -3.84,-4.366 -5.76,-9.815 -5.76,-16.348 0,-6.416 1.92,-11.763 5.76,-16.04 3.84,-4.277 8.64,-6.416 14.41,-6.416 4.98,0 9.45,2.051 13.41,6.152 V 41.42 m -23.47,21.27 c 0,4.102 1.1,7.441 3.29,10.019 2.26,2.608 5.1,3.912 8.53,3.912 3.66,0 6.62,-1.26 8.88,-3.78 2.25,-2.607 3.38,-5.918 3.38,-9.931 0,-4.014 -1.13,-7.325 -3.38,-9.932 -2.26,-2.549 -5.19,-3.823 -8.79,-3.823 -3.4,0 -6.24,1.289 -8.53,3.867 -2.25,2.607 -3.38,5.83 -3.38,9.668 m 45.87,-21.27 h 9.93 v 3.956 c 3.45,-3.428 7.35,-5.142 11.69,-5.142 4.98,0 8.86,1.567 11.64,4.702 2.41,2.666 3.61,7.017 3.61,13.052 v 26.235 h -9.94 V 60.317 c 0,-4.219 -0.58,-7.134 -1.75,-8.745 -1.15,-1.641 -3.23,-2.461 -6.24,-2.461 -3.28,0 -5.61,1.084 -6.99,3.252 -1.35,2.138 -2.02,5.874 -2.02,11.206 v 20.654 h -9.93 V 41.42 m 74.21,7.295 -8.17,4.351 c -1.29,-2.637 -2.89,-3.955 -4.79,-3.955 -0.91,0 -1.69,0.3 -2.33,0.901 -0.64,0.6 -0.97,1.369 -0.97,2.307 0,1.64 1.91,3.266 5.72,4.878 5.24,2.256 8.77,4.336 10.59,6.24 1.81,1.904 2.72,4.468 2.72,7.69 0,4.131 -1.52,7.588 -4.57,10.372 -2.96,2.636 -6.53,3.955 -10.72,3.955 -7.18,0 -12.26,-3.501 -15.25,-10.503 l 8.44,-3.911 c 1.17,2.05 2.06,3.354 2.68,3.911 1.2,1.113 2.63,1.67 4.3,1.67 3.34,0 5.01,-1.524 5.01,-4.571 0,-1.757 -1.28,-3.398 -3.86,-4.922 -1,-0.498 -2,-0.981 -2.99,-1.45 -1,-0.469 -2.01,-0.952 -3.03,-1.45 -2.87,-1.406 -4.9,-2.812 -6.07,-4.219 -1.49,-1.787 -2.24,-4.087 -2.24,-6.899 0,-3.721 1.28,-6.797 3.82,-9.229 2.61,-2.431 5.78,-3.647 9.5,-3.647 5.47,0 9.55,2.827 12.21,8.481 m 87.09,-13.271 v 7.734 h -10.68 l -1.58,12.613 h 9.76 v 7.734 h -10.73 l -2.59,21.006 -7.73,-1.011 2.5,-19.995 h -13.05 l -2.64,21.006 -7.82,-1.011 2.51,-20.171 h -10.02 v -7.558 h 11.11 l 1.59,-12.613 h -10.15 v -7.734 h 11.11 l 2.42,-19.688 7.69,1.011 -2.33,18.677 h 12.97 l 2.46,-19.688 7.69,1.011 -2.33,18.677 h 9.84 m -18.63,7.734 h -12.92 l -1.58,12.613 h 13 l 1.5,-12.613 m 44.65,-17.226 h -11.74 l 5.63,-9.58 h 16.35 v 67.851 h -10.24 V 25.952"
     id="path16" />
  <path
     class="TieSegment"
     stroke="#000000"
     stroke-width="1.74"
     stroke-linecap="round"
     stroke-linejoin="round"
     fill-rule="evenodd"
     d="m 1852.776,281.599 c 31.8,-27.635 127.17,-27.635 158.97,0 -31.8,-20.69 -127.17,-20.69 -158.97,0"
     id="path18" />
  <polyline
     class="BarLine"
     stroke="#000000"
     stroke-width="4.46"
     stroke-linejoin="bevel"
     points="1062.69,632.888 1062.69,734.829"
     id="polyline20"
     transform="translate(-326.614,-383.657)" />
  <polyline
     class="BarLine"
     stroke="#000000"
     stroke-width="4.46"
     stroke-linejoin="bevel"
     points="2292.6,632.888 2292.6,734.829"
     id="polyline22"
     transform="translate(-326.614,-383.657)" />
  <polyline
     class="BarLine"
     stroke="#000000"
     stroke-width="4.46"
     stroke-linejoin="bevel"
     points="2739.6,632.888 2739.6,734.829"
     id="polyline24"
     transform="translate(-326.614,-383.657)" />
  <polyline
     class="BarLine"
     stroke="#000000"
     stroke-width="13.64"
     stroke-linejoin="bevel"
     points="2756.96,632.888 2756.96,734.829"
     id="polyline26"
     transform="translate(-326.614,-383.657)" />
  <path
     class="Accidental"
     d="m 242.60554,326.88946 c 0.59527,-0.0992 1.09133,-0.7937 1.09133,-1.38897 v -5.85355 c 0,-0.7937 -0.59527,-1.38897 -1.38897,-1.38897 h -0.19843 l -3.27401,0.69449 v -14.78268 h -2.77796 v 15.37795 l -8.82992,1.78583 v -13.98898 h -2.77795 v 14.58425 l -3.86929,0.79371 c -0.59528,0.0992 -1.09134,0.7937 -1.09134,1.38897 v 0.19843 5.75433 -0.19843 c 0,0.7937 0.59528,1.38898 1.38898,1.38898 h 0.29763 l 3.27402,-0.69449 v 16.37008 l -3.86929,0.7937 c -0.59528,0.0992 -1.09134,0.7937 -1.09134,1.38898 v 5.75433 c 0,0.7937 0.59528,1.38897 1.38898,1.38897 h 0.29763 l 3.27402,-0.69448 v 14.78267 h 2.77795 v -15.37795 l 8.82992,-1.78583 v 13.98898 h 2.77796 v -14.58425 l 3.77008,-0.69449 c 0.59527,-0.0992 1.09133,-0.7937 1.09133,-1.38898 v -5.85354 c 0,-0.7937 -0.59527,-1.38898 -1.38897,-1.38898 h -0.19843 l -3.27401,0.69449 v -16.37008 l 3.77008,-0.69449 m -15.37796,19.54489 v -16.4693 l 8.82992,-1.78582 v 16.37008 l -8.82992,1.88504"
     id="path28"
     style="stroke-width:0.992126" />
  <path
     class="Accidental"
     d="m 421.47273,255.1592 c -0.59527,-3.86929 -2.97638,-7.54015 -8.03622,-7.54015 -4.96063,0 -7.83779,3.07559 -8.33386,3.67086 l 0.39685,-31.84724 c 0,-0.7937 -0.59527,-1.38898 -1.38897,-1.38898 h -1.19055 c -0.7937,0 -1.38898,0.59528 -1.38898,1.38898 l 0.49606,59.62677 c 0,0.7937 0.59528,1.38898 1.38898,1.38898 0.19842,0 0.59528,-0.0992 0.7937,-0.19843 0.39685,-0.19842 6.84567,-3.37323 12.20315,-9.42519 3.77008,-4.26615 5.25827,-9.12756 5.25827,-13.19528 0,-0.89291 -0.0992,-1.68661 -0.19843,-2.48032 m -6.84567,3.8693 c 0,1.48818 -0.39685,6.05196 -2.87716,9.82204 -1.68662,2.57953 -5.05984,5.25827 -6.94488,6.74646 l 0.29763,-19.34646 c 0.19843,-0.89291 1.68662,-3.77008 5.65512,-3.77008 3.57166,0 3.86929,3.37323 3.86929,5.4567 v 1.09134"
     id="path30"
     style="stroke-width:0.992126" />
  <path
     class="Accidental"
     d="m 657.10954,277.28346 c 0.59527,-0.0992 1.09133,-0.7937 1.09133,-1.38897 v -5.85355 c 0,-0.7937 -0.59527,-1.38897 -1.38897,-1.38897 h -0.19843 l -3.27401,0.69449 v -14.78268 h -2.77796 v 15.37795 l -8.82992,1.78583 v -13.98898 h -2.77795 v 14.58425 l -3.86929,0.79371 c -0.59528,0.0992 -1.09134,0.7937 -1.09134,1.38897 v 0.19843 5.75433 -0.19843 c 0,0.7937 0.59528,1.38898 1.38898,1.38898 h 0.29763 l 3.27402,-0.69449 v 16.37008 l -3.86929,0.7937 c -0.59528,0.0992 -1.09134,0.7937 -1.09134,1.38898 v 5.75433 c 0,0.7937 0.59528,1.38897 1.38898,1.38897 h 0.29763 l 3.27402,-0.69448 v 14.78267 h 2.77795 v -15.37795 l 8.82992,-1.78583 v 13.98898 h 2.77796 v -14.58425 l 3.77008,-0.69449 c 0.59527,-0.0992 1.09133,-0.7937 1.09133,-1.38898 v -5.85354 c 0,-0.7937 -0.59527,-1.38898 -1.38897,-1.38898 h -0.19843 l -3.27401,0.69449 v -16.37008 l 3.77008,-0.69449 m -15.37796,19.54489 v -16.4693 l 8.82992,-1.78582 v 16.37008 l -8.82992,1.88504"
     id="path32"
     style="stroke-width:0.992126" />
  <path
     class="Accidental"
     d="m 1043.2577,292.3632 c -0.5952,-3.86929 -2.9763,-7.54015 -8.0362,-7.54015 -4.9606,0 -7.8378,3.07559 -8.3338,3.67086 l 0.3968,-31.84724 c 0,-0.7937 -0.5953,-1.38898 -1.389,-1.38898 h -1.1905 c -0.7937,0 -1.389,0.59528 -1.389,1.38898 l 0.4961,59.62677 c 0,0.7937 0.5952,1.38898 1.3889,1.38898 0.1985,0 0.5953,-0.0992 0.7937,-0.19843 0.3969,-0.19842 6.8457,-3.37323 12.2032,-9.42519 3.7701,-4.26615 5.2583,-9.12756 5.2583,-13.19528 0,-0.89291 -0.099,-1.68661 -0.1985,-2.48032 m -6.8456,3.8693 c 0,1.48818 -0.3969,6.05196 -2.8772,9.82204 -1.6866,2.57953 -5.0598,5.25827 -6.9449,6.74646 l 0.2977,-19.34646 c 0.1984,-0.89291 1.6866,-3.77008 5.6551,-3.77008 3.5716,0 3.8693,3.37323 3.8693,5.4567 v 1.09134"
     id="path34"
     style="stroke-width:0.992126" />
  <path
     class="Accidental"
     d="m 1613.4525,326.88946 c 0.5953,-0.0992 1.0914,-0.7937 1.0914,-1.38897 v -5.85355 c 0,-0.7937 -0.5953,-1.38897 -1.389,-1.38897 h -0.1984 l -3.274,0.69449 v -14.78268 h -2.778 v 15.37795 l -8.8299,1.78583 v -13.98898 h -2.778 v 14.58425 l -3.8693,0.79371 c -0.5952,0.0992 -1.0913,0.7937 -1.0913,1.38897 v 0.19843 5.75433 -0.19843 c 0,0.7937 0.5953,1.38898 1.389,1.38898 h 0.2976 l 3.274,-0.69449 v 16.37008 l -3.8693,0.7937 c -0.5952,0.0992 -1.0913,0.7937 -1.0913,1.38898 v 5.75433 c 0,0.7937 0.5953,1.38897 1.389,1.38897 h 0.2976 l 3.274,-0.69448 v 14.78267 h 2.778 v -15.37795 l 8.8299,-1.78583 v 13.98898 h 2.778 v -14.58425 l 3.77,-0.69449 c 0.5953,-0.0992 1.0914,-0.7937 1.0914,-1.38898 v -5.85354 c 0,-0.7937 -0.5953,-1.38898 -1.389,-1.38898 h -0.1984 l -3.274,0.69449 v -16.37008 l 3.77,-0.69449 m -15.3779,19.54489 v -16.4693 l 8.8299,-1.78582 v 16.37008 l -8.8299,1.88504"
     id="path36"
     style="stroke-width:0.992126" />
  <path
     class="Accidental"
     d="m 2066.2325,326.88946 c 0.5953,-0.0992 1.0914,-0.7937 1.0914,-1.38897 v -5.85355 c 0,-0.7937 -0.5953,-1.38897 -1.389,-1.38897 h -0.1984 l -3.274,0.69449 v -14.78268 h -2.778 v 15.37795 l -8.8299,1.78583 v -13.98898 h -2.778 v 14.58425 l -3.8693,0.79371 c -0.5952,0.0992 -1.0913,0.7937 -1.0913,1.38897 v 0.19843 5.75433 -0.19843 c 0,0.7937 0.5953,1.38898 1.389,1.38898 h 0.2976 l 3.274,-0.69449 v 16.37008 l -3.8693,0.7937 c -0.5952,0.0992 -1.0913,0.7937 -1.0913,1.38898 v 5.75433 c 0,0.7937 0.5953,1.38897 1.389,1.38897 h 0.2976 l 3.274,-0.69448 v 14.78267 h 2.778 v -15.37795 l 8.8299,-1.78583 v 13.98898 h 2.778 v -14.58425 l 3.77,-0.69449 c 0.5953,-0.0992 1.0914,-0.7937 1.0914,-1.38898 v -5.85354 c 0,-0.7937 -0.5953,-1.38898 -1.389,-1.38898 h -0.1984 l -3.274,0.69449 v -16.37008 l 3.77,-0.69449 m -15.3779,19.54489 v -16.4693 l 8.8299,-1.78582 v 16.37008 l -8.8299,1.88504"
     id="path38"
     style="stroke-width:0.992126" />
  <polyline
     class="Stem"
     stroke="#000000"
     stroke-width="2.73"
     stroke-linejoin="bevel"
     points="607.382,717.888 607.382,640.453"
     id="polyline40"
     transform="translate(-326.614,-383.657)" />
  <polyline
     class="Stem"
     stroke="#000000"
     stroke-width="2.73"
     stroke-linejoin="bevel"
     points="661.873,693.085 661.873,628.051"
     id="polyline42"
     transform="translate(-326.614,-383.657)" />
  <polyline
     class="Stem"
     stroke="#000000"
     stroke-width="2.73"
     stroke-linejoin="bevel"
     points="686.855,674.79 686.855,739.665"
     id="polyline44"
     transform="translate(-326.614,-383.657)" />
  <polyline
     class="Stem"
     stroke="#000000"
     stroke-width="2.73"
     stroke-linejoin="bevel"
     points="755.847,649.987 755.847,727.264"
     id="polyline46"
     transform="translate(-326.614,-383.657)" />
  <polyline
     class="Stem"
     stroke="#000000"
     stroke-width="2.73"
     stroke-linejoin="bevel"
     points="810.337,637.586 810.337,708.661"
     id="polyline48"
     transform="translate(-326.614,-383.657)" />
  <polyline
     class="Stem"
     stroke="#000000"
     stroke-width="2.73"
     stroke-linejoin="bevel"
     points="864.827,649.987 864.827,714.862"
     id="polyline50"
     transform="translate(-326.614,-383.657)" />
  <polyline
     class="Stem"
     stroke="#000000"
     stroke-width="2.73"
     stroke-linejoin="bevel"
     points="919.318,674.79 919.318,739.665"
     id="polyline52"
     transform="translate(-326.614,-383.657)" />
  <polyline
     class="Stem"
     stroke="#000000"
     stroke-width="2.73"
     stroke-linejoin="bevel"
     points="992.378,674.79 992.378,739.665"
     id="polyline54"
     transform="translate(-326.614,-383.657)" />
  <polyline
     class="Stem"
     stroke="#000000"
     stroke-width="2.73"
     stroke-linejoin="bevel"
     points="1245.7,662.389 1245.7,733.465"
     id="polyline56"
     transform="translate(-326.614,-383.657)" />
  <polyline
     class="Stem"
     stroke="#000000"
     stroke-width="2.73"
     stroke-linejoin="bevel"
     points="1377.63,687.192 1377.63,758.268"
     id="polyline58"
     transform="translate(-326.614,-383.657)" />
  <polyline
     class="Stem"
     stroke="#000000"
     stroke-width="2.73"
     stroke-linejoin="bevel"
     points="1539.06,705.487 1539.06,628.051"
     id="polyline60"
     transform="translate(-326.614,-383.657)" />
  <polyline
     class="Stem"
     stroke="#000000"
     stroke-width="2.73"
     stroke-linejoin="bevel"
     points="1670.99,668.282 1670.99,603.248"
     id="polyline62"
     transform="translate(-326.614,-383.657)" />
  <polyline
     class="Stem"
     stroke="#000000"
     stroke-width="2.73"
     stroke-linejoin="bevel"
     points="1802.91,693.085 1802.91,615.65"
     id="polyline64"
     transform="translate(-326.614,-383.657)" />
  <polyline
     class="Stem"
     stroke="#000000"
     stroke-width="2.73"
     stroke-linejoin="bevel"
     points="1978.23,717.888 1978.23,634.252"
     id="polyline66"
     transform="translate(-326.614,-383.657)" />
  <polyline
     class="Stem"
     stroke="#000000"
     stroke-width="2.73"
     stroke-linejoin="bevel"
     points="2159.8,687.192 2159.8,770.669"
     id="polyline68"
     transform="translate(-326.614,-383.657)" />
  <polyline
     class="Stem"
     stroke="#000000"
     stroke-width="2.73"
     stroke-linejoin="bevel"
     points="2357.95,680.683 2357.95,609.449"
     id="polyline70"
     transform="translate(-326.614,-383.657)" />
  <polyline
     class="Stem"
     stroke="#000000"
     stroke-width="2.73"
     stroke-linejoin="bevel"
     points="2431.01,717.888 2431.01,634.252"
     id="polyline72"
     transform="translate(-326.614,-383.657)" />
  <polyline
     class="Stem"
     stroke="#000000"
     stroke-width="2.73"
     stroke-linejoin="bevel"
     points="2487.67,705.487 2487.67,634.252"
     id="polyline74"
     transform="translate(-326.614,-383.657)" />
  <polyline
     class="Stem"
     stroke="#000000"
     stroke-width="2.73"
     stroke-linejoin="bevel"
     points="2544.34,693.085 2544.34,628.051"
     id="polyline76"
     transform="translate(-326.614,-383.657)" />
  <polyline
     class="Stem"
     stroke="#000000"
     stroke-width="2.73"
     stroke-linejoin="bevel"
     points="2601.01,705.487 2601.01,624.951"
     id="polyline78"
     transform="translate(-326.614,-383.657)" />
  <path
     class="Note"
     d="m 281.14797,329.36978 c -1.78583,-3.27402 -5.55591,-5.05984 -10.11969,-5.05984 -3.37322,0 -7.04409,0.99212 -10.61574,2.87716 -6.54804,3.47244 -10.51654,9.32599 -10.51654,14.38583 0,1.38898 0.29764,2.77795 0.99213,4.06772 1.78582,3.27401 5.5559,4.96063 10.11968,4.96063 3.37323,0 7.0441,-0.89292 10.61575,-2.77796 6.54803,-3.47244 10.51654,-9.32598 10.51654,-14.38582 0,-1.38898 -0.29764,-2.77796 -0.99213,-4.06772"
     id="path80"
     style="stroke-width:0.992126" />
  <path
     class="Note"
     d="m 335.63897,304.56678 c -1.78583,-3.27402 -5.55591,-5.05984 -10.11969,-5.05984 -3.37322,0 -7.04409,0.99212 -10.61574,2.87716 -6.54804,3.47244 -10.51654,9.32599 -10.51654,14.38583 0,1.38898 0.29764,2.77795 0.99213,4.06772 1.78582,3.27401 5.5559,4.96063 10.11968,4.96063 3.37323,0 7.0441,-0.89292 10.61575,-2.77796 6.54803,-3.47244 10.51654,-9.32598 10.51654,-14.38582 0,-1.38898 -0.29764,-2.77796 -0.99213,-4.06772"
     id="path82"
     style="stroke-width:0.992126" />
  <path
     class="Note"
     d="m 390.12897,279.76378 c -1.78583,-3.27402 -5.55591,-5.05984 -10.11969,-5.05984 -3.37322,0 -7.04409,0.99212 -10.61574,2.87716 -6.54804,3.47244 -10.51654,9.32599 -10.51654,14.38583 0,1.38898 0.29764,2.77795 0.99213,4.06772 1.78582,3.27401 5.5559,4.96063 10.11968,4.96063 3.37323,0 7.0441,-0.89292 10.61575,-2.77796 6.54803,-3.47244 10.51654,-9.32598 10.51654,-14.38582 0,-1.38898 -0.29764,-2.77796 -0.99213,-4.06772"
     id="path84"
     style="stroke-width:0.992126" />
  <path
     class="Note"
     d="m 459.11997,254.96078 c -1.78583,-3.27402 -5.55591,-5.05984 -10.11969,-5.05984 -3.37322,0 -7.04409,0.99212 -10.61574,2.87716 -6.54804,3.47244 -10.51654,9.32599 -10.51654,14.38583 0,1.38898 0.29764,2.77795 0.99213,4.06772 1.78582,3.27401 5.5559,4.96063 10.11968,4.96063 3.37323,0 7.0441,-0.89292 10.61575,-2.77796 6.54803,-3.47244 10.51653,-9.32598 10.51653,-14.38582 0,-1.38898 -0.29763,-2.77796 -0.99212,-4.06772"
     id="path86"
     style="stroke-width:0.992126" />
  <path
     class="Note"
     d="m 513.61097,242.55878 c -1.78583,-3.27402 -5.55591,-5.05984 -10.11969,-5.05984 -3.37322,0 -7.04409,0.99212 -10.61574,2.87716 -6.54804,3.47244 -10.51654,9.32599 -10.51654,14.38583 0,1.38898 0.29764,2.77795 0.99213,4.06772 1.78582,3.27401 5.5559,4.96063 10.11968,4.96063 3.37323,0 7.0441,-0.89292 10.61575,-2.77796 6.54803,-3.47244 10.51653,-9.32598 10.51653,-14.38582 0,-1.38898 -0.29763,-2.77796 -0.99212,-4.06772"
     id="path88"
     style="stroke-width:0.992126" />
  <path
     class="Note"
     d="m 568.10097,254.96078 c -1.78583,-3.27402 -5.55591,-5.05984 -10.11969,-5.05984 -3.37322,0 -7.04409,0.99212 -10.61574,2.87716 -6.54804,3.47244 -10.51654,9.32599 -10.51654,14.38583 0,1.38898 0.29764,2.77795 0.99213,4.06772 1.78582,3.27401 5.5559,4.96063 10.11968,4.96063 3.37323,0 7.0441,-0.89292 10.61575,-2.77796 6.54803,-3.47244 10.51653,-9.32598 10.51653,-14.38582 0,-1.38898 -0.29763,-2.77796 -0.99212,-4.06772"
     id="path90"
     style="stroke-width:0.992126" />
  <path
     class="Note"
     d="m 622.59197,279.76378 c -1.78583,-3.27402 -5.55591,-5.05984 -10.11969,-5.05984 -3.37322,0 -7.04409,0.99212 -10.61574,2.87716 -6.54804,3.47244 -10.51654,9.32599 -10.51654,14.38583 0,1.38898 0.29764,2.77795 0.99213,4.06772 1.78582,3.27401 5.5559,4.96063 10.11968,4.96063 3.37323,0 7.0441,-0.89292 10.61575,-2.77796 6.54803,-3.47244 10.51653,-9.32598 10.51653,-14.38582 0,-1.38898 -0.29763,-2.77796 -0.99212,-4.06772"
     id="path92"
     style="stroke-width:0.992126" />
  <path
     class="Note"
     d="m 695.65197,279.76378 c -1.78583,-3.27402 -5.55591,-5.05984 -10.11969,-5.05984 -3.37322,0 -7.04409,0.99212 -10.61574,2.87716 -6.54804,3.47244 -10.51654,9.32599 -10.51654,14.38583 0,1.38898 0.29764,2.77795 0.99213,4.06772 1.78582,3.27401 5.5559,4.96063 10.11968,4.96063 3.37323,0 7.0441,-0.89292 10.61575,-2.77796 6.54803,-3.47244 10.51654,-9.32598 10.51654,-14.38582 0,-1.38898 -0.29764,-2.77796 -0.99213,-4.06772"
     id="path94"
     style="stroke-width:0.992126" />
  <path
     class="Note"
     d="m 948.96797,267.36178 c -1.78583,-3.27402 -5.55591,-5.05984 -10.11969,-5.05984 -3.37322,0 -7.04409,0.99212 -10.61574,2.87716 -6.54804,3.47244 -10.51654,9.32599 -10.51654,14.38583 0,1.38898 0.29764,2.77795 0.99213,4.06772 1.78582,3.27401 5.5559,4.96063 10.11968,4.96063 3.37323,0 7.0441,-0.89292 10.61575,-2.77796 6.54803,-3.47244 10.51653,-9.32598 10.51653,-14.38582 0,-1.38898 -0.29763,-2.77796 -0.99212,-4.06772"
     id="path96"
     style="stroke-width:0.992126" />
  <path
     class="Note"
     d="m 1080.908,292.16478 c -1.7859,-3.27402 -5.5559,-5.05984 -10.1197,-5.05984 -3.3732,0 -7.0441,0.99212 -10.6158,2.87716 -6.548,3.47244 -10.5165,9.32599 -10.5165,14.38583 0,1.38898 0.2976,2.77795 0.9921,4.06772 1.7859,3.27401 5.5559,4.96063 10.1197,4.96063 3.3732,0 7.0441,-0.89292 10.6158,-2.77796 6.548,-3.47244 10.5165,-9.32598 10.5165,-14.38582 0,-1.38898 -0.2976,-2.77796 -0.9921,-4.06772"
     id="path98"
     style="stroke-width:0.992126" />
  <path
     class="Note"
     d="m 1212.828,316.96778 c -1.7859,-3.27402 -5.5559,-5.05984 -10.1197,-5.05984 -3.3732,0 -7.0441,0.99212 -10.6158,2.87716 -6.548,3.47244 -10.5165,9.32599 -10.5165,14.38583 0,1.38898 0.2976,2.77795 0.9921,4.06772 1.7859,3.27401 5.5559,4.96063 10.1197,4.96063 3.3732,0 7.0441,-0.89292 10.6158,-2.77796 6.548,-3.47244 10.5165,-9.32598 10.5165,-14.38582 0,-1.38898 -0.2976,-2.77796 -0.9921,-4.06772"
     id="path100"
     style="stroke-width:0.992126" />
  <path
     class="Note"
     d="m 1344.748,279.76378 c -1.7859,-3.27402 -5.5559,-5.05984 -10.1197,-5.05984 -3.3732,0 -7.0441,0.99212 -10.6158,2.87716 -6.548,3.47244 -10.5165,9.32599 -10.5165,14.38583 0,1.38898 0.2976,2.77795 0.9921,4.06772 1.7859,3.27401 5.5559,4.96063 10.1197,4.96063 3.3732,0 7.0441,-0.89292 10.6158,-2.77796 6.548,-3.47244 10.5165,-9.32598 10.5165,-14.38582 0,-1.38898 -0.2976,-2.77796 -0.9921,-4.06772"
     id="path102"
     style="stroke-width:0.992126" />
  <path
     class="Note"
     d="m 1476.678,304.56678 c -1.7859,-3.27402 -5.5559,-5.05984 -10.1197,-5.05984 -3.3732,0 -7.0441,0.99212 -10.6158,2.87716 -6.548,3.47244 -10.5165,9.32599 -10.5165,14.38583 0,1.38898 0.2976,2.77795 0.9921,4.06772 1.7859,3.27401 5.5559,4.96063 10.1197,4.96063 3.3732,0 7.0441,-0.89292 10.6158,-2.77796 6.548,-3.47244 10.5165,-9.32598 10.5165,-14.38582 0,-1.38898 -0.2976,-2.77796 -0.9921,-4.06772"
     id="path104"
     style="stroke-width:0.992126" />
  <path
     class="Note"
     d="m 1651.998,329.36978 c -1.7859,-3.27402 -5.5559,-5.05984 -10.1197,-5.05984 -3.3732,0 -7.0441,0.99212 -10.6158,2.87716 -6.548,3.47244 -10.5165,9.32599 -10.5165,14.38583 0,1.38898 0.2976,2.77795 0.9921,4.06772 1.7859,3.27401 5.5559,4.96063 10.1197,4.96063 3.3732,0 7.0441,-0.89292 10.6158,-2.77796 6.548,-3.47244 10.5165,-9.32598 10.5165,-14.38582 0,-1.38898 -0.2976,-2.77796 -0.9921,-4.06772"
     id="path106"
     style="stroke-width:0.992126" />
  <path
     class="Note"
     d="m 1863.078,292.16478 c -1.7859,-3.27402 -5.5559,-5.05984 -10.1197,-5.05984 -3.3732,0 -7.0441,0.99212 -10.6158,2.87716 -6.548,3.47244 -10.5165,9.32599 -10.5165,14.38583 0,1.38898 0.2976,2.77795 0.9921,4.06772 1.7859,3.27401 5.5559,4.96063 10.1197,4.96063 3.3732,0 7.0441,-0.89292 10.6158,-2.77796 6.548,-3.47244 10.5165,-9.32598 10.5165,-14.38582 0,-1.38898 -0.2976,-2.77796 -0.9921,-4.06772"
     id="path108"
     style="stroke-width:0.992126" />
  <path
     class="Note"
     d="m 2031.708,292.16478 c -1.7859,-3.27402 -5.5559,-5.05984 -10.1197,-5.05984 -3.3732,0 -7.0441,0.99212 -10.6158,2.87716 -6.548,3.47244 -10.5165,9.32599 -10.5165,14.38583 0,1.38898 0.2976,2.77795 0.9921,4.06772 1.7859,3.27401 5.5559,4.96063 10.1197,4.96063 3.3732,0 7.0441,-0.89292 10.6158,-2.77796 6.548,-3.47244 10.5165,-9.32598 10.5165,-14.38582 0,-1.38898 -0.2976,-2.77796 -0.9921,-4.06772"
     id="path110"
     style="stroke-width:0.992126" />
  <path
     class="Note"
     d="m 2104.768,329.36978 c -1.7859,-3.27402 -5.5559,-5.05984 -10.1197,-5.05984 -3.3732,0 -7.0441,0.99212 -10.6158,2.87716 -6.548,3.47244 -10.5165,9.32599 -10.5165,14.38583 0,1.38898 0.2976,2.77795 0.9921,4.06772 1.7859,3.27401 5.5559,4.96063 10.1197,4.96063 3.3732,0 7.0441,-0.89292 10.6158,-2.77796 6.548,-3.47244 10.5165,-9.32598 10.5165,-14.38582 0,-1.38898 -0.2976,-2.77796 -0.9921,-4.06772"
     id="path112"
     style="stroke-width:0.992126" />
  <path
     class="Note"
     d="m 2161.438,316.96778 c -1.7859,-3.27402 -5.5559,-5.05984 -10.1197,-5.05984 -3.3732,0 -7.0441,0.99212 -10.6158,2.87716 -6.548,3.47244 -10.5165,9.32599 -10.5165,14.38583 0,1.38898 0.2976,2.77795 0.9921,4.06772 1.7859,3.27401 5.5559,4.96063 10.1197,4.96063 3.3732,0 7.0441,-0.89292 10.6158,-2.77796 6.548,-3.47244 10.5165,-9.32598 10.5165,-14.38582 0,-1.38898 -0.2976,-2.77796 -0.9921,-4.06772"
     id="path114"
     style="stroke-width:0.992126" />
  <path
     class="Note"
     d="m 2218.108,304.56678 c -1.7859,-3.27402 -5.5559,-5.05984 -10.1197,-5.05984 -3.3732,0 -7.0441,0.99212 -10.6158,2.87716 -6.548,3.47244 -10.5165,9.32599 -10.5165,14.38583 0,1.38898 0.2976,2.77795 0.9921,4.06772 1.7859,3.27401 5.5559,4.96063 10.1197,4.96063 3.3732,0 7.0441,-0.89292 10.6158,-2.77796 6.548,-3.47244 10.5165,-9.32598 10.5165,-14.38582 0,-1.38898 -0.2976,-2.77796 -0.9921,-4.06772"
     id="path116"
     style="stroke-width:0.992126" />
  <path
     class="Note"
     d="m 2274.778,316.96778 c -1.7859,-3.27402 -5.5559,-5.05984 -10.1197,-5.05984 -3.3732,0 -7.0441,0.99212 -10.6158,2.87716 -6.548,3.47244 -10.5165,9.32599 -10.5165,14.38583 0,1.38898 0.2976,2.77795 0.9921,4.06772 1.7859,3.27401 5.5559,4.96063 10.1197,4.96063 3.3732,0 7.0441,-0.89292 10.6158,-2.77796 6.548,-3.47244 10.5165,-9.32598 10.5165,-14.38582 0,-1.38898 -0.2976,-2.77796 -0.9921,-4.06772"
     id="path118"
     style="stroke-width:0.992126" />
  <path
     class="Clef"
     d="m 92.694182,319.1803 c -1.220315,-5.38732 -3.839528,-9.17715 -4.613386,-10.20906 -3.164882,-4.23637 -7.143307,-7.06393 -11.796378,-8.4033 -3.085512,-0.8829 -6.06189,-0.99213 -8.462835,-0.81355 -1.031811,-5.96267 -2.023937,-11.79628 -2.926771,-17.20336 5.407086,-6.12152 8.998582,-11.87585 11.26063,-16.14199 3.442677,-6.52809 4.583622,-11.07203 4.633228,-11.27045 1.706457,-5.16908 2.063622,-12.80845 0.972284,-20.9537 -1.002048,-7.49056 -3.075591,-14.14782 -5.407087,-17.37223 -1.02189,-1.41874 -2.063622,-2.14299 -3.095433,-2.14299 -1.210394,0 -3.70063,1.23023 -6.567874,3.97842 -2.28189,2.18268 -5.526142,6.04205 -8.065985,12.00473 -2.976378,7.00451 -3.184724,16.41968 -2.83748,23.08677 0.377008,7.21276 1.478268,12.85805 1.488189,12.90766 0.01984,0.0892 0.277795,1.57738 0.724252,4.12714 -0.228189,0.22819 -0.466299,0.44646 -0.714331,0.68467 -1.031811,0.99212 -2.212441,2.12305 -3.581575,3.49218 -0.853228,0.85333 -1.795748,1.75607 -2.787874,2.71843 -8.383464,8.076 -21.072756,20.2989 -21.072756,39.29811 0,4.66299 0.892913,9.04821 2.658878,13.02669 1.57752,3.57166 3.85941,6.82585 6.766319,9.67325 7.669134,7.49055 18.175748,10.67518 25.180158,10.51654 2.926772,-0.0695 5.536063,-0.30766 7.907244,-0.75412 1.815591,9.52441 2.946614,16.49906 2.986299,21.79701 0.03969,6.45874 -1.597322,10.39748 -5.466614,13.14567 -2.410866,1.71638 -5.19874,2.6589 -8.274331,2.80772 -2.569606,0.11905 -4.811811,-0.34725 -6.230551,-0.75392 h -0.0099 c 0,0 -0.287717,-0.0794 -0.297638,-0.2778 -0.0099,-0.17868 0.337323,-0.22828 0.347244,-0.22828 h 0.01984 c 1.904881,-0.43644 5.446771,-1.65675 7.788189,-4.93077 1.785826,-2.50016 2.648976,-7.08388 0.823464,-10.99286 -1.10126,-2.37108 -3.591496,-5.29785 -9.167244,-5.74431 -2.470394,-0.19842 -4.72252,0.30746 -6.706772,1.49801 -1.795748,1.0715 -3.283937,2.69859 -4.325669,4.68284 -2.44063,4.66299 -1.984252,10.34787 1.121102,14.15774 2.936693,3.59149 7.520315,5.8832 12.90756,6.45864 0.843307,0.0894 1.686614,0.12897 2.529921,0.12897 4.395118,0 8.760472,-1.19055 12.302362,-3.38315 3.631181,-2.54976 5.734488,-6.49842 6.409134,-12.08399 0.555591,-4.60356 0.168662,-10.46693 -1.220315,-18.47349 -0.357165,-2.07354 -0.892913,-5.07968 -1.547716,-8.80998 5.704724,-1.90498 9.831968,-5.44687 13.572283,-11.2508 3.264095,-5.69473 4.196693,-11.7467 2.777953,-17.99709 M 58.75357,345.164 c -4.603465,-1.21039 -8.998583,-3.69071 -12.728977,-7.16315 -1.299685,-1.22031 -3.154961,-3.37323 -4.613386,-6.73648 -1.359212,-3.13517 -2.014035,-6.53815 -1.964429,-10.09982 0.06947,-4.65311 1.369154,-9.4352 3.85939,-14.18738 2.897008,-5.53616 7.421102,-11.02262 13.433386,-16.31065 1.438583,-1.26982 2.797795,-2.53974 4.077638,-3.80976 0.754015,4.22655 1.57748,8.87952 2.450551,13.7212 -3.819685,1.2599 -8.532284,4.38509 -11.617796,9.99061 -3.512126,6.51828 -3.373228,11.99484 -2.648976,15.44742 0.932599,4.42494 3.442677,8.15529 6.875433,10.2289 0.922677,0.55549 5.020158,2.66872 6.84567,2.09328 0.367086,-0.11905 0.63496,-0.33732 0.773858,-0.66472 0.505984,-1.16079 -0.505984,-1.79565 -2.053701,-2.74819 -0.595275,-0.36701 -1.26,-0.78372 -1.984252,-1.30953 -3.293858,-2.47043 -4.732441,-6.88539 -3.670866,-11.23088 0.575433,-2.38111 1.845354,-4.52416 3.670866,-6.21077 1.656851,-1.5378 3.680788,-2.62914 6.042047,-3.264 2.023937,11.1514 4.067717,22.21361 5.694804,30.50788 0.128976,0.68447 0.267874,1.34919 0.39685,2.01391 -4.345512,0.92268 -8.66126,0.83349 -12.83811,-0.26787 m 11.230866,-32.91874 c 10.268504,-0.4663 14.504882,6.91518 15.387874,11.70713 0.466299,2.51006 0.456378,6.91513 -1.071496,11.09193 -1.160787,3.15496 -3.601417,7.19291 -8.691024,9.23679 -0.06945,-0.4167 -0.148819,-0.84331 -0.228189,-1.27002 -1.527874,-8.70087 -3.452598,-19.60437 -5.397165,-30.76583 m -7.262362,-70.38142 c 1.765984,-5.6947 4.484409,-8.91911 6.45874,-10.63549 1.73622,-1.50803 3.373228,-2.21254 4.285984,-2.21254 0.138898,0 0.257953,0.0198 0.357166,0.0496 0.456378,0.13889 0.982204,0.7045 1.448504,1.56765 2.291811,4.25613 1.557637,10.91339 0.228189,15.31833 -1.617166,5.35748 -4.514174,10.93323 -13.244883,20.46756 -0.168661,-1.10126 -0.327401,-2.14299 -0.47622,-3.11518 -1.240158,-8.22482 -0.922677,-15.43758 0.94252,-21.43994"
     id="path120"
     style="stroke-width:0.992126" />
  <path
     class="TimeSig"
     d="m 120.32377,288.08039 h 17.04469 v 7.36158 h -8.1652 c -0.77376,0 -1.3988,0.62504 -1.3988,1.3989 v 1.89496 c 0,0.77386 0.62504,1.39889 1.3988,1.39889 h 30.01181 c 0.77386,0 1.3989,-0.62503 1.3989,-1.39889 v -1.89496 c 0,-0.77386 -0.62504,-1.3989 -1.3989,-1.3989 h -8.8696 v -7.36158 h 8.8696 c 0.77386,0 1.3989,-0.62504 1.3989,-1.39889 v -1.89498 c 0,-0.77384 -0.62504,-1.39886 -1.3989,-1.39886 h -8.8696 v -15.83439 c 0,-0.53569 -0.29764,-1.01189 -0.77386,-1.25004 l -1.20038,-0.59528 c -0.52582,-0.25795 -1.15096,-0.16866 -1.57758,0.22817 l -8.97874,8.25451 c -0.28761,0.26789 -0.45628,0.635 -0.45628,1.03185 v 8.16518 h -11.41946 c 0,0 11.03244,-11.93526 22.77931,-27.58112 0.86315,-1.14095 0.36708,-2.18268 0.17848,-2.37119 l -2.15291,-2.19259 c -0.26788,-0.25796 -0.62504,-0.40678 -0.99213,-0.40678 -0.59527,0 -14.03858,0.0198 -14.75291,0 -0.71423,-0.0198 -1.25008,0.59528 -1.31953,1.2104 0,0 -0.53565,7.30204 -3.1152,15.36805 -2.57952,8.05608 -5.49641,12.99685 -8.13543,16.59825 0,0 -0.53579,0.98224 -0.17866,1.71638 0.34724,0.74409 0.97236,1.82551 0.97236,1.82551 0,0 0.25791,0.52582 1.10122,0.52582"
     id="path122"
     style="stroke-width:0.992126" />
  <path
     class="TimeSig"
     d="m 120.32377,337.42339 h 17.04469 v 7.36158 h -8.1652 c -0.77376,0 -1.3988,0.62504 -1.3988,1.3989 v 1.89496 c 0,0.77386 0.62504,1.39889 1.3988,1.39889 h 30.01181 c 0.77386,0 1.3989,-0.62503 1.3989,-1.39889 v -1.89496 c 0,-0.77386 -0.62504,-1.3989 -1.3989,-1.3989 h -8.8696 v -7.36158 h 8.8696 c 0.77386,0 1.3989,-0.62504 1.3989,-1.39889 v -1.89498 c 0,-0.77384 -0.62504,-1.39886 -1.3989,-1.39886 h -8.8696 v -15.83439 c 0,-0.53569 -0.29764,-1.01189 -0.77386,-1.25004 l -1.20038,-0.59528 c -0.52582,-0.25795 -1.15096,-0.16866 -1.57758,0.22817 l -8.97874,8.25451 c -0.28761,0.26789 -0.45628,0.635 -0.45628,1.03185 v 8.16518 h -11.41946 c 0,0 11.03244,-11.93526 22.77931,-27.58112 0.86315,-1.14095 0.36708,-2.18268 0.17848,-2.37119 l -2.15291,-2.19259 c -0.26788,-0.25796 -0.62504,-0.40678 -0.99213,-0.40678 -0.59527,0 -14.03858,0.0198 -14.75291,0 -0.71423,-0.0198 -1.25008,0.59528 -1.31953,1.2104 0,0 -0.53565,7.30204 -3.1152,15.36805 -2.57952,8.05608 -5.49641,12.99685 -8.13543,16.59825 0,0 -0.53579,0.98224 -0.17866,1.71638 0.34724,0.74409 0.97236,1.82551 0.97236,1.82551 0,0 0.25791,0.52582 1.10122,0.52582"
     id="path124"
     style="stroke-width:0.992126" />
  <path
     class="Beam"
     fill-rule="evenodd"
     d="m 279.404,251.057 57.219,-13.022 v 12.719 l -57.219,13.022 v -12.719"
     id="path126" />
  <path
     class="Beam"
     fill-rule="evenodd"
     d="m 358.877,349.708 71.72,-12.892 v 12.601 l -71.72,12.892 v -12.601"
     id="path128" />
  <path
     class="Beam"
     fill-rule="evenodd"
     d="m 482.359,318.764 57.219,6.511 v 12.481 l -57.219,-6.511 v -12.481"
     id="path130" />
  <path
     class="Beam"
     fill-rule="evenodd"
     d="m 591.34,349.808 h 75.789 v 12.401 H 591.34 v -12.401"
     id="path132" />
  <path
     class="Beam"
     fill-rule="evenodd"
     d="m 917.716,343.498 134.66,25.316 v 12.619 l -134.66,-25.316 v -12.619"
     id="path134" />
  <path
     class="Beam"
     fill-rule="evenodd"
     d="m 1211.086,238.598 134.65,-25.316 V 225.9 l -134.65,25.317 v -12.619"
     id="path136" />
  <path
     class="Beam"
     fill-rule="evenodd"
     d="m 2029.966,218.317 75.79,25.73 v 13.096 l -75.79,-25.729 v -13.097"
     id="path138" />
  <path
     class="Beam"
     fill-rule="evenodd"
     d="m 2159.696,244.656 59.4,-6.5 v 12.476 l -59.4,6.499 v -12.475"
     id="path140" />
  <path
     class="Hook"
     d="m 1478.4084,235.46544 c -0.099,-0.29764 -0.9921,-3.77008 -0.9921,-3.9685 -0.099,-0.39685 -0.6945,-0.69449 -1.1905,-0.69449 -0.6945,0 -1.2898,0.59527 -1.2898,1.28976 v 16.27087 6.15118 c 0,0.49606 0.3969,0.89291 0.7937,1.09134 4.1669,1.28976 12.7984,6.74646 19.2472,17.75905 1.7859,3.07559 4.663,7.24252 4.663,15.57638 0,7.14331 -1.0913,14.68347 -2.8771,21.62835 -0.2977,1.09134 -0.5953,2.08346 0.496,2.48031 1.0914,0.39685 1.4882,-0.39685 1.8851,-1.38897 3.5716,-8.73071 4.4645,-17.85827 4.4645,-24.00945 v -1.88504 c -0.496,-12.79843 -7.8378,-22.22362 -7.8378,-22.22362 0.2977,0 -9.1275,-12.20315 -11.8063,-16.37008 -3.6708,-5.65512 -5.4566,-11.31024 -5.5559,-11.70709"
     id="path142"
     style="stroke-width:0.992126" />
  <path
     class="Hook"
     d="m 1834.3063,387.40885 c 0,-0.19842 0.8929,-3.57165 0.9921,-3.86929 0.099,-0.39685 1.8851,-6.05197 5.5559,-11.70709 2.6788,-4.16693 12.104,-16.37008 11.8063,-16.37008 0,0 7.3418,-9.42519 7.8378,-22.22362 v -2.28189 c 0,-6.05197 -0.7937,-14.58425 -4.2661,-23.21575 -0.3969,-0.99212 -0.7937,-1.98425 -1.885,-1.5874 -1.0914,0.39685 -0.7937,1.5874 -0.4961,2.67874 1.7858,6.94488 2.778,14.08819 2.778,21.2315 0,8.33386 -2.9764,12.50079 -4.7623,15.57638 -6.548,11.01259 -15.0803,16.37007 -19.2472,17.75905 -0.4961,0.19843 -0.7937,0.59528 -0.7937,1.09134 v 6.15118 16.27087 c 0,0.69449 0.5953,1.28976 1.2898,1.28976 0.496,0 1.0913,-0.39685 1.1905,-0.7937"
     id="path144"
     style="stroke-width:0.992126" />
  <path
     class="Hook"
     d="m 2276.5084,244.76644 c -0.099,-0.29764 -0.9921,-3.77008 -0.9921,-3.9685 -0.099,-0.39685 -0.6945,-0.69449 -1.1905,-0.69449 -0.6945,0 -1.2898,0.59527 -1.2898,1.28976 v 16.27087 6.15118 c 0,0.49606 0.3969,0.89291 0.7937,1.09134 4.1669,1.28976 12.7984,6.74646 19.2472,17.75905 1.7859,3.07559 4.663,7.24252 4.663,15.57638 0,7.14331 -1.0913,14.68347 -2.8771,21.62835 -0.2977,1.09134 -0.5953,2.08346 0.496,2.48031 1.0914,0.39685 1.4882,-0.39685 1.8851,-1.38897 3.5716,-8.73071 4.4645,-17.85827 4.4645,-24.00945 v -1.88504 c -0.496,-12.79843 -7.8378,-22.22362 -7.8378,-22.22362 0.2977,0 -9.1275,-12.20315 -11.8063,-16.37008 -3.6708,-5.65512 -5.4566,-11.31024 -5.5559,-11.70709"
     id="path146"
     style="stroke-width:0.992126" />
  <path
     class="Lyrics"
     d="m 106.172,483.905 v -37.696 h 5.664 c 2.522,0 4.532,0.196 6.03,0.586 1.514,0.391 2.791,1.05 3.833,1.978 1.058,0.96 1.896,2.156 2.515,3.589 0.634,1.448 0.952,2.913 0.952,4.394 0,2.702 -1.034,4.989 -3.101,6.86 2.002,0.684 3.581,1.88 4.736,3.589 1.172,1.693 1.758,3.662 1.758,5.909 0,2.945 -1.041,5.436 -3.125,7.47 -1.253,1.253 -2.661,2.124 -4.223,2.613 -1.709,0.472 -3.85,0.708 -6.421,0.708 h -8.618 m 5.688,-21.509 h 1.782 c 2.116,0 3.666,-0.468 4.651,-1.404 0.985,-0.936 1.477,-2.315 1.477,-4.138 0,-1.774 -0.504,-3.121 -1.513,-4.041 -1.01,-0.919 -2.474,-1.379 -4.395,-1.379 h -2.002 v 10.962 m 0,16.162 h 3.516 c 2.571,0 4.459,-0.505 5.664,-1.514 1.269,-1.09 1.904,-2.474 1.904,-4.15 0,-1.628 -0.61,-2.995 -1.831,-4.102 -1.188,-1.09 -3.312,-1.636 -6.372,-1.636 h -2.881 v 11.402"
     id="path148" />
  <path
     class="Lyrics"
     d="m 150.867,467.405 c 0,-4.05 -2.45,-6.65 -5.45,-6.65 -4.25,0 -5.9,2.5 -6.6,4.5 v -15.45 h -2.95 v 31.3 c 6.3,-0.35 15,-3.1 15,-13.7 m -3.6,1.75 c 0,6.85 -4.75,9.35 -8.45,9.6 v -10.05 c 0,-2.2 1.6,-5.55 5.15,-5.55 2.05,0 3.35,2.65 3.35,6 h -0.05"
     id="path150" />
  <path
     class="Lyrics"
     d="m 174.403,442.669 h 5.493 v 19.434 c 1.953,-1.758 4.11,-2.637 6.47,-2.637 2.685,0 4.834,0.871 6.445,2.612 1.367,1.514 2.051,3.931 2.051,7.251 v 14.576 h -5.493 v -14.063 c 0,-1.904 -0.338,-3.284 -1.013,-4.138 -0.676,-0.855 -1.762,-1.282 -3.26,-1.282 -1.92,0 -3.271,0.594 -4.052,1.782 -0.765,1.205 -1.148,3.272 -1.148,6.201 v 11.5 h -5.493 v -41.236 m 44.936,17.456 h 5.517 v 23.78 h -5.517 v -2.491 c -2.263,2.116 -4.696,3.174 -7.3,3.174 -3.288,0 -6.006,-1.188 -8.155,-3.564 -2.132,-2.425 -3.198,-5.453 -3.198,-9.082 0,-3.565 1.066,-6.535 3.198,-8.912 2.133,-2.376 4.802,-3.564 8.008,-3.564 2.767,0 5.249,1.139 7.447,3.418 v -2.759 m -13.038,11.817 c 0,2.278 0.611,4.134 1.831,5.566 1.254,1.449 2.833,2.173 4.737,2.173 2.034,0 3.678,-0.7 4.931,-2.1 1.254,-1.448 1.88,-3.287 1.88,-5.517 0,-2.23 -0.626,-4.069 -1.88,-5.518 -1.253,-1.416 -2.88,-2.124 -4.882,-2.124 -1.888,0 -3.467,0.716 -4.737,2.149 -1.253,1.448 -1.88,3.238 -1.88,5.371 m 25.477,-11.817 h 5.493 v 2.124 c 1.009,-1.058 1.904,-1.782 2.686,-2.173 0.797,-0.407 1.741,-0.61 2.832,-0.61 1.448,0 2.962,0.472 4.541,1.416 l -2.515,5.029 c -1.042,-0.748 -2.059,-1.123 -3.052,-1.123 -2.994,0 -4.492,2.263 -4.492,6.787 v 12.33 h -5.493 v -23.78 m 19.453,0 h 5.493 v 2.197 c 1.058,-1.106 1.962,-1.855 2.71,-2.246 0.798,-0.407 1.799,-0.61 3.003,-0.61 2.686,0 4.81,1.172 6.372,3.516 1.726,-2.344 4.061,-3.516 7.007,-3.516 5.355,0 8.032,3.247 8.032,9.741 v 14.698 h -5.517 v -13.208 c 0,-2.279 -0.277,-3.89 -0.83,-4.834 -0.57,-0.961 -1.506,-1.441 -2.808,-1.441 -1.514,0 -2.616,0.57 -3.308,1.709 -0.692,1.139 -1.038,2.97 -1.038,5.493 v 12.281 H 264.83 V 470.77 c 0,-4.232 -1.221,-6.348 -3.662,-6.348 -1.547,0 -2.674,0.578 -3.382,1.733 -0.708,1.156 -1.062,2.979 -1.062,5.469 v 12.281 h -5.493 v -23.78 m 36.08,9.302 H 298.2 v 4.785 h -10.889 v -4.785 m 14.342,-9.302 h 5.493 v 2.197 c 1.058,-1.106 1.961,-1.855 2.71,-2.246 0.798,-0.407 1.799,-0.61 3.003,-0.61 2.686,0 4.81,1.172 6.372,3.516 1.725,-2.344 4.061,-3.516 7.007,-3.516 5.355,0 8.032,3.247 8.032,9.741 v 14.698 h -5.517 v -13.208 c 0,-2.279 -0.277,-3.89 -0.83,-4.834 -0.57,-0.961 -1.506,-1.441 -2.808,-1.441 -1.514,0 -2.616,0.57 -3.308,1.709 -0.692,1.139 -1.038,2.97 -1.038,5.493 v 12.281 h -5.517 V 470.77 c 0,-4.232 -1.221,-6.348 -3.662,-6.348 -1.547,0 -2.674,0.578 -3.382,1.733 -0.708,1.156 -1.062,2.979 -1.062,5.469 v 12.281 h -5.493 v -23.78 m 45.04,0 v 23.78 H 341.2 v -23.78 h 5.493 m -6.323,-9.887 c 0,-0.961 0.35,-1.791 1.05,-2.491 0.699,-0.7 1.538,-1.05 2.514,-1.05 0.993,0 1.839,0.35 2.539,1.05 0.7,0.684 1.05,1.522 1.05,2.515 0,0.993 -0.35,1.839 -1.05,2.539 -0.683,0.7 -1.522,1.05 -2.514,1.05 -0.993,0 -1.84,-0.35 -2.539,-1.05 -0.7,-0.7 -1.05,-1.554 -1.05,-2.563 m 13.267,9.887 h 5.518 v 2.197 c 1.921,-1.904 4.085,-2.856 6.494,-2.856 2.767,0 4.924,0.871 6.47,2.612 1.334,1.481 2.002,3.898 2.002,7.251 v 14.576 h -5.518 v -13.282 c 0,-2.343 -0.325,-3.963 -0.976,-4.858 -0.635,-0.912 -1.791,-1.367 -3.467,-1.367 -1.823,0 -3.117,0.602 -3.882,1.806 -0.749,1.188 -1.123,3.264 -1.123,6.226 v 11.475 h -5.518 v -23.78 m 26.284,11.719 c 0,-3.434 1.228,-6.356 3.686,-8.765 2.458,-2.409 5.453,-3.613 8.984,-3.613 3.549,0 6.56,1.213 9.034,3.638 2.441,2.425 3.662,5.403 3.662,8.935 0,3.565 -1.229,6.551 -3.687,8.96 -2.474,2.393 -5.509,3.589 -9.106,3.589 -3.565,0 -6.551,-1.221 -8.96,-3.662 -2.409,-2.409 -3.613,-5.436 -3.613,-9.082 m 5.615,0.098 c 0,2.376 0.635,4.256 1.904,5.639 1.302,1.4 3.019,2.1 5.151,2.1 2.149,0 3.866,-0.692 5.152,-2.075 1.286,-1.384 1.929,-3.231 1.929,-5.542 0,-2.312 -0.643,-4.159 -1.929,-5.542 -1.302,-1.4 -3.019,-2.1 -5.152,-2.1 -2.099,0 -3.8,0.7 -5.102,2.1 -1.302,1.399 -1.953,3.206 -1.953,5.42 m 25.554,-11.817 h 5.494 v 2.124 c 1.009,-1.058 1.904,-1.782 2.685,-2.173 0.798,-0.407 1.742,-0.61 2.832,-0.61 1.449,0 2.962,0.472 4.541,1.416 l -2.514,5.029 c -1.042,-0.748 -2.059,-1.123 -3.052,-1.123 -2.995,0 -4.492,2.263 -4.492,6.787 v 12.33 h -5.494 v -23.78"
     id="path152" />
  <path
     class="Lyrics"
     d="m 18.424,509.383 5.078,1.953 c -1.774,4.248 -3.019,8.17 -3.735,11.767 -0.358,1.823 -0.627,3.74 -0.806,5.75 -0.179,2.01 -0.269,4.203 -0.269,6.579 0,2.393 0.09,4.594 0.269,6.604 0.179,2.01 0.448,3.927 0.806,5.75 0.699,3.581 1.945,7.495 3.735,11.743 l -5.078,1.953 c -3.548,-7.438 -5.322,-16.121 -5.322,-26.05 0,-9.928 1.774,-18.611 5.322,-26.049 m 28.087,2.636 4.175,3.125 -9.009,12.256 c 0.488,-0.065 0.903,-0.114 1.245,-0.146 0.342,-0.033 0.61,-0.049 0.806,-0.049 3.059,0 5.704,1.172 7.934,3.515 2.214,2.312 3.32,5.095 3.32,8.35 0,3.451 -1.237,6.413 -3.711,8.887 -2.457,2.457 -5.411,3.686 -8.862,3.686 -3.418,0 -6.413,-1.212 -8.984,-3.637 -2.523,-2.426 -3.784,-5.298 -3.784,-8.619 0,-2.978 1.228,-6.136 3.686,-9.472 l 13.184,-17.896 m 2.929,27.417 c 0,-2.002 -0.691,-3.694 -2.075,-5.078 -1.4,-1.4 -3.084,-2.099 -5.053,-2.099 -1.986,0 -3.671,0.691 -5.054,2.075 -1.384,1.383 -2.075,3.06 -2.075,5.029 0,1.969 0.691,3.646 2.075,5.029 1.383,1.384 3.076,2.076 5.078,2.076 1.953,0 3.621,-0.692 5.005,-2.076 1.4,-1.399 2.099,-3.051 2.099,-4.956 m 15.162,4.541 4.882,1.905 -6.958,13.94 -3.711,-1.538 5.787,-14.307"
     id="path154" />
  <path
     class="Lyrics"
     d="m 104.723,511.873 10.547,10.547 h -8.741 v 28.613 h -3.613 V 522.42 h -8.74 l 10.547,-10.547"
     id="path156" />
  <path
     class="Lyrics"
     d="m 127.695,543.977 4.883,1.905 -6.958,13.94 -3.711,-1.538 5.786,-14.307 m 36.508,1.709 h 14.038 v 5.347 h -25.317 l 13.086,-15.845 c 1.286,-1.579 2.364,-2.946 3.235,-4.101 0.87,-1.156 1.534,-2.124 1.989,-2.906 0.928,-1.53 1.392,-2.905 1.392,-4.126 0,-1.757 -0.619,-3.23 -1.856,-4.419 -1.236,-1.188 -2.766,-1.782 -4.589,-1.782 -3.809,0 -5.99,2.254 -6.543,6.763 h -5.664 c 0.911,-7.943 4.923,-11.914 12.036,-11.914 3.434,0 6.315,1.09 8.642,3.271 2.344,2.181 3.516,4.883 3.516,8.106 0,2.051 -0.545,4.061 -1.636,6.03 -0.553,1.025 -1.363,2.242 -2.429,3.65 -1.066,1.408 -2.413,3.072 -4.041,4.993 l -5.859,6.933 m 25.195,-1.709 4.883,1.905 -6.958,13.94 -3.711,-1.538 5.786,-14.307 m 48.642,-3.467 h 4.004 v 5.176 h -4.004 v 5.347 h -5.688 v -5.347 H 213.846 L 238.04,510.53 v 29.98 m -5.688,0 v -12.622 l -8.692,12.622 h 8.692 m 18.75,3.467 4.882,1.905 -6.958,13.94 -3.711,-1.538 5.787,-14.307"
     id="path158" />
  <path
     class="Lyrics"
     d="m 291.223,511.873 10.547,10.547 h -8.741 v 28.613 h -3.613 V 522.42 h -8.74 l 10.547,-10.547"
     id="path160" />
  <path
     class="Lyrics"
     d="m 314.195,543.977 4.883,1.905 -6.958,13.94 -3.711,-1.538 5.786,-14.307"
     id="path162" />
  <path
     class="Lyrics"
     d="m 354.316,554.06 10.547,-10.547 h -8.74 V 514.9 h -3.613 v 28.613 h -8.74 l 10.546,10.547"
     id="path164" />
  <path
     class="Lyrics"
     d="m 377.289,543.977 4.883,1.905 -6.958,13.94 -3.711,-1.538 5.786,-14.307 m 36.508,1.709 h 14.038 v 5.347 h -25.317 l 13.085,-15.845 c 1.286,-1.579 2.365,-2.946 3.235,-4.101 0.871,-1.156 1.534,-2.124 1.99,-2.906 0.928,-1.53 1.392,-2.905 1.392,-4.126 0,-1.757 -0.619,-3.23 -1.856,-4.419 -1.237,-1.188 -2.767,-1.782 -4.59,-1.782 -3.808,0 -5.989,2.254 -6.543,6.763 h -5.664 c 0.912,-7.943 4.924,-11.914 12.036,-11.914 3.435,0 6.316,1.09 8.643,3.271 2.344,2.181 3.516,4.883 3.516,8.106 0,2.051 -0.546,4.061 -1.636,6.03 -0.553,1.025 -1.363,2.242 -2.429,3.65 -1.066,1.408 -2.413,3.072 -4.041,4.993 l -5.859,6.933 m 25.195,-1.709 4.883,1.905 -6.958,13.94 -3.711,-1.538 5.786,-14.307"
     id="path166" />
  <path
     class="Lyrics"
     d="m 479.113,511.873 10.547,10.547 h -8.74 v 28.613 h -3.613 V 522.42 h -8.741 l 10.547,-10.547"
     id="path168" />
  <path
     class="Lyrics"
     d="m 503.697,561.482 -5.078,-1.953 c 1.79,-4.248 3.036,-8.162 3.735,-11.743 0.733,-3.581 1.099,-7.699 1.099,-12.354 0,-4.622 -0.366,-8.732 -1.099,-12.329 -0.716,-3.597 -1.961,-7.519 -3.735,-11.767 l 5.078,-1.953 c 3.548,7.438 5.323,16.121 5.323,26.049 0,9.929 -1.775,18.612 -5.323,26.05"
     id="path170" />
  <path
     class="Lyrics"
     d="m 794.926,464.276 h 15.58 v 1.245 c 0,2.832 -0.34,5.338 -1,7.519 -0.66,2.018 -1.75,3.907 -3.3,5.664 -3.5,3.939 -7.95,5.909 -13.35,5.909 -5.28,0 -9.79,-1.905 -13.55,-5.713 -3.76,-3.825 -5.64,-8.415 -5.64,-13.77 0,-5.469 1.91,-10.107 5.73,-13.916 3.83,-3.825 8.48,-5.737 13.97,-5.737 2.94,0 5.69,0.602 8.25,1.806 2.44,1.205 4.84,3.158 7.2,5.86 l -4.05,3.882 c -3.09,-4.118 -6.86,-6.177 -11.3,-6.177 -3.99,0 -7.34,1.375 -10.04,4.126 -2.7,2.702 -4.05,6.087 -4.05,10.156 0,4.199 1.5,7.658 4.52,10.376 2.81,2.523 5.86,3.784 9.15,3.784 2.8,0 5.32,-0.944 7.54,-2.832 2.23,-1.904 3.48,-4.183 3.74,-6.836 h -9.4 v -5.346 m 37.1,-4.151 h 5.49 v 2.197 c 1.06,-1.106 1.96,-1.855 2.71,-2.246 0.8,-0.407 1.8,-0.61 3,-0.61 2.69,0 4.81,1.172 6.38,3.516 1.72,-2.344 4.06,-3.516 7,-3.516 5.36,0 8.03,3.247 8.03,9.741 v 14.698 h -5.51 v -13.208 c 0,-2.279 -0.28,-3.89 -0.83,-4.834 -0.57,-0.961 -1.51,-1.441 -2.81,-1.441 -1.51,0 -2.62,0.57 -3.31,1.709 -0.69,1.139 -1.04,2.97 -1.04,5.493 v 12.281 h -5.51 V 470.77 c 0,-4.232 -1.22,-6.348 -3.67,-6.348 -1.54,0 -2.67,0.578 -3.38,1.733 -0.71,1.156 -1.06,2.979 -1.06,5.469 v 12.281 h -5.49 v -23.78 m 45.04,0 v 23.78 h -5.5 v -23.78 h 5.5 m -6.33,-9.887 c 0,-0.961 0.35,-1.791 1.05,-2.491 0.7,-0.7 1.54,-1.05 2.52,-1.05 0.99,0 1.84,0.35 2.54,1.05 0.7,0.684 1.05,1.522 1.05,2.515 0,0.993 -0.35,1.839 -1.05,2.539 -0.69,0.7 -1.52,1.05 -2.52,1.05 -0.99,0 -1.84,-0.35 -2.54,-1.05 -0.7,-0.7 -1.05,-1.554 -1.05,-2.563 m 13.27,9.887 h 5.52 v 2.197 c 1.92,-1.904 4.08,-2.856 6.49,-2.856 2.77,0 4.93,0.871 6.47,2.612 1.34,1.481 2.01,3.898 2.01,7.251 v 14.576 h -5.52 v -13.282 c 0,-2.343 -0.33,-3.963 -0.98,-4.858 -0.63,-0.912 -1.79,-1.367 -3.47,-1.367 -1.82,0 -3.11,0.602 -3.88,1.806 -0.75,1.188 -1.12,3.264 -1.12,6.226 v 11.475 h -5.52 v -23.78 m 26.29,11.719 c 0,-3.434 1.22,-6.356 3.68,-8.765 2.46,-2.409 5.45,-3.613 8.99,-3.613 3.54,0 6.56,1.213 9.03,3.638 2.44,2.425 3.66,5.403 3.66,8.935 0,3.565 -1.23,6.551 -3.69,8.96 -2.47,2.393 -5.5,3.589 -9.1,3.589 -3.57,0 -6.55,-1.221 -8.96,-3.662 -2.41,-2.409 -3.61,-5.436 -3.61,-9.082 m 5.61,0.098 c 0,2.376 0.64,4.256 1.9,5.639 1.31,1.4 3.02,2.1 5.16,2.1 2.14,0 3.86,-0.692 5.15,-2.075 1.28,-1.384 1.93,-3.231 1.93,-5.542 0,-2.312 -0.65,-4.159 -1.93,-5.542 -1.3,-1.4 -3.02,-2.1 -5.15,-2.1 -2.1,0 -3.8,0.7 -5.11,2.1 -1.3,1.399 -1.95,3.206 -1.95,5.42 m 25.55,-11.817 h 5.5 v 2.124 c 1.01,-1.058 1.9,-1.782 2.68,-2.173 0.8,-0.407 1.75,-0.61 2.84,-0.61 1.44,0 2.96,0.472 4.54,1.416 l -2.52,5.029 c -1.04,-0.748 -2.06,-1.123 -3.05,-1.123 -2.99,0 -4.49,2.263 -4.49,6.787 v 12.33 h -5.5 v -23.78 m 14.66,9.302 h 10.89 v 4.785 h -10.89 v -4.785 m 32.85,-8.276 v 7.299 c -1.25,-1.53 -2.38,-2.579 -3.37,-3.149 -0.97,-0.586 -2.12,-0.879 -3.44,-0.879 -2.07,0 -3.78,0.724 -5.15,2.173 -1.37,1.449 -2.05,3.263 -2.05,5.444 0,2.23 0.66,4.061 1.97,5.493 1.34,1.433 3.04,2.149 5.11,2.149 1.32,0 2.48,-0.285 3.49,-0.855 0.98,-0.553 2.12,-1.627 3.44,-3.222 v 7.251 c -2.23,1.155 -4.46,1.733 -6.69,1.733 -3.68,0 -6.75,-1.188 -9.23,-3.564 -2.47,-2.393 -3.71,-5.363 -3.71,-8.911 0,-3.549 1.26,-6.543 3.76,-8.985 2.51,-2.441 5.58,-3.662 9.23,-3.662 2.34,0 4.56,0.562 6.64,1.685 m 6.6,-18.482 h 5.5 v 19.434 c 1.95,-1.758 4.11,-2.637 6.47,-2.637 2.68,0 4.83,0.871 6.44,2.612 1.37,1.514 2.05,3.931 2.05,7.251 v 14.576 h -5.49 v -14.063 c 0,-1.904 -0.34,-3.284 -1.01,-4.138 -0.68,-0.855 -1.76,-1.282 -3.26,-1.282 -1.92,0 -3.27,0.594 -4.06,1.782 -0.76,1.205 -1.14,3.272 -1.14,6.201 v 11.5 h -5.5 v -41.236 m 26.29,29.175 c 0,-3.434 1.23,-6.356 3.68,-8.765 2.46,-2.409 5.46,-3.613 8.99,-3.613 3.55,0 6.56,1.213 9.03,3.638 2.44,2.425 3.66,5.403 3.66,8.935 0,3.565 -1.23,6.551 -3.68,8.96 -2.48,2.393 -5.51,3.589 -9.11,3.589 -3.56,0 -6.55,-1.221 -8.96,-3.662 -2.41,-2.409 -3.61,-5.436 -3.61,-9.082 m 5.61,0.098 c 0,2.376 0.64,4.256 1.91,5.639 1.3,1.4 3.02,2.1 5.15,2.1 2.15,0 3.86,-0.692 5.15,-2.075 1.29,-1.384 1.93,-3.231 1.93,-5.542 0,-2.312 -0.64,-4.159 -1.93,-5.542 -1.3,-1.4 -3.02,-2.1 -5.15,-2.1 -2.1,0 -3.8,0.7 -5.1,2.1 -1.31,1.399 -1.96,3.206 -1.96,5.42 m 25.56,-11.817 h 5.49 v 2.124 c 1.01,-1.058 1.9,-1.782 2.69,-2.173 0.79,-0.407 1.74,-0.61 2.83,-0.61 1.45,0 2.96,0.472 4.54,1.416 l -2.52,5.029 c -1.04,-0.748 -2.05,-1.123 -3.05,-1.123 -2.99,0 -4.49,2.263 -4.49,6.787 v 12.33 h -5.49 v -23.78 m 35.89,-17.456 h 5.51 v 41.236 h -5.51 v -2.491 c -2.17,2.116 -4.62,3.174 -7.35,3.174 -3.26,0 -5.96,-1.188 -8.11,-3.564 -2.13,-2.425 -3.2,-5.453 -3.2,-9.082 0,-3.549 1.07,-6.511 3.2,-8.887 2.12,-2.393 4.78,-3.589 7.99,-3.589 2.78,0 5.27,1.139 7.47,3.418 v -20.215 m -13.04,29.273 c 0,2.278 0.61,4.134 1.83,5.566 1.25,1.449 2.83,2.173 4.74,2.173 2.03,0 3.67,-0.7 4.93,-2.1 1.25,-1.448 1.88,-3.287 1.88,-5.517 0,-2.23 -0.63,-4.069 -1.88,-5.518 -1.26,-1.416 -2.88,-2.124 -4.88,-2.124 -1.89,0 -3.47,0.716 -4.74,2.149 -1.25,1.448 -1.88,3.238 -1.88,5.371"
     id="path172" />
  <path
     class="Lyrics"
     d="m 797.546,509.383 5.08,1.953 c -1.78,4.248 -3.02,8.17 -3.74,11.767 -0.36,1.823 -0.62,3.74 -0.8,5.75 -0.18,2.01 -0.27,4.203 -0.27,6.579 0,2.393 0.09,4.594 0.27,6.604 0.18,2.01 0.44,3.927 0.8,5.75 0.7,3.581 1.95,7.495 3.74,11.743 l -5.08,1.953 c -3.55,-7.438 -5.32,-16.121 -5.32,-26.05 0,-9.928 1.77,-18.611 5.32,-26.049 m 21.4,24.145 v -4.858 c 2.41,0 4.02,-0.269 4.85,-0.806 1.49,-0.944 2.23,-2.458 2.23,-4.541 0,-1.611 -0.54,-2.922 -1.61,-3.931 -1.06,-1.025 -2.44,-1.538 -4.13,-1.538 -1.58,0 -2.8,0.383 -3.66,1.148 -0.83,0.781 -1.45,2.099 -1.86,3.955 h -5.66 c 0.58,-3.548 1.79,-6.148 3.61,-7.801 1.82,-1.652 4.37,-2.478 7.64,-2.478 3.31,0 6,0.977 8.08,2.93 2.09,1.937 3.13,4.435 3.13,7.495 0,3.451 -1.37,6.136 -4.1,8.057 3.12,1.839 4.68,4.826 4.68,8.96 0,3.385 -1.13,6.152 -3.41,8.301 -2.28,2.148 -5.2,3.222 -8.77,3.222 -4.54,0 -7.91,-1.668 -10.11,-5.005 -0.91,-1.399 -1.48,-3.336 -1.73,-5.81 h 5.49 c 0.3,1.823 1.01,3.218 2.14,4.187 1.13,0.968 2.61,1.453 4.43,1.453 1.84,0 3.36,-0.611 4.57,-1.832 1.2,-1.253 1.8,-2.84 1.8,-4.76 0,-2.539 -0.9,-4.346 -2.71,-5.42 -1.05,-0.619 -2.69,-0.928 -4.9,-0.928 m 24.78,10.449 4.88,1.905 -6.96,13.94 -3.71,-1.538 5.79,-14.307 m 32.94,-34.179 v 41.235 h -5.49 v -41.235 h 5.49 m 5.82,29.174 c 0,-3.434 1.23,-6.355 3.69,-8.764 2.46,-2.409 5.45,-3.614 8.98,-3.614 3.55,0 6.56,1.213 9.04,3.638 2.44,2.425 3.66,5.404 3.66,8.936 0,3.564 -1.23,6.551 -3.69,8.96 -2.47,2.392 -5.51,3.589 -9.11,3.589 -3.56,0 -6.55,-1.221 -8.96,-3.663 -2.4,-2.408 -3.61,-5.436 -3.61,-9.082 m 5.62,0.098 c 0,2.376 0.63,4.256 1.9,5.64 1.3,1.399 3.02,2.099 5.15,2.099 2.15,0 3.87,-0.691 5.15,-2.075 1.29,-1.383 1.93,-3.231 1.93,-5.542 0,-2.311 -0.64,-4.158 -1.93,-5.542 -1.3,-1.4 -3.02,-2.099 -5.15,-2.099 -2.1,0 -3.8,0.699 -5.1,2.099 -1.3,1.4 -1.95,3.207 -1.95,5.42 m 24.43,-0.098 c 0,-3.434 1.23,-6.355 3.68,-8.764 2.46,-2.409 5.46,-3.614 8.99,-3.614 3.55,0 6.56,1.213 9.03,3.638 2.44,2.425 3.66,5.404 3.66,8.936 0,3.564 -1.22,6.551 -3.68,8.96 -2.48,2.392 -5.51,3.589 -9.11,3.589 -3.56,0 -6.55,-1.221 -8.96,-3.663 -2.41,-2.408 -3.61,-5.436 -3.61,-9.082 m 5.61,0.098 c 0,2.376 0.64,4.256 1.91,5.64 1.3,1.399 3.02,2.099 5.15,2.099 2.15,0 3.86,-0.691 5.15,-2.075 1.29,-1.383 1.93,-3.231 1.93,-5.542 0,-2.311 -0.64,-4.158 -1.93,-5.542 -1.3,-1.4 -3.02,-2.099 -5.15,-2.099 -2.1,0 -3.8,0.699 -5.1,2.099 -1.31,1.4 -1.96,3.207 -1.96,5.42 m 31.05,24.902 h -5.49 v -36.718 h 5.49 v 2.588 c 2.17,-2.165 4.62,-3.248 7.37,-3.248 3.28,0 5.97,1.205 8.09,3.614 2.14,2.392 3.22,5.412 3.22,9.057 0,3.565 -1.07,6.535 -3.2,8.912 -2.12,2.36 -4.79,3.54 -8.01,3.54 -2.78,0 -5.27,-1.115 -7.47,-3.345 v 15.6 m 13.06,-24.682 c 0,-2.279 -0.62,-4.134 -1.85,-5.567 -1.26,-1.448 -2.83,-2.172 -4.74,-2.172 -2.02,0 -3.65,0.699 -4.91,2.099 -1.25,1.4 -1.88,3.239 -1.88,5.518 0,2.23 0.63,4.069 1.88,5.517 1.24,1.416 2.87,2.124 4.89,2.124 1.9,0 3.47,-0.716 4.71,-2.148 1.27,-1.432 1.9,-3.223 1.9,-5.371 m 35.9,6.396 h 14.03 v 5.347 h -25.31 l 13.08,-15.845 c 1.29,-1.579 2.37,-2.946 3.24,-4.101 0.87,-1.156 1.53,-2.124 1.99,-2.906 0.93,-1.53 1.39,-2.905 1.39,-4.126 0,-1.757 -0.62,-3.23 -1.86,-4.419 -1.23,-1.188 -2.76,-1.782 -4.59,-1.782 -3.8,0 -5.99,2.254 -6.54,6.763 h -5.66 c 0.91,-7.943 4.92,-11.914 12.03,-11.914 3.44,0 6.32,1.09 8.65,3.271 2.34,2.181 3.51,4.883 3.51,8.106 0,2.051 -0.54,4.061 -1.63,6.03 -0.56,1.025 -1.37,2.242 -2.43,3.65 -1.07,1.408 -2.42,3.072 -4.04,4.993 l -5.86,6.933"
     id="path174" />
  <path
     class="Lyrics"
     d="m 1048.046,554.06 10.55,-10.547 h -8.74 V 514.9 h -3.62 v 28.613 h -8.74 l 10.55,10.547"
     id="path176" />
  <path
     class="Lyrics"
     d="m 1072.626,561.482 -5.07,-1.953 c 1.79,-4.248 3.03,-8.162 3.73,-11.743 0.73,-3.581 1.1,-7.699 1.1,-12.354 0,-4.622 -0.37,-8.732 -1.1,-12.329 -0.71,-3.597 -1.96,-7.519 -3.73,-11.767 l 5.07,-1.953 c 3.55,7.438 5.33,16.121 5.33,26.049 0,9.929 -1.78,18.612 -5.33,26.05"
     id="path178" />
  <path
     class="Lyrics"
     d="m 1193.546,448.236 v 6.738 c -3.29,-2.751 -6.69,-4.126 -10.2,-4.126 -3.88,0 -7.14,1.391 -9.79,4.175 -2.67,2.767 -4.01,6.152 -4.01,10.156 0,3.955 1.34,7.292 4.01,10.01 2.67,2.718 5.94,4.077 9.81,4.077 2,0 3.7,-0.326 5.1,-0.977 0.79,-0.325 1.6,-0.765 2.43,-1.318 0.84,-0.553 1.72,-1.221 2.65,-2.002 v 6.86 c -3.25,1.84 -6.67,2.759 -10.25,2.759 -5.39,0 -9.99,-1.88 -13.8,-5.64 -3.79,-3.792 -5.68,-8.365 -5.68,-13.72 0,-4.802 1.58,-9.082 4.76,-12.842 3.9,-4.606 8.96,-6.909 15.16,-6.909 3.38,0 6.65,0.919 9.81,2.759 m 27.04,48.608 h -5.49 v -36.719 h 5.49 v 2.588 c 2.17,-2.165 4.62,-3.247 7.38,-3.247 3.27,0 5.96,1.204 8.08,3.613 2.14,2.393 3.22,5.412 3.22,9.058 0,3.564 -1.07,6.535 -3.2,8.911 -2.12,2.36 -4.78,3.54 -8.01,3.54 -2.78,0 -5.27,-1.115 -7.47,-3.345 v 15.601 m 13.06,-24.683 c 0,-2.278 -0.61,-4.134 -1.85,-5.566 -1.25,-1.449 -2.83,-2.173 -4.74,-2.173 -2.02,0 -3.65,0.7 -4.91,2.1 -1.25,1.399 -1.88,3.239 -1.88,5.517 0,2.23 0.63,4.069 1.88,5.518 1.24,1.416 2.87,2.124 4.89,2.124 1.9,0 3.47,-0.716 4.71,-2.149 1.27,-1.432 1.9,-3.222 1.9,-5.371 m 33.07,1.148 h -17.04 c 0.15,1.953 0.78,3.507 1.91,4.663 1.12,1.139 2.56,1.709 4.32,1.709 1.36,0 2.5,-0.326 3.39,-0.977 0.88,-0.651 1.88,-1.855 3,-3.613 l 4.64,2.588 c -0.71,1.221 -1.47,2.266 -2.27,3.137 -0.8,0.871 -1.65,1.587 -2.56,2.149 -0.91,0.561 -1.9,0.972 -2.96,1.232 -1.05,0.261 -2.2,0.391 -3.44,0.391 -3.55,0 -6.39,-1.139 -8.54,-3.418 -2.15,-2.295 -3.23,-5.338 -3.23,-9.131 0,-3.759 1.05,-6.803 3.13,-9.131 2.1,-2.294 4.88,-3.442 8.35,-3.442 3.5,0 6.27,1.115 8.3,3.345 2.02,2.213 3.03,5.281 3.03,9.204 l -0.03,1.294 m -5.64,-4.492 c -0.76,-2.93 -2.61,-4.395 -5.54,-4.395 -0.67,0 -1.29,0.102 -1.88,0.305 -0.58,0.204 -1.12,0.497 -1.6,0.879 -0.48,0.383 -0.89,0.842 -1.23,1.38 -0.34,0.537 -0.6,1.147 -0.78,1.831 h 11.03 m 11.64,-8.692 h 5.52 v 2.197 c 1.92,-1.904 4.09,-2.856 6.5,-2.856 2.76,0 4.92,0.871 6.47,2.612 1.33,1.481 2,3.898 2,7.251 v 14.576 h -5.52 v -13.282 c 0,-2.343 -0.33,-3.963 -0.98,-4.858 -0.63,-0.912 -1.79,-1.367 -3.46,-1.367 -1.83,0 -3.12,0.602 -3.89,1.806 -0.74,1.188 -1.12,3.264 -1.12,6.226 v 11.475 h -5.52 v -23.78 m 33.07,5.127 v 18.653 h -5.49 v -18.653 h -2.34 v -5.127 h 2.34 v -8.716 h 5.49 v 8.716 h 4.28 v 5.127 h -4.28 m 25.98,-5.127 h 5.52 v 23.78 h -5.52 v -2.491 c -2.26,2.116 -4.7,3.174 -7.3,3.174 -3.29,0 -6.01,-1.188 -8.16,-3.564 -2.13,-2.425 -3.19,-5.453 -3.19,-9.082 0,-3.565 1.06,-6.535 3.19,-8.912 2.14,-2.376 4.81,-3.564 8.01,-3.564 2.77,0 5.25,1.139 7.45,3.418 v -2.759 m -13.04,11.817 c 0,2.278 0.61,4.134 1.83,5.566 1.26,1.449 2.83,2.173 4.74,2.173 2.03,0 3.68,-0.7 4.93,-2.1 1.25,-1.448 1.88,-3.287 1.88,-5.517 0,-2.23 -0.63,-4.069 -1.88,-5.518 -1.25,-1.416 -2.88,-2.124 -4.88,-2.124 -1.89,0 -3.47,0.716 -4.74,2.149 -1.25,1.448 -1.88,3.238 -1.88,5.371 m 31.14,-6.69 v 18.653 h -5.49 v -18.653 h -2.34 v -5.127 h 2.34 v -8.716 h 5.49 v 8.716 h 4.27 v 5.127 h -4.27 m 7.22,6.592 c 0,-3.434 1.22,-6.356 3.68,-8.765 2.46,-2.409 5.45,-3.613 8.99,-3.613 3.54,0 6.56,1.213 9.03,3.638 2.44,2.425 3.66,5.403 3.66,8.935 0,3.565 -1.23,6.551 -3.68,8.96 -2.48,2.393 -5.51,3.589 -9.11,3.589 -3.57,0 -6.55,-1.221 -8.96,-3.662 -2.41,-2.409 -3.61,-5.436 -3.61,-9.082 m 5.61,0.098 c 0,2.376 0.64,4.256 1.9,5.639 1.31,1.4 3.02,2.1 5.16,2.1 2.14,0 3.86,-0.692 5.15,-2.075 1.28,-1.384 1.93,-3.231 1.93,-5.542 0,-2.312 -0.65,-4.159 -1.93,-5.542 -1.3,-1.4 -3.02,-2.1 -5.15,-2.1 -2.1,0 -3.8,0.7 -5.11,2.1 -1.3,1.399 -1.95,3.206 -1.95,5.42 m 25.56,-11.817 h 5.51 v 2.197 c 1.92,-1.904 4.09,-2.856 6.5,-2.856 2.76,0 4.92,0.871 6.47,2.612 1.33,1.481 2,3.898 2,7.251 v 14.576 h -5.52 v -13.282 c 0,-2.343 -0.32,-3.963 -0.98,-4.858 -0.63,-0.912 -1.79,-1.367 -3.46,-1.367 -1.83,0 -3.12,0.602 -3.88,1.806 -0.75,1.188 -1.13,3.264 -1.13,6.226 v 11.475 h -5.51 v -23.78 m 32.89,0 v 23.78 h -5.49 v -23.78 h 5.49 m -6.32,-9.887 c 0,-0.961 0.35,-1.791 1.05,-2.491 0.7,-0.7 1.54,-1.05 2.52,-1.05 0.99,0 1.84,0.35 2.54,1.05 0.69,0.684 1.04,1.522 1.04,2.515 0,0.993 -0.35,1.839 -1.04,2.539 -0.69,0.7 -1.53,1.05 -2.52,1.05 -0.99,0 -1.84,-0.35 -2.54,-1.05 -0.7,-0.7 -1.05,-1.554 -1.05,-2.563 m 31.77,10.913 v 7.299 c -1.25,-1.53 -2.37,-2.579 -3.36,-3.149 -0.98,-0.586 -2.13,-0.879 -3.45,-0.879 -2.06,0 -3.78,0.724 -5.15,2.173 -1.37,1.449 -2.05,3.263 -2.05,5.444 0,2.23 0.66,4.061 1.98,5.493 1.33,1.433 3.03,2.149 5.1,2.149 1.32,0 2.48,-0.285 3.49,-0.855 0.98,-0.553 2.13,-1.627 3.44,-3.222 v 7.251 c -2.22,1.155 -4.45,1.733 -6.68,1.733 -3.68,0 -6.76,-1.188 -9.23,-3.564 -2.48,-2.393 -3.71,-5.363 -3.71,-8.911 0,-3.549 1.25,-6.543 3.76,-8.985 2.5,-2.441 5.58,-3.662 9.22,-3.662 2.35,0 4.56,0.562 6.64,1.685"
     id="path180" />
  <path
     class="Lyrics"
     d="m 1254.346,509.383 5.08,1.953 c -1.77,4.248 -3.02,8.17 -3.73,11.767 -0.36,1.823 -0.63,3.74 -0.81,5.75 -0.18,2.01 -0.27,4.203 -0.27,6.579 0,2.393 0.09,4.594 0.27,6.604 0.18,2.01 0.45,3.927 0.81,5.75 0.7,3.581 1.94,7.495 3.73,11.743 l -5.08,1.953 c -3.54,-7.438 -5.32,-16.121 -5.32,-26.05 0,-9.928 1.78,-18.611 5.32,-26.049 m 22.01,9.277 h -6.52 l 3.13,-5.322 h 9.08 v 37.695 h -5.69 V 518.66 m 21.87,25.317 4.89,1.905 -6.96,13.94 -3.71,-1.538 5.78,-14.307"
     id="path182" />
  <path
     class="Lyrics"
     d="m 1338.356,554.06 10.54,-10.547 h -8.74 V 514.9 h -3.61 v 28.613 h -8.74 l 10.55,10.547"
     id="path184" />
  <path
     class="Lyrics"
     d="m 1362.936,561.482 -5.08,-1.953 c 1.79,-4.248 3.04,-8.162 3.74,-11.743 0.73,-3.581 1.1,-7.699 1.1,-12.354 0,-4.622 -0.37,-8.732 -1.1,-12.329 -0.72,-3.597 -1.96,-7.519 -3.74,-11.767 l 5.08,-1.953 c 3.55,7.438 5.32,16.121 5.32,26.049 0,9.929 -1.77,18.612 -5.32,26.05"
     id="path186" />
  <path
     class="Lyrics"
     d="m 1494.456,464.276 h 15.57 v 1.245 c 0,2.832 -0.33,5.338 -1,7.519 -0.65,2.018 -1.75,3.907 -3.29,5.664 -3.5,3.939 -7.95,5.909 -13.36,5.909 -5.27,0 -9.79,-1.905 -13.55,-5.713 -3.76,-3.825 -5.64,-8.415 -5.64,-13.77 0,-5.469 1.92,-10.107 5.74,-13.916 3.83,-3.825 8.48,-5.737 13.97,-5.737 2.94,0 5.69,0.602 8.25,1.806 2.44,1.205 4.84,3.158 7.2,5.86 l -4.05,3.882 c -3.1,-4.118 -6.86,-6.177 -11.31,-6.177 -3.98,0 -7.33,1.375 -10.03,4.126 -2.7,2.702 -4.05,6.087 -4.05,10.156 0,4.199 1.5,7.658 4.51,10.376 2.82,2.523 5.87,3.784 9.16,3.784 2.8,0 5.31,-0.944 7.54,-2.832 2.23,-1.904 3.48,-4.183 3.74,-6.836 h -9.4 v -5.346"
     id="path188" />
  <path
     class="Lyrics"
     d="m 1532.316,467.405 c 0,-4.05 -2.45,-6.65 -5.45,-6.65 -4.25,0 -5.9,2.5 -6.6,4.5 v -15.45 h -2.95 v 31.3 c 6.3,-0.35 15,-3.1 15,-13.7 m -3.6,1.75 c 0,6.85 -4.75,9.35 -8.45,9.6 v -10.05 c 0,-2.2 1.6,-5.55 5.15,-5.55 2.05,0 3.35,2.65 3.35,6 h -0.05"
     id="path190" />
  <path
     class="Lyrics"
     d="m 1555.846,460.125 h 5.49 v 2.197 c 1.06,-1.106 1.97,-1.855 2.71,-2.246 0.8,-0.407 1.8,-0.61 3.01,-0.61 2.68,0 4.81,1.172 6.37,3.516 1.72,-2.344 4.06,-3.516 7.01,-3.516 5.35,0 8.03,3.247 8.03,9.741 v 14.698 h -5.52 v -13.208 c 0,-2.279 -0.28,-3.89 -0.83,-4.834 -0.57,-0.961 -1.5,-1.441 -2.81,-1.441 -1.51,0 -2.61,0.57 -3.31,1.709 -0.69,1.139 -1.03,2.97 -1.03,5.493 v 12.281 h -5.52 V 470.77 c 0,-4.232 -1.22,-6.348 -3.66,-6.348 -1.55,0 -2.68,0.578 -3.38,1.733 -0.71,1.156 -1.07,2.979 -1.07,5.469 v 12.281 h -5.49 v -23.78 m 57.08,0 h 5.51 v 23.78 h -5.51 v -2.491 c -2.27,2.116 -4.7,3.174 -7.3,3.174 -3.29,0 -6.01,-1.188 -8.16,-3.564 -2.13,-2.425 -3.2,-5.453 -3.2,-9.082 0,-3.565 1.07,-6.535 3.2,-8.912 2.14,-2.376 4.8,-3.564 8.01,-3.564 2.77,0 5.25,1.139 7.45,3.418 v -2.759 m -13.04,11.817 c 0,2.278 0.61,4.134 1.83,5.566 1.25,1.449 2.83,2.173 4.74,2.173 2.03,0 3.68,-0.7 4.93,-2.1 1.25,-1.448 1.88,-3.287 1.88,-5.517 0,-2.23 -0.63,-4.069 -1.88,-5.518 -1.25,-1.416 -2.88,-2.124 -4.88,-2.124 -1.89,0 -3.47,0.716 -4.74,2.149 -1.25,1.448 -1.88,3.238 -1.88,5.371 m 31.58,-11.817 v 36.719 h -5.49 v -36.719 h 5.49 m -6.32,-9.887 c 0,-0.961 0.35,-1.791 1.05,-2.491 0.7,-0.7 1.53,-1.05 2.51,-1.05 0.99,0 1.84,0.35 2.54,1.05 0.7,0.684 1.05,1.522 1.05,2.515 0,0.993 -0.35,1.839 -1.05,2.539 -0.68,0.7 -1.52,1.05 -2.52,1.05 -0.99,0 -1.83,-0.35 -2.53,-1.05 -0.7,-0.7 -1.05,-1.554 -1.05,-2.563 m 12.14,21.606 c 0,-3.434 1.23,-6.356 3.69,-8.765 2.45,-2.409 5.45,-3.613 8.98,-3.613 3.55,0 6.56,1.213 9.03,3.638 2.45,2.425 3.67,5.403 3.67,8.935 0,3.565 -1.23,6.551 -3.69,8.96 -2.47,2.393 -5.51,3.589 -9.11,3.589 -3.56,0 -6.55,-1.221 -8.96,-3.662 -2.4,-2.409 -3.61,-5.436 -3.61,-9.082 m 5.62,0.098 c 0,2.376 0.63,4.256 1.9,5.639 1.3,1.4 3.02,2.1 5.15,2.1 2.15,0 3.87,-0.692 5.15,-2.075 1.29,-1.384 1.93,-3.231 1.93,-5.542 0,-2.312 -0.64,-4.159 -1.93,-5.542 -1.3,-1.4 -3.02,-2.1 -5.15,-2.1 -2.1,0 -3.8,0.7 -5.1,2.1 -1.3,1.399 -1.95,3.206 -1.95,5.42 m 25.55,-11.817 h 5.49 v 2.124 c 1.01,-1.058 1.91,-1.782 2.69,-2.173 0.8,-0.407 1.74,-0.61 2.83,-0.61 1.45,0 2.96,0.472 4.54,1.416 l -2.51,5.029 c -1.04,-0.748 -2.06,-1.123 -3.05,-1.123 -3,0 -4.5,2.263 -4.5,6.787 v 12.33 h -5.49 v -23.78 m 14.66,9.302 h 10.89 v 4.785 h -10.89 v -4.785 m 32.85,-8.276 v 7.299 c -1.26,-1.53 -2.38,-2.579 -3.37,-3.149 -0.98,-0.586 -2.13,-0.879 -3.45,-0.879 -2.06,0 -3.78,0.724 -5.15,2.173 -1.36,1.449 -2.05,3.263 -2.05,5.444 0,2.23 0.66,4.061 1.98,5.493 1.33,1.433 3.04,2.149 5.1,2.149 1.32,0 2.48,-0.285 3.49,-0.855 0.98,-0.553 2.13,-1.627 3.45,-3.222 v 7.251 c -2.23,1.155 -4.46,1.733 -6.69,1.733 -3.68,0 -6.76,-1.188 -9.23,-3.564 -2.48,-2.393 -3.71,-5.363 -3.71,-8.911 0,-3.549 1.25,-6.543 3.76,-8.985 2.5,-2.441 5.58,-3.662 9.23,-3.662 2.34,0 4.55,0.562 6.64,1.685 m 6.6,-18.482 h 5.49 v 19.434 c 1.96,-1.758 4.11,-2.637 6.47,-2.637 2.69,0 4.84,0.871 6.45,2.612 1.37,1.514 2.05,3.931 2.05,7.251 v 14.576 h -5.49 v -14.063 c 0,-1.904 -0.34,-3.284 -1.02,-4.138 -0.67,-0.855 -1.76,-1.282 -3.26,-1.282 -1.92,0 -3.27,0.594 -4.05,1.782 -0.76,1.205 -1.15,3.272 -1.15,6.201 v 11.5 h -5.49 v -41.236 m 26.28,29.175 c 0,-3.434 1.23,-6.356 3.69,-8.765 2.46,-2.409 5.45,-3.613 8.98,-3.613 3.55,0 6.56,1.213 9.04,3.638 2.44,2.425 3.66,5.403 3.66,8.935 0,3.565 -1.23,6.551 -3.69,8.96 -2.47,2.393 -5.51,3.589 -9.1,3.589 -3.57,0 -6.55,-1.221 -8.96,-3.662 -2.41,-2.409 -3.62,-5.436 -3.62,-9.082 m 5.62,0.098 c 0,2.376 0.63,4.256 1.9,5.639 1.3,1.4 3.02,2.1 5.15,2.1 2.15,0 3.87,-0.692 5.16,-2.075 1.28,-1.384 1.92,-3.231 1.92,-5.542 0,-2.312 -0.64,-4.159 -1.92,-5.542 -1.31,-1.4 -3.02,-2.1 -5.16,-2.1 -2.1,0 -3.8,0.7 -5.1,2.1 -1.3,1.399 -1.95,3.206 -1.95,5.42 m 25.55,-11.817 h 5.5 v 2.124 c 1.01,-1.058 1.9,-1.782 2.68,-2.173 0.8,-0.407 1.74,-0.61 2.83,-0.61 1.45,0 2.97,0.472 4.54,1.416 l -2.51,5.029 c -1.04,-0.748 -2.06,-1.123 -3.05,-1.123 -3,0 -4.49,2.263 -4.49,6.787 v 12.33 h -5.5 v -23.78 m 35.89,-17.456 h 5.52 v 41.236 h -5.52 v -2.491 c -2.16,2.116 -4.61,3.174 -7.35,3.174 -3.25,0 -5.95,-1.188 -8.1,-3.564 -2.13,-2.425 -3.2,-5.453 -3.2,-9.082 0,-3.549 1.07,-6.511 3.2,-8.887 2.11,-2.393 4.77,-3.589 7.98,-3.589 2.78,0 5.27,1.139 7.47,3.418 v -20.215 m -13.04,29.273 c 0,2.278 0.61,4.134 1.84,5.566 1.25,1.449 2.83,2.173 4.73,2.173 2.04,0 3.68,-0.7 4.93,-2.1 1.26,-1.448 1.88,-3.287 1.88,-5.517 0,-2.23 -0.62,-4.069 -1.88,-5.518 -1.25,-1.416 -2.88,-2.124 -4.88,-2.124 -1.89,0 -3.47,0.716 -4.74,2.149 -1.25,1.448 -1.88,3.238 -1.88,5.371"
     id="path192" />
  <path
     class="Lyrics"
     d="m 1560.496,509.383 5.08,1.953 c -1.77,4.248 -3.02,8.17 -3.73,11.767 -0.36,1.823 -0.63,3.74 -0.81,5.75 -0.18,2.01 -0.27,4.203 -0.27,6.579 0,2.393 0.09,4.594 0.27,6.604 0.18,2.01 0.45,3.927 0.81,5.75 0.7,3.581 1.94,7.495 3.73,11.743 l -5.08,1.953 c -3.54,-7.438 -5.32,-16.121 -5.32,-26.05 0,-9.928 1.78,-18.611 5.32,-26.049 m 22.01,9.277 h -6.52 l 3.13,-5.322 h 9.08 v 37.695 h -5.69 V 518.66 m 21.88,25.317 4.88,1.905 -6.96,13.94 -3.71,-1.538 5.79,-14.307"
     id="path194" />
  <path
     class="Lyrics"
     d="m 1644.506,511.873 10.54,10.547 h -8.74 v 28.613 h -3.61 V 522.42 h -8.74 l 10.55,-10.547"
     id="path196" />
  <path
     class="Lyrics"
     d="m 1667.476,543.977 4.88,1.905 -6.96,13.94 -3.71,-1.538 5.79,-14.307 m 37.53,-25.317 h -6.52 l 3.13,-5.322 h 9.08 v 37.695 h -5.69 V 518.66 m 25.78,42.822 -5.07,-1.953 c 1.79,-4.248 3.03,-8.162 3.73,-11.743 0.73,-3.581 1.1,-7.699 1.1,-12.354 0,-4.622 -0.37,-8.732 -1.1,-12.329 -0.72,-3.597 -1.96,-7.519 -3.73,-11.767 l 5.07,-1.953 c 3.55,7.438 5.33,16.121 5.33,26.049 0,9.929 -1.78,18.612 -5.33,26.05"
     id="path198" />
  <path
     class="Lyrics"
     d="m 2075.906,464.276 h 15.58 v 1.245 c 0,2.832 -0.33,5.338 -1,7.519 -0.65,2.018 -1.75,3.907 -3.3,5.664 -3.5,3.939 -7.95,5.909 -13.35,5.909 -5.27,0 -9.79,-1.905 -13.55,-5.713 -3.76,-3.825 -5.64,-8.415 -5.64,-13.77 0,-5.469 1.91,-10.107 5.74,-13.916 3.82,-3.825 8.48,-5.737 13.96,-5.737 2.95,0 5.7,0.602 8.25,1.806 2.45,1.205 4.85,3.158 7.21,5.86 l -4.06,3.882 c -3.09,-4.118 -6.86,-6.177 -11.3,-6.177 -3.99,0 -7.33,1.375 -10.03,4.126 -2.71,2.702 -4.06,6.087 -4.06,10.156 0,4.199 1.51,7.658 4.52,10.376 2.82,2.523 5.87,3.784 9.15,3.784 2.8,0 5.32,-0.944 7.55,-2.832 2.23,-1.904 3.47,-4.183 3.73,-6.836 h -9.4 v -5.346 m 37.1,-4.151 h 5.49 v 2.197 c 1.06,-1.106 1.97,-1.855 2.71,-2.246 0.8,-0.407 1.8,-0.61 3.01,-0.61 2.68,0 4.81,1.172 6.37,3.516 1.72,-2.344 4.06,-3.516 7.01,-3.516 5.35,0 8.03,3.247 8.03,9.741 v 14.698 h -5.52 v -13.208 c 0,-2.279 -0.28,-3.89 -0.83,-4.834 -0.57,-0.961 -1.5,-1.441 -2.81,-1.441 -1.51,0 -2.61,0.57 -3.3,1.709 -0.7,1.139 -1.04,2.97 -1.04,5.493 v 12.281 h -5.52 V 470.77 c 0,-4.232 -1.22,-6.348 -3.66,-6.348 -1.55,0 -2.68,0.578 -3.38,1.733 -0.71,1.156 -1.07,2.979 -1.07,5.469 v 12.281 h -5.49 v -23.78 m 45.04,0 v 23.78 h -5.49 v -23.78 h 5.49 m -6.32,-9.887 c 0,-0.961 0.35,-1.791 1.05,-2.491 0.7,-0.7 1.54,-1.05 2.51,-1.05 1,0 1.84,0.35 2.54,1.05 0.7,0.684 1.05,1.522 1.05,2.515 0,0.993 -0.35,1.839 -1.05,2.539 -0.68,0.7 -1.52,1.05 -2.51,1.05 -1,0 -1.84,-0.35 -2.54,-1.05 -0.7,-0.7 -1.05,-1.554 -1.05,-2.563 m 13.27,9.887 h 5.51 v 2.197 c 1.92,-1.904 4.09,-2.856 6.5,-2.856 2.76,0 4.92,0.871 6.47,2.612 1.33,1.481 2,3.898 2,7.251 v 14.576 h -5.52 v -13.282 c 0,-2.343 -0.32,-3.963 -0.97,-4.858 -0.64,-0.912 -1.8,-1.367 -3.47,-1.367 -1.82,0 -3.12,0.602 -3.88,1.806 -0.75,1.188 -1.13,3.264 -1.13,6.226 v 11.475 h -5.51 v -23.78 m 26.28,11.719 c 0,-3.434 1.23,-6.356 3.69,-8.765 2.45,-2.409 5.45,-3.613 8.98,-3.613 3.55,0 6.56,1.213 9.03,3.638 2.44,2.425 3.67,5.403 3.67,8.935 0,3.565 -1.23,6.551 -3.69,8.96 -2.48,2.393 -5.51,3.589 -9.11,3.589 -3.56,0 -6.55,-1.221 -8.96,-3.662 -2.41,-2.409 -3.61,-5.436 -3.61,-9.082 m 5.61,0.098 c 0,2.376 0.64,4.256 1.91,5.639 1.3,1.4 3.02,2.1 5.15,2.1 2.15,0 3.87,-0.692 5.15,-2.075 1.29,-1.384 1.93,-3.231 1.93,-5.542 0,-2.312 -0.64,-4.159 -1.93,-5.542 -1.3,-1.4 -3.02,-2.1 -5.15,-2.1 -2.1,0 -3.8,0.7 -5.1,2.1 -1.3,1.399 -1.96,3.206 -1.96,5.42 m 25.56,-11.817 h 5.49 v 2.124 c 1.01,-1.058 1.91,-1.782 2.69,-2.173 0.8,-0.407 1.74,-0.61 2.83,-0.61 1.45,0 2.96,0.472 4.54,1.416 l -2.51,5.029 c -1.05,-0.748 -2.06,-1.123 -3.06,-1.123 -2.99,0 -4.49,2.263 -4.49,6.787 v 12.33 h -5.49 v -23.78"
     id="path200" />
  <path
     class="Lyrics"
     d="m 2060.016,509.383 5.08,1.953 c -1.77,4.248 -3.02,8.17 -3.73,11.767 -0.36,1.823 -0.63,3.74 -0.81,5.75 -0.18,2.01 -0.27,4.203 -0.27,6.579 0,2.393 0.09,4.594 0.27,6.604 0.18,2.01 0.45,3.927 0.81,5.75 0.7,3.581 1.94,7.495 3.73,11.743 l -5.08,1.953 c -3.54,-7.438 -5.32,-16.121 -5.32,-26.05 0,-9.928 1.78,-18.611 5.32,-26.049 m 22.01,9.277 h -6.52 l 3.13,-5.322 h 9.08 v 37.695 h -5.69 V 518.66 m 21.88,25.317 4.88,1.905 -6.96,13.94 -3.71,-1.538 5.79,-14.307"
     id="path202" />
  <path
     class="Lyrics"
     d="m 2144.026,511.873 10.54,10.547 h -8.74 v 28.613 h -3.61 V 522.42 h -8.74 l 10.55,-10.547"
     id="path204" />
  <path
     class="Lyrics"
     d="m 2166.996,543.977 4.88,1.905 -6.96,13.94 -3.71,-1.538 5.79,-14.307 m 37.53,-25.317 h -6.52 l 3.13,-5.322 h 9.08 v 37.695 h -5.69 V 518.66 m 25.78,42.822 -5.07,-1.953 c 1.79,-4.248 3.03,-8.162 3.73,-11.743 0.73,-3.581 1.1,-7.699 1.1,-12.354 0,-4.622 -0.37,-8.732 -1.1,-12.329 -0.72,-3.597 -1.96,-7.519 -3.73,-11.767 l 5.07,-1.953 c 3.55,7.438 5.33,16.121 5.33,26.049 0,9.929 -1.78,18.612 -5.33,26.05"
     id="path206" />
</svg>
