<?xml version="1.0" encoding="UTF-8" standalone="no"?>
<svg
   width="2555.166"
   height="677.01202"
   viewBox="0 0 2555.1661 677.01199"
   version="1.2"
   id="svg120"
   sodipodi:docname="bill-evans-2.svg"
   inkscape:version="1.2.1 (9c6d41e, 2022-07-14)"
   xmlns:inkscape="http://www.inkscape.org/namespaces/inkscape"
   xmlns:sodipodi="http://sodipodi.sourceforge.net/DTD/sodipodi-0.dtd"
   xmlns="http://www.w3.org/2000/svg"
   xmlns:svg="http://www.w3.org/2000/svg"
   xmlns:rdf="http://www.w3.org/1999/02/22-rdf-syntax-ns#"
   xmlns:cc="http://creativecommons.org/ns#"
   xmlns:dc="http://purl.org/dc/elements/1.1/">
  <sodipodi:namedview
     id="namedview63"
     pagecolor="#ffffff"
     bordercolor="#999999"
     borderopacity="1"
     inkscape:showpageshadow="0"
     inkscape:pageopacity="0"
     inkscape:pagecheckerboard="0"
     inkscape:deskcolor="#d1d1d1"
     showgrid="false"
     inkscape:zoom="0.082225547"
     inkscape:cx="1137.1162"
     inkscape:cy="-182.42506"
     inkscape:window-width="756"
     inkscape:window-height="772"
     inkscape:window-x="575"
     inkscape:window-y="0"
     inkscape:window-maximized="0"
     inkscape:current-layer="svg120" />
  <defs
     id="defs124" />
  <title
     id="title2">tmp5gbwzw94</title>
  <desc
     id="desc4">Generated by MuseScore 3.6.2</desc>
  <rect
     style="fill:#ffffff;stroke:#000000;stroke-width:2.13543;stroke-linejoin:round"
     id="rect344"
     width="2736.3757"
     height="1131.0354"
     x="-85.131691"
     y="-170.26338" />
  <polyline
     class="StaffLines"
     fill="none"
     stroke="#000000"
     stroke-width="2.73"
     stroke-linejoin="bevel"
     points="336.614,634.252 2763.78,634.252"
     id="polyline6"
     transform="translate(-272.614,-334.617)" />
  <polyline
     class="StaffLines"
     fill="none"
     stroke="#000000"
     stroke-width="2.73"
     stroke-linejoin="bevel"
     points="336.614,659.055 2763.78,659.055"
     id="polyline8"
     transform="translate(-272.614,-334.617)" />
  <polyline
     class="StaffLines"
     fill="none"
     stroke="#000000"
     stroke-width="2.73"
     stroke-linejoin="bevel"
     points="336.614,683.858 2763.78,683.858"
     id="polyline10"
     transform="translate(-272.614,-334.617)" />
  <polyline
     class="StaffLines"
     fill="none"
     stroke="#000000"
     stroke-width="2.73"
     stroke-linejoin="bevel"
     points="336.614,708.661 2763.78,708.661"
     id="polyline12"
     transform="translate(-272.614,-334.617)" />
  <polyline
     class="StaffLines"
     fill="none"
     stroke="#000000"
     stroke-width="2.73"
     stroke-linejoin="bevel"
     points="336.614,733.465 2763.78,733.465"
     id="polyline14"
     transform="translate(-272.614,-334.617)" />
  <path
     class="Text"
     d="M 962.036,138.224 V 70.372 h 10.2 c 4.54,0 8.15,0.352 10.85,1.055 2.72,0.703 5.02,1.89 6.9,3.559 1.9,1.729 3.41,3.882 4.53,6.46 1.14,2.608 1.71,5.245 1.71,7.911 0,4.863 -1.86,8.979 -5.58,12.348 3.6,1.231 6.44,3.384 8.52,6.46 2.11,3.047 3.17,6.592 3.17,10.635 0,5.303 -1.88,9.785 -5.63,13.447 -2.25,2.256 -4.79,3.823 -7.6,4.702 -3.08,0.85 -6.93,1.275 -11.56,1.275 h -15.51 m 10.24,-38.716 h 3.21 c 3.81,0 6.6,-0.842 8.37,-2.527 1.77,-1.684 2.66,-4.167 2.66,-7.449 0,-3.193 -0.91,-5.617 -2.73,-7.273 -1.81,-1.655 -4.45,-2.482 -7.91,-2.482 h -3.6 v 19.731 m 0,29.092 h 6.33 c 4.63,0 8.02,-0.908 10.19,-2.725 2.29,-1.963 3.43,-4.453 3.43,-7.471 0,-2.929 -1.1,-5.39 -3.3,-7.382 -2.13,-1.963 -5.96,-2.945 -11.47,-2.945 h -5.18 V 128.6 m 50.96,-33.179 v 42.803 h -9.89 V 95.421 h 9.89 m -11.38,-17.798 c 0,-1.728 0.63,-3.222 1.89,-4.482 1.26,-1.26 2.77,-1.89 4.53,-1.89 1.78,0 3.31,0.63 4.57,1.89 1.26,1.23 1.89,2.739 1.89,4.526 0,1.787 -0.63,3.311 -1.89,4.57 -1.23,1.26 -2.74,1.89 -4.53,1.89 -1.79,0 -3.31,-0.63 -4.57,-1.89 -1.26,-1.259 -1.89,-2.797 -1.89,-4.614 M 1045.646,64 v 74.224 h -9.89 V 64 h 9.89 m 22.4,0 v 74.224 h -9.88 V 64 h 9.88 m 79.62,15.996 h -27.2 V 96.3 h 26.41 v 9.624 h -26.41 V 128.6 h 27.2 v 9.624 h -37.44 V 70.372 h 37.44 v 9.624 m 16.86,15.425 11.07,24.038 11.03,-24.038 h 11.12 l -22.23,45.747 -22.06,-45.747 h 11.07 m 69.91,0 h 9.93 v 42.803 h -9.93 v -4.483 c -4.07,3.809 -8.45,5.713 -13.14,5.713 -5.92,0 -10.81,-2.138 -14.68,-6.416 -3.84,-4.365 -5.76,-9.814 -5.76,-16.347 0,-6.416 1.92,-11.763 5.76,-16.04 3.84,-4.278 8.64,-6.416 14.41,-6.416 4.98,0 9.45,2.05 13.41,6.152 v -4.966 m -23.47,21.27 c 0,4.101 1.1,7.441 3.3,10.019 2.25,2.608 5.09,3.911 8.52,3.911 3.66,0 6.62,-1.26 8.88,-3.779 2.25,-2.607 3.38,-5.918 3.38,-9.932 0,-4.013 -1.13,-7.324 -3.38,-9.931 -2.26,-2.549 -5.19,-3.824 -8.79,-3.824 -3.4,0 -6.24,1.29 -8.53,3.868 -2.25,2.607 -3.38,5.83 -3.38,9.668 m 45.87,-21.27 h 9.93 v 3.955 c 3.46,-3.428 7.35,-5.141 11.69,-5.141 4.98,0 8.86,1.567 11.64,4.702 2.41,2.666 3.61,7.016 3.61,13.051 v 26.236 h -9.93 v -23.906 c 0,-4.219 -0.59,-7.134 -1.76,-8.746 -1.14,-1.64 -3.22,-2.461 -6.24,-2.461 -3.28,0 -5.61,1.084 -6.99,3.252 -1.35,2.139 -2.02,5.874 -2.02,11.207 v 20.654 h -9.93 V 95.421 m 74.21,7.295 -8.17,4.351 c -1.29,-2.637 -2.88,-3.956 -4.79,-3.956 -0.91,0 -1.68,0.301 -2.33,0.901 -0.64,0.601 -0.96,1.37 -0.96,2.308 0,1.64 1.9,3.266 5.71,4.877 5.24,2.256 8.77,4.336 10.59,6.241 1.82,1.904 2.72,4.467 2.72,7.69 0,4.131 -1.52,7.588 -4.57,10.371 -2.96,2.637 -6.53,3.955 -10.72,3.955 -7.18,0 -12.26,-3.501 -15.25,-10.503 l 8.44,-3.911 c 1.17,2.051 2.06,3.355 2.68,3.911 1.2,1.114 2.64,1.67 4.31,1.67 3.34,0 5.01,-1.523 5.01,-4.57 0,-1.758 -1.29,-3.398 -3.87,-4.922 -1,-0.498 -1.99,-0.981 -2.99,-1.45 -1,-0.469 -2.01,-0.952 -3.03,-1.45 -2.87,-1.407 -4.89,-2.813 -6.07,-4.219 -1.49,-1.787 -2.24,-4.087 -2.24,-6.899 0,-3.721 1.28,-6.797 3.83,-9.229 2.6,-2.432 5.77,-3.647 9.49,-3.647 5.48,0 9.55,2.827 12.21,8.481 m 87.09,-13.271 v 7.734 h -10.68 l -1.58,12.612 h 9.76 v 7.735 h -10.72 l -2.6,21.005 -7.73,-1.01 2.5,-19.995 h -13.05 l -2.63,21.005 -7.83,-1.01 2.51,-20.171 h -10.02 v -7.559 h 11.12 l 1.58,-12.612 h -10.15 v -7.734 h 11.12 l 2.41,-19.688 7.69,1.011 -2.33,18.677 h 12.97 l 2.46,-19.688 7.69,1.011 -2.33,18.677 h 9.84 m -18.63,7.734 h -12.92 l -1.58,12.612 h 13.01 l 1.49,-12.612 m 42.8,31.421 h 25.27 v 9.624 h -45.57 l 23.56,-28.521 c 2.31,-2.842 4.25,-5.302 5.82,-7.383 1.57,-2.08 2.76,-3.823 3.58,-5.229 1.67,-2.754 2.5,-5.23 2.5,-7.427 0,-3.164 -1.11,-5.815 -3.34,-7.954 -2.22,-2.139 -4.98,-3.208 -8.26,-3.208 -6.85,0 -10.78,4.058 -11.77,12.173 h -10.2 c 1.64,-14.297 8.86,-21.445 21.67,-21.445 6.18,0 11.36,1.963 15.55,5.888 4.22,3.926 6.33,8.789 6.33,14.59 0,3.692 -0.98,7.31 -2.94,10.855 -1,1.845 -2.46,4.035 -4.38,6.569 -1.92,2.535 -4.34,5.53 -7.27,8.987 l -10.55,12.481"
     id="path16" />
  <polyline
     class="BarLine"
     fill="none"
     stroke="#000000"
     stroke-width="4.46"
     stroke-linejoin="bevel"
     points="1929.74,632.888 1929.74,734.829"
     id="polyline18"
     transform="translate(-272.614,-334.617)" />
  <polyline
     class="BarLine"
     fill="none"
     stroke="#000000"
     stroke-width="4.46"
     stroke-linejoin="bevel"
     points="2739.6,632.888 2739.6,734.829"
     id="polyline20"
     transform="translate(-272.614,-334.617)" />
  <polyline
     class="BarLine"
     fill="none"
     stroke="#000000"
     stroke-width="13.64"
     stroke-linejoin="bevel"
     points="2756.96,632.888 2756.96,734.829"
     id="polyline22"
     transform="translate(-272.614,-334.617)" />
  <path
     class="Accidental"
     d="m 378.09573,341.4032 c -0.59527,-3.86929 -2.97638,-7.54015 -8.03622,-7.54015 -4.96063,0 -7.83779,3.07559 -8.33386,3.67086 l 0.39685,-31.84724 c 0,-0.7937 -0.59527,-1.38898 -1.38897,-1.38898 h -1.19055 c -0.7937,0 -1.38898,0.59528 -1.38898,1.38898 l 0.49606,59.62677 c 0,0.7937 0.59528,1.38898 1.38898,1.38898 0.19842,0 0.59528,-0.0992 0.7937,-0.19843 0.39685,-0.19842 6.84567,-3.37323 12.20315,-9.42519 3.77008,-4.26615 5.25827,-9.12756 5.25827,-13.19528 0,-0.89291 -0.0992,-1.68661 -0.19843,-2.48032 m -6.84567,3.8693 c 0,1.48818 -0.39685,6.05196 -2.87716,9.82204 -1.68662,2.57953 -5.05984,5.25827 -6.94488,6.74646 l 0.29763,-19.34646 c 0.19843,-0.89291 1.68662,-3.77008 5.65512,-3.77008 3.57166,0 3.86929,3.37323 3.86929,5.4567 v 1.09134"
     id="path24"
     style="stroke-width:0.992126" />
  <path
     class="Accidental"
     d="m 741.06673,391.0102 c -0.59527,-3.86929 -2.97638,-7.54015 -8.03622,-7.54015 -4.96063,0 -7.83779,3.07559 -8.33386,3.67086 l 0.39685,-31.84724 c 0,-0.7937 -0.59527,-1.38898 -1.38897,-1.38898 h -1.19055 c -0.7937,0 -1.38898,0.59528 -1.38898,1.38898 l 0.49606,59.62677 c 0,0.7937 0.59528,1.38898 1.38898,1.38898 0.19842,0 0.59528,-0.0992 0.7937,-0.19843 0.39685,-0.19842 6.84567,-3.37323 12.20315,-9.42519 3.77008,-4.26615 5.25827,-9.12756 5.25827,-13.19528 0,-0.89291 -0.0992,-1.68661 -0.19843,-2.48032 m -6.84567,3.8693 c 0,1.48818 -0.39685,6.05196 -2.87716,9.82204 -1.68662,2.57953 -5.05984,5.25827 -6.94488,6.74646 l 0.29763,-19.34646 c 0.19843,-0.89291 1.68662,-3.77008 5.65512,-3.77008 3.57166,0 3.86929,3.37323 3.86929,5.4567 v 1.09134"
     id="path26"
     style="stroke-width:0.992126" />
  <path
     class="Accidental"
     d="m 1934.6077,391.0102 c -0.5952,-3.86929 -2.9763,-7.54015 -8.0362,-7.54015 -4.9606,0 -7.8378,3.07559 -8.3338,3.67086 l 0.3968,-31.84724 c 0,-0.7937 -0.5953,-1.38898 -1.389,-1.38898 h -1.1905 c -0.7937,0 -1.389,0.59528 -1.389,1.38898 l 0.4961,59.62677 c 0,0.7937 0.5952,1.38898 1.3889,1.38898 0.1985,0 0.5953,-0.0992 0.7937,-0.19843 0.3969,-0.19842 6.8457,-3.37323 12.2032,-9.42519 3.7701,-4.26615 5.2583,-9.12756 5.2583,-13.19528 0,-0.89291 -0.099,-1.68661 -0.1985,-2.48032 m -6.8456,3.8693 c 0,1.48818 -0.3969,6.05196 -2.8772,9.82204 -1.6866,2.57953 -5.0598,5.25827 -6.9449,6.74646 l 0.2977,-19.34646 c 0.1984,-0.89291 1.6866,-3.77008 5.6551,-3.77008 3.5716,0 3.8693,3.37323 3.8693,5.4567 v 1.09134"
     id="path28"
     style="stroke-width:0.992126" />
  <polyline
     class="LedgerLine"
     fill="none"
     stroke="#000000"
     stroke-width="3.97"
     stroke-linejoin="bevel"
     points="1192.88,758.268 1242.48,758.268"
     id="polyline30"
     transform="translate(-272.614,-334.617)" />
  <polyline
     class="LedgerLine"
     fill="none"
     stroke="#000000"
     stroke-width="3.97"
     stroke-linejoin="bevel"
     points="1555.85,758.268 1605.45,758.268"
     id="polyline32"
     transform="translate(-272.614,-334.617)" />
  <polyline
     class="Stem"
     fill="none"
     stroke="#000000"
     stroke-width="2.73"
     stroke-linejoin="bevel"
     points="658.47,687.192 658.47,770.669"
     id="polyline34"
     transform="translate(-272.614,-334.617)" />
  <polyline
     class="Stem"
     fill="none"
     stroke="#000000"
     stroke-width="2.73"
     stroke-linejoin="bevel"
     points="869.463,705.487 869.463,634.252"
     id="polyline36"
     transform="translate(-272.614,-334.617)" />
  <polyline
     class="Stem"
     fill="none"
     stroke="#000000"
     stroke-width="2.73"
     stroke-linejoin="bevel"
     points="1050.95,730.29 1050.95,659.055"
     id="polyline38"
     transform="translate(-272.614,-334.617)" />
  <polyline
     class="Stem"
     fill="none"
     stroke="#000000"
     stroke-width="2.73"
     stroke-linejoin="bevel"
     points="1232.43,755.093 1232.43,652.854"
     id="polyline40"
     transform="translate(-272.614,-334.617)" />
  <polyline
     class="Stem"
     fill="none"
     stroke="#000000"
     stroke-width="2.73"
     stroke-linejoin="bevel"
     points="1413.92,693.085 1413.92,628.051"
     id="polyline42"
     transform="translate(-272.614,-334.617)" />
  <polyline
     class="Stem"
     fill="none"
     stroke="#000000"
     stroke-width="2.73"
     stroke-linejoin="bevel"
     points="1595.41,755.093 1595.41,659.055"
     id="polyline44"
     transform="translate(-272.614,-334.617)" />
  <polyline
     class="Stem"
     fill="none"
     stroke="#000000"
     stroke-width="2.73"
     stroke-linejoin="bevel"
     points="1776.89,705.487 1776.89,634.252"
     id="polyline46"
     transform="translate(-272.614,-334.617)" />
  <polyline
     class="Stem"
     fill="none"
     stroke="#000000"
     stroke-width="2.73"
     stroke-linejoin="bevel"
     points="1995.08,693.085 1995.08,628.051"
     id="polyline48"
     transform="translate(-272.614,-334.617)" />
  <polyline
     class="Stem"
     fill="none"
     stroke="#000000"
     stroke-width="2.73"
     stroke-linejoin="bevel"
     points="2119.79,717.888 2119.79,640.453"
     id="polyline50"
     transform="translate(-272.614,-334.617)" />
  <polyline
     class="Stem"
     fill="none"
     stroke="#000000"
     stroke-width="2.73"
     stroke-linejoin="bevel"
     points="2244.49,730.29 2244.49,659.055"
     id="polyline52"
     transform="translate(-272.614,-334.617)" />
  <polyline
     class="Stem"
     fill="none"
     stroke="#000000"
     stroke-width="2.73"
     stroke-linejoin="bevel"
     points="2369.19,742.691 2369.19,665.256"
     id="polyline54"
     transform="translate(-272.614,-334.617)" />
  <polyline
     class="Stem"
     fill="none"
     stroke="#000000"
     stroke-width="2.73"
     stroke-linejoin="bevel"
     points="2493.89,717.888 2493.89,634.252"
     id="polyline56"
     transform="translate(-272.614,-334.617)" />
  <path
     class="Note"
     d="m 415.74397,341.20478 c -1.78583,-3.27402 -5.55591,-5.05984 -10.11969,-5.05984 -3.37322,0 -7.04409,0.99212 -10.61574,2.87716 -6.54804,3.47244 -10.51654,9.32599 -10.51654,14.38583 0,1.38898 0.29764,2.77795 0.99213,4.06772 1.78582,3.27401 5.5559,4.96063 10.11968,4.96063 3.37323,0 7.0441,-0.89292 10.61575,-2.77796 6.54803,-3.47244 10.51654,-9.32598 10.51654,-14.38582 0,-1.38898 -0.29764,-2.77796 -0.99213,-4.06772"
     id="path58"
     style="stroke-width:0.992126" />
  <path
     class="Note"
     d="m 597.22897,366.00778 c -1.78583,-3.27402 -5.55591,-5.05984 -10.11969,-5.05984 -3.37322,0 -7.04409,0.99212 -10.61574,2.87716 -6.54804,3.47244 -10.51654,9.32599 -10.51654,14.38583 0,1.38898 0.29764,2.77795 0.99213,4.06772 1.78582,3.27401 5.5559,4.96063 10.11968,4.96063 3.37323,0 7.0441,-0.89292 10.61575,-2.77796 6.54803,-3.47244 10.51654,-9.32598 10.51654,-14.38582 0,-1.38898 -0.29764,-2.77796 -0.99213,-4.06772"
     id="path60"
     style="stroke-width:0.992126" />
  <path
     class="Note"
     d="m 778.71797,390.81178 c -1.78583,-3.27402 -5.55591,-5.05984 -10.11969,-5.05984 -3.37322,0 -7.04409,0.99212 -10.61574,2.87716 -6.54804,3.47244 -10.51654,9.32599 -10.51654,14.38583 0,1.38898 0.29764,2.77795 0.99213,4.06772 1.78582,3.27401 5.5559,4.96063 10.11968,4.96063 3.37323,0 7.0441,-0.89292 10.61575,-2.77796 6.54803,-3.47244 10.51654,-9.32598 10.51654,-14.38582 0,-1.38898 -0.29764,-2.77796 -0.99213,-4.06772"
     id="path62"
     style="stroke-width:0.992126" />
  <path
     class="Note"
     d="m 960.19797,415.61478 c -1.78583,-3.27402 -5.55591,-5.05984 -10.11969,-5.05984 -3.37322,0 -7.04409,0.99212 -10.61574,2.87716 -6.54804,3.47244 -10.51654,9.32599 -10.51654,14.38583 0,1.38898 0.29764,2.77795 0.99213,4.06772 1.78582,3.27401 5.5559,4.96063 10.11968,4.96063 3.37323,0 7.0441,-0.89292 10.61575,-2.77796 6.54803,-3.47244 10.51653,-9.32598 10.51653,-14.38582 0,-1.38898 -0.29763,-2.77796 -0.99212,-4.06772"
     id="path64"
     style="stroke-width:0.992126" />
  <path
     class="Note"
     d="m 1141.688,353.60678 c -1.7859,-3.27402 -5.5559,-5.05984 -10.1197,-5.05984 -3.3732,0 -7.0441,0.99212 -10.6158,2.87716 -6.548,3.47244 -10.5165,9.32599 -10.5165,14.38583 0,1.38898 0.2976,2.77795 0.9921,4.06772 1.7859,3.27401 5.5559,4.96063 10.1197,4.96063 3.3732,0 7.0441,-0.89292 10.6158,-2.77796 6.548,-3.47244 10.5165,-9.32598 10.5165,-14.38582 0,-1.38898 -0.2976,-2.77796 -0.9921,-4.06772"
     id="path66"
     style="stroke-width:0.992126" />
  <path
     class="Note"
     d="m 1323.168,415.61478 c -1.7859,-3.27402 -5.5559,-5.05984 -10.1197,-5.05984 -3.3732,0 -7.0441,0.99212 -10.6158,2.87716 -6.548,3.47244 -10.5165,9.32599 -10.5165,14.38583 0,1.38898 0.2976,2.77795 0.9921,4.06772 1.7859,3.27401 5.5559,4.96063 10.1197,4.96063 3.3732,0 7.0441,-0.89292 10.6158,-2.77796 6.548,-3.47244 10.5165,-9.32598 10.5165,-14.38582 0,-1.38898 -0.2976,-2.77796 -0.9921,-4.06772"
     id="path68"
     style="stroke-width:0.992126" />
  <path
     class="Note"
     d="m 1504.658,366.00778 c -1.7859,-3.27402 -5.5559,-5.05984 -10.1197,-5.05984 -3.3732,0 -7.0441,0.99212 -10.6158,2.87716 -6.548,3.47244 -10.5165,9.32599 -10.5165,14.38583 0,1.38898 0.2976,2.77795 0.9921,4.06772 1.7859,3.27401 5.5559,4.96063 10.1197,4.96063 3.3732,0 7.0441,-0.89292 10.6158,-2.77796 6.548,-3.47244 10.5165,-9.32598 10.5165,-14.38582 0,-1.38898 -0.2976,-2.77796 -0.9921,-4.06772"
     id="path70"
     style="stroke-width:0.992126" />
  <path
     class="Note"
     d="m 1722.848,353.60678 c -1.7859,-3.27402 -5.5559,-5.05984 -10.1197,-5.05984 -3.3732,0 -7.0441,0.99212 -10.6158,2.87716 -6.548,3.47244 -10.5165,9.32599 -10.5165,14.38583 0,1.38898 0.2976,2.77795 0.9921,4.06772 1.7859,3.27401 5.5559,4.96063 10.1197,4.96063 3.3732,0 7.0441,-0.89292 10.6158,-2.77796 6.548,-3.47244 10.5165,-9.32598 10.5165,-14.38582 0,-1.38898 -0.2976,-2.77796 -0.9921,-4.06772"
     id="path72"
     style="stroke-width:0.992126" />
  <path
     class="Note"
     d="m 1847.548,378.40978 c -1.7859,-3.27402 -5.5559,-5.05984 -10.1197,-5.05984 -3.3732,0 -7.0441,0.99212 -10.6158,2.87716 -6.548,3.47244 -10.5165,9.32599 -10.5165,14.38583 0,1.38898 0.2976,2.77795 0.9921,4.06772 1.7859,3.27401 5.5559,4.96063 10.1197,4.96063 3.3732,0 7.0441,-0.89292 10.6158,-2.77796 6.548,-3.47244 10.5165,-9.32598 10.5165,-14.38582 0,-1.38898 -0.2976,-2.77796 -0.9921,-4.06772"
     id="path74"
     style="stroke-width:0.992126" />
  <path
     class="Note"
     d="m 1972.258,390.81178 c -1.7859,-3.27402 -5.5559,-5.05984 -10.1197,-5.05984 -3.3732,0 -7.0441,0.99212 -10.6158,2.87716 -6.548,3.47244 -10.5165,9.32599 -10.5165,14.38583 0,1.38898 0.2976,2.77795 0.9921,4.06772 1.7859,3.27401 5.5559,4.96063 10.1197,4.96063 3.3732,0 7.0441,-0.89292 10.6158,-2.77796 6.548,-3.47244 10.5165,-9.32598 10.5165,-14.38582 0,-1.38898 -0.2976,-2.77796 -0.9921,-4.06772"
     id="path76"
     style="stroke-width:0.992126" />
  <path
     class="Note"
     d="m 2096.958,403.21278 c -1.7859,-3.27402 -5.5559,-5.05984 -10.1197,-5.05984 -3.3732,0 -7.0441,0.99212 -10.6158,2.87716 -6.548,3.47244 -10.5165,9.32599 -10.5165,14.38583 0,1.38898 0.2976,2.77795 0.9921,4.06772 1.7859,3.27401 5.5559,4.96063 10.1197,4.96063 3.3732,0 7.0441,-0.89292 10.6158,-2.77796 6.548,-3.47244 10.5165,-9.32598 10.5165,-14.38582 0,-1.38898 -0.2976,-2.77796 -0.9921,-4.06772"
     id="path78"
     style="stroke-width:0.992126" />
  <path
     class="Note"
     d="m 2221.658,378.40978 c -1.7859,-3.27402 -5.5559,-5.05984 -10.1197,-5.05984 -3.3732,0 -7.0441,0.99212 -10.6158,2.87716 -6.548,3.47244 -10.5165,9.32599 -10.5165,14.38583 0,1.38898 0.2976,2.77795 0.9921,4.06772 1.7859,3.27401 5.5559,4.96063 10.1197,4.96063 3.3732,0 7.0441,-0.89292 10.6158,-2.77796 6.548,-3.47244 10.5165,-9.32598 10.5165,-14.38582 0,-1.38898 -0.2976,-2.77796 -0.9921,-4.06772 m -4.2662,6.74646 c -1.6866,1.68661 -5.0598,3.77007 -8.6315,5.75433 -3.5716,1.98425 -7.1433,3.47244 -9.5244,3.9685 -0.496,0.0992 -0.9921,0.19843 -1.4882,0.19843 -1.5874,0 -2.7779,-0.59528 -3.4724,-1.88504 -0.2976,-0.49607 -0.4961,-1.09134 -0.4961,-1.68662 0,-1.09134 0.6945,-2.3811 1.7859,-3.47244 1.6866,-1.68661 4.9606,-3.77008 8.5322,-5.75433 3.5717,-1.98425 7.1433,-3.47244 9.5244,-3.9685 0.4961,-0.0992 0.9922,-0.19843 1.4882,-0.19843 1.5874,0 2.8772,0.59528 3.5717,1.88504 0.2976,0.49606 0.3968,1.09134 0.3968,1.68662 0,1.09133 -0.5952,2.28188 -1.6866,3.47244"
     id="path80"
     style="stroke-width:0.992126" />
  <path
     class="Clef"
     d="m 146.69418,368.2203 c -1.22031,-5.38732 -3.83953,-9.17715 -4.61338,-10.20906 -3.16489,-4.23637 -7.14331,-7.06393 -11.79638,-8.4033 -3.08551,-0.8829 -6.06189,-0.99213 -8.46284,-0.81355 -1.03181,-5.96267 -2.02393,-11.79628 -2.92677,-17.20336 5.40709,-6.12152 8.99858,-11.87585 11.26063,-16.14199 3.44268,-6.52809 4.58362,-11.07203 4.63323,-11.27045 1.70646,-5.16908 2.06362,-12.80845 0.97228,-20.9537 -1.00204,-7.49056 -3.07559,-14.14782 -5.40708,-17.37223 -1.02189,-1.41874 -2.06363,-2.14299 -3.09544,-2.14299 -1.21039,0 -3.70063,1.23023 -6.56787,3.97842 -2.28189,2.18268 -5.52614,6.04205 -8.06599,12.00473 -2.97637,7.00451 -3.18472,16.41968 -2.83748,23.08677 0.37701,7.21276 1.47827,12.85805 1.48819,12.90766 0.0198,0.0892 0.2778,1.57738 0.72426,4.12714 -0.22819,0.22819 -0.4663,0.44646 -0.71433,0.68467 -1.03182,0.99212 -2.21245,2.12305 -3.58158,3.49218 -0.85323,0.85333 -1.79575,1.75607 -2.78787,2.71843 -8.383468,8.076 -21.07276,20.2989 -21.07276,39.29811 0,4.66299 0.892913,9.04821 2.658878,13.02669 1.57752,3.57166 3.85941,6.82585 6.766319,9.67325 7.669133,7.49055 18.175753,10.67518 25.180153,10.51654 2.92678,-0.0695 5.53607,-0.30766 7.90725,-0.75412 1.81559,9.52441 2.94661,16.49906 2.9863,21.79701 0.0397,6.45874 -1.59732,10.39748 -5.46662,13.14567 -2.41086,1.71638 -5.19874,2.6589 -8.27433,2.80772 -2.5696,0.11905 -4.81181,-0.34725 -6.23055,-0.75392 h -0.01 c 0,0 -0.28772,-0.0794 -0.29764,-0.2778 -0.01,-0.17868 0.33733,-0.22828 0.34725,-0.22828 h 0.0198 c 1.90488,-0.43644 5.44677,-1.65675 7.78819,-4.93077 1.78583,-2.50016 2.64898,-7.08388 0.82346,-10.99286 -1.10126,-2.37108 -3.59149,-5.29785 -9.16724,-5.74431 -2.4704,-0.19842 -4.72252,0.30746 -6.70678,1.49801 -1.79574,1.0715 -3.283932,2.69859 -4.325664,4.68284 -2.44063,4.66299 -1.984252,10.34787 1.121102,14.15774 2.936692,3.59149 7.520312,5.8832 12.907562,6.45864 0.8433,0.0894 1.68661,0.12897 2.52992,0.12897 4.39512,0 8.76047,-1.19055 12.30236,-3.38315 3.63118,-2.54976 5.73449,-6.49842 6.40914,-12.08399 0.55559,-4.60356 0.16866,-10.46693 -1.22032,-18.47349 -0.35716,-2.07354 -0.89291,-5.07968 -1.54771,-8.80998 5.70472,-1.90498 9.83196,-5.44687 13.57228,-11.2508 3.26409,-5.69473 4.19669,-11.7467 2.77795,-17.99709 m -33.94065,25.9837 c -4.60346,-1.21039 -8.99858,-3.69071 -12.72897,-7.16315 -1.29969,-1.22031 -3.154966,-3.37323 -4.613391,-6.73648 -1.359212,-3.13517 -2.014035,-6.53815 -1.964429,-10.09982 0.06947,-4.65311 1.369154,-9.4352 3.85939,-14.18738 2.89701,-5.53616 7.4211,-11.02262 13.43339,-16.31065 1.43858,-1.26982 2.79779,-2.53974 4.07763,-3.80976 0.75402,4.22655 1.57748,8.87952 2.45055,13.7212 -3.81968,1.2599 -8.53228,4.38509 -11.61779,9.99061 -3.51213,6.51828 -3.37323,11.99484 -2.64898,15.44742 0.9326,4.42494 3.44268,8.15529 6.87544,10.2289 0.92267,0.55549 5.02015,2.66872 6.84567,2.09328 0.36708,-0.11905 0.63496,-0.33732 0.77385,-0.66472 0.50599,-1.16079 -0.50598,-1.79565 -2.0537,-2.74819 -0.59527,-0.36701 -1.26,-0.78372 -1.98425,-1.30953 -3.29386,-2.47043 -4.73244,-6.88539 -3.67087,-11.23088 0.57544,-2.38111 1.84536,-4.52416 3.67087,-6.21077 1.65685,-1.5378 3.68079,-2.62914 6.04205,-3.264 2.02394,11.1514 4.06772,22.21361 5.6948,30.50788 0.12898,0.68447 0.26788,1.34919 0.39685,2.01391 -4.34551,0.92268 -8.66126,0.83349 -12.83811,-0.26787 m 11.23087,-32.91874 c 10.2685,-0.4663 14.50488,6.91518 15.38787,11.70713 0.4663,2.51006 0.45638,6.91513 -1.07149,11.09193 -1.16079,3.15496 -3.60142,7.19291 -8.69103,9.23679 -0.0695,-0.4167 -0.14882,-0.84331 -0.22819,-1.27002 -1.52787,-8.70087 -3.4526,-19.60437 -5.39716,-30.76583 m -7.26236,-70.38142 c 1.76598,-5.6947 4.48441,-8.91911 6.45874,-10.63549 1.73622,-1.50803 3.37322,-2.21254 4.28598,-2.21254 0.1389,0 0.25795,0.0198 0.35717,0.0496 0.45637,0.13889 0.9822,0.7045 1.4485,1.56765 2.29181,4.25613 1.55764,10.91339 0.22819,15.31833 -1.61717,5.35748 -4.51417,10.93323 -13.24488,20.46756 -0.16866,-1.10126 -0.32741,-2.14299 -0.47622,-3.11518 -1.24016,-8.22482 -0.92268,-15.43758 0.94252,-21.43994"
     id="path82"
     style="stroke-width:0.992126" />
  <path
     class="TimeSig"
     d="m 174.32377,337.12039 h 17.04469 v 7.36158 h -8.1652 c -0.77376,0 -1.3988,0.62504 -1.3988,1.3989 v 1.89496 c 0,0.77386 0.62504,1.39889 1.3988,1.39889 h 30.01181 c 0.77386,0 1.3989,-0.62503 1.3989,-1.39889 v -1.89496 c 0,-0.77386 -0.62504,-1.3989 -1.3989,-1.3989 h -8.8696 v -7.36158 h 8.8696 c 0.77386,0 1.3989,-0.62504 1.3989,-1.39889 v -1.89498 c 0,-0.77384 -0.62504,-1.39886 -1.3989,-1.39886 h -8.8696 v -15.83439 c 0,-0.53569 -0.29764,-1.01189 -0.77386,-1.25004 l -1.20038,-0.59528 c -0.52582,-0.25795 -1.15096,-0.16866 -1.57758,0.22817 l -8.97874,8.25451 c -0.28761,0.26789 -0.45628,0.635 -0.45628,1.03185 v 8.16518 h -11.41946 c 0,0 11.03244,-11.93526 22.77931,-27.58112 0.86315,-1.14095 0.36708,-2.18268 0.17848,-2.37119 l -2.15291,-2.19259 c -0.26788,-0.25796 -0.62504,-0.40678 -0.99213,-0.40678 -0.59527,0 -14.03858,0.0198 -14.75291,0 -0.71423,-0.0198 -1.25008,0.59528 -1.31953,1.2104 0,0 -0.53565,7.30204 -3.1152,15.36805 -2.57952,8.05608 -5.49641,12.99685 -8.13543,16.59825 0,0 -0.53579,0.98224 -0.17866,1.71638 0.34724,0.74409 0.97236,1.82551 0.97236,1.82551 0,0 0.25791,0.52582 1.10122,0.52582"
     id="path84"
     style="stroke-width:0.992126" />
  <path
     class="TimeSig"
     d="m 174.32377,386.46339 h 17.04469 v 7.36158 h -8.1652 c -0.77376,0 -1.3988,0.62504 -1.3988,1.3989 v 1.89496 c 0,0.77386 0.62504,1.39889 1.3988,1.39889 h 30.01181 c 0.77386,0 1.3989,-0.62503 1.3989,-1.39889 v -1.89496 c 0,-0.77386 -0.62504,-1.3989 -1.3989,-1.3989 h -8.8696 v -7.36158 h 8.8696 c 0.77386,0 1.3989,-0.62504 1.3989,-1.39889 v -1.89498 c 0,-0.77384 -0.62504,-1.39886 -1.3989,-1.39886 h -8.8696 v -15.83439 c 0,-0.53569 -0.29764,-1.01189 -0.77386,-1.25004 l -1.20038,-0.59528 c -0.52582,-0.25795 -1.15096,-0.16866 -1.57758,0.22817 l -8.97874,8.25451 c -0.28761,0.26789 -0.45628,0.635 -0.45628,1.03185 v 8.16518 h -11.41946 c 0,0 11.03244,-11.93526 22.77931,-27.58112 0.86315,-1.14095 0.36708,-2.18268 0.17848,-2.37119 l -2.15291,-2.19259 c -0.26788,-0.25796 -0.62504,-0.40678 -0.99213,-0.40678 -0.59527,0 -14.03858,0.0199 -14.75291,0 -0.71423,-0.0198 -1.25008,0.59528 -1.31953,1.2104 0,0 -0.53565,7.30204 -3.1152,15.36805 -2.57952,8.05608 -5.49641,12.99685 -8.13543,16.59825 0,0 -0.53579,0.98224 -0.17866,1.71638 0.34724,0.74409 0.97236,1.82551 0.97236,1.82551 0,0 0.25791,0.52582 1.10122,0.52582"
     id="path86"
     style="stroke-width:0.992126" />
  <path
     class="Beam"
     fill-rule="evenodd"
     d="m 595.485,293.004 184.211,25.176 v 12.517 L 595.485,305.521 v -12.517"
     id="path88" />
  <path
     class="Beam"
     fill-rule="evenodd"
     d="m 958.456,312.352 184.21,-25.176 v 12.517 l -184.21,25.176 v -12.517"
     id="path90" />
  <path
     class="Beam"
     fill-rule="evenodd"
     d="m 1321.426,318.553 184.22,-25.176 v 12.516 l -184.22,25.176 v -12.516"
     id="path92" />
  <path
     class="Beam"
     fill-rule="evenodd"
     d="m 1721.106,286.931 127.43,12.673 v 12.463 l -127.43,-12.673 v -12.463"
     id="path94" />
  <path
     class="Beam"
     fill-rule="evenodd"
     d="m 1970.506,318.094 127.43,6.336 v 12.417 l -127.43,-6.336 v -12.417"
     id="path96" />
  <path
     class="Hook"
     d="m 386.97232,436.44885 c 0,-0.19842 0.89291,-3.57165 0.99212,-3.86929 0.0992,-0.39685 1.88504,-6.05197 5.55591,-11.70709 2.67874,-4.16693 12.10393,-16.37008 11.8063,-16.37008 0,0 7.34173,-9.42519 7.83779,-22.22362 v -2.28189 c 0,-6.05197 -0.7937,-14.58425 -4.26614,-23.21575 -0.39685,-0.99212 -0.7937,-1.98425 -1.88504,-1.5874 -1.09134,0.39685 -0.7937,1.5874 -0.49606,2.67874 1.78582,6.94488 2.77795,14.08819 2.77795,21.2315 0,8.33386 -2.97638,12.50079 -4.7622,15.57638 -6.54804,11.01259 -15.08032,16.37007 -19.24725,17.75905 -0.49606,0.19843 -0.7937,0.59528 -0.7937,1.09134 v 6.15118 16.27087 c 0,0.69449 0.59528,1.28976 1.28976,1.28976 0.49607,0 1.09134,-0.39685 1.19056,-0.7937"
     id="path98"
     style="stroke-width:0.992126" />
  <path
     class="Lyrics"
     d="m 273.717,497.276 v 6.738 c -3.287,-2.751 -6.689,-4.126 -10.205,-4.126 -3.873,0 -7.137,1.391 -9.79,4.175 -2.669,2.767 -4.004,6.152 -4.004,10.156 0,3.955 1.335,7.292 4.004,10.01 2.67,2.718 5.941,4.077 9.815,4.077 2.002,0 3.703,-0.326 5.102,-0.977 0.782,-0.325 1.591,-0.765 2.429,-1.318 0.839,-0.553 1.722,-1.221 2.649,-2.002 v 6.86 c -3.255,1.84 -6.673,2.759 -10.254,2.759 -5.387,0 -9.985,-1.88 -13.793,-5.64 -3.793,-3.792 -5.689,-8.365 -5.689,-13.72 0,-4.802 1.587,-9.082 4.761,-12.842 3.906,-4.606 8.96,-6.909 15.161,-6.909 3.385,0 6.657,0.919 9.814,2.759 m 21.547,11.889 h 5.493 v 2.197 c 1.058,-1.106 1.962,-1.855 2.71,-2.246 0.798,-0.407 1.799,-0.61 3.003,-0.61 2.686,0 4.81,1.172 6.372,3.516 1.726,-2.344 4.061,-3.516 7.007,-3.516 5.355,0 8.032,3.247 8.032,9.741 v 14.698 h -5.517 v -13.208 c 0,-2.279 -0.277,-3.89 -0.83,-4.834 -0.57,-0.961 -1.506,-1.441 -2.808,-1.441 -1.513,0 -2.616,0.57 -3.308,1.709 -0.692,1.139 -1.038,2.97 -1.038,5.493 v 12.281 h -5.517 V 519.81 c 0,-4.232 -1.221,-6.348 -3.662,-6.348 -1.546,0 -2.674,0.578 -3.382,1.733 -0.708,1.156 -1.062,2.979 -1.062,5.469 v 12.281 h -5.493 v -23.78 m 45.04,0 v 23.78 h -5.493 v -23.78 h 5.493 m -6.323,-9.887 c 0,-0.961 0.35,-1.791 1.05,-2.491 0.7,-0.7 1.538,-1.05 2.515,-1.05 0.992,0 1.839,0.35 2.539,1.05 0.699,0.684 1.049,1.522 1.049,2.515 0,0.993 -0.35,1.839 -1.049,2.539 -0.684,0.7 -1.522,1.05 -2.515,1.05 -0.993,0 -1.839,-0.35 -2.539,-1.05 -0.7,-0.7 -1.05,-1.554 -1.05,-2.563 m 13.268,9.887 h 5.517 v 2.197 c 1.921,-1.904 4.086,-2.856 6.494,-2.856 2.767,0 4.924,0.871 6.47,2.612 1.335,1.481 2.002,3.898 2.002,7.251 v 14.576 h -5.518 v -13.282 c 0,-2.343 -0.325,-3.963 -0.976,-4.858 -0.635,-0.912 -1.79,-1.367 -3.467,-1.367 -1.823,0 -3.117,0.602 -3.882,1.806 -0.748,1.188 -1.123,3.264 -1.123,6.226 v 11.475 h -5.517 v -23.78 m 26.283,11.719 c 0,-3.434 1.229,-6.356 3.686,-8.765 2.458,-2.409 5.453,-3.613 8.985,-3.613 3.548,0 6.559,1.213 9.033,3.638 2.441,2.425 3.662,5.403 3.662,8.935 0,3.565 -1.229,6.551 -3.686,8.96 -2.474,2.393 -5.51,3.589 -9.107,3.589 -3.564,0 -6.551,-1.221 -8.96,-3.662 -2.409,-2.409 -3.613,-5.436 -3.613,-9.082 m 5.615,0.098 c 0,2.376 0.635,4.256 1.904,5.639 1.302,1.4 3.02,2.1 5.152,2.1 2.148,0 3.865,-0.692 5.151,-2.075 1.286,-1.384 1.929,-3.231 1.929,-5.542 0,-2.312 -0.643,-4.159 -1.929,-5.542 -1.302,-1.4 -3.019,-2.1 -5.151,-2.1 -2.1,0 -3.801,0.7 -5.103,2.1 -1.302,1.399 -1.953,3.206 -1.953,5.42 m 25.555,-11.817 h 5.493 v 2.124 c 1.009,-1.058 1.904,-1.782 2.685,-2.173 0.798,-0.407 1.742,-0.61 2.833,-0.61 1.448,0 2.962,0.472 4.541,1.416 l -2.515,5.029 c -1.042,-0.748 -2.059,-1.123 -3.052,-1.123 -2.995,0 -4.492,2.263 -4.492,6.787 v 12.33 h -5.493 v -23.78 m 14.658,9.302 h 10.889 v 4.785 H 419.36 v -4.785 m 32.848,-8.276 v 7.299 c -1.254,-1.53 -2.377,-2.579 -3.37,-3.149 -0.976,-0.586 -2.124,-0.879 -3.442,-0.879 -2.067,0 -3.784,0.724 -5.151,2.173 -1.367,1.449 -2.051,3.263 -2.051,5.444 0,2.23 0.659,4.061 1.977,5.493 1.335,1.433 3.036,2.149 5.103,2.149 1.318,0 2.482,-0.285 3.491,-0.855 0.977,-0.553 2.124,-1.627 3.443,-3.222 v 7.251 c -2.23,1.155 -4.46,1.733 -6.69,1.733 -3.678,0 -6.754,-1.188 -9.228,-3.564 -2.474,-2.393 -3.711,-5.363 -3.711,-8.911 0,-3.549 1.253,-6.543 3.759,-8.985 2.507,-2.441 5.583,-3.662 9.229,-3.662 2.344,0 4.557,0.562 6.641,1.685 m 6.603,-18.482 h 5.493 v 19.434 c 1.953,-1.758 4.11,-2.637 6.47,-2.637 2.686,0 4.834,0.871 6.445,2.612 1.368,1.514 2.051,3.931 2.051,7.251 v 14.576 h -5.493 v -14.063 c 0,-1.904 -0.338,-3.284 -1.013,-4.138 -0.676,-0.855 -1.762,-1.282 -3.259,-1.282 -1.921,0 -3.272,0.594 -4.053,1.782 -0.765,1.205 -1.148,3.272 -1.148,6.201 v 11.5 h -5.493 v -41.236 m 26.283,29.175 c 0,-3.434 1.229,-6.356 3.687,-8.765 2.458,-2.409 5.452,-3.613 8.984,-3.613 3.548,0 6.559,1.213 9.033,3.638 2.442,2.425 3.663,5.403 3.663,8.935 0,3.565 -1.229,6.551 -3.687,8.96 -2.474,2.393 -5.509,3.589 -9.106,3.589 -3.565,0 -6.552,-1.221 -8.96,-3.662 -2.409,-2.409 -3.614,-5.436 -3.614,-9.082 m 5.616,0.098 c 0,2.376 0.634,4.256 1.904,5.639 1.302,1.4 3.019,2.1 5.151,2.1 2.149,0 3.866,-0.692 5.152,-2.075 1.285,-1.384 1.928,-3.231 1.928,-5.542 0,-2.312 -0.643,-4.159 -1.928,-5.542 -1.302,-1.4 -3.02,-2.1 -5.152,-2.1 -2.099,0 -3.8,0.7 -5.102,2.1 -1.302,1.399 -1.953,3.206 -1.953,5.42 m 25.554,-11.817 h 5.493 v 2.124 c 1.01,-1.058 1.905,-1.782 2.686,-2.173 0.798,-0.407 1.742,-0.61 2.832,-0.61 1.449,0 2.962,0.472 4.541,1.416 l -2.515,5.029 c -1.041,-0.748 -2.059,-1.123 -3.051,-1.123 -2.995,0 -4.493,2.263 -4.493,6.787 v 12.33 h -5.493 v -23.78 m 35.889,-17.456 h 5.518 v 41.236 h -5.518 v -2.491 c -2.165,2.116 -4.614,3.174 -7.349,3.174 -3.255,0 -5.957,-1.188 -8.105,-3.564 -2.132,-2.425 -3.198,-5.453 -3.198,-9.082 0,-3.549 1.066,-6.511 3.198,-8.887 2.116,-2.393 4.777,-3.589 7.983,-3.589 2.783,0 5.274,1.139 7.471,3.418 v -20.215 m -13.037,29.273 c 0,2.278 0.61,4.134 1.831,5.566 1.253,1.449 2.832,2.173 4.736,2.173 2.035,0 3.679,-0.7 4.932,-2.1 1.253,-1.448 1.88,-3.287 1.88,-5.517 0,-2.23 -0.627,-4.069 -1.88,-5.518 -1.253,-1.416 -2.881,-2.124 -4.883,-2.124 -1.888,0 -3.467,0.716 -4.736,2.149 -1.254,1.448 -1.88,3.238 -1.88,5.371"
     id="path100" />
  <path
     class="Lyrics"
     d="m 264.317,558.423 5.078,1.953 c -1.774,4.248 -3.019,8.17 -3.735,11.767 -0.358,1.823 -0.627,3.74 -0.806,5.75 -0.179,2.01 -0.268,4.203 -0.268,6.579 0,2.393 0.089,4.594 0.268,6.604 0.179,2.01 0.448,3.927 0.806,5.75 0.7,3.581 1.945,7.495 3.735,11.743 l -5.078,1.953 c -3.548,-7.438 -5.322,-16.121 -5.322,-26.05 0,-9.928 1.774,-18.611 5.322,-26.049 m 33.116,31.127 h 4.004 v 5.176 h -4.004 v 5.347 h -5.688 v -5.347 h -18.506 l 24.194,-35.156 v 29.98 m -5.688,0 v -12.622 l -8.692,12.622 h 8.692 m 18.75,3.467 4.882,1.905 -6.958,13.94 -3.71,-1.538 5.786,-14.307 m 32.943,-34.179 v 41.235 h -5.493 v -41.235 h 5.493 m 5.821,29.174 c 0,-3.434 1.229,-6.355 3.687,-8.764 2.458,-2.409 5.452,-3.614 8.984,-3.614 3.548,0 6.559,1.213 9.033,3.638 2.442,2.425 3.663,5.404 3.663,8.936 0,3.564 -1.229,6.551 -3.687,8.96 -2.474,2.392 -5.509,3.589 -9.106,3.589 -3.565,0 -6.552,-1.221 -8.96,-3.663 -2.409,-2.408 -3.614,-5.436 -3.614,-9.082 m 5.616,0.098 c 0,2.376 0.634,4.256 1.904,5.64 1.302,1.399 3.019,2.099 5.151,2.099 2.149,0 3.866,-0.691 5.152,-2.075 1.285,-1.383 1.928,-3.231 1.928,-5.542 0,-2.311 -0.643,-4.158 -1.928,-5.542 -1.302,-1.4 -3.02,-2.099 -5.152,-2.099 -2.099,0 -3.8,0.699 -5.102,2.099 -1.302,1.4 -1.953,3.207 -1.953,5.42 m 24.431,-0.098 c 0,-3.434 1.229,-6.355 3.687,-8.764 2.457,-2.409 5.452,-3.614 8.984,-3.614 3.548,0 6.559,1.213 9.033,3.638 2.442,2.425 3.662,5.404 3.662,8.936 0,3.564 -1.228,6.551 -3.686,8.96 -2.474,2.392 -5.51,3.589 -9.107,3.589 -3.564,0 -6.551,-1.221 -8.96,-3.663 -2.408,-2.408 -3.613,-5.436 -3.613,-9.082 m 5.615,0.098 c 0,2.376 0.635,4.256 1.905,5.64 1.302,1.399 3.019,2.099 5.151,2.099 2.149,0 3.866,-0.691 5.151,-2.075 1.286,-1.383 1.929,-3.231 1.929,-5.542 0,-2.311 -0.643,-4.158 -1.929,-5.542 -1.302,-1.4 -3.019,-2.099 -5.151,-2.099 -2.1,0 -3.8,0.699 -5.102,2.099 -1.303,1.4 -1.954,3.207 -1.954,5.42 m 31.048,24.902 h -5.493 v -36.718 h 5.493 v 2.588 c 2.165,-2.165 4.623,-3.248 7.373,-3.248 3.272,0 5.966,1.205 8.081,3.614 2.149,2.392 3.223,5.412 3.223,9.057 0,3.565 -1.066,6.535 -3.198,8.912 -2.116,2.36 -4.785,3.54 -8.008,3.54 -2.783,0 -5.273,-1.115 -7.471,-3.345 v 15.6 m 13.062,-24.682 c 0,-2.279 -0.619,-4.134 -1.856,-5.567 -1.253,-1.448 -2.832,-2.172 -4.736,-2.172 -2.018,0 -3.654,0.699 -4.907,2.099 -1.253,1.4 -1.88,3.239 -1.88,5.518 0,2.23 0.627,4.069 1.88,5.517 1.237,1.416 2.864,2.124 4.883,2.124 1.904,0 3.475,-0.716 4.712,-2.148 1.269,-1.432 1.904,-3.223 1.904,-5.371 m 36.308,-5.762 v -4.858 c 2.409,0 4.029,-0.269 4.859,-0.806 1.481,-0.944 2.221,-2.458 2.221,-4.541 0,-1.611 -0.537,-2.922 -1.611,-3.931 -1.058,-1.025 -2.433,-1.538 -4.126,-1.538 -1.579,0 -2.799,0.383 -3.662,1.148 -0.83,0.781 -1.448,2.099 -1.855,3.955 h -5.664 c 0.585,-3.548 1.79,-6.148 3.613,-7.801 1.823,-1.652 4.37,-2.478 7.641,-2.478 3.304,0 5.998,0.977 8.081,2.93 2.084,1.937 3.125,4.435 3.125,7.495 0,3.451 -1.367,6.136 -4.101,8.057 3.125,1.839 4.687,4.826 4.687,8.96 0,3.385 -1.139,6.152 -3.418,8.301 -2.278,2.148 -5.2,3.222 -8.764,3.222 -4.541,0 -7.91,-1.668 -10.108,-5.005 -0.911,-1.399 -1.489,-3.336 -1.733,-5.81 h 5.493 c 0.293,1.823 1.005,3.218 2.136,4.187 1.132,0.968 2.609,1.453 4.432,1.453 1.839,0 3.361,-0.611 4.565,-1.832 1.204,-1.253 1.807,-2.84 1.807,-4.76 0,-2.539 -0.904,-4.346 -2.71,-5.42 -1.058,-0.619 -2.694,-0.928 -4.908,-0.928"
     id="path102" />
  <path
     class="Lyrics"
     d="m 514.819,603.1 10.547,-10.547 h -8.74 V 563.94 h -3.614 v 28.613 h -8.74 l 10.547,10.547"
     id="path104" />
  <path
     class="Lyrics"
     d="m 539.403,610.522 -5.078,-1.953 c 1.79,-4.248 3.035,-8.162 3.735,-11.743 0.733,-3.581 1.099,-7.699 1.099,-12.354 0,-4.622 -0.366,-8.732 -1.099,-12.329 -0.716,-3.597 -1.961,-7.519 -3.735,-11.767 l 5.078,-1.953 c 3.548,7.438 5.322,16.121 5.322,26.049 0,9.929 -1.774,18.612 -5.322,26.05"
     id="path106" />
  <path
     class="Lyrics"
     d="m 1004.316,500.596 h -13.14 v 9.058 h 12.67 V 515 h -12.67 v 17.945 h -5.69 v -37.696 h 18.83 v 5.347 m 20.95,8.569 h 5.5 v 2.197 c 1.05,-1.106 1.96,-1.855 2.71,-2.246 0.79,-0.407 1.79,-0.61 3,-0.61 2.68,0 4.81,1.172 6.37,3.516 1.73,-2.344 4.06,-3.516 7.01,-3.516 5.35,0 8.03,3.247 8.03,9.741 v 14.698 h -5.52 v -13.208 c 0,-2.279 -0.27,-3.89 -0.83,-4.834 -0.57,-0.961 -1.5,-1.441 -2.81,-1.441 -1.51,0 -2.61,0.57 -3.3,1.709 -0.7,1.139 -1.04,2.97 -1.04,5.493 v 12.281 h -5.52 V 519.81 c 0,-4.232 -1.22,-6.348 -3.66,-6.348 -1.55,0 -2.67,0.578 -3.38,1.733 -0.71,1.156 -1.06,2.979 -1.06,5.469 v 12.281 h -5.5 v -23.78 m 45.04,0 v 23.78 h -5.49 v -23.78 h 5.49 m -6.32,-9.887 c 0,-0.961 0.35,-1.791 1.05,-2.491 0.7,-0.7 1.54,-1.05 2.51,-1.05 1,0 1.84,0.35 2.54,1.05 0.7,0.684 1.05,1.522 1.05,2.515 0,0.993 -0.35,1.839 -1.05,2.539 -0.68,0.7 -1.52,1.05 -2.51,1.05 -0.99,0 -1.84,-0.35 -2.54,-1.05 -0.7,-0.7 -1.05,-1.554 -1.05,-2.563 m 20.64,20.8 -8.54,-10.913 h 6.54 l 5.3,6.934 5.39,-6.934 h 6.74 l -8.79,10.913 10.18,12.867 h -6.54 l -6.98,-8.887 -7.16,8.887 h -6.71 l 10.57,-12.867 m 18.39,0.806 c 0,-3.434 1.23,-6.356 3.69,-8.765 2.46,-2.409 5.45,-3.613 8.99,-3.613 3.54,0 6.55,1.213 9.03,3.638 2.44,2.425 3.66,5.403 3.66,8.935 0,3.565 -1.23,6.551 -3.69,8.96 -2.47,2.393 -5.51,3.589 -9.1,3.589 -3.57,0 -6.55,-1.221 -8.96,-3.662 -2.41,-2.409 -3.62,-5.436 -3.62,-9.082 m 5.62,0.098 c 0,2.376 0.63,4.256 1.9,5.639 1.31,1.4 3.02,2.1 5.16,2.1 2.14,0 3.86,-0.692 5.15,-2.075 1.28,-1.384 1.93,-3.231 1.93,-5.542 0,-2.312 -0.65,-4.159 -1.93,-5.542 -1.31,-1.4 -3.02,-2.1 -5.15,-2.1 -2.1,0 -3.8,0.7 -5.11,2.1 -1.3,1.399 -1.95,3.206 -1.95,5.42 m 31.05,-29.273 v 41.236 h -5.5 v -41.236 h 5.5 m 14.89,36.817 -10.69,-19.361 h 6.37 l 7.27,13.672 6.79,-13.672 h 6.2 l -18.94,36.719 h -6.28 l 9.28,-17.358 m 37.21,-36.817 h 5.51 v 41.236 h -5.51 v -2.491 c -2.17,2.116 -4.62,3.174 -7.35,3.174 -3.26,0 -5.96,-1.188 -8.11,-3.564 -2.13,-2.425 -3.2,-5.453 -3.2,-9.082 0,-3.549 1.07,-6.511 3.2,-8.887 2.12,-2.393 4.78,-3.589 7.99,-3.589 2.78,0 5.27,1.139 7.47,3.418 v -20.215 m -13.04,29.273 c 0,2.278 0.61,4.134 1.83,5.566 1.25,1.449 2.83,2.173 4.74,2.173 2.03,0 3.68,-0.7 4.93,-2.1 1.25,-1.448 1.88,-3.287 1.88,-5.517 0,-2.23 -0.63,-4.069 -1.88,-5.518 -1.25,-1.416 -2.88,-2.124 -4.88,-2.124 -1.89,0 -3.47,0.716 -4.74,2.149 -1.25,1.448 -1.88,3.238 -1.88,5.371 m 30.97,-11.817 v 23.78 h -5.49 v -23.78 h 5.49 m -6.32,-9.887 c 0,-0.961 0.35,-1.791 1.05,-2.491 0.7,-0.7 1.53,-1.05 2.51,-1.05 0.99,0 1.84,0.35 2.54,1.05 0.7,0.684 1.05,1.522 1.05,2.515 0,0.993 -0.35,1.839 -1.05,2.539 -0.68,0.7 -1.52,1.05 -2.52,1.05 -0.99,0 -1.83,-0.35 -2.53,-1.05 -0.7,-0.7 -1.05,-1.554 -1.05,-2.563 m 30.79,9.887 h 5.52 v 23.78 h -5.52 v -2.491 c -2.26,2.116 -4.69,3.174 -7.3,3.174 -3.28,0 -6,-1.188 -8.15,-3.564 -2.13,-2.425 -3.2,-5.453 -3.2,-9.082 0,-3.565 1.07,-6.535 3.2,-8.912 2.13,-2.376 4.8,-3.564 8.01,-3.564 2.76,0 5.25,1.139 7.44,3.418 v -2.759 m -13.03,11.817 c 0,2.278 0.61,4.134 1.83,5.566 1.25,1.449 2.83,2.173 4.73,2.173 2.04,0 3.68,-0.7 4.93,-2.1 1.26,-1.448 1.88,-3.287 1.88,-5.517 0,-2.23 -0.62,-4.069 -1.88,-5.518 -1.25,-1.416 -2.88,-2.124 -4.88,-2.124 -1.89,0 -3.47,0.716 -4.73,2.149 -1.26,1.448 -1.88,3.238 -1.88,5.371 m 25.47,-11.817 h 5.52 v 2.197 c 1.92,-1.904 4.08,-2.856 6.49,-2.856 2.77,0 4.93,0.871 6.47,2.612 1.34,1.481 2.01,3.898 2.01,7.251 v 14.576 h -5.52 v -13.282 c 0,-2.343 -0.33,-3.963 -0.98,-4.858 -0.63,-0.912 -1.79,-1.367 -3.47,-1.367 -1.82,0 -3.11,0.602 -3.88,1.806 -0.75,1.188 -1.12,3.264 -1.12,6.226 v 11.475 h -5.52 v -23.78"
     id="path108" />
  <path
     class="Lyrics"
     d="m 823.726,558.423 5.07,1.953 c -1.77,4.248 -3.01,8.17 -3.73,11.767 -0.36,1.823 -0.63,3.74 -0.81,5.75 -0.18,2.01 -0.26,4.203 -0.26,6.579 0,2.393 0.08,4.594 0.26,6.604 0.18,2.01 0.45,3.927 0.81,5.75 0.7,3.581 1.94,7.495 3.73,11.743 l -5.07,1.953 c -3.55,-7.438 -5.33,-16.121 -5.33,-26.05 0,-9.928 1.78,-18.611 5.33,-26.049 m 21.39,24.145 v -4.858 c 2.41,0 4.03,-0.269 4.86,-0.806 1.48,-0.944 2.22,-2.458 2.22,-4.541 0,-1.611 -0.53,-2.922 -1.61,-3.931 -1.06,-1.025 -2.43,-1.538 -4.12,-1.538 -1.58,0 -2.8,0.383 -3.67,1.148 -0.83,0.781 -1.44,2.099 -1.85,3.955 h -5.66 c 0.58,-3.548 1.79,-6.148 3.61,-7.801 1.82,-1.652 4.37,-2.478 7.64,-2.478 3.3,0 6,0.977 8.08,2.93 2.08,1.937 3.13,4.435 3.13,7.495 0,3.451 -1.37,6.136 -4.11,8.057 3.13,1.839 4.69,4.826 4.69,8.96 0,3.385 -1.14,6.152 -3.42,8.301 -2.27,2.148 -5.2,3.222 -8.76,3.222 -4.54,0 -7.91,-1.668 -10.11,-5.005 -0.91,-1.399 -1.49,-3.336 -1.73,-5.81 h 5.49 c 0.29,1.823 1.01,3.218 2.14,4.187 1.13,0.968 2.61,1.453 4.43,1.453 1.84,0 3.36,-0.611 4.56,-1.832 1.21,-1.253 1.81,-2.84 1.81,-4.76 0,-2.539 -0.9,-4.346 -2.71,-5.42 -1.06,-0.619 -2.69,-0.928 -4.91,-0.928 m 24.78,10.449 4.89,1.905 -6.96,13.94 -3.71,-1.538 5.78,-14.307 m 50.28,-25.317 h -11.62 l -1.85,6.25 c 0.27,-0.033 0.54,-0.057 0.79,-0.073 0.25,-0.017 0.48,-0.025 0.69,-0.025 3.67,0 6.67,1.237 9.01,3.711 2.36,2.458 3.54,5.607 3.54,9.448 0,3.972 -1.33,7.243 -4,9.815 -2.67,2.572 -6.03,3.857 -10.08,3.857 -5,0 -8.94,-2.343 -11.82,-7.031 l 4.3,-3.638 c 1.18,2.019 2.38,3.443 3.59,4.273 1.2,0.814 2.67,1.221 4.41,1.221 2.28,0 4.2,-0.798 5.74,-2.393 1.55,-1.644 2.32,-3.638 2.32,-5.981 0,-2.409 -0.76,-4.379 -2.29,-5.909 -1.53,-1.578 -3.45,-2.368 -5.74,-2.368 -2.56,0 -4.76,1.115 -6.62,3.345 h -1.88 l 5.94,-19.824 h 15.57 v 5.322 m 11.43,25.317 4.88,1.905 -6.96,13.94 -3.71,-1.538 5.79,-14.307 m 36.51,1.709 h 14.03 v 5.347 h -25.31 l 13.08,-15.845 c 1.29,-1.579 2.37,-2.946 3.24,-4.101 0.87,-1.156 1.53,-2.124 1.99,-2.906 0.92,-1.53 1.39,-2.905 1.39,-4.126 0,-1.757 -0.62,-3.23 -1.86,-4.419 -1.23,-1.188 -2.76,-1.782 -4.59,-1.782 -3.81,0 -5.99,2.254 -6.54,6.763 h -5.66 c 0.91,-7.943 4.92,-11.914 12.03,-11.914 3.44,0 6.32,1.09 8.64,3.271 2.35,2.181 3.52,4.883 3.52,8.106 0,2.051 -0.55,4.061 -1.64,6.03 -0.55,1.025 -1.36,2.242 -2.42,3.65 -1.07,1.408 -2.42,3.072 -4.05,4.993 l -5.85,6.933 m 25.19,-1.709 4.88,1.905 -6.95,13.94 -3.72,-1.538 5.79,-14.307"
     id="path110" />
  <path
     class="Lyrics"
     d="m 1033.426,560.913 10.55,10.547 h -8.74 v 28.613 h -3.61 V 571.46 h -8.75 l 10.55,-10.547"
     id="path112" />
  <path
     class="Lyrics"
     d="m 1056.396,593.017 4.89,1.905 -6.96,13.94 -3.71,-1.538 5.78,-14.307 m 37.54,-25.317 h -6.52 l 3.12,-5.322 h 9.09 v 37.695 h -5.69 V 567.7 m 21.87,25.317 4.88,1.905 -6.95,13.94 -3.72,-1.538 5.79,-14.307 m 32.94,-34.179 v 41.235 h -5.49 v -41.235 h 5.49 m 5.83,29.174 c 0,-3.434 1.22,-6.355 3.68,-8.764 2.46,-2.409 5.45,-3.614 8.99,-3.614 3.54,0 6.56,1.213 9.03,3.638 2.44,2.425 3.66,5.404 3.66,8.936 0,3.564 -1.23,6.551 -3.68,8.96 -2.48,2.392 -5.51,3.589 -9.11,3.589 -3.57,0 -6.55,-1.221 -8.96,-3.663 -2.41,-2.408 -3.61,-5.436 -3.61,-9.082 m 5.61,0.098 c 0,2.376 0.64,4.256 1.9,5.64 1.31,1.399 3.02,2.099 5.16,2.099 2.14,0 3.86,-0.691 5.15,-2.075 1.28,-1.383 1.93,-3.231 1.93,-5.542 0,-2.311 -0.65,-4.158 -1.93,-5.542 -1.3,-1.4 -3.02,-2.099 -5.15,-2.099 -2.1,0 -3.8,0.699 -5.11,2.099 -1.3,1.4 -1.95,3.207 -1.95,5.42 m 24.43,-0.098 c 0,-3.434 1.23,-6.355 3.69,-8.764 2.46,-2.409 5.45,-3.614 8.98,-3.614 3.55,0 6.56,1.213 9.04,3.638 2.44,2.425 3.66,5.404 3.66,8.936 0,3.564 -1.23,6.551 -3.69,8.96 -2.47,2.392 -5.51,3.589 -9.1,3.589 -3.57,0 -6.56,-1.221 -8.96,-3.663 -2.41,-2.408 -3.62,-5.436 -3.62,-9.082 m 5.62,0.098 c 0,2.376 0.63,4.256 1.9,5.64 1.3,1.399 3.02,2.099 5.15,2.099 2.15,0 3.87,-0.691 5.15,-2.075 1.29,-1.383 1.93,-3.231 1.93,-5.542 0,-2.311 -0.64,-4.158 -1.93,-5.542 -1.3,-1.4 -3.01,-2.099 -5.15,-2.099 -2.1,0 -3.8,0.699 -5.1,2.099 -1.3,1.4 -1.95,3.207 -1.95,5.42 m 31.05,24.902 h -5.5 v -36.718 h 5.5 v 2.588 c 2.16,-2.165 4.62,-3.248 7.37,-3.248 3.27,0 5.96,1.205 8.08,3.614 2.15,2.392 3.22,5.412 3.22,9.057 0,3.565 -1.06,6.535 -3.2,8.912 -2.11,2.36 -4.78,3.54 -8,3.54 -2.79,0 -5.28,-1.115 -7.47,-3.345 v 15.6 m 13.06,-24.682 c 0,-2.279 -0.62,-4.134 -1.86,-5.567 -1.25,-1.448 -2.83,-2.172 -4.73,-2.172 -2.02,0 -3.66,0.699 -4.91,2.099 -1.26,1.4 -1.88,3.239 -1.88,5.518 0,2.23 0.62,4.069 1.88,5.517 1.23,1.416 2.86,2.124 4.88,2.124 1.9,0 3.48,-0.716 4.71,-2.148 1.27,-1.432 1.91,-3.223 1.91,-5.371 m 35.89,6.396 h 14.04 v 5.347 h -25.32 l 13.09,-15.845 c 1.28,-1.579 2.36,-2.946 3.23,-4.101 0.87,-1.156 1.54,-2.124 1.99,-2.906 0.93,-1.53 1.39,-2.905 1.39,-4.126 0,-1.757 -0.62,-3.23 -1.85,-4.419 -1.24,-1.188 -2.77,-1.782 -4.59,-1.782 -3.81,0 -5.99,2.254 -6.55,6.763 h -5.66 c 0.91,-7.943 4.92,-11.914 12.04,-11.914 3.43,0 6.31,1.09 8.64,3.271 2.34,2.181 3.52,4.883 3.52,8.106 0,2.051 -0.55,4.061 -1.64,6.03 -0.55,1.025 -1.36,2.242 -2.43,3.65 -1.07,1.408 -2.41,3.072 -4.04,4.993 l -5.86,6.933"
     id="path114" />
  <path
     class="Lyrics"
     d="m 1320.126,603.1 10.55,-10.547 h -8.74 V 563.94 h -3.61 v 28.613 h -8.74 l 10.54,10.547"
     id="path116" />
  <path
     class="Lyrics"
     d="m 1343.106,593.017 4.88,1.905 -6.96,13.94 -3.71,-1.538 5.79,-14.307 m 37.53,-25.317 h -6.52 l 3.13,-5.322 h 9.08 v 37.695 h -5.69 V 567.7 m 25.78,42.822 -5.08,-1.953 c 1.79,-4.248 3.04,-8.162 3.74,-11.743 0.73,-3.581 1.1,-7.699 1.1,-12.354 0,-4.622 -0.37,-8.732 -1.1,-12.329 -0.72,-3.597 -1.96,-7.519 -3.74,-11.767 l 5.08,-1.953 c 3.55,7.438 5.32,16.121 5.32,26.049 0,9.929 -1.77,18.612 -5.32,26.05"
     id="path118" />
  <metadata
     id="metadata362">
    <rdf:RDF>
      <cc:Work
         rdf:about="">
        <dc:title>tmp5gbwzw94</dc:title>
      </cc:Work>
    </rdf:RDF>
  </metadata>
</svg>
