<?xml version="1.0" encoding="UTF-8" standalone="no"?>
<svg width="2976.38px" height="4209.45px" viewBox="0 0 2976.38 4209.45"
 xmlns="http://www.w3.org/2000/svg" xmlns:xlink="http://www.w3.org/1999/xlink" version="1.2" baseProfile="tiny">
<title>tmpbrn3ayfs</title>
<desc>Generated by MuseScore 3.6.2</desc>
<polyline class="StaffLines" fill="none" stroke="#000000" stroke-width="2.73" stroke-linejoin="bevel" points="336.614,634.252 2763.78,634.252"/>
<polyline class="StaffLines" fill="none" stroke="#000000" stroke-width="2.73" stroke-linejoin="bevel" points="336.614,659.055 2763.78,659.055"/>
<polyline class="StaffLines" fill="none" stroke="#000000" stroke-width="2.73" stroke-linejoin="bevel" points="336.614,683.858 2763.78,683.858"/>
<polyline class="StaffLines" fill="none" stroke="#000000" stroke-width="2.73" stroke-linejoin="bevel" points="336.614,708.661 2763.78,708.661"/>
<polyline class="StaffLines" fill="none" stroke="#000000" stroke-width="2.73" stroke-linejoin="bevel" points="336.614,733.465 2763.78,733.465"/>
<path class="Text" d="M1241.23,467.88 L1241.23,400.029 L1251.42,400.029 C1255.96,400.029 1259.58,400.38 1262.28,401.083 C1265,401.786 1267.3,402.973 1269.18,404.643 C1271.08,406.371 1272.59,408.525 1273.7,411.103 C1274.85,413.71 1275.42,416.347 1275.42,419.013 C1275.42,423.876 1273.56,427.992 1269.84,431.362 C1273.44,432.592 1276.28,434.745 1278.36,437.822 C1280.47,440.868 1281.53,444.413 1281.53,448.456 C1281.53,453.759 1279.65,458.241 1275.9,461.904 C1273.65,464.159 1271.11,465.727 1268.3,466.606 C1265.22,467.455 1261.37,467.88 1256.74,467.88 L1241.23,467.88 M1251.47,429.164 L1254.68,429.164 C1258.48,429.164 1261.27,428.322 1263.05,426.637 C1264.82,424.953 1265.71,422.47 1265.71,419.189 C1265.71,415.995 1264.8,413.571 1262.98,411.916 C1261.16,410.261 1258.53,409.433 1255.07,409.433 L1251.47,409.433 L1251.47,429.164 M1251.47,458.256 L1257.8,458.256 C1262.42,458.256 1265.82,457.348 1267.99,455.532 C1270.28,453.569 1271.42,451.078 1271.42,448.061 C1271.42,445.131 1270.32,442.67 1268.12,440.678 C1265.98,438.715 1262.16,437.734 1256.65,437.734 L1251.47,437.734 L1251.47,458.256 M1302.43,425.077 L1302.43,467.88 L1292.54,467.88 L1292.54,425.077 L1302.43,425.077 M1291.05,407.28 C1291.05,405.551 1291.68,404.057 1292.94,402.797 C1294.2,401.537 1295.71,400.908 1297.46,400.908 C1299.25,400.908 1300.77,401.537 1302.03,402.797 C1303.29,404.028 1303.92,405.536 1303.92,407.324 C1303.92,409.111 1303.29,410.634 1302.03,411.894 C1300.8,413.154 1299.29,413.783 1297.51,413.783 C1295.72,413.783 1294.2,413.154 1292.94,411.894 C1291.68,410.634 1291.05,409.096 1291.05,407.28 M1324.84,393.657 L1324.84,467.88 L1314.95,467.88 L1314.95,393.657 L1324.84,393.657 M1347.24,393.657 L1347.24,467.88 L1337.35,467.88 L1337.35,393.657 L1347.24,393.657 M1426.86,409.653 L1399.66,409.653 L1399.66,425.956 L1426.07,425.956 L1426.07,435.58 L1399.66,435.58 L1399.66,458.256 L1426.86,458.256 L1426.86,467.88 L1389.42,467.88 L1389.42,400.029 L1426.86,400.029 L1426.86,409.653 M1443.72,425.077 L1454.79,449.116 L1465.82,425.077 L1476.94,425.077 L1454.7,470.825 L1432.64,425.077 L1443.72,425.077 M1513.63,425.077 L1523.56,425.077 L1523.56,467.88 L1513.63,467.88 L1513.63,463.398 C1509.55,467.206 1505.17,469.111 1500.49,469.111 C1494.57,469.111 1489.68,466.972 1485.81,462.695 C1481.97,458.329 1480.05,452.88 1480.05,446.347 C1480.05,439.931 1481.97,434.584 1485.81,430.307 C1489.65,426.03 1494.45,423.891 1500.22,423.891 C1505.2,423.891 1509.67,425.942 1513.63,430.043 L1513.63,425.077 M1490.16,446.347 C1490.16,450.449 1491.26,453.788 1493.45,456.366 C1495.71,458.974 1498.55,460.278 1501.98,460.278 C1505.64,460.278 1508.6,459.018 1510.86,456.498 C1513.11,453.891 1514.24,450.58 1514.24,446.567 C1514.24,442.553 1513.11,439.242 1510.86,436.635 C1508.6,434.086 1505.67,432.812 1502.07,432.812 C1498.67,432.812 1495.83,434.101 1493.54,436.679 C1491.29,439.286 1490.16,442.509 1490.16,446.347 M1536.03,425.077 L1545.96,425.077 L1545.96,429.033 C1549.41,425.605 1553.31,423.891 1557.65,423.891 C1562.63,423.891 1566.51,425.458 1569.29,428.593 C1571.7,431.259 1572.9,435.61 1572.9,441.645 L1572.9,467.88 L1562.96,467.88 L1562.96,443.974 C1562.96,439.755 1562.38,436.84 1561.21,435.229 C1560.06,433.588 1557.98,432.768 1554.97,432.768 C1551.69,432.768 1549.36,433.852 1547.98,436.02 C1546.63,438.158 1545.96,441.894 1545.96,447.226 L1545.96,467.88 L1536.03,467.88 L1536.03,425.077 M1610.24,432.372 L1602.07,436.723 C1600.78,434.086 1599.18,432.768 1597.28,432.768 C1596.37,432.768 1595.59,433.068 1594.95,433.669 C1594.31,434.269 1593.98,435.038 1593.98,435.976 C1593.98,437.616 1595.89,439.242 1599.7,440.854 C1604.94,443.11 1608.47,445.19 1610.29,447.094 C1612.1,448.998 1613.01,451.562 1613.01,454.784 C1613.01,458.915 1611.49,462.372 1608.44,465.156 C1605.48,467.792 1601.91,469.111 1597.72,469.111 C1590.54,469.111 1585.46,465.61 1582.47,458.608 L1590.91,454.697 C1592.08,456.747 1592.97,458.051 1593.59,458.608 C1594.79,459.721 1596.22,460.278 1597.89,460.278 C1601.23,460.278 1602.9,458.754 1602.9,455.707 C1602.9,453.95 1601.62,452.309 1599.04,450.785 C1598.04,450.287 1597.04,449.804 1596.05,449.335 C1595.05,448.866 1594.04,448.383 1593.02,447.885 C1590.15,446.479 1588.12,445.073 1586.95,443.666 C1585.46,441.879 1584.71,439.579 1584.71,436.767 C1584.71,433.046 1585.99,429.97 1588.53,427.538 C1591.14,425.107 1594.31,423.891 1598.03,423.891 C1603.5,423.891 1607.58,426.718 1610.24,432.372 M1697.33,419.101 L1697.33,426.835 L1686.65,426.835 L1685.07,439.448 L1694.83,439.448 L1694.83,447.182 L1684.1,447.182 L1681.51,468.188 L1673.78,467.177 L1676.28,447.182 L1663.23,447.182 L1660.59,468.188 L1652.77,467.177 L1655.28,447.006 L1645.26,447.006 L1645.26,439.448 L1656.37,439.448 L1657.96,426.835 L1647.81,426.835 L1647.81,419.101 L1658.92,419.101 L1661.34,399.413 L1669.03,400.424 L1666.7,419.101 L1679.67,419.101 L1682.13,399.413 L1689.82,400.424 L1687.49,419.101 L1697.33,419.101 M1678.7,426.835 L1665.78,426.835 L1664.2,439.448 L1677.2,439.448 L1678.7,426.835 M1723.35,409.609 L1711.61,409.609 L1717.24,400.029 L1733.59,400.029 L1733.59,467.88 L1723.35,467.88 L1723.35,409.609 "/>
<path class="TieSegment" stroke="#000000" stroke-width="1.74" stroke-linecap="round" stroke-linejoin="round" fill-rule="evenodd" d="M2179.39,665.256 C2211.19,637.621 2306.56,637.621 2338.36,665.256 C2306.56,644.566 2211.19,644.566 2179.39,665.256"/>
<polyline class="BarLine" stroke="#000000" stroke-width="4.46" stroke-linejoin="bevel" points="1062.69,632.888 1062.69,734.829"/>
<polyline class="BarLine" stroke="#000000" stroke-width="4.46" stroke-linejoin="bevel" points="2292.6,632.888 2292.6,734.829"/>
<polyline class="BarLine" stroke="#000000" stroke-width="4.46" stroke-linejoin="bevel" points="2739.6,632.888 2739.6,734.829"/>
<polyline class="BarLine" stroke="#000000" stroke-width="13.64" stroke-linejoin="bevel" points="2756.96,632.888 2756.96,734.829"/>
<path class="Accidental" transform="matrix(0.992126,0,0,0.992126,546.103,721.063)" d="M23.3,-10.6 C23.9,-10.7 24.4,-11.4 24.4,-12 L24.4,-17.9 C24.4,-18.7 23.8,-19.3 23,-19.3 L22.8,-19.3 L19.5,-18.6 L19.5,-33.5 L16.7,-33.5 L16.7,-18 L7.8,-16.2 L7.8,-30.3 L5,-30.3 L5,-15.6 L1.1,-14.8 C0.5,-14.7 0,-14 0,-13.4 L0,-13.2 L0,-7.4 L0,-7.6 C0,-6.8 0.6,-6.2 1.4,-6.2 L1.7,-6.2 L5,-6.9 L5,9.6 L1.1,10.4 C0.5,10.5 0,11.2 0,11.8 L0,17.6 C0,18.4 0.6,19 1.4,19 L1.7,19 L5,18.3 L5,33.2 L7.8,33.2 L7.8,17.7 L16.7,15.9 L16.7,30 L19.5,30 L19.5,15.3 L23.3,14.6 C23.9,14.5 24.4,13.8 24.4,13.2 L24.4,7.3 C24.4,6.5 23.8,5.9 23,5.9 L22.8,5.9 L19.5,6.6 L19.5,-9.9 L23.3,-10.6 M7.8,9.1 L7.8,-7.5 L16.7,-9.3 L16.7,7.2 L7.8,9.1 "/>
<path class="Accidental" transform="matrix(0.992126,0,0,0.992126,728.145,646.654)" d="M20.1,-7.9 C19.5,-11.8 17.1,-15.5 12,-15.5 C7,-15.5 4.1,-12.4 3.6,-11.8 L4,-43.9 C4,-44.7 3.4,-45.3 2.6,-45.3 L1.4,-45.3 C0.6,-45.3 0,-44.7 0,-43.9 L0.5,16.2 C0.5,17 1.1,17.6 1.9,17.6 C2.1,17.6 2.5,17.5 2.7,17.4 C3.1,17.2 9.6,14 15,7.9 C18.8,3.6 20.3,-1.3 20.3,-5.4 C20.3,-6.3 20.2,-7.1 20.1,-7.9 M13.2,-4 C13.2,-2.5 12.8,2.1 10.3,5.9 C8.6,8.5 5.2,11.2 3.3,12.7 L3.6,-6.8 C3.8,-7.7 5.3,-10.6 9.3,-10.6 C12.9,-10.6 13.2,-7.2 13.2,-5.1 L13.2,-4 "/>
<path class="Accidental" transform="matrix(0.992126,0,0,0.992126,960.607,671.457)" d="M23.3,-10.6 C23.9,-10.7 24.4,-11.4 24.4,-12 L24.4,-17.9 C24.4,-18.7 23.8,-19.3 23,-19.3 L22.8,-19.3 L19.5,-18.6 L19.5,-33.5 L16.7,-33.5 L16.7,-18 L7.8,-16.2 L7.8,-30.3 L5,-30.3 L5,-15.6 L1.1,-14.8 C0.5,-14.7 0,-14 0,-13.4 L0,-13.2 L0,-7.4 L0,-7.6 C0,-6.8 0.6,-6.2 1.4,-6.2 L1.7,-6.2 L5,-6.9 L5,9.6 L1.1,10.4 C0.5,10.5 0,11.2 0,11.8 L0,17.6 C0,18.4 0.6,19 1.4,19 L1.7,19 L5,18.3 L5,33.2 L7.8,33.2 L7.8,17.7 L16.7,15.9 L16.7,30 L19.5,30 L19.5,15.3 L23.3,14.6 C23.9,14.5 24.4,13.8 24.4,13.2 L24.4,7.3 C24.4,6.5 23.8,5.9 23,5.9 L22.8,5.9 L19.5,6.6 L19.5,-9.9 L23.3,-10.6 M7.8,9.1 L7.8,-7.5 L16.7,-9.3 L16.7,7.2 L7.8,9.1 "/>
<path class="Accidental" transform="matrix(0.992126,0,0,0.992126,1349.93,683.858)" d="M20.1,-7.9 C19.5,-11.8 17.1,-15.5 12,-15.5 C7,-15.5 4.1,-12.4 3.6,-11.8 L4,-43.9 C4,-44.7 3.4,-45.3 2.6,-45.3 L1.4,-45.3 C0.6,-45.3 0,-44.7 0,-43.9 L0.5,16.2 C0.5,17 1.1,17.6 1.9,17.6 C2.1,17.6 2.5,17.5 2.7,17.4 C3.1,17.2 9.6,14 15,7.9 C18.8,3.6 20.3,-1.3 20.3,-5.4 C20.3,-6.3 20.2,-7.1 20.1,-7.9 M13.2,-4 C13.2,-2.5 12.8,2.1 10.3,5.9 C8.6,8.5 5.2,11.2 3.3,12.7 L3.6,-6.8 C3.8,-7.7 5.3,-10.6 9.3,-10.6 C12.9,-10.6 13.2,-7.2 13.2,-5.1 L13.2,-4 "/>
<path class="Accidental" transform="matrix(0.992126,0,0,0.992126,1916.95,721.063)" d="M23.3,-10.6 C23.9,-10.7 24.4,-11.4 24.4,-12 L24.4,-17.9 C24.4,-18.7 23.8,-19.3 23,-19.3 L22.8,-19.3 L19.5,-18.6 L19.5,-33.5 L16.7,-33.5 L16.7,-18 L7.8,-16.2 L7.8,-30.3 L5,-30.3 L5,-15.6 L1.1,-14.8 C0.5,-14.7 0,-14 0,-13.4 L0,-13.2 L0,-7.4 L0,-7.6 C0,-6.8 0.6,-6.2 1.4,-6.2 L1.7,-6.2 L5,-6.9 L5,9.6 L1.1,10.4 C0.5,10.5 0,11.2 0,11.8 L0,17.6 C0,18.4 0.6,19 1.4,19 L1.7,19 L5,18.3 L5,33.2 L7.8,33.2 L7.8,17.7 L16.7,15.9 L16.7,30 L19.5,30 L19.5,15.3 L23.3,14.6 C23.9,14.5 24.4,13.8 24.4,13.2 L24.4,7.3 C24.4,6.5 23.8,5.9 23,5.9 L22.8,5.9 L19.5,6.6 L19.5,-9.9 L23.3,-10.6 M7.8,9.1 L7.8,-7.5 L16.7,-9.3 L16.7,7.2 L7.8,9.1 "/>
<path class="Accidental" transform="matrix(0.992126,0,0,0.992126,2369.73,721.063)" d="M23.3,-10.6 C23.9,-10.7 24.4,-11.4 24.4,-12 L24.4,-17.9 C24.4,-18.7 23.8,-19.3 23,-19.3 L22.8,-19.3 L19.5,-18.6 L19.5,-33.5 L16.7,-33.5 L16.7,-18 L7.8,-16.2 L7.8,-30.3 L5,-30.3 L5,-15.6 L1.1,-14.8 C0.5,-14.7 0,-14 0,-13.4 L0,-13.2 L0,-7.4 L0,-7.6 C0,-6.8 0.6,-6.2 1.4,-6.2 L1.7,-6.2 L5,-6.9 L5,9.6 L1.1,10.4 C0.5,10.5 0,11.2 0,11.8 L0,17.6 C0,18.4 0.6,19 1.4,19 L1.7,19 L5,18.3 L5,33.2 L7.8,33.2 L7.8,17.7 L16.7,15.9 L16.7,30 L19.5,30 L19.5,15.3 L23.3,14.6 C23.9,14.5 24.4,13.8 24.4,13.2 L24.4,7.3 C24.4,6.5 23.8,5.9 23,5.9 L22.8,5.9 L19.5,6.6 L19.5,-9.9 L23.3,-10.6 M7.8,9.1 L7.8,-7.5 L16.7,-9.3 L16.7,7.2 L7.8,9.1 "/>
<polyline class="Stem" stroke="#000000" stroke-width="2.73" stroke-linejoin="bevel" points="607.382,717.888 607.382,640.453"/>
<polyline class="Stem" stroke="#000000" stroke-width="2.73" stroke-linejoin="bevel" points="661.873,693.085 661.873,628.051"/>
<polyline class="Stem" stroke="#000000" stroke-width="2.73" stroke-linejoin="bevel" points="686.855,674.79 686.855,739.665"/>
<polyline class="Stem" stroke="#000000" stroke-width="2.73" stroke-linejoin="bevel" points="755.847,649.987 755.847,727.264"/>
<polyline class="Stem" stroke="#000000" stroke-width="2.73" stroke-linejoin="bevel" points="810.337,637.586 810.337,708.661"/>
<polyline class="Stem" stroke="#000000" stroke-width="2.73" stroke-linejoin="bevel" points="864.827,649.987 864.827,714.862"/>
<polyline class="Stem" stroke="#000000" stroke-width="2.73" stroke-linejoin="bevel" points="919.318,674.79 919.318,739.665"/>
<polyline class="Stem" stroke="#000000" stroke-width="2.73" stroke-linejoin="bevel" points="992.378,674.79 992.378,739.665"/>
<polyline class="Stem" stroke="#000000" stroke-width="2.73" stroke-linejoin="bevel" points="1245.7,662.389 1245.7,733.465"/>
<polyline class="Stem" stroke="#000000" stroke-width="2.73" stroke-linejoin="bevel" points="1377.63,687.192 1377.63,758.268"/>
<polyline class="Stem" stroke="#000000" stroke-width="2.73" stroke-linejoin="bevel" points="1539.06,705.487 1539.06,628.051"/>
<polyline class="Stem" stroke="#000000" stroke-width="2.73" stroke-linejoin="bevel" points="1670.99,668.282 1670.99,603.248"/>
<polyline class="Stem" stroke="#000000" stroke-width="2.73" stroke-linejoin="bevel" points="1802.91,693.085 1802.91,615.65"/>
<polyline class="Stem" stroke="#000000" stroke-width="2.73" stroke-linejoin="bevel" points="1978.23,717.888 1978.23,634.252"/>
<polyline class="Stem" stroke="#000000" stroke-width="2.73" stroke-linejoin="bevel" points="2159.8,687.192 2159.8,770.669"/>
<polyline class="Stem" stroke="#000000" stroke-width="2.73" stroke-linejoin="bevel" points="2357.95,680.683 2357.95,609.449"/>
<polyline class="Stem" stroke="#000000" stroke-width="2.73" stroke-linejoin="bevel" points="2431.01,717.888 2431.01,634.252"/>
<polyline class="Stem" stroke="#000000" stroke-width="2.73" stroke-linejoin="bevel" points="2487.67,705.487 2487.67,634.252"/>
<polyline class="Stem" stroke="#000000" stroke-width="2.73" stroke-linejoin="bevel" points="2544.34,693.085 2544.34,628.051"/>
<polyline class="Stem" stroke="#000000" stroke-width="2.73" stroke-linejoin="bevel" points="2601.01,705.487 2601.01,624.951"/>
<path class="Note" transform="matrix(0.992126,0,0,0.992126,576.51,721.063)" d="M31.5,-8.1 C29.7,-11.4 25.9,-13.2 21.3,-13.2 C17.9,-13.2 14.2,-12.2 10.6,-10.3 C4,-6.8 0,-0.9 0,4.2 C0,5.6 0.3,7 1,8.3 C2.8,11.6 6.6,13.3 11.2,13.3 C14.6,13.3 18.3,12.4 21.9,10.5 C28.5,7 32.5,1.1 32.5,-4 C32.5,-5.4 32.2,-6.8 31.5,-8.1"/>
<path class="Note" transform="matrix(0.992126,0,0,0.992126,631.001,696.26)" d="M31.5,-8.1 C29.7,-11.4 25.9,-13.2 21.3,-13.2 C17.9,-13.2 14.2,-12.2 10.6,-10.3 C4,-6.8 0,-0.9 0,4.2 C0,5.6 0.3,7 1,8.3 C2.8,11.6 6.6,13.3 11.2,13.3 C14.6,13.3 18.3,12.4 21.9,10.5 C28.5,7 32.5,1.1 32.5,-4 C32.5,-5.4 32.2,-6.8 31.5,-8.1"/>
<path class="Note" transform="matrix(0.992126,0,0,0.992126,685.491,671.457)" d="M31.5,-8.1 C29.7,-11.4 25.9,-13.2 21.3,-13.2 C17.9,-13.2 14.2,-12.2 10.6,-10.3 C4,-6.8 0,-0.9 0,4.2 C0,5.6 0.3,7 1,8.3 C2.8,11.6 6.6,13.3 11.2,13.3 C14.6,13.3 18.3,12.4 21.9,10.5 C28.5,7 32.5,1.1 32.5,-4 C32.5,-5.4 32.2,-6.8 31.5,-8.1"/>
<path class="Note" transform="matrix(0.992126,0,0,0.992126,754.482,646.654)" d="M31.5,-8.1 C29.7,-11.4 25.9,-13.2 21.3,-13.2 C17.9,-13.2 14.2,-12.2 10.6,-10.3 C4,-6.8 0,-0.9 0,4.2 C0,5.6 0.3,7 1,8.3 C2.8,11.6 6.6,13.3 11.2,13.3 C14.6,13.3 18.3,12.4 21.9,10.5 C28.5,7 32.5,1.1 32.5,-4 C32.5,-5.4 32.2,-6.8 31.5,-8.1"/>
<path class="Note" transform="matrix(0.992126,0,0,0.992126,808.973,634.252)" d="M31.5,-8.1 C29.7,-11.4 25.9,-13.2 21.3,-13.2 C17.9,-13.2 14.2,-12.2 10.6,-10.3 C4,-6.8 0,-0.9 0,4.2 C0,5.6 0.3,7 1,8.3 C2.8,11.6 6.6,13.3 11.2,13.3 C14.6,13.3 18.3,12.4 21.9,10.5 C28.5,7 32.5,1.1 32.5,-4 C32.5,-5.4 32.2,-6.8 31.5,-8.1"/>
<path class="Note" transform="matrix(0.992126,0,0,0.992126,863.463,646.654)" d="M31.5,-8.1 C29.7,-11.4 25.9,-13.2 21.3,-13.2 C17.9,-13.2 14.2,-12.2 10.6,-10.3 C4,-6.8 0,-0.9 0,4.2 C0,5.6 0.3,7 1,8.3 C2.8,11.6 6.6,13.3 11.2,13.3 C14.6,13.3 18.3,12.4 21.9,10.5 C28.5,7 32.5,1.1 32.5,-4 C32.5,-5.4 32.2,-6.8 31.5,-8.1"/>
<path class="Note" transform="matrix(0.992126,0,0,0.992126,917.954,671.457)" d="M31.5,-8.1 C29.7,-11.4 25.9,-13.2 21.3,-13.2 C17.9,-13.2 14.2,-12.2 10.6,-10.3 C4,-6.8 0,-0.9 0,4.2 C0,5.6 0.3,7 1,8.3 C2.8,11.6 6.6,13.3 11.2,13.3 C14.6,13.3 18.3,12.4 21.9,10.5 C28.5,7 32.5,1.1 32.5,-4 C32.5,-5.4 32.2,-6.8 31.5,-8.1"/>
<path class="Note" transform="matrix(0.992126,0,0,0.992126,991.014,671.457)" d="M31.5,-8.1 C29.7,-11.4 25.9,-13.2 21.3,-13.2 C17.9,-13.2 14.2,-12.2 10.6,-10.3 C4,-6.8 0,-0.9 0,4.2 C0,5.6 0.3,7 1,8.3 C2.8,11.6 6.6,13.3 11.2,13.3 C14.6,13.3 18.3,12.4 21.9,10.5 C28.5,7 32.5,1.1 32.5,-4 C32.5,-5.4 32.2,-6.8 31.5,-8.1"/>
<path class="Note" transform="matrix(0.992126,0,0,0.992126,1244.33,659.055)" d="M31.5,-8.1 C29.7,-11.4 25.9,-13.2 21.3,-13.2 C17.9,-13.2 14.2,-12.2 10.6,-10.3 C4,-6.8 0,-0.9 0,4.2 C0,5.6 0.3,7 1,8.3 C2.8,11.6 6.6,13.3 11.2,13.3 C14.6,13.3 18.3,12.4 21.9,10.5 C28.5,7 32.5,1.1 32.5,-4 C32.5,-5.4 32.2,-6.8 31.5,-8.1"/>
<path class="Note" transform="matrix(0.992126,0,0,0.992126,1376.27,683.858)" d="M31.5,-8.1 C29.7,-11.4 25.9,-13.2 21.3,-13.2 C17.9,-13.2 14.2,-12.2 10.6,-10.3 C4,-6.8 0,-0.9 0,4.2 C0,5.6 0.3,7 1,8.3 C2.8,11.6 6.6,13.3 11.2,13.3 C14.6,13.3 18.3,12.4 21.9,10.5 C28.5,7 32.5,1.1 32.5,-4 C32.5,-5.4 32.2,-6.8 31.5,-8.1"/>
<path class="Note" transform="matrix(0.992126,0,0,0.992126,1508.19,708.661)" d="M31.5,-8.1 C29.7,-11.4 25.9,-13.2 21.3,-13.2 C17.9,-13.2 14.2,-12.2 10.6,-10.3 C4,-6.8 0,-0.9 0,4.2 C0,5.6 0.3,7 1,8.3 C2.8,11.6 6.6,13.3 11.2,13.3 C14.6,13.3 18.3,12.4 21.9,10.5 C28.5,7 32.5,1.1 32.5,-4 C32.5,-5.4 32.2,-6.8 31.5,-8.1"/>
<path class="Note" transform="matrix(0.992126,0,0,0.992126,1640.11,671.457)" d="M31.5,-8.1 C29.7,-11.4 25.9,-13.2 21.3,-13.2 C17.9,-13.2 14.2,-12.2 10.6,-10.3 C4,-6.8 0,-0.9 0,4.2 C0,5.6 0.3,7 1,8.3 C2.8,11.6 6.6,13.3 11.2,13.3 C14.6,13.3 18.3,12.4 21.9,10.5 C28.5,7 32.5,1.1 32.5,-4 C32.5,-5.4 32.2,-6.8 31.5,-8.1"/>
<path class="Note" transform="matrix(0.992126,0,0,0.992126,1772.04,696.26)" d="M31.5,-8.1 C29.7,-11.4 25.9,-13.2 21.3,-13.2 C17.9,-13.2 14.2,-12.2 10.6,-10.3 C4,-6.8 0,-0.9 0,4.2 C0,5.6 0.3,7 1,8.3 C2.8,11.6 6.6,13.3 11.2,13.3 C14.6,13.3 18.3,12.4 21.9,10.5 C28.5,7 32.5,1.1 32.5,-4 C32.5,-5.4 32.2,-6.8 31.5,-8.1"/>
<path class="Note" transform="matrix(0.992126,0,0,0.992126,1947.36,721.063)" d="M31.5,-8.1 C29.7,-11.4 25.9,-13.2 21.3,-13.2 C17.9,-13.2 14.2,-12.2 10.6,-10.3 C4,-6.8 0,-0.9 0,4.2 C0,5.6 0.3,7 1,8.3 C2.8,11.6 6.6,13.3 11.2,13.3 C14.6,13.3 18.3,12.4 21.9,10.5 C28.5,7 32.5,1.1 32.5,-4 C32.5,-5.4 32.2,-6.8 31.5,-8.1"/>
<path class="Note" transform="matrix(0.992126,0,0,0.992126,2158.44,683.858)" d="M31.5,-8.1 C29.7,-11.4 25.9,-13.2 21.3,-13.2 C17.9,-13.2 14.2,-12.2 10.6,-10.3 C4,-6.8 0,-0.9 0,4.2 C0,5.6 0.3,7 1,8.3 C2.8,11.6 6.6,13.3 11.2,13.3 C14.6,13.3 18.3,12.4 21.9,10.5 C28.5,7 32.5,1.1 32.5,-4 C32.5,-5.4 32.2,-6.8 31.5,-8.1"/>
<path class="Note" transform="matrix(0.992126,0,0,0.992126,2327.07,683.858)" d="M31.5,-8.1 C29.7,-11.4 25.9,-13.2 21.3,-13.2 C17.9,-13.2 14.2,-12.2 10.6,-10.3 C4,-6.8 0,-0.9 0,4.2 C0,5.6 0.3,7 1,8.3 C2.8,11.6 6.6,13.3 11.2,13.3 C14.6,13.3 18.3,12.4 21.9,10.5 C28.5,7 32.5,1.1 32.5,-4 C32.5,-5.4 32.2,-6.8 31.5,-8.1"/>
<path class="Note" transform="matrix(0.992126,0,0,0.992126,2400.13,721.063)" d="M31.5,-8.1 C29.7,-11.4 25.9,-13.2 21.3,-13.2 C17.9,-13.2 14.2,-12.2 10.6,-10.3 C4,-6.8 0,-0.9 0,4.2 C0,5.6 0.3,7 1,8.3 C2.8,11.6 6.6,13.3 11.2,13.3 C14.6,13.3 18.3,12.4 21.9,10.5 C28.5,7 32.5,1.1 32.5,-4 C32.5,-5.4 32.2,-6.8 31.5,-8.1"/>
<path class="Note" transform="matrix(0.992126,0,0,0.992126,2456.8,708.661)" d="M31.5,-8.1 C29.7,-11.4 25.9,-13.2 21.3,-13.2 C17.9,-13.2 14.2,-12.2 10.6,-10.3 C4,-6.8 0,-0.9 0,4.2 C0,5.6 0.3,7 1,8.3 C2.8,11.6 6.6,13.3 11.2,13.3 C14.6,13.3 18.3,12.4 21.9,10.5 C28.5,7 32.5,1.1 32.5,-4 C32.5,-5.4 32.2,-6.8 31.5,-8.1"/>
<path class="Note" transform="matrix(0.992126,0,0,0.992126,2513.47,696.26)" d="M31.5,-8.1 C29.7,-11.4 25.9,-13.2 21.3,-13.2 C17.9,-13.2 14.2,-12.2 10.6,-10.3 C4,-6.8 0,-0.9 0,4.2 C0,5.6 0.3,7 1,8.3 C2.8,11.6 6.6,13.3 11.2,13.3 C14.6,13.3 18.3,12.4 21.9,10.5 C28.5,7 32.5,1.1 32.5,-4 C32.5,-5.4 32.2,-6.8 31.5,-8.1"/>
<path class="Note" transform="matrix(0.992126,0,0,0.992126,2570.14,708.661)" d="M31.5,-8.1 C29.7,-11.4 25.9,-13.2 21.3,-13.2 C17.9,-13.2 14.2,-12.2 10.6,-10.3 C4,-6.8 0,-0.9 0,4.2 C0,5.6 0.3,7 1,8.3 C2.8,11.6 6.6,13.3 11.2,13.3 C14.6,13.3 18.3,12.4 21.9,10.5 C28.5,7 32.5,1.1 32.5,-4 C32.5,-5.4 32.2,-6.8 31.5,-8.1"/>
<path class="Clef" transform="matrix(0.992126,0,0,0.992126,356.457,708.661)" d="M63.35,-5.86992 C62.12,-11.3 59.48,-15.1199 58.7,-16.16 C55.51,-20.43 51.5,-23.28 46.81,-24.63 C43.7,-25.5199 40.7,-25.63 38.28,-25.45 C37.24,-31.46 36.24,-37.3399 35.33,-42.7899 C40.78,-48.96 44.4,-54.76 46.68,-59.06 C50.15,-65.6399 51.3,-70.2199 51.35,-70.4199 C53.07,-75.63 53.43,-83.33 52.33,-91.5399 C51.32,-99.0899 49.23,-105.8 46.88,-109.05 C45.85,-110.48 44.8,-111.21 43.76,-111.21 C42.54,-111.21 40.03,-109.97 37.14,-107.2 C34.84,-105 31.57,-101.11 29.01,-95.1 C26.01,-88.0399 25.8,-78.55 26.15,-71.83 C26.53,-64.56 27.64,-58.8699 27.65,-58.8199 C27.67,-58.73 27.93,-57.23 28.38,-54.66 C28.15,-54.43 27.91,-54.21 27.66,-53.9699 C26.62,-52.9699 25.43,-51.83 24.05,-50.45 C23.19,-49.5899 22.24,-48.68 21.24,-47.71 C12.79,-39.5699 0,-27.25 0,-8.1 C0,-3.4 0.9,1.02002 2.67998,5.03008 C4.27002,8.63008 6.57002,11.9101 9.5,14.7801 C17.23,22.3301 27.82,25.54 34.88,25.3801 C37.83,25.3101 40.46,25.07 42.85,24.62 C44.68,34.22 45.82,41.25 45.86,46.59 C45.9,53.1 44.25,57.07 40.35,59.84 C37.92,61.57 35.11,62.52 32.01,62.67 C29.42,62.79 27.16,62.32 25.73,61.9101 L25.72,61.9101 C25.72,61.9101 25.43,61.8301 25.42,61.6301 C25.41,61.45 25.76,61.4 25.77,61.4 L25.79,61.4 C27.71,60.9601 31.28,59.7301 33.64,56.4301 C35.44,53.9101 36.31,49.29 34.47,45.35 C33.36,42.9601 30.85,40.0101 25.23,39.5601 C22.74,39.3601 20.47,39.87 18.47,41.07 C16.66,42.15 15.16,43.79 14.11,45.79 C11.65,50.49 12.11,56.22 15.24,60.0601 C18.2,63.6801 22.82,65.99 28.25,66.57 C29.1,66.6601 29.95,66.7 30.8,66.7 C35.23,66.7 39.63,65.5 43.2,63.29 C46.86,60.72 48.98,56.74 49.66,51.1101 C50.22,46.47 49.83,40.5601 48.43,32.49 C48.07,30.4 47.53,27.37 46.87,23.6101 C52.62,21.69 56.78,18.12 60.55,12.27 C63.84,6.53008 64.78,0.430078 63.35,-5.86992 M29.14,20.32 C24.5,19.1 20.07,16.6 16.31,13.1 C15,11.87 13.13,9.7 11.66,6.31006 C10.29,3.15 9.62998,-0.27998 9.67998,-3.86992 C9.75,-8.55996 11.06,-13.38 13.57,-18.1699 C16.49,-23.75 21.05,-29.28 27.11,-34.61 C28.56,-35.8899 29.93,-37.1699 31.22,-38.45 C31.98,-34.1899 32.81,-29.5 33.69,-24.6199 C29.84,-23.35 25.09,-20.2 21.98,-14.55 C18.44,-7.97998 18.58,-2.45996 19.31,1.02002 C20.25,5.48008 22.78,9.24004 26.24,11.3301 C27.17,11.89 31.3,14.02 33.14,13.44 C33.51,13.32 33.78,13.1 33.92,12.77 C34.43,11.6 33.41,10.9601 31.85,10 C31.25,9.63008 30.58,9.21006 29.85,8.68008 C26.53,6.19004 25.08,1.74004 26.15,-2.63994 C26.73,-5.03994 28.01,-7.2 29.85,-8.9 C31.52,-10.45 33.56,-11.55 35.94,-12.1899 C37.98,-0.95 40.04,10.2 41.68,18.5601 C41.81,19.25 41.95,19.92 42.08,20.59 C37.7,21.52 33.35,21.4301 29.14,20.32 M40.46,-12.86 C50.81,-13.33 55.08,-5.88994 55.97,-1.05996 C56.44,1.47002 56.43,5.91006 54.89,10.12 C53.72,13.3 51.26,17.37 46.13,19.4301 C46.06,19.0101 45.98,18.5801 45.9,18.15 C44.36,9.38008 42.42,-1.60996 40.46,-12.86 M33.14,-83.8 C34.92,-89.5399 37.66,-92.7899 39.65,-94.5199 C41.4,-96.0399 43.05,-96.75 43.97,-96.75 C44.11,-96.75 44.23,-96.73 44.33,-96.7 C44.79,-96.56 45.32,-95.9899 45.79,-95.1199 C48.1,-90.83 47.36,-84.1199 46.02,-79.68 C44.39,-74.28 41.47,-68.66 32.67,-59.05 C32.5,-60.16 32.34,-61.21 32.19,-62.1899 C30.94,-70.48 31.26,-77.75 33.14,-83.8"/>
<path class="TimeSig" transform="matrix(0.992126,0,0,0.992126,443.376,659.187)" d="M3.59004,12.65 L20.77,12.65 L20.77,20.07 L12.54,20.07 C11.7601,20.07 11.1301,20.7 11.1301,21.48 L11.1301,23.39 C11.1301,24.17 11.7601,24.8 12.54,24.8 L42.79,24.8 C43.57,24.8 44.2,24.17 44.2,23.39 L44.2,21.48 C44.2,20.7 43.57,20.07 42.79,20.07 L33.85,20.07 L33.85,12.65 L42.79,12.65 C43.57,12.65 44.2,12.02 44.2,11.24 L44.2,9.32998 C44.2,8.55 43.57,7.92002 42.79,7.92002 L33.85,7.92002 L33.85,-8.04004 C33.85,-8.57998 33.55,-9.05996 33.07,-9.3 L31.8601,-9.9 C31.3301,-10.16 30.7,-10.07 30.27,-9.67002 L21.22,-1.35 C20.9301,-1.07998 20.7601,-0.709961 20.7601,-0.309961 L20.7601,7.92002 L9.25,7.92002 C9.25,7.92002 20.37,-4.10996 32.2101,-19.88 C33.0801,-21.03 32.5801,-22.08 32.39,-22.27 L30.22,-24.48 C29.95,-24.74 29.59,-24.89 29.22,-24.89 C28.62,-24.89 15.07,-24.87 14.35,-24.89 C13.6301,-24.91 13.09,-24.29 13.02,-23.67 C13.02,-23.67 12.4801,-16.31 9.88008,-8.17998 C7.28008,-0.0599609 4.34004,4.92002 1.68008,8.55 C1.68008,8.55 1.14004,9.54004 1.5,10.28 C1.85,11.03 2.48008,12.12 2.48008,12.12 C2.48008,12.12 2.74004,12.65 3.59004,12.65"/>
<path class="TimeSig" transform="matrix(0.992126,0,0,0.992126,443.376,708.53)" d="M3.59004,12.65 L20.77,12.65 L20.77,20.07 L12.54,20.07 C11.7601,20.07 11.1301,20.7 11.1301,21.48 L11.1301,23.39 C11.1301,24.17 11.7601,24.8 12.54,24.8 L42.79,24.8 C43.57,24.8 44.2,24.17 44.2,23.39 L44.2,21.48 C44.2,20.7 43.57,20.07 42.79,20.07 L33.85,20.07 L33.85,12.65 L42.79,12.65 C43.57,12.65 44.2,12.02 44.2,11.24 L44.2,9.32998 C44.2,8.55 43.57,7.92002 42.79,7.92002 L33.85,7.92002 L33.85,-8.04004 C33.85,-8.57998 33.55,-9.05996 33.07,-9.3 L31.8601,-9.9 C31.3301,-10.16 30.7,-10.07 30.27,-9.67002 L21.22,-1.35 C20.9301,-1.07998 20.7601,-0.709961 20.7601,-0.309961 L20.7601,7.92002 L9.25,7.92002 C9.25,7.92002 20.37,-4.10996 32.2101,-19.88 C33.0801,-21.03 32.5801,-22.08 32.39,-22.27 L30.22,-24.48 C29.95,-24.74 29.59,-24.89 29.22,-24.89 C28.62,-24.89 15.07,-24.87 14.35,-24.89 C13.6301,-24.91 13.09,-24.29 13.02,-23.67 C13.02,-23.67 12.4801,-16.31 9.88008,-8.17998 C7.28008,-0.0599609 4.34004,4.92002 1.68008,8.55 C1.68008,8.55 1.14004,9.54004 1.5,10.28 C1.85,11.03 2.48008,12.12 2.48008,12.12 C2.48008,12.12 2.74004,12.65 3.59004,12.65"/>
<path class="Beam" fill-rule="evenodd" d="M606.018,634.714 L663.237,621.692 L663.237,634.411 L606.018,647.433 L606.018,634.714 "/>
<path class="Beam" fill-rule="evenodd" d="M685.491,733.365 L757.211,720.473 L757.211,733.074 L685.491,745.966 L685.491,733.365 "/>
<path class="Beam" fill-rule="evenodd" d="M808.973,702.421 L866.192,708.932 L866.192,721.413 L808.973,714.902 L808.973,702.421 "/>
<path class="Beam" fill-rule="evenodd" d="M917.954,733.465 L993.743,733.465 L993.743,745.866 L917.954,745.866 L917.954,733.465 "/>
<path class="Beam" fill-rule="evenodd" d="M1244.33,727.155 L1378.99,752.471 L1378.99,765.09 L1244.33,739.774 L1244.33,727.155 "/>
<path class="Beam" fill-rule="evenodd" d="M1537.7,622.255 L1672.35,596.939 L1672.35,609.557 L1537.7,634.874 L1537.7,622.255 "/>
<path class="Beam" fill-rule="evenodd" d="M2356.58,601.974 L2432.37,627.704 L2432.37,640.8 L2356.58,615.071 L2356.58,601.974 "/>
<path class="Beam" fill-rule="evenodd" d="M2486.31,628.313 L2545.71,621.813 L2545.71,634.289 L2486.31,640.788 L2486.31,628.313 "/>
<path class="Hook" transform="matrix(0.992126,0,0,0.992126,1801.55,615.65)" d="M3.5,3.5 C3.4,3.2 2.5,-0.3 2.5,-0.5 C2.4,-0.9 1.8,-1.2 1.3,-1.2 C0.6,-1.2 0,-0.6 0,0.1 L0,16.5 L0,22.7 C0,23.2 0.4,23.6 0.8,23.8 C5,25.1 13.7,30.6 20.2,41.7 C22,44.8 24.9,49 24.9,57.4 C24.9,64.6 23.8,72.2 22,79.2 C21.7,80.3 21.4,81.3 22.5,81.7 C23.6,82.1 24,81.3 24.4,80.3 C28,71.5 28.9,62.3 28.9,56.1 L28.9,54.2 C28.4,41.3 21,31.8 21,31.8 C21.3,31.8 11.8,19.5 9.1,15.3 C5.4,9.6 3.6,3.9 3.5,3.5"/>
<path class="Hook" transform="matrix(0.992126,0,0,0.992126,2158.44,770.669)" d="M2.5,0.4 C2.5,0.2 3.4,-3.2 3.5,-3.5 C3.6,-3.9 5.4,-9.6 9.1,-15.3 C11.8,-19.5 21.3,-31.8 21,-31.8 C21,-31.8 28.4,-41.3 28.9,-54.2 L28.9,-56.5 C28.9,-62.6 28.1,-71.2 24.6,-79.9 C24.2,-80.9 23.8,-81.9 22.7,-81.5 C21.6,-81.1 21.9,-79.9 22.2,-78.8 C24,-71.8 25,-64.6 25,-57.4 C25,-49 22,-44.8 20.2,-41.7 C13.6,-30.6 5,-25.2 0.8,-23.8 C0.3,-23.6 0,-23.2 0,-22.7 L0,-16.5 L0,-0.1 C0,0.6 0.6,1.2 1.3,1.2 C1.8,1.2 2.4,0.8 2.5,0.4"/>
<path class="Hook" transform="matrix(0.992126,0,0,0.992126,2599.65,624.951)" d="M3.5,3.5 C3.4,3.2 2.5,-0.3 2.5,-0.5 C2.4,-0.9 1.8,-1.2 1.3,-1.2 C0.6,-1.2 0,-0.6 0,0.1 L0,16.5 L0,22.7 C0,23.2 0.4,23.6 0.8,23.8 C5,25.1 13.7,30.6 20.2,41.7 C22,44.8 24.9,49 24.9,57.4 C24.9,64.6 23.8,72.2 22,79.2 C21.7,80.3 21.4,81.3 22.5,81.7 C23.6,82.1 24,81.3 24.4,80.3 C28,71.5 28.9,62.3 28.9,56.1 L28.9,54.2 C28.4,41.3 21,31.8 21,31.8 C21.3,31.8 11.8,19.5 9.1,15.3 C5.4,9.6 3.6,3.9 3.5,3.5"/>
<path class="Lyrics" d="M432.786,867.562 L432.786,829.866 L438.45,829.866 C440.972,829.866 442.982,830.062 444.48,830.452 C445.994,830.843 447.271,831.502 448.313,832.43 C449.371,833.39 450.209,834.586 450.828,836.019 C451.462,837.467 451.78,838.932 451.78,840.413 C451.78,843.115 450.746,845.402 448.679,847.273 C450.681,847.957 452.26,849.153 453.415,850.862 C454.587,852.555 455.173,854.524 455.173,856.771 C455.173,859.716 454.132,862.207 452.048,864.241 C450.795,865.494 449.387,866.365 447.825,866.854 C446.116,867.326 443.975,867.562 441.404,867.562 L432.786,867.562 M438.474,846.053 L440.256,846.053 C442.372,846.053 443.922,845.585 444.907,844.649 C445.892,843.713 446.384,842.334 446.384,840.511 C446.384,838.737 445.88,837.39 444.871,836.47 C443.861,835.551 442.397,835.091 440.476,835.091 L438.474,835.091 L438.474,846.053 M438.474,862.215 L441.99,862.215 C444.561,862.215 446.449,861.71 447.654,860.701 C448.923,859.611 449.558,858.227 449.558,856.551 C449.558,854.923 448.948,853.556 447.727,852.449 C446.539,851.359 444.415,850.813 441.355,850.813 L438.474,850.813 L438.474,862.215 "/>
<path class="Lyrics" d="M477.481,851.062 C477.481,847.012 475.031,844.412 472.031,844.412 C467.781,844.412 466.131,846.912 465.431,848.912 L465.431,833.462 L462.481,833.462 L462.481,864.762 C468.781,864.412 477.481,861.662 477.481,851.062 M473.881,852.812 C473.881,859.662 469.131,862.162 465.431,862.412 L465.431,852.362 C465.431,850.162 467.031,846.812 470.581,846.812 C472.631,846.812 473.931,849.462 473.931,852.812 L473.881,852.812 "/>
<path class="Lyrics" d="M501.017,826.326 L506.51,826.326 L506.51,845.76 C508.463,844.002 510.62,843.123 512.98,843.123 C515.665,843.123 517.814,843.994 519.425,845.735 C520.792,847.249 521.476,849.666 521.476,852.986 L521.476,867.562 L515.983,867.562 L515.983,853.499 C515.983,851.595 515.645,850.215 514.97,849.361 C514.294,848.506 513.208,848.079 511.71,848.079 C509.79,848.079 508.439,848.673 507.658,849.861 C506.893,851.066 506.51,853.133 506.51,856.062 L506.51,867.562 L501.017,867.562 L501.017,826.326 M545.953,843.782 L551.47,843.782 L551.47,867.562 L545.953,867.562 L545.953,865.071 C543.69,867.187 541.257,868.245 538.653,868.245 C535.365,868.245 532.647,867.057 530.498,864.681 C528.366,862.256 527.3,859.228 527.3,855.599 C527.3,852.034 528.366,849.064 530.498,846.687 C532.631,844.311 535.3,843.123 538.506,843.123 C541.273,843.123 543.755,844.262 545.953,846.541 L545.953,843.782 M532.915,855.599 C532.915,857.877 533.526,859.733 534.746,861.165 C536,862.614 537.579,863.338 539.483,863.338 C541.517,863.338 543.161,862.638 544.414,861.238 C545.668,859.79 546.294,857.951 546.294,855.721 C546.294,853.491 545.668,851.652 544.414,850.203 C543.161,848.787 541.534,848.079 539.532,848.079 C537.644,848.079 536.065,848.795 534.795,850.228 C533.542,851.676 532.915,853.466 532.915,855.599 M558.392,843.782 L563.885,843.782 L563.885,845.906 C564.894,844.848 565.789,844.124 566.571,843.733 C567.368,843.326 568.312,843.123 569.403,843.123 C570.851,843.123 572.365,843.595 573.944,844.539 L571.429,849.568 C570.387,848.82 569.37,848.445 568.377,848.445 C565.383,848.445 563.885,850.708 563.885,855.232 L563.885,867.562 L558.392,867.562 L558.392,843.782 M577.845,843.782 L583.338,843.782 L583.338,845.979 C584.396,844.873 585.3,844.124 586.048,843.733 C586.846,843.326 587.847,843.123 589.051,843.123 C591.737,843.123 593.861,844.295 595.423,846.639 C597.149,844.295 599.484,843.123 602.43,843.123 C607.785,843.123 610.462,846.37 610.462,852.864 L610.462,867.562 L604.945,867.562 L604.945,854.354 C604.945,852.075 604.668,850.464 604.115,849.52 C603.545,848.559 602.609,848.079 601.307,848.079 C599.793,848.079 598.691,848.649 597.999,849.788 C597.307,850.927 596.961,852.758 596.961,855.281 L596.961,867.562 L591.444,867.562 L591.444,854.427 C591.444,850.195 590.223,848.079 587.782,848.079 C586.235,848.079 585.108,848.657 584.4,849.812 C583.692,850.968 583.338,852.791 583.338,855.281 L583.338,867.562 L577.845,867.562 L577.845,843.782 M613.925,853.084 L624.814,853.084 L624.814,857.869 L613.925,857.869 L613.925,853.084 M628.267,843.782 L633.76,843.782 L633.76,845.979 C634.818,844.873 635.721,844.124 636.47,843.733 C637.268,843.326 638.269,843.123 639.473,843.123 C642.159,843.123 644.283,844.295 645.845,846.639 C647.57,844.295 649.906,843.123 652.852,843.123 C658.207,843.123 660.884,846.37 660.884,852.864 L660.884,867.562 L655.367,867.562 L655.367,854.354 C655.367,852.075 655.09,850.464 654.537,849.52 C653.967,848.559 653.031,848.079 651.729,848.079 C650.215,848.079 649.113,848.649 648.421,849.788 C647.729,850.927 647.383,852.758 647.383,855.281 L647.383,867.562 L641.866,867.562 L641.866,854.427 C641.866,850.195 640.645,848.079 638.204,848.079 C636.657,848.079 635.53,848.657 634.822,849.812 C634.114,850.968 633.76,852.791 633.76,855.281 L633.76,867.562 L628.267,867.562 L628.267,843.782 M673.307,843.782 L673.307,867.562 L667.814,867.562 L667.814,843.782 L673.307,843.782 M666.984,833.895 C666.984,832.934 667.334,832.104 668.034,831.404 C668.733,830.704 669.572,830.354 670.548,830.354 C671.541,830.354 672.387,830.704 673.087,831.404 C673.787,832.088 674.137,832.926 674.137,833.919 C674.137,834.912 673.787,835.758 673.087,836.458 C672.404,837.158 671.565,837.508 670.573,837.508 C669.58,837.508 668.733,837.158 668.034,836.458 C667.334,835.758 666.984,834.904 666.984,833.895 M680.251,843.782 L685.769,843.782 L685.769,845.979 C687.69,844.075 689.854,843.123 692.263,843.123 C695.03,843.123 697.187,843.994 698.733,845.735 C700.067,847.216 700.735,849.633 700.735,852.986 L700.735,867.562 L695.217,867.562 L695.217,854.28 C695.217,851.937 694.892,850.317 694.241,849.422 C693.606,848.51 692.45,848.055 690.774,848.055 C688.951,848.055 687.657,848.657 686.892,849.861 C686.143,851.049 685.769,853.125 685.769,856.087 L685.769,867.562 L680.251,867.562 L680.251,843.782 M706.535,855.501 C706.535,852.067 707.763,849.145 710.221,846.736 C712.679,844.327 715.674,843.123 719.205,843.123 C722.754,843.123 725.765,844.336 728.239,846.761 C730.68,849.186 731.901,852.164 731.901,855.696 C731.901,859.261 730.672,862.247 728.214,864.656 C725.74,867.049 722.705,868.245 719.108,868.245 C715.543,868.245 712.557,867.024 710.148,864.583 C707.739,862.174 706.535,859.147 706.535,855.501 M712.15,855.599 C712.15,857.975 712.785,859.855 714.054,861.238 C715.356,862.638 717.073,863.338 719.205,863.338 C721.354,863.338 723.071,862.646 724.357,861.263 C725.643,859.879 726.286,858.032 726.286,855.721 C726.286,853.409 725.643,851.562 724.357,850.179 C723.055,848.779 721.338,848.079 719.205,848.079 C717.106,848.079 715.405,848.779 714.103,850.179 C712.801,851.578 712.15,853.385 712.15,855.599 M737.704,843.782 L743.198,843.782 L743.198,845.906 C744.207,844.848 745.102,844.124 745.883,843.733 C746.681,843.326 747.625,843.123 748.715,843.123 C750.164,843.123 751.677,843.595 753.256,844.539 L750.742,849.568 C749.7,848.82 748.683,848.445 747.69,848.445 C744.695,848.445 743.198,850.708 743.198,855.232 L743.198,867.562 L737.704,867.562 L737.704,843.782 "/>
<path class="Lyrics" d="M345.038,893.04 L350.116,894.993 C348.342,899.241 347.097,903.163 346.381,906.76 C346.023,908.583 345.754,910.5 345.575,912.51 C345.396,914.52 345.306,916.713 345.306,919.089 C345.306,921.482 345.396,923.683 345.575,925.693 C345.754,927.703 346.023,929.62 346.381,931.443 C347.08,935.024 348.326,938.938 350.116,943.186 L345.038,945.139 C341.49,937.701 339.716,929.018 339.716,919.089 C339.716,909.161 341.49,900.478 345.038,893.04 M373.125,895.676 L377.3,898.801 L368.291,911.057 C368.779,910.992 369.194,910.943 369.536,910.911 C369.878,910.878 370.146,910.862 370.342,910.862 C373.401,910.862 376.046,912.034 378.276,914.377 C380.49,916.689 381.596,919.472 381.596,922.727 C381.596,926.178 380.359,929.14 377.885,931.614 C375.428,934.071 372.474,935.3 369.023,935.3 C365.605,935.3 362.61,934.088 360.039,931.663 C357.516,929.237 356.255,926.365 356.255,923.044 C356.255,920.066 357.483,916.908 359.941,913.572 L373.125,895.676 M376.054,923.093 C376.054,921.091 375.363,919.399 373.979,918.015 C372.579,916.615 370.895,915.916 368.926,915.916 C366.94,915.916 365.255,916.607 363.872,917.991 C362.488,919.374 361.797,921.051 361.797,923.02 C361.797,924.989 362.488,926.666 363.872,928.049 C365.255,929.433 366.948,930.125 368.95,930.125 C370.903,930.125 372.571,929.433 373.955,928.049 C375.355,926.65 376.054,924.998 376.054,923.093 M391.216,927.634 L396.098,929.539 L389.14,943.479 L385.429,941.941 L391.216,927.634 "/>
<path class="Lyrics" d="M431.337,895.53 L441.884,906.077 L433.143,906.077 L433.143,934.69 L429.53,934.69 L429.53,906.077 L420.79,906.077 L431.337,895.53 "/>
<path class="Lyrics" d="M454.309,927.634 L459.192,929.539 L452.234,943.479 L448.523,941.941 L454.309,927.634 M490.817,929.343 L504.855,929.343 L504.855,934.69 L479.538,934.69 L492.624,918.845 C493.91,917.266 494.988,915.899 495.859,914.744 C496.729,913.588 497.393,912.62 497.848,911.838 C498.776,910.308 499.24,908.933 499.24,907.712 C499.24,905.955 498.621,904.482 497.384,903.293 C496.148,902.105 494.618,901.511 492.795,901.511 C488.986,901.511 486.805,903.765 486.252,908.274 L480.588,908.274 C481.499,900.331 485.511,896.36 492.624,896.36 C496.058,896.36 498.939,897.45 501.266,899.631 C503.61,901.812 504.782,904.514 504.782,907.737 C504.782,909.788 504.237,911.798 503.146,913.767 C502.593,914.792 501.783,916.009 500.717,917.417 C499.651,918.825 498.304,920.489 496.676,922.41 L490.817,929.343 M516.012,927.634 L520.895,929.539 L513.937,943.479 L510.226,941.941 L516.012,927.634 M564.654,924.167 L568.658,924.167 L568.658,929.343 L564.654,929.343 L564.654,934.69 L558.966,934.69 L558.966,929.343 L540.46,929.343 L564.654,894.187 L564.654,924.167 M558.966,924.167 L558.966,911.545 L550.274,924.167 L558.966,924.167 M577.716,927.634 L582.598,929.539 L575.64,943.479 L571.929,941.941 L577.716,927.634 "/>
<path class="Lyrics" d="M617.837,895.53 L628.384,906.077 L619.643,906.077 L619.643,934.69 L616.03,934.69 L616.03,906.077 L607.29,906.077 L617.837,895.53 "/>
<path class="Lyrics" d="M640.809,927.634 L645.692,929.539 L638.734,943.479 L635.023,941.941 L640.809,927.634 "/>
<path class="Lyrics" d="M680.93,937.717 L691.477,927.17 L682.737,927.17 L682.737,898.557 L679.124,898.557 L679.124,927.17 L670.384,927.17 L680.93,937.717 "/>
<path class="Lyrics" d="M703.903,927.634 L708.786,929.539 L701.828,943.479 L698.117,941.941 L703.903,927.634 M740.411,929.343 L754.449,929.343 L754.449,934.69 L729.132,934.69 L742.217,918.845 C743.503,917.266 744.582,915.899 745.452,914.744 C746.323,913.588 746.986,912.62 747.442,911.838 C748.37,910.308 748.834,908.933 748.834,907.712 C748.834,905.955 748.215,904.482 746.978,903.293 C745.741,902.105 744.211,901.511 742.388,901.511 C738.58,901.511 736.399,903.765 735.845,908.274 L730.181,908.274 C731.093,900.331 735.105,896.36 742.217,896.36 C745.652,896.36 748.533,897.45 750.86,899.631 C753.204,901.812 754.376,904.514 754.376,907.737 C754.376,909.788 753.83,911.798 752.74,913.767 C752.187,914.792 751.377,916.009 750.311,917.417 C749.245,918.825 747.898,920.489 746.27,922.41 L740.411,929.343 M765.606,927.634 L770.489,929.539 L763.531,943.479 L759.82,941.941 L765.606,927.634 "/>
<path class="Lyrics" d="M805.727,895.53 L816.274,906.077 L807.534,906.077 L807.534,934.69 L803.921,934.69 L803.921,906.077 L795.18,906.077 L805.727,895.53 "/>
<path class="Lyrics" d="M830.311,945.139 L825.233,943.186 C827.023,938.938 828.269,935.024 828.968,931.443 C829.701,927.862 830.067,923.744 830.067,919.089 C830.067,914.467 829.701,910.357 828.968,906.76 C828.252,903.163 827.007,899.241 825.233,894.993 L830.311,893.04 C833.859,900.478 835.634,909.161 835.634,919.089 C835.634,929.018 833.859,937.701 830.311,945.139"/>
<path class="Lyrics" d="M1121.54,847.933 L1137.12,847.933 L1137.12,849.178 C1137.12,852.01 1136.78,854.516 1136.12,856.697 C1135.46,858.715 1134.37,860.604 1132.82,862.361 C1129.32,866.3 1124.87,868.27 1119.47,868.27 C1114.19,868.27 1109.68,866.365 1105.92,862.557 C1102.16,858.732 1100.28,854.142 1100.28,848.787 C1100.28,843.318 1102.19,838.68 1106.01,834.871 C1109.84,831.046 1114.49,829.134 1119.98,829.134 C1122.92,829.134 1125.67,829.736 1128.23,830.94 C1130.67,832.145 1133.07,834.098 1135.43,836.8 L1131.38,840.682 C1128.29,836.564 1124.52,834.505 1120.08,834.505 C1116.09,834.505 1112.74,835.88 1110.04,838.631 C1107.34,841.333 1105.99,844.718 1105.99,848.787 C1105.99,852.986 1107.49,856.445 1110.51,859.163 C1113.32,861.686 1116.37,862.947 1119.66,862.947 C1122.46,862.947 1124.98,862.003 1127.2,860.115 C1129.43,858.211 1130.68,855.932 1130.94,853.279 L1121.54,853.279 L1121.54,847.933 M1158.64,843.782 L1164.13,843.782 L1164.13,845.979 C1165.19,844.873 1166.09,844.124 1166.84,843.733 C1167.64,843.326 1168.64,843.123 1169.84,843.123 C1172.53,843.123 1174.65,844.295 1176.22,846.639 C1177.94,844.295 1180.28,843.123 1183.22,843.123 C1188.58,843.123 1191.25,846.37 1191.25,852.864 L1191.25,867.562 L1185.74,867.562 L1185.74,854.354 C1185.74,852.075 1185.46,850.464 1184.91,849.52 C1184.34,848.559 1183.4,848.079 1182.1,848.079 C1180.59,848.079 1179.48,848.649 1178.79,849.788 C1178.1,850.927 1177.75,852.758 1177.75,855.281 L1177.75,867.562 L1172.24,867.562 L1172.24,854.427 C1172.24,850.195 1171.02,848.079 1168.57,848.079 C1167.03,848.079 1165.9,848.657 1165.19,849.812 C1164.48,850.968 1164.13,852.791 1164.13,855.281 L1164.13,867.562 L1158.64,867.562 L1158.64,843.782 M1203.68,843.782 L1203.68,867.562 L1198.18,867.562 L1198.18,843.782 L1203.68,843.782 M1197.35,833.895 C1197.35,832.934 1197.7,832.104 1198.4,831.404 C1199.1,830.704 1199.94,830.354 1200.92,830.354 C1201.91,830.354 1202.76,830.704 1203.46,831.404 C1204.16,832.088 1204.51,832.926 1204.51,833.919 C1204.51,834.912 1204.16,835.758 1203.46,836.458 C1202.77,837.158 1201.94,837.508 1200.94,837.508 C1199.95,837.508 1199.1,837.158 1198.4,836.458 C1197.7,835.758 1197.35,834.904 1197.35,833.895 M1210.62,843.782 L1216.14,843.782 L1216.14,845.979 C1218.06,844.075 1220.22,843.123 1222.63,843.123 C1225.4,843.123 1227.56,843.994 1229.1,845.735 C1230.44,847.216 1231.11,849.633 1231.11,852.986 L1231.11,867.562 L1225.59,867.562 L1225.59,854.28 C1225.59,851.937 1225.26,850.317 1224.61,849.422 C1223.98,848.51 1222.82,848.055 1221.14,848.055 C1219.32,848.055 1218.03,848.657 1217.26,849.861 C1216.51,851.049 1216.14,853.125 1216.14,856.087 L1216.14,867.562 L1210.62,867.562 L1210.62,843.782 M1236.91,855.501 C1236.91,852.067 1238.13,849.145 1240.59,846.736 C1243.05,844.327 1246.04,843.123 1249.58,843.123 C1253.12,843.123 1256.14,844.336 1258.61,846.761 C1261.05,849.186 1262.27,852.164 1262.27,855.696 C1262.27,859.261 1261.04,862.247 1258.58,864.656 C1256.11,867.049 1253.08,868.245 1249.48,868.245 C1245.91,868.245 1242.93,867.024 1240.52,864.583 C1238.11,862.174 1236.91,859.147 1236.91,855.501 M1242.52,855.599 C1242.52,857.975 1243.16,859.855 1244.42,861.238 C1245.73,862.638 1247.44,863.338 1249.58,863.338 C1251.72,863.338 1253.44,862.646 1254.73,861.263 C1256.01,859.879 1256.66,858.032 1256.66,855.721 C1256.66,853.409 1256.01,851.562 1254.73,850.179 C1253.43,848.779 1251.71,848.079 1249.58,848.079 C1247.48,848.079 1245.78,848.779 1244.47,850.179 C1243.17,851.578 1242.52,853.385 1242.52,855.599 M1268.07,843.782 L1273.57,843.782 L1273.57,845.906 C1274.58,844.848 1275.47,844.124 1276.25,843.733 C1277.05,843.326 1278,843.123 1279.09,843.123 C1280.53,843.123 1282.05,843.595 1283.63,844.539 L1281.11,849.568 C1280.07,848.82 1279.05,848.445 1278.06,848.445 C1275.07,848.445 1273.57,850.708 1273.57,855.232 L1273.57,867.562 L1268.07,867.562 L1268.07,843.782 M1282.73,853.084 L1293.62,853.084 L1293.62,857.869 L1282.73,857.869 L1282.73,853.084 M1315.58,844.808 L1315.58,852.107 C1314.33,850.577 1313.2,849.528 1312.21,848.958 C1311.24,848.372 1310.09,848.079 1308.77,848.079 C1306.7,848.079 1304.99,848.803 1303.62,850.252 C1302.25,851.701 1301.57,853.515 1301.57,855.696 C1301.57,857.926 1302.23,859.757 1303.54,861.189 C1304.88,862.622 1306.58,863.338 1308.65,863.338 C1309.97,863.338 1311.13,863.053 1312.14,862.483 C1313.12,861.93 1314.26,860.856 1315.58,859.261 L1315.58,866.512 C1313.35,867.667 1311.12,868.245 1308.89,868.245 C1305.21,868.245 1302.14,867.057 1299.66,864.681 C1297.19,862.288 1295.95,859.318 1295.95,855.77 C1295.95,852.221 1297.21,849.227 1299.71,846.785 C1302.22,844.344 1305.29,843.123 1308.94,843.123 C1311.28,843.123 1313.5,843.685 1315.58,844.808 M1322.18,826.326 L1327.68,826.326 L1327.68,845.76 C1329.63,844.002 1331.79,843.123 1334.15,843.123 C1336.83,843.123 1338.98,843.994 1340.59,845.735 C1341.96,847.249 1342.64,849.666 1342.64,852.986 L1342.64,867.562 L1337.15,867.562 L1337.15,853.499 C1337.15,851.595 1336.81,850.215 1336.14,849.361 C1335.46,848.506 1334.38,848.079 1332.88,848.079 C1330.96,848.079 1329.61,848.673 1328.82,849.861 C1328.06,851.066 1327.68,853.133 1327.68,856.062 L1327.68,867.562 L1322.18,867.562 L1322.18,826.326 M1348.47,855.501 C1348.47,852.067 1349.7,849.145 1352.15,846.736 C1354.61,844.327 1357.61,843.123 1361.14,843.123 C1364.69,843.123 1367.7,844.336 1370.17,846.761 C1372.61,849.186 1373.83,852.164 1373.83,855.696 C1373.83,859.261 1372.6,862.247 1370.15,864.656 C1367.67,867.049 1364.64,868.245 1361.04,868.245 C1357.48,868.245 1354.49,867.024 1352.08,864.583 C1349.67,862.174 1348.47,859.147 1348.47,855.501 M1354.08,855.599 C1354.08,857.975 1354.72,859.855 1355.99,861.238 C1357.29,862.638 1359.01,863.338 1361.14,863.338 C1363.29,863.338 1365,862.646 1366.29,861.263 C1367.58,859.879 1368.22,858.032 1368.22,855.721 C1368.22,853.409 1367.58,851.562 1366.29,850.179 C1364.99,848.779 1363.27,848.079 1361.14,848.079 C1359.04,848.079 1357.34,848.779 1356.04,850.179 C1354.73,851.578 1354.08,853.385 1354.08,855.599 M1379.64,843.782 L1385.13,843.782 L1385.13,845.906 C1386.14,844.848 1387.03,844.124 1387.82,843.733 C1388.61,843.326 1389.56,843.123 1390.65,843.123 C1392.1,843.123 1393.61,843.595 1395.19,844.539 L1392.67,849.568 C1391.63,848.82 1390.62,848.445 1389.62,848.445 C1386.63,848.445 1385.13,850.708 1385.13,855.232 L1385.13,867.562 L1379.64,867.562 L1379.64,843.782 M1415.53,826.326 L1421.04,826.326 L1421.04,867.562 L1415.53,867.562 L1415.53,865.071 C1413.36,867.187 1410.91,868.245 1408.18,868.245 C1404.92,868.245 1402.22,867.057 1400.07,864.681 C1397.94,862.256 1396.87,859.228 1396.87,855.599 C1396.87,852.05 1397.94,849.088 1400.07,846.712 C1402.19,844.319 1404.85,843.123 1408.06,843.123 C1410.84,843.123 1413.33,844.262 1415.53,846.541 L1415.53,826.326 M1402.49,855.599 C1402.49,857.877 1403.1,859.733 1404.32,861.165 C1405.57,862.614 1407.15,863.338 1409.06,863.338 C1411.09,863.338 1412.73,862.638 1413.99,861.238 C1415.24,859.79 1415.87,857.951 1415.87,855.721 C1415.87,853.491 1415.24,851.652 1413.99,850.203 C1412.73,848.787 1411.11,848.079 1409.11,848.079 C1407.22,848.079 1405.64,848.795 1404.37,850.228 C1403.12,851.676 1402.49,853.466 1402.49,855.599"/>
<path class="Lyrics" d="M1124.16,893.04 L1129.24,894.993 C1127.46,899.241 1126.22,903.163 1125.5,906.76 C1125.14,908.583 1124.88,910.5 1124.7,912.51 C1124.52,914.52 1124.43,916.713 1124.43,919.089 C1124.43,921.482 1124.52,923.683 1124.7,925.693 C1124.88,927.703 1125.14,929.62 1125.5,931.443 C1126.2,935.024 1127.45,938.938 1129.24,943.186 L1124.16,945.139 C1120.61,937.701 1118.84,929.018 1118.84,919.089 C1118.84,909.161 1120.61,900.478 1124.16,893.04 M1145.56,917.185 L1145.56,912.327 C1147.97,912.327 1149.58,912.058 1150.41,911.521 C1151.9,910.577 1152.64,909.063 1152.64,906.98 C1152.64,905.369 1152.1,904.058 1151.03,903.049 C1149.97,902.024 1148.59,901.511 1146.9,901.511 C1145.32,901.511 1144.1,901.894 1143.24,902.659 C1142.41,903.44 1141.79,904.758 1141.38,906.614 L1135.72,906.614 C1136.3,903.066 1137.51,900.466 1139.33,898.813 C1141.15,897.161 1143.7,896.335 1146.97,896.335 C1150.28,896.335 1152.97,897.312 1155.05,899.265 C1157.14,901.202 1158.18,903.7 1158.18,906.76 C1158.18,910.211 1156.81,912.896 1154.08,914.817 C1157.2,916.656 1158.76,919.643 1158.76,923.777 C1158.76,927.162 1157.63,929.929 1155.35,932.078 C1153.07,934.226 1150.15,935.3 1146.58,935.3 C1142.04,935.3 1138.67,933.632 1136.47,930.295 C1135.56,928.896 1134.99,926.959 1134.74,924.485 L1140.23,924.485 C1140.53,926.308 1141.24,927.703 1142.37,928.672 C1143.5,929.64 1144.98,930.125 1146.8,930.125 C1148.64,930.125 1150.16,929.514 1151.37,928.293 C1152.57,927.04 1153.17,925.453 1153.17,923.533 C1153.17,920.994 1152.27,919.187 1150.46,918.113 C1149.41,917.494 1147.77,917.185 1145.56,917.185 M1170.34,927.634 L1175.22,929.539 L1168.26,943.479 L1164.55,941.941 L1170.34,927.634 M1203.28,893.455 L1203.28,934.69 L1197.79,934.69 L1197.79,893.455 L1203.28,893.455 M1209.1,922.629 C1209.1,919.195 1210.33,916.274 1212.79,913.865 C1215.25,911.456 1218.24,910.251 1221.77,910.251 C1225.32,910.251 1228.33,911.464 1230.81,913.889 C1233.25,916.314 1234.47,919.293 1234.47,922.825 C1234.47,926.389 1233.24,929.376 1230.78,931.785 C1228.31,934.177 1225.27,935.374 1221.67,935.374 C1218.11,935.374 1215.12,934.153 1212.71,931.711 C1210.31,929.303 1209.1,926.275 1209.1,922.629 M1214.72,922.727 C1214.72,925.103 1215.35,926.983 1216.62,928.367 C1217.92,929.766 1219.64,930.466 1221.77,930.466 C1223.92,930.466 1225.64,929.775 1226.92,928.391 C1228.21,927.008 1228.85,925.16 1228.85,922.849 C1228.85,920.538 1228.21,918.691 1226.92,917.307 C1225.62,915.907 1223.9,915.208 1221.77,915.208 C1219.67,915.208 1217.97,915.907 1216.67,917.307 C1215.37,918.707 1214.72,920.514 1214.72,922.727 M1239.15,922.629 C1239.15,919.195 1240.38,916.274 1242.83,913.865 C1245.29,911.456 1248.29,910.251 1251.82,910.251 C1255.37,910.251 1258.38,911.464 1260.85,913.889 C1263.29,916.314 1264.51,919.293 1264.51,922.825 C1264.51,926.389 1263.29,929.376 1260.83,931.785 C1258.35,934.177 1255.32,935.374 1251.72,935.374 C1248.16,935.374 1245.17,934.153 1242.76,931.711 C1240.35,929.303 1239.15,926.275 1239.15,922.629 M1244.76,922.727 C1244.76,925.103 1245.4,926.983 1246.67,928.367 C1247.97,929.766 1249.69,930.466 1251.82,930.466 C1253.97,930.466 1255.68,929.775 1256.97,928.391 C1258.26,927.008 1258.9,925.16 1258.9,922.849 C1258.9,920.538 1258.26,918.691 1256.97,917.307 C1255.67,915.907 1253.95,915.208 1251.82,915.208 C1249.72,915.208 1248.02,915.907 1246.72,917.307 C1245.41,918.707 1244.76,920.514 1244.76,922.727 M1275.81,947.629 L1270.32,947.629 L1270.32,910.911 L1275.81,910.911 L1275.81,913.499 C1277.98,911.334 1280.43,910.251 1283.18,910.251 C1286.46,910.251 1289.15,911.456 1291.27,913.865 C1293.41,916.257 1294.49,919.277 1294.49,922.922 C1294.49,926.487 1293.42,929.457 1291.29,931.834 C1289.17,934.194 1286.5,935.374 1283.28,935.374 C1280.5,935.374 1278.01,934.259 1275.81,932.029 L1275.81,947.629 M1288.87,922.947 C1288.87,920.668 1288.25,918.813 1287.02,917.38 C1285.76,915.932 1284.19,915.208 1282.28,915.208 C1280.26,915.208 1278.63,915.907 1277.37,917.307 C1276.12,918.707 1275.49,920.546 1275.49,922.825 C1275.49,925.055 1276.12,926.894 1277.37,928.342 C1278.61,929.758 1280.24,930.466 1282.26,930.466 C1284.16,930.466 1285.73,929.75 1286.97,928.318 C1288.24,926.886 1288.87,925.095 1288.87,922.947 M1324.77,929.343 L1338.8,929.343 L1338.8,934.69 L1313.49,934.69 L1326.57,918.845 C1327.86,917.266 1328.94,915.899 1329.81,914.744 C1330.68,913.588 1331.34,912.62 1331.8,911.838 C1332.73,910.308 1333.19,908.933 1333.19,907.712 C1333.19,905.955 1332.57,904.482 1331.33,903.293 C1330.1,902.105 1328.57,901.511 1326.74,901.511 C1322.94,901.511 1320.75,903.765 1320.2,908.274 L1314.54,908.274 C1315.45,900.331 1319.46,896.36 1326.57,896.36 C1330.01,896.36 1332.89,897.45 1335.22,899.631 C1337.56,901.812 1338.73,904.514 1338.73,907.737 C1338.73,909.788 1338.19,911.798 1337.1,913.767 C1336.54,914.792 1335.73,916.009 1334.67,917.417 C1333.6,918.825 1332.25,920.489 1330.63,922.41 L1324.77,929.343 "/>
<path class="Lyrics" d="M1374.66,937.717 L1385.21,927.17 L1376.47,927.17 L1376.47,898.557 L1372.85,898.557 L1372.85,927.17 L1364.11,927.17 L1374.66,937.717 "/>
<path class="Lyrics" d="M1399.24,945.139 L1394.17,943.186 C1395.96,938.938 1397.2,935.024 1397.9,931.443 C1398.63,927.862 1399,923.744 1399,919.089 C1399,914.467 1398.63,910.357 1397.9,906.76 C1397.19,903.163 1395.94,899.241 1394.17,894.993 L1399.24,893.04 C1402.79,900.478 1404.57,909.161 1404.57,919.089 C1404.57,929.018 1402.79,937.701 1399.24,945.139"/>
<path class="Lyrics" d="M1520.16,831.893 L1520.16,838.631 C1516.87,835.88 1513.47,834.505 1509.96,834.505 C1506.08,834.505 1502.82,835.896 1500.17,838.68 C1497.5,841.447 1496.16,844.832 1496.16,848.836 C1496.16,852.791 1497.5,856.128 1500.17,858.846 C1502.84,861.564 1506.11,862.923 1509.98,862.923 C1511.98,862.923 1513.68,862.597 1515.08,861.946 C1515.87,861.621 1516.68,861.181 1517.51,860.628 C1518.35,860.075 1519.23,859.407 1520.16,858.626 L1520.16,865.486 C1516.91,867.326 1513.49,868.245 1509.91,868.245 C1504.52,868.245 1499.92,866.365 1496.11,862.605 C1492.32,858.813 1490.43,854.24 1490.43,848.885 C1490.43,844.083 1492.01,839.803 1495.19,836.043 C1499.09,831.437 1504.15,829.134 1510.35,829.134 C1513.73,829.134 1517,830.053 1520.16,831.893 M1547.2,880.501 L1541.71,880.501 L1541.71,843.782 L1547.2,843.782 L1547.2,846.37 C1549.37,844.205 1551.82,843.123 1554.58,843.123 C1557.85,843.123 1560.54,844.327 1562.66,846.736 C1564.8,849.129 1565.88,852.148 1565.88,855.794 C1565.88,859.358 1564.81,862.329 1562.68,864.705 C1560.56,867.065 1557.9,868.245 1554.67,868.245 C1551.89,868.245 1549.4,867.13 1547.2,864.9 L1547.2,880.501 M1560.26,855.818 C1560.26,853.54 1559.65,851.684 1558.41,850.252 C1557.16,848.803 1555.58,848.079 1553.67,848.079 C1551.65,848.079 1550.02,848.779 1548.76,850.179 C1547.51,851.578 1546.88,853.418 1546.88,855.696 C1546.88,857.926 1547.51,859.765 1548.76,861.214 C1550,862.63 1551.63,863.338 1553.65,863.338 C1555.55,863.338 1557.12,862.622 1558.36,861.189 C1559.63,859.757 1560.26,857.967 1560.26,855.818 M1593.33,856.966 L1576.29,856.966 C1576.44,858.919 1577.07,860.473 1578.2,861.629 C1579.32,862.768 1580.76,863.338 1582.52,863.338 C1583.88,863.338 1585.02,863.012 1585.91,862.361 C1586.79,861.71 1587.79,860.506 1588.91,858.748 L1593.55,861.336 C1592.84,862.557 1592.08,863.602 1591.28,864.473 C1590.48,865.344 1589.63,866.06 1588.72,866.622 C1587.81,867.183 1586.82,867.594 1585.76,867.854 C1584.71,868.115 1583.56,868.245 1582.32,868.245 C1578.77,868.245 1575.93,867.106 1573.78,864.827 C1571.63,862.532 1570.55,859.489 1570.55,855.696 C1570.55,851.937 1571.6,848.893 1573.68,846.565 C1575.78,844.271 1578.56,843.123 1582.03,843.123 C1585.53,843.123 1588.3,844.238 1590.33,846.468 C1592.35,848.681 1593.36,851.749 1593.36,855.672 L1593.33,856.966 M1587.69,852.474 C1586.93,849.544 1585.08,848.079 1582.15,848.079 C1581.48,848.079 1580.86,848.181 1580.27,848.384 C1579.69,848.588 1579.15,848.881 1578.67,849.263 C1578.19,849.646 1577.78,850.105 1577.44,850.643 C1577.1,851.18 1576.84,851.79 1576.66,852.474 L1587.69,852.474 M1599.33,843.782 L1604.85,843.782 L1604.85,845.979 C1606.77,844.075 1608.94,843.123 1611.35,843.123 C1614.11,843.123 1616.27,843.994 1617.82,845.735 C1619.15,847.216 1619.82,849.633 1619.82,852.986 L1619.82,867.562 L1614.3,867.562 L1614.3,854.28 C1614.3,851.937 1613.97,850.317 1613.32,849.422 C1612.69,848.51 1611.53,848.055 1609.86,848.055 C1608.03,848.055 1606.74,848.657 1605.97,849.861 C1605.23,851.049 1604.85,853.125 1604.85,856.087 L1604.85,867.562 L1599.33,867.562 L1599.33,843.782 M1632.4,848.909 L1632.4,867.562 L1626.91,867.562 L1626.91,848.909 L1624.57,848.909 L1624.57,843.782 L1626.91,843.782 L1626.91,835.066 L1632.4,835.066 L1632.4,843.782 L1636.68,843.782 L1636.68,848.909 L1632.4,848.909 M1658.38,843.782 L1663.9,843.782 L1663.9,867.562 L1658.38,867.562 L1658.38,865.071 C1656.12,867.187 1653.68,868.245 1651.08,868.245 C1647.79,868.245 1645.07,867.057 1642.92,864.681 C1640.79,862.256 1639.73,859.228 1639.73,855.599 C1639.73,852.034 1640.79,849.064 1642.92,846.687 C1645.06,844.311 1647.73,843.123 1650.93,843.123 C1653.7,843.123 1656.18,844.262 1658.38,846.541 L1658.38,843.782 M1645.34,855.599 C1645.34,857.877 1645.95,859.733 1647.17,861.165 C1648.43,862.614 1650,863.338 1651.91,863.338 C1653.94,863.338 1655.59,862.638 1656.84,861.238 C1658.09,859.79 1658.72,857.951 1658.72,855.721 C1658.72,853.491 1658.09,851.652 1656.84,850.203 C1655.59,848.787 1653.96,848.079 1651.96,848.079 C1650.07,848.079 1648.49,848.795 1647.22,850.228 C1645.97,851.676 1645.34,853.466 1645.34,855.599 M1676.48,848.909 L1676.48,867.562 L1670.99,867.562 L1670.99,848.909 L1668.65,848.909 L1668.65,843.782 L1670.99,843.782 L1670.99,835.066 L1676.48,835.066 L1676.48,843.782 L1680.75,843.782 L1680.75,848.909 L1676.48,848.909 M1683.7,855.501 C1683.7,852.067 1684.92,849.145 1687.38,846.736 C1689.84,844.327 1692.83,843.123 1696.37,843.123 C1699.91,843.123 1702.93,844.336 1705.4,846.761 C1707.84,849.186 1709.06,852.164 1709.06,855.696 C1709.06,859.261 1707.83,862.247 1705.38,864.656 C1702.9,867.049 1699.87,868.245 1696.27,868.245 C1692.7,868.245 1689.72,867.024 1687.31,864.583 C1684.9,862.174 1683.7,859.147 1683.7,855.501 M1689.31,855.599 C1689.31,857.975 1689.95,859.855 1691.21,861.238 C1692.52,862.638 1694.23,863.338 1696.37,863.338 C1698.51,863.338 1700.23,862.646 1701.52,861.263 C1702.8,859.879 1703.45,858.032 1703.45,855.721 C1703.45,853.409 1702.8,851.562 1701.52,850.179 C1700.22,848.779 1698.5,848.079 1696.37,848.079 C1694.27,848.079 1692.57,848.779 1691.26,850.179 C1689.96,851.578 1689.31,853.385 1689.31,855.599 M1714.87,843.782 L1720.38,843.782 L1720.38,845.979 C1722.3,844.075 1724.47,843.123 1726.88,843.123 C1729.64,843.123 1731.8,843.994 1733.35,845.735 C1734.68,847.216 1735.35,849.633 1735.35,852.986 L1735.35,867.562 L1729.83,867.562 L1729.83,854.28 C1729.83,851.937 1729.51,850.317 1728.85,849.422 C1728.22,848.51 1727.06,848.055 1725.39,848.055 C1723.56,848.055 1722.27,848.657 1721.51,849.861 C1720.76,851.049 1720.38,853.125 1720.38,856.087 L1720.38,867.562 L1714.87,867.562 L1714.87,843.782 M1747.76,843.782 L1747.76,867.562 L1742.27,867.562 L1742.27,843.782 L1747.76,843.782 M1741.44,833.895 C1741.44,832.934 1741.79,832.104 1742.49,831.404 C1743.19,830.704 1744.03,830.354 1745.01,830.354 C1746,830.354 1746.85,830.704 1747.55,831.404 C1748.24,832.088 1748.59,832.926 1748.59,833.919 C1748.59,834.912 1748.24,835.758 1747.55,836.458 C1746.86,837.158 1746.02,837.508 1745.03,837.508 C1744.04,837.508 1743.19,837.158 1742.49,836.458 C1741.79,835.758 1741.44,834.904 1741.44,833.895 M1773.21,844.808 L1773.21,852.107 C1771.96,850.577 1770.84,849.528 1769.85,848.958 C1768.87,848.372 1767.72,848.079 1766.4,848.079 C1764.34,848.079 1762.62,848.803 1761.25,850.252 C1759.88,851.701 1759.2,853.515 1759.2,855.696 C1759.2,857.926 1759.86,859.757 1761.18,861.189 C1762.51,862.622 1764.21,863.338 1766.28,863.338 C1767.6,863.338 1768.76,863.053 1769.77,862.483 C1770.75,861.93 1771.9,860.856 1773.21,859.261 L1773.21,866.512 C1770.99,867.667 1768.76,868.245 1766.53,868.245 C1762.85,868.245 1759.77,867.057 1757.3,864.681 C1754.82,862.288 1753.59,859.318 1753.59,855.77 C1753.59,852.221 1754.84,849.227 1757.35,846.785 C1759.85,844.344 1762.93,843.123 1766.57,843.123 C1768.92,843.123 1771.13,843.685 1773.21,844.808"/>
<path class="Lyrics" d="M1580.96,893.04 L1586.04,894.993 C1584.27,899.241 1583.02,903.163 1582.31,906.76 C1581.95,908.583 1581.68,910.5 1581.5,912.51 C1581.32,914.52 1581.23,916.713 1581.23,919.089 C1581.23,921.482 1581.32,923.683 1581.5,925.693 C1581.68,927.703 1581.95,929.62 1582.31,931.443 C1583.01,935.024 1584.25,938.938 1586.04,943.186 L1580.96,945.139 C1577.42,937.701 1575.64,929.018 1575.64,919.089 C1575.64,909.161 1577.42,900.478 1580.96,893.04 M1602.97,902.317 L1596.45,902.317 L1599.58,896.995 L1608.66,896.995 L1608.66,934.69 L1602.97,934.69 L1602.97,902.317 M1624.84,927.634 L1629.73,929.539 L1622.77,943.479 L1619.06,941.941 L1624.84,927.634 "/>
<path class="Lyrics" d="M1664.97,937.717 L1675.51,927.17 L1666.77,927.17 L1666.77,898.557 L1663.16,898.557 L1663.16,927.17 L1654.42,927.17 L1664.97,937.717 "/>
<path class="Lyrics" d="M1689.55,945.139 L1684.47,943.186 C1686.26,938.938 1687.51,935.024 1688.21,931.443 C1688.94,927.862 1689.31,923.744 1689.31,919.089 C1689.31,914.467 1688.94,910.357 1688.21,906.76 C1687.49,903.163 1686.25,899.241 1684.47,894.993 L1689.55,893.04 C1693.1,900.478 1694.87,909.161 1694.87,919.089 C1694.87,929.018 1693.1,937.701 1689.55,945.139"/>
<path class="Lyrics" d="M1821.07,847.933 L1836.64,847.933 L1836.64,849.178 C1836.64,852.01 1836.31,854.516 1835.64,856.697 C1834.99,858.715 1833.89,860.604 1832.35,862.361 C1828.85,866.3 1824.4,868.27 1818.99,868.27 C1813.72,868.27 1809.2,866.365 1805.44,862.557 C1801.68,858.732 1799.8,854.142 1799.8,848.787 C1799.8,843.318 1801.72,838.68 1805.54,834.871 C1809.37,831.046 1814.02,829.134 1819.51,829.134 C1822.45,829.134 1825.2,829.736 1827.76,830.94 C1830.2,832.145 1832.6,834.098 1834.96,836.8 L1830.91,840.682 C1827.81,836.564 1824.05,834.505 1819.6,834.505 C1815.62,834.505 1812.27,835.88 1809.57,838.631 C1806.87,841.333 1805.52,844.718 1805.52,848.787 C1805.52,852.986 1807.02,856.445 1810.03,859.163 C1812.85,861.686 1815.9,862.947 1819.19,862.947 C1821.99,862.947 1824.5,862.003 1826.73,860.115 C1828.96,858.211 1830.21,855.932 1830.47,853.279 L1821.07,853.279 L1821.07,847.933 "/>
<path class="Lyrics" d="M1858.93,851.062 C1858.93,847.012 1856.48,844.412 1853.48,844.412 C1849.23,844.412 1847.58,846.912 1846.88,848.912 L1846.88,833.462 L1843.93,833.462 L1843.93,864.762 C1850.23,864.412 1858.93,861.662 1858.93,851.062 M1855.33,852.812 C1855.33,859.662 1850.58,862.162 1846.88,862.412 L1846.88,852.362 C1846.88,850.162 1848.48,846.812 1852.03,846.812 C1854.08,846.812 1855.38,849.462 1855.38,852.812 L1855.33,852.812 "/>
<path class="Lyrics" d="M1882.46,843.782 L1887.95,843.782 L1887.95,845.979 C1889.01,844.873 1889.92,844.124 1890.66,843.733 C1891.46,843.326 1892.46,843.123 1893.67,843.123 C1896.35,843.123 1898.48,844.295 1900.04,846.639 C1901.76,844.295 1904.1,843.123 1907.05,843.123 C1912.4,843.123 1915.08,846.37 1915.08,852.864 L1915.08,867.562 L1909.56,867.562 L1909.56,854.354 C1909.56,852.075 1909.28,850.464 1908.73,849.52 C1908.16,848.559 1907.23,848.079 1905.92,848.079 C1904.41,848.079 1903.31,848.649 1902.61,849.788 C1901.92,850.927 1901.58,852.758 1901.58,855.281 L1901.58,867.562 L1896.06,867.562 L1896.06,854.427 C1896.06,850.195 1894.84,848.079 1892.4,848.079 C1890.85,848.079 1889.72,848.657 1889.02,849.812 C1888.31,850.968 1887.95,852.791 1887.95,855.281 L1887.95,867.562 L1882.46,867.562 L1882.46,843.782 M1939.54,843.782 L1945.05,843.782 L1945.05,867.562 L1939.54,867.562 L1939.54,865.071 C1937.27,867.187 1934.84,868.245 1932.24,868.245 C1928.95,868.245 1926.23,867.057 1924.08,864.681 C1921.95,862.256 1920.88,859.228 1920.88,855.599 C1920.88,852.034 1921.95,849.064 1924.08,846.687 C1926.22,844.311 1928.88,843.123 1932.09,843.123 C1934.86,843.123 1937.34,844.262 1939.54,846.541 L1939.54,843.782 M1926.5,855.599 C1926.5,857.877 1927.11,859.733 1928.33,861.165 C1929.58,862.614 1931.16,863.338 1933.07,863.338 C1935.1,863.338 1936.75,862.638 1938,861.238 C1939.25,859.79 1939.88,857.951 1939.88,855.721 C1939.88,853.491 1939.25,851.652 1938,850.203 C1936.75,848.787 1935.12,848.079 1933.12,848.079 C1931.23,848.079 1929.65,848.795 1928.38,850.228 C1927.13,851.676 1926.5,853.466 1926.5,855.599 M1958.08,843.782 L1958.08,880.501 L1952.59,880.501 L1952.59,843.782 L1958.08,843.782 M1951.76,833.895 C1951.76,832.934 1952.11,832.104 1952.81,831.404 C1953.51,830.704 1954.34,830.354 1955.32,830.354 C1956.31,830.354 1957.16,830.704 1957.86,831.404 C1958.56,832.088 1958.91,832.926 1958.91,833.919 C1958.91,834.912 1958.56,835.758 1957.86,836.458 C1957.18,837.158 1956.34,837.508 1955.34,837.508 C1954.35,837.508 1953.51,837.158 1952.81,836.458 C1952.11,835.758 1951.76,834.904 1951.76,833.895 M1963.9,855.501 C1963.9,852.067 1965.13,849.145 1967.59,846.736 C1970.04,844.327 1973.04,843.123 1976.57,843.123 C1980.12,843.123 1983.13,844.336 1985.6,846.761 C1988.05,849.186 1989.27,852.164 1989.27,855.696 C1989.27,859.261 1988.04,862.247 1985.58,864.656 C1983.11,867.049 1980.07,868.245 1976.47,868.245 C1972.91,868.245 1969.92,867.024 1967.51,864.583 C1965.11,862.174 1963.9,859.147 1963.9,855.501 M1969.52,855.599 C1969.52,857.975 1970.15,859.855 1971.42,861.238 C1972.72,862.638 1974.44,863.338 1976.57,863.338 C1978.72,863.338 1980.44,862.646 1981.72,861.263 C1983.01,859.879 1983.65,858.032 1983.65,855.721 C1983.65,853.409 1983.01,851.562 1981.72,850.179 C1980.42,848.779 1978.7,848.079 1976.57,848.079 C1974.47,848.079 1972.77,848.779 1971.47,850.179 C1970.17,851.578 1969.52,853.385 1969.52,855.599 M1995.07,843.782 L2000.56,843.782 L2000.56,845.906 C2001.57,844.848 2002.47,844.124 2003.25,843.733 C2004.05,843.326 2004.99,843.123 2006.08,843.123 C2007.53,843.123 2009.04,843.595 2010.62,844.539 L2008.11,849.568 C2007.07,848.82 2006.05,848.445 2005.06,848.445 C2002.06,848.445 2000.56,850.708 2000.56,855.232 L2000.56,867.562 L1995.07,867.562 L1995.07,843.782 M2009.73,853.084 L2020.62,853.084 L2020.62,857.869 L2009.73,857.869 L2009.73,853.084 M2042.58,844.808 L2042.58,852.107 C2041.32,850.577 2040.2,849.528 2039.21,848.958 C2038.23,848.372 2037.08,848.079 2035.76,848.079 C2033.7,848.079 2031.98,848.803 2030.61,850.252 C2029.25,851.701 2028.56,853.515 2028.56,855.696 C2028.56,857.926 2029.22,859.757 2030.54,861.189 C2031.87,862.622 2033.58,863.338 2035.64,863.338 C2036.96,863.338 2038.12,863.053 2039.13,862.483 C2040.11,861.93 2041.26,860.856 2042.58,859.261 L2042.58,866.512 C2040.35,867.667 2038.12,868.245 2035.89,868.245 C2032.21,868.245 2029.13,867.057 2026.66,864.681 C2024.18,862.288 2022.95,859.318 2022.95,855.77 C2022.95,852.221 2024.2,849.227 2026.71,846.785 C2029.21,844.344 2032.29,843.123 2035.94,843.123 C2038.28,843.123 2040.49,843.685 2042.58,844.808 M2049.18,826.326 L2054.67,826.326 L2054.67,845.76 C2056.63,844.002 2058.78,843.123 2061.14,843.123 C2063.83,843.123 2065.98,843.994 2067.59,845.735 C2068.96,847.249 2069.64,849.666 2069.64,852.986 L2069.64,867.562 L2064.15,867.562 L2064.15,853.499 C2064.15,851.595 2063.81,850.215 2063.13,849.361 C2062.46,848.506 2061.37,848.079 2059.87,848.079 C2057.95,848.079 2056.6,848.673 2055.82,849.861 C2055.06,851.066 2054.67,853.133 2054.67,856.062 L2054.67,867.562 L2049.18,867.562 L2049.18,826.326 M2075.46,855.501 C2075.46,852.067 2076.69,849.145 2079.15,846.736 C2081.61,844.327 2084.6,843.123 2088.13,843.123 C2091.68,843.123 2094.69,844.336 2097.17,846.761 C2099.61,849.186 2100.83,852.164 2100.83,855.696 C2100.83,859.261 2099.6,862.247 2097.14,864.656 C2094.67,867.049 2091.63,868.245 2088.04,868.245 C2084.47,868.245 2081.49,867.024 2079.08,864.583 C2076.67,862.174 2075.46,859.147 2075.46,855.501 M2081.08,855.599 C2081.08,857.975 2081.71,859.855 2082.98,861.238 C2084.28,862.638 2086,863.338 2088.13,863.338 C2090.28,863.338 2092,862.646 2093.29,861.263 C2094.57,859.879 2095.21,858.032 2095.21,855.721 C2095.21,853.409 2094.57,851.562 2093.29,850.179 C2091.98,848.779 2090.27,848.079 2088.13,848.079 C2086.03,848.079 2084.33,848.779 2083.03,850.179 C2081.73,851.578 2081.08,853.385 2081.08,855.599 M2106.63,843.782 L2112.13,843.782 L2112.13,845.906 C2113.14,844.848 2114.03,844.124 2114.81,843.733 C2115.61,843.326 2116.55,843.123 2117.64,843.123 C2119.09,843.123 2120.61,843.595 2122.18,844.539 L2119.67,849.568 C2118.63,848.82 2117.61,848.445 2116.62,848.445 C2113.62,848.445 2112.13,850.708 2112.13,855.232 L2112.13,867.562 L2106.63,867.562 L2106.63,843.782 M2142.52,826.326 L2148.04,826.326 L2148.04,867.562 L2142.52,867.562 L2142.52,865.071 C2140.36,867.187 2137.91,868.245 2135.17,868.245 C2131.92,868.245 2129.22,867.057 2127.07,864.681 C2124.94,862.256 2123.87,859.228 2123.87,855.599 C2123.87,852.05 2124.94,849.088 2127.07,846.712 C2129.18,844.319 2131.84,843.123 2135.05,843.123 C2137.83,843.123 2140.32,844.262 2142.52,846.541 L2142.52,826.326 M2129.48,855.599 C2129.48,857.877 2130.09,859.733 2131.32,861.165 C2132.57,862.614 2134.15,863.338 2136.05,863.338 C2138.09,863.338 2139.73,862.638 2140.98,861.238 C2142.24,859.79 2142.86,857.951 2142.86,855.721 C2142.86,853.491 2142.24,851.652 2140.98,850.203 C2139.73,848.787 2138.1,848.079 2136.1,848.079 C2134.21,848.079 2132.63,848.795 2131.36,850.228 C2130.11,851.676 2129.48,853.466 2129.48,855.599"/>
<path class="Lyrics" d="M1887.11,893.04 L1892.19,894.993 C1890.42,899.241 1889.17,903.163 1888.46,906.76 C1888.1,908.583 1887.83,910.5 1887.65,912.51 C1887.47,914.52 1887.38,916.713 1887.38,919.089 C1887.38,921.482 1887.47,923.683 1887.65,925.693 C1887.83,927.703 1888.1,929.62 1888.46,931.443 C1889.16,935.024 1890.4,938.938 1892.19,943.186 L1887.11,945.139 C1883.57,937.701 1881.79,929.018 1881.79,919.089 C1881.79,909.161 1883.57,900.478 1887.11,893.04 M1909.12,902.317 L1902.6,902.317 L1905.73,896.995 L1914.81,896.995 L1914.81,934.69 L1909.12,934.69 L1909.12,902.317 M1931,927.634 L1935.88,929.539 L1928.92,943.479 L1925.21,941.941 L1931,927.634 "/>
<path class="Lyrics" d="M1971.12,895.53 L1981.66,906.077 L1972.92,906.077 L1972.92,934.69 L1969.31,934.69 L1969.31,906.077 L1960.57,906.077 L1971.12,895.53 "/>
<path class="Lyrics" d="M1994.09,927.634 L1998.97,929.539 L1992.01,943.479 L1988.3,941.941 L1994.09,927.634 M2031.62,902.317 L2025.1,902.317 L2028.23,896.995 L2037.31,896.995 L2037.31,934.69 L2031.62,934.69 L2031.62,902.317 M2057.4,945.139 L2052.33,943.186 C2054.12,938.938 2055.36,935.024 2056.06,931.443 C2056.79,927.862 2057.16,923.744 2057.16,919.089 C2057.16,914.467 2056.79,910.357 2056.06,906.76 C2055.34,903.163 2054.1,899.241 2052.33,894.993 L2057.4,893.04 C2060.95,900.478 2062.73,909.161 2062.73,919.089 C2062.73,929.018 2060.95,937.701 2057.4,945.139"/>
<path class="Lyrics" d="M2402.52,847.933 L2418.1,847.933 L2418.1,849.178 C2418.1,852.01 2417.77,854.516 2417.1,856.697 C2416.45,858.715 2415.35,860.604 2413.8,862.361 C2410.3,866.3 2405.85,868.27 2400.45,868.27 C2395.18,868.27 2390.66,866.365 2386.9,862.557 C2383.14,858.732 2381.26,854.142 2381.26,848.787 C2381.26,843.318 2383.17,838.68 2387,834.871 C2390.82,831.046 2395.48,829.134 2400.96,829.134 C2403.91,829.134 2406.66,829.736 2409.21,830.94 C2411.66,832.145 2414.06,834.098 2416.42,836.8 L2412.36,840.682 C2409.27,836.564 2405.5,834.505 2401.06,834.505 C2397.07,834.505 2393.73,835.88 2391.03,838.631 C2388.32,841.333 2386.97,844.718 2386.97,848.787 C2386.97,852.986 2388.48,856.445 2391.49,859.163 C2394.31,861.686 2397.36,862.947 2400.64,862.947 C2403.44,862.947 2405.96,862.003 2408.19,860.115 C2410.42,858.211 2411.66,855.932 2411.92,853.279 L2402.52,853.279 L2402.52,847.933 M2439.62,843.782 L2445.11,843.782 L2445.11,845.979 C2446.17,844.873 2447.08,844.124 2447.82,843.733 C2448.62,843.326 2449.62,843.123 2450.83,843.123 C2453.51,843.123 2455.64,844.295 2457.2,846.639 C2458.92,844.295 2461.26,843.123 2464.21,843.123 C2469.56,843.123 2472.24,846.37 2472.24,852.864 L2472.24,867.562 L2466.72,867.562 L2466.72,854.354 C2466.72,852.075 2466.44,850.464 2465.89,849.52 C2465.32,848.559 2464.39,848.079 2463.08,848.079 C2461.57,848.079 2460.47,848.649 2459.78,849.788 C2459.08,850.927 2458.74,852.758 2458.74,855.281 L2458.74,867.562 L2453.22,867.562 L2453.22,854.427 C2453.22,850.195 2452,848.079 2449.56,848.079 C2448.01,848.079 2446.88,848.657 2446.18,849.812 C2445.47,850.968 2445.11,852.791 2445.11,855.281 L2445.11,867.562 L2439.62,867.562 L2439.62,843.782 M2484.66,843.782 L2484.66,867.562 L2479.17,867.562 L2479.17,843.782 L2484.66,843.782 M2478.34,833.895 C2478.34,832.934 2478.69,832.104 2479.39,831.404 C2480.09,830.704 2480.93,830.354 2481.9,830.354 C2482.9,830.354 2483.74,830.704 2484.44,831.404 C2485.14,832.088 2485.49,832.926 2485.49,833.919 C2485.49,834.912 2485.14,835.758 2484.44,836.458 C2483.76,837.158 2482.92,837.508 2481.93,837.508 C2480.93,837.508 2480.09,837.158 2479.39,836.458 C2478.69,835.758 2478.34,834.904 2478.34,833.895 M2491.61,843.782 L2497.12,843.782 L2497.12,845.979 C2499.04,844.075 2501.21,843.123 2503.62,843.123 C2506.38,843.123 2508.54,843.994 2510.09,845.735 C2511.42,847.216 2512.09,849.633 2512.09,852.986 L2512.09,867.562 L2506.57,867.562 L2506.57,854.28 C2506.57,851.937 2506.25,850.317 2505.6,849.422 C2504.96,848.51 2503.8,848.055 2502.13,848.055 C2500.31,848.055 2499.01,848.657 2498.25,849.861 C2497.5,851.049 2497.12,853.125 2497.12,856.087 L2497.12,867.562 L2491.61,867.562 L2491.61,843.782 M2517.89,855.501 C2517.89,852.067 2519.12,849.145 2521.58,846.736 C2524.03,844.327 2527.03,843.123 2530.56,843.123 C2534.11,843.123 2537.12,844.336 2539.59,846.761 C2542.03,849.186 2543.26,852.164 2543.26,855.696 C2543.26,859.261 2542.03,862.247 2539.57,864.656 C2537.09,867.049 2534.06,868.245 2530.46,868.245 C2526.9,868.245 2523.91,867.024 2521.5,864.583 C2519.09,862.174 2517.89,859.147 2517.89,855.501 M2523.5,855.599 C2523.5,857.975 2524.14,859.855 2525.41,861.238 C2526.71,862.638 2528.43,863.338 2530.56,863.338 C2532.71,863.338 2534.43,862.646 2535.71,861.263 C2537,859.879 2537.64,858.032 2537.64,855.721 C2537.64,853.409 2537,851.562 2535.71,850.179 C2534.41,848.779 2532.69,848.079 2530.56,848.079 C2528.46,848.079 2526.76,848.779 2525.46,850.179 C2524.16,851.578 2523.5,853.385 2523.5,855.599 M2549.06,843.782 L2554.55,843.782 L2554.55,845.906 C2555.56,844.848 2556.46,844.124 2557.24,843.733 C2558.04,843.326 2558.98,843.123 2560.07,843.123 C2561.52,843.123 2563.03,843.595 2564.61,844.539 L2562.1,849.568 C2561.05,848.82 2560.04,848.445 2559.04,848.445 C2556.05,848.445 2554.55,850.708 2554.55,855.232 L2554.55,867.562 L2549.06,867.562 L2549.06,843.782 "/>
<path class="Lyrics" d="M2386.63,893.04 L2391.71,894.993 C2389.94,899.241 2388.69,903.163 2387.98,906.76 C2387.62,908.583 2387.35,910.5 2387.17,912.51 C2386.99,914.52 2386.9,916.713 2386.9,919.089 C2386.9,921.482 2386.99,923.683 2387.17,925.693 C2387.35,927.703 2387.62,929.62 2387.98,931.443 C2388.68,935.024 2389.92,938.938 2391.71,943.186 L2386.63,945.139 C2383.09,937.701 2381.31,929.018 2381.31,919.089 C2381.31,909.161 2383.09,900.478 2386.63,893.04 M2408.64,902.317 L2402.12,902.317 L2405.25,896.995 L2414.33,896.995 L2414.33,934.69 L2408.64,934.69 L2408.64,902.317 M2430.52,927.634 L2435.4,929.539 L2428.44,943.479 L2424.73,941.941 L2430.52,927.634 "/>
<path class="Lyrics" d="M2470.64,895.53 L2481.18,906.077 L2472.44,906.077 L2472.44,934.69 L2468.83,934.69 L2468.83,906.077 L2460.09,906.077 L2470.64,895.53 "/>
<path class="Lyrics" d="M2493.61,927.634 L2498.49,929.539 L2491.53,943.479 L2487.82,941.941 L2493.61,927.634 M2531.14,902.317 L2524.62,902.317 L2527.75,896.995 L2536.83,896.995 L2536.83,934.69 L2531.14,934.69 L2531.14,902.317 M2556.92,945.139 L2551.85,943.186 C2553.64,938.938 2554.88,935.024 2555.58,931.443 C2556.31,927.862 2556.68,923.744 2556.68,919.089 C2556.68,914.467 2556.31,910.357 2555.58,906.76 C2554.86,903.163 2553.62,899.241 2551.85,894.993 L2556.92,893.04 C2560.47,900.478 2562.25,909.161 2562.25,919.089 C2562.25,929.018 2560.47,937.701 2556.92,945.139"/>
</svg>
