<?xml version="1.0" encoding="UTF-8" standalone="no"?>
<svg width="2976.38px" height="4209.45px" viewBox="0 0 2976.38 4209.45"
 xmlns="http://www.w3.org/2000/svg" xmlns:xlink="http://www.w3.org/1999/xlink" version="1.2" baseProfile="tiny">
<title>tmp5gbwzw94</title>
<desc>Generated by MuseScore 3.6.2</desc>
<polyline class="StaffLines" fill="none" stroke="#000000" stroke-width="2.73" stroke-linejoin="bevel" points="336.614,634.252 2763.78,634.252"/>
<polyline class="StaffLines" fill="none" stroke="#000000" stroke-width="2.73" stroke-linejoin="bevel" points="336.614,659.055 2763.78,659.055"/>
<polyline class="StaffLines" fill="none" stroke="#000000" stroke-width="2.73" stroke-linejoin="bevel" points="336.614,683.858 2763.78,683.858"/>
<polyline class="StaffLines" fill="none" stroke="#000000" stroke-width="2.73" stroke-linejoin="bevel" points="336.614,708.661 2763.78,708.661"/>
<polyline class="StaffLines" fill="none" stroke="#000000" stroke-width="2.73" stroke-linejoin="bevel" points="336.614,733.465 2763.78,733.465"/>
<path class="Text" d="M1234.65,472.841 L1234.65,404.989 L1244.85,404.989 C1249.39,404.989 1253,405.341 1255.7,406.044 C1258.42,406.747 1260.72,407.934 1262.6,409.603 C1264.5,411.332 1266.01,413.485 1267.13,416.063 C1268.27,418.671 1268.84,421.308 1268.84,423.974 C1268.84,428.837 1266.98,432.953 1263.26,436.322 C1266.86,437.553 1269.7,439.706 1271.78,442.782 C1273.89,445.829 1274.95,449.374 1274.95,453.417 C1274.95,458.72 1273.07,463.202 1269.32,466.864 C1267.07,469.12 1264.53,470.687 1261.72,471.566 C1258.64,472.416 1254.79,472.841 1250.16,472.841 L1234.65,472.841 M1244.89,434.125 L1248.1,434.125 C1251.91,434.125 1254.7,433.283 1256.47,431.598 C1258.24,429.914 1259.13,427.431 1259.13,424.149 C1259.13,420.956 1258.22,418.532 1256.4,416.876 C1254.59,415.221 1251.95,414.394 1248.49,414.394 L1244.89,414.394 L1244.89,434.125 M1244.89,463.217 L1251.22,463.217 C1255.85,463.217 1259.24,462.309 1261.41,460.492 C1263.7,458.529 1264.84,456.039 1264.84,453.021 C1264.84,450.092 1263.74,447.631 1261.54,445.639 C1259.41,443.676 1255.58,442.694 1250.07,442.694 L1244.89,442.694 L1244.89,463.217 M1295.85,430.038 L1295.85,472.841 L1285.96,472.841 L1285.96,430.038 L1295.85,430.038 M1284.47,412.24 C1284.47,410.512 1285.1,409.018 1286.36,407.758 C1287.62,406.498 1289.13,405.868 1290.89,405.868 C1292.67,405.868 1294.2,406.498 1295.46,407.758 C1296.72,408.988 1297.35,410.497 1297.35,412.284 C1297.35,414.071 1296.72,415.595 1295.46,416.854 C1294.23,418.114 1292.72,418.744 1290.93,418.744 C1289.14,418.744 1287.62,418.114 1286.36,416.854 C1285.1,415.595 1284.47,414.057 1284.47,412.24 M1318.26,398.617 L1318.26,472.841 L1308.37,472.841 L1308.37,398.617 L1318.26,398.617 M1340.66,398.617 L1340.66,472.841 L1330.78,472.841 L1330.78,398.617 L1340.66,398.617 M1420.28,414.613 L1393.08,414.613 L1393.08,430.917 L1419.49,430.917 L1419.49,440.541 L1393.08,440.541 L1393.08,463.217 L1420.28,463.217 L1420.28,472.841 L1382.84,472.841 L1382.84,404.989 L1420.28,404.989 L1420.28,414.613 M1437.14,430.038 L1448.21,454.076 L1459.24,430.038 L1470.36,430.038 L1448.13,475.785 L1426.07,430.038 L1437.14,430.038 M1507.05,430.038 L1516.98,430.038 L1516.98,472.841 L1507.05,472.841 L1507.05,468.358 C1502.98,472.167 1498.6,474.071 1493.91,474.071 C1487.99,474.071 1483.1,471.933 1479.23,467.655 C1475.39,463.29 1473.47,457.841 1473.47,451.308 C1473.47,444.892 1475.39,439.545 1479.23,435.268 C1483.07,430.99 1487.87,428.852 1493.64,428.852 C1498.62,428.852 1503.09,430.902 1507.05,435.004 L1507.05,430.038 M1483.58,451.308 C1483.58,455.409 1484.68,458.749 1486.88,461.327 C1489.13,463.935 1491.97,465.238 1495.4,465.238 C1499.06,465.238 1502.02,463.978 1504.28,461.459 C1506.53,458.852 1507.66,455.541 1507.66,451.527 C1507.66,447.514 1506.53,444.203 1504.28,441.596 C1502.02,439.047 1499.09,437.772 1495.49,437.772 C1492.09,437.772 1489.25,439.062 1486.96,441.64 C1484.71,444.247 1483.58,447.47 1483.58,451.308 M1529.45,430.038 L1539.38,430.038 L1539.38,433.993 C1542.84,430.565 1546.73,428.852 1551.07,428.852 C1556.05,428.852 1559.93,430.419 1562.71,433.554 C1565.12,436.22 1566.32,440.57 1566.32,446.605 L1566.32,472.841 L1556.39,472.841 L1556.39,448.935 C1556.39,444.716 1555.8,441.801 1554.63,440.189 C1553.49,438.549 1551.41,437.728 1548.39,437.728 C1545.11,437.728 1542.78,438.812 1541.4,440.98 C1540.05,443.119 1539.38,446.854 1539.38,452.187 L1539.38,472.841 L1529.45,472.841 L1529.45,430.038 M1603.66,437.333 L1595.49,441.684 C1594.2,439.047 1592.61,437.728 1590.7,437.728 C1589.79,437.728 1589.02,438.029 1588.37,438.629 C1587.73,439.23 1587.41,439.999 1587.41,440.937 C1587.41,442.577 1589.31,444.203 1593.12,445.814 C1598.36,448.07 1601.89,450.15 1603.71,452.055 C1605.53,453.959 1606.43,456.522 1606.43,459.745 C1606.43,463.876 1604.91,467.333 1601.86,470.116 C1598.9,472.753 1595.33,474.071 1591.14,474.071 C1583.96,474.071 1578.88,470.57 1575.89,463.568 L1584.33,459.657 C1585.5,461.708 1586.39,463.012 1587.01,463.568 C1588.21,464.682 1589.65,465.238 1591.32,465.238 C1594.66,465.238 1596.33,463.715 1596.33,460.668 C1596.33,458.91 1595.04,457.27 1592.46,455.746 C1591.46,455.248 1590.47,454.765 1589.47,454.296 C1588.47,453.827 1587.46,453.344 1586.44,452.846 C1583.57,451.439 1581.55,450.033 1580.37,448.627 C1578.88,446.84 1578.13,444.54 1578.13,441.728 C1578.13,438.007 1579.41,434.931 1581.96,432.499 C1584.56,430.067 1587.73,428.852 1591.45,428.852 C1596.93,428.852 1601,431.679 1603.66,437.333 M1690.75,424.062 L1690.75,431.796 L1680.07,431.796 L1678.49,444.408 L1688.25,444.408 L1688.25,452.143 L1677.53,452.143 L1674.93,473.148 L1667.2,472.138 L1669.7,452.143 L1656.65,452.143 L1654.02,473.148 L1646.19,472.138 L1648.7,451.967 L1638.68,451.967 L1638.68,444.408 L1649.8,444.408 L1651.38,431.796 L1641.23,431.796 L1641.23,424.062 L1652.35,424.062 L1654.76,404.374 L1662.45,405.385 L1660.12,424.062 L1673.09,424.062 L1675.55,404.374 L1683.24,405.385 L1680.91,424.062 L1690.75,424.062 M1672.12,431.796 L1659.2,431.796 L1657.62,444.408 L1670.63,444.408 L1672.12,431.796 M1714.92,463.217 L1740.19,463.217 L1740.19,472.841 L1694.62,472.841 L1718.18,444.32 C1720.49,441.478 1722.43,439.018 1724,436.937 C1725.57,434.857 1726.76,433.114 1727.58,431.708 C1729.25,428.954 1730.08,426.478 1730.08,424.281 C1730.08,421.117 1728.97,418.466 1726.74,416.327 C1724.52,414.188 1721.76,413.119 1718.48,413.119 C1711.63,413.119 1707.7,417.177 1706.71,425.292 L1696.51,425.292 C1698.15,410.995 1705.37,403.847 1718.18,403.847 C1724.36,403.847 1729.54,405.81 1733.73,409.735 C1737.95,413.661 1740.06,418.524 1740.06,424.325 C1740.06,428.017 1739.08,431.635 1737.12,435.18 C1736.12,437.025 1734.66,439.215 1732.74,441.749 C1730.82,444.284 1728.4,447.279 1725.47,450.736 L1714.92,463.217 "/>
<polyline class="BarLine" fill="none" stroke="#000000" stroke-width="4.46" stroke-linejoin="bevel" points="1929.74,632.888 1929.74,734.829"/>
<polyline class="BarLine" fill="none" stroke="#000000" stroke-width="4.46" stroke-linejoin="bevel" points="2739.6,632.888 2739.6,734.829"/>
<polyline class="BarLine" fill="none" stroke="#000000" stroke-width="13.64" stroke-linejoin="bevel" points="2756.96,632.888 2756.96,734.829"/>
<path class="Accidental" transform="matrix(0.992126,0,0,0.992126,630.768,683.858)" d="M20.1,-7.9 C19.5,-11.8 17.1,-15.5 12,-15.5 C7,-15.5 4.1,-12.4 3.6,-11.8 L4,-43.9 C4,-44.7 3.4,-45.3 2.6,-45.3 L1.4,-45.3 C0.6,-45.3 0,-44.7 0,-43.9 L0.5,16.2 C0.5,17 1.1,17.6 1.9,17.6 C2.1,17.6 2.5,17.5 2.7,17.4 C3.1,17.2 9.6,14 15,7.9 C18.8,3.6 20.3,-1.3 20.3,-5.4 C20.3,-6.3 20.2,-7.1 20.1,-7.9 M13.2,-4 C13.2,-2.5 12.8,2.1 10.3,5.9 C8.6,8.5 5.2,11.2 3.3,12.7 L3.6,-6.8 C3.8,-7.7 5.3,-10.6 9.3,-10.6 C12.9,-10.6 13.2,-7.2 13.2,-5.1 L13.2,-4 "/>
<path class="Accidental" transform="matrix(0.992126,0,0,0.992126,993.739,733.465)" d="M20.1,-7.9 C19.5,-11.8 17.1,-15.5 12,-15.5 C7,-15.5 4.1,-12.4 3.6,-11.8 L4,-43.9 C4,-44.7 3.4,-45.3 2.6,-45.3 L1.4,-45.3 C0.6,-45.3 0,-44.7 0,-43.9 L0.5,16.2 C0.5,17 1.1,17.6 1.9,17.6 C2.1,17.6 2.5,17.5 2.7,17.4 C3.1,17.2 9.6,14 15,7.9 C18.8,3.6 20.3,-1.3 20.3,-5.4 C20.3,-6.3 20.2,-7.1 20.1,-7.9 M13.2,-4 C13.2,-2.5 12.8,2.1 10.3,5.9 C8.6,8.5 5.2,11.2 3.3,12.7 L3.6,-6.8 C3.8,-7.7 5.3,-10.6 9.3,-10.6 C12.9,-10.6 13.2,-7.2 13.2,-5.1 L13.2,-4 "/>
<path class="Accidental" transform="matrix(0.992126,0,0,0.992126,2187.28,733.465)" d="M20.1,-7.9 C19.5,-11.8 17.1,-15.5 12,-15.5 C7,-15.5 4.1,-12.4 3.6,-11.8 L4,-43.9 C4,-44.7 3.4,-45.3 2.6,-45.3 L1.4,-45.3 C0.6,-45.3 0,-44.7 0,-43.9 L0.5,16.2 C0.5,17 1.1,17.6 1.9,17.6 C2.1,17.6 2.5,17.5 2.7,17.4 C3.1,17.2 9.6,14 15,7.9 C18.8,3.6 20.3,-1.3 20.3,-5.4 C20.3,-6.3 20.2,-7.1 20.1,-7.9 M13.2,-4 C13.2,-2.5 12.8,2.1 10.3,5.9 C8.6,8.5 5.2,11.2 3.3,12.7 L3.6,-6.8 C3.8,-7.7 5.3,-10.6 9.3,-10.6 C12.9,-10.6 13.2,-7.2 13.2,-5.1 L13.2,-4 "/>
<polyline class="LedgerLine" fill="none" stroke="#000000" stroke-width="3.97" stroke-linejoin="bevel" points="1192.88,758.268 1242.48,758.268"/>
<polyline class="LedgerLine" fill="none" stroke="#000000" stroke-width="3.97" stroke-linejoin="bevel" points="1555.85,758.268 1605.45,758.268"/>
<polyline class="Stem" fill="none" stroke="#000000" stroke-width="2.73" stroke-linejoin="bevel" points="658.47,687.192 658.47,770.669"/>
<polyline class="Stem" fill="none" stroke="#000000" stroke-width="2.73" stroke-linejoin="bevel" points="869.463,705.487 869.463,634.252"/>
<polyline class="Stem" fill="none" stroke="#000000" stroke-width="2.73" stroke-linejoin="bevel" points="1050.95,730.29 1050.95,659.055"/>
<polyline class="Stem" fill="none" stroke="#000000" stroke-width="2.73" stroke-linejoin="bevel" points="1232.43,755.093 1232.43,652.854"/>
<polyline class="Stem" fill="none" stroke="#000000" stroke-width="2.73" stroke-linejoin="bevel" points="1413.92,693.085 1413.92,628.051"/>
<polyline class="Stem" fill="none" stroke="#000000" stroke-width="2.73" stroke-linejoin="bevel" points="1595.41,755.093 1595.41,659.055"/>
<polyline class="Stem" fill="none" stroke="#000000" stroke-width="2.73" stroke-linejoin="bevel" points="1776.89,705.487 1776.89,634.252"/>
<polyline class="Stem" fill="none" stroke="#000000" stroke-width="2.73" stroke-linejoin="bevel" points="1995.08,693.085 1995.08,628.051"/>
<polyline class="Stem" fill="none" stroke="#000000" stroke-width="2.73" stroke-linejoin="bevel" points="2119.79,717.888 2119.79,640.453"/>
<polyline class="Stem" fill="none" stroke="#000000" stroke-width="2.73" stroke-linejoin="bevel" points="2244.49,730.29 2244.49,659.055"/>
<polyline class="Stem" fill="none" stroke="#000000" stroke-width="2.73" stroke-linejoin="bevel" points="2369.19,742.691 2369.19,665.256"/>
<polyline class="Stem" fill="none" stroke="#000000" stroke-width="2.73" stroke-linejoin="bevel" points="2493.89,717.888 2493.89,634.252"/>
<path class="Note" transform="matrix(0.992126,0,0,0.992126,657.106,683.858)" d="M31.5,-8.1 C29.7,-11.4 25.9,-13.2 21.3,-13.2 C17.9,-13.2 14.2,-12.2 10.6,-10.3 C4,-6.8 0,-0.9 0,4.2 C0,5.6 0.3,7 1,8.3 C2.8,11.6 6.6,13.3 11.2,13.3 C14.6,13.3 18.3,12.4 21.9,10.5 C28.5,7 32.5,1.1 32.5,-4 C32.5,-5.4 32.2,-6.8 31.5,-8.1"/>
<path class="Note" transform="matrix(0.992126,0,0,0.992126,838.591,708.661)" d="M31.5,-8.1 C29.7,-11.4 25.9,-13.2 21.3,-13.2 C17.9,-13.2 14.2,-12.2 10.6,-10.3 C4,-6.8 0,-0.9 0,4.2 C0,5.6 0.3,7 1,8.3 C2.8,11.6 6.6,13.3 11.2,13.3 C14.6,13.3 18.3,12.4 21.9,10.5 C28.5,7 32.5,1.1 32.5,-4 C32.5,-5.4 32.2,-6.8 31.5,-8.1"/>
<path class="Note" transform="matrix(0.992126,0,0,0.992126,1020.08,733.465)" d="M31.5,-8.1 C29.7,-11.4 25.9,-13.2 21.3,-13.2 C17.9,-13.2 14.2,-12.2 10.6,-10.3 C4,-6.8 0,-0.9 0,4.2 C0,5.6 0.3,7 1,8.3 C2.8,11.6 6.6,13.3 11.2,13.3 C14.6,13.3 18.3,12.4 21.9,10.5 C28.5,7 32.5,1.1 32.5,-4 C32.5,-5.4 32.2,-6.8 31.5,-8.1"/>
<path class="Note" transform="matrix(0.992126,0,0,0.992126,1201.56,758.268)" d="M31.5,-8.1 C29.7,-11.4 25.9,-13.2 21.3,-13.2 C17.9,-13.2 14.2,-12.2 10.6,-10.3 C4,-6.8 0,-0.9 0,4.2 C0,5.6 0.3,7 1,8.3 C2.8,11.6 6.6,13.3 11.2,13.3 C14.6,13.3 18.3,12.4 21.9,10.5 C28.5,7 32.5,1.1 32.5,-4 C32.5,-5.4 32.2,-6.8 31.5,-8.1"/>
<path class="Note" transform="matrix(0.992126,0,0,0.992126,1383.05,696.26)" d="M31.5,-8.1 C29.7,-11.4 25.9,-13.2 21.3,-13.2 C17.9,-13.2 14.2,-12.2 10.6,-10.3 C4,-6.8 0,-0.9 0,4.2 C0,5.6 0.3,7 1,8.3 C2.8,11.6 6.6,13.3 11.2,13.3 C14.6,13.3 18.3,12.4 21.9,10.5 C28.5,7 32.5,1.1 32.5,-4 C32.5,-5.4 32.2,-6.8 31.5,-8.1"/>
<path class="Note" transform="matrix(0.992126,0,0,0.992126,1564.53,758.268)" d="M31.5,-8.1 C29.7,-11.4 25.9,-13.2 21.3,-13.2 C17.9,-13.2 14.2,-12.2 10.6,-10.3 C4,-6.8 0,-0.9 0,4.2 C0,5.6 0.3,7 1,8.3 C2.8,11.6 6.6,13.3 11.2,13.3 C14.6,13.3 18.3,12.4 21.9,10.5 C28.5,7 32.5,1.1 32.5,-4 C32.5,-5.4 32.2,-6.8 31.5,-8.1"/>
<path class="Note" transform="matrix(0.992126,0,0,0.992126,1746.02,708.661)" d="M31.5,-8.1 C29.7,-11.4 25.9,-13.2 21.3,-13.2 C17.9,-13.2 14.2,-12.2 10.6,-10.3 C4,-6.8 0,-0.9 0,4.2 C0,5.6 0.3,7 1,8.3 C2.8,11.6 6.6,13.3 11.2,13.3 C14.6,13.3 18.3,12.4 21.9,10.5 C28.5,7 32.5,1.1 32.5,-4 C32.5,-5.4 32.2,-6.8 31.5,-8.1"/>
<path class="Note" transform="matrix(0.992126,0,0,0.992126,1964.21,696.26)" d="M31.5,-8.1 C29.7,-11.4 25.9,-13.2 21.3,-13.2 C17.9,-13.2 14.2,-12.2 10.6,-10.3 C4,-6.8 0,-0.9 0,4.2 C0,5.6 0.3,7 1,8.3 C2.8,11.6 6.6,13.3 11.2,13.3 C14.6,13.3 18.3,12.4 21.9,10.5 C28.5,7 32.5,1.1 32.5,-4 C32.5,-5.4 32.2,-6.8 31.5,-8.1"/>
<path class="Note" transform="matrix(0.992126,0,0,0.992126,2088.91,721.063)" d="M31.5,-8.1 C29.7,-11.4 25.9,-13.2 21.3,-13.2 C17.9,-13.2 14.2,-12.2 10.6,-10.3 C4,-6.8 0,-0.9 0,4.2 C0,5.6 0.3,7 1,8.3 C2.8,11.6 6.6,13.3 11.2,13.3 C14.6,13.3 18.3,12.4 21.9,10.5 C28.5,7 32.5,1.1 32.5,-4 C32.5,-5.4 32.2,-6.8 31.5,-8.1"/>
<path class="Note" transform="matrix(0.992126,0,0,0.992126,2213.62,733.465)" d="M31.5,-8.1 C29.7,-11.4 25.9,-13.2 21.3,-13.2 C17.9,-13.2 14.2,-12.2 10.6,-10.3 C4,-6.8 0,-0.9 0,4.2 C0,5.6 0.3,7 1,8.3 C2.8,11.6 6.6,13.3 11.2,13.3 C14.6,13.3 18.3,12.4 21.9,10.5 C28.5,7 32.5,1.1 32.5,-4 C32.5,-5.4 32.2,-6.8 31.5,-8.1"/>
<path class="Note" transform="matrix(0.992126,0,0,0.992126,2338.32,745.866)" d="M31.5,-8.1 C29.7,-11.4 25.9,-13.2 21.3,-13.2 C17.9,-13.2 14.2,-12.2 10.6,-10.3 C4,-6.8 0,-0.9 0,4.2 C0,5.6 0.3,7 1,8.3 C2.8,11.6 6.6,13.3 11.2,13.3 C14.6,13.3 18.3,12.4 21.9,10.5 C28.5,7 32.5,1.1 32.5,-4 C32.5,-5.4 32.2,-6.8 31.5,-8.1"/>
<path class="Note" transform="matrix(0.992126,0,0,0.992126,2463.02,721.063)" d="M31.5,-8.1 C29.7,-11.4 25.9,-13.2 21.3,-13.2 C17.9,-13.2 14.2,-12.2 10.6,-10.3 C4,-6.8 0,-0.9 0,4.2 C0,5.6 0.3,7 1,8.3 C2.8,11.6 6.6,13.3 11.2,13.3 C14.6,13.3 18.3,12.4 21.9,10.5 C28.5,7 32.5,1.1 32.5,-4 C32.5,-5.4 32.2,-6.8 31.5,-8.1 M27.2,-1.3 C25.5,0.4 22.1,2.5 18.5,4.5 C14.9,6.5 11.3,8 8.9,8.5 C8.4,8.6 7.9,8.7 7.4,8.7 C5.8,8.7 4.6,8.1 3.9,6.8 C3.6,6.3 3.4,5.7 3.4,5.1 C3.4,4 4.1,2.7 5.2,1.6 C6.9,-0.1 10.2,-2.2 13.8,-4.2 C17.4,-6.2 21,-7.7 23.4,-8.2 C23.9,-8.3 24.4,-8.4 24.9,-8.4 C26.5,-8.4 27.8,-7.8 28.5,-6.5 C28.8,-6 28.9,-5.4 28.9,-4.8 C28.9,-3.7 28.3,-2.5 27.2,-1.3"/>
<path class="Clef" transform="matrix(0.992126,0,0,0.992126,356.457,708.661)" d="M63.35,-5.86992 C62.12,-11.3 59.48,-15.1199 58.7,-16.16 C55.51,-20.43 51.5,-23.28 46.81,-24.63 C43.7,-25.5199 40.7,-25.63 38.28,-25.45 C37.24,-31.46 36.24,-37.3399 35.33,-42.7899 C40.78,-48.96 44.4,-54.76 46.68,-59.06 C50.15,-65.6399 51.3,-70.2199 51.35,-70.4199 C53.07,-75.63 53.43,-83.33 52.33,-91.5399 C51.32,-99.0899 49.23,-105.8 46.88,-109.05 C45.85,-110.48 44.8,-111.21 43.76,-111.21 C42.54,-111.21 40.03,-109.97 37.14,-107.2 C34.84,-105 31.57,-101.11 29.01,-95.1 C26.01,-88.0399 25.8,-78.55 26.15,-71.83 C26.53,-64.56 27.64,-58.8699 27.65,-58.8199 C27.67,-58.73 27.93,-57.23 28.38,-54.66 C28.15,-54.43 27.91,-54.21 27.66,-53.9699 C26.62,-52.9699 25.43,-51.83 24.05,-50.45 C23.19,-49.5899 22.24,-48.68 21.24,-47.71 C12.79,-39.5699 0,-27.25 0,-8.1 C0,-3.4 0.9,1.02002 2.67998,5.03008 C4.27002,8.63008 6.57002,11.9101 9.5,14.7801 C17.23,22.3301 27.82,25.54 34.88,25.3801 C37.83,25.3101 40.46,25.07 42.85,24.62 C44.68,34.22 45.82,41.25 45.86,46.59 C45.9,53.1 44.25,57.07 40.35,59.84 C37.92,61.57 35.11,62.52 32.01,62.67 C29.42,62.79 27.16,62.32 25.73,61.9101 L25.72,61.9101 C25.72,61.9101 25.43,61.8301 25.42,61.6301 C25.41,61.45 25.76,61.4 25.77,61.4 L25.79,61.4 C27.71,60.9601 31.28,59.7301 33.64,56.4301 C35.44,53.9101 36.31,49.29 34.47,45.35 C33.36,42.9601 30.85,40.0101 25.23,39.5601 C22.74,39.3601 20.47,39.87 18.47,41.07 C16.66,42.15 15.16,43.79 14.11,45.79 C11.65,50.49 12.11,56.22 15.24,60.0601 C18.2,63.6801 22.82,65.99 28.25,66.57 C29.1,66.6601 29.95,66.7 30.8,66.7 C35.23,66.7 39.63,65.5 43.2,63.29 C46.86,60.72 48.98,56.74 49.66,51.1101 C50.22,46.47 49.83,40.5601 48.43,32.49 C48.07,30.4 47.53,27.37 46.87,23.6101 C52.62,21.69 56.78,18.12 60.55,12.27 C63.84,6.53008 64.78,0.430078 63.35,-5.86992 M29.14,20.32 C24.5,19.1 20.07,16.6 16.31,13.1 C15,11.87 13.13,9.7 11.66,6.31006 C10.29,3.15 9.62998,-0.27998 9.67998,-3.86992 C9.75,-8.55996 11.06,-13.38 13.57,-18.1699 C16.49,-23.75 21.05,-29.28 27.11,-34.61 C28.56,-35.8899 29.93,-37.1699 31.22,-38.45 C31.98,-34.1899 32.81,-29.5 33.69,-24.6199 C29.84,-23.35 25.09,-20.2 21.98,-14.55 C18.44,-7.97998 18.58,-2.45996 19.31,1.02002 C20.25,5.48008 22.78,9.24004 26.24,11.3301 C27.17,11.89 31.3,14.02 33.14,13.44 C33.51,13.32 33.78,13.1 33.92,12.77 C34.43,11.6 33.41,10.9601 31.85,10 C31.25,9.63008 30.58,9.21006 29.85,8.68008 C26.53,6.19004 25.08,1.74004 26.15,-2.63994 C26.73,-5.03994 28.01,-7.2 29.85,-8.9 C31.52,-10.45 33.56,-11.55 35.94,-12.1899 C37.98,-0.95 40.04,10.2 41.68,18.5601 C41.81,19.25 41.95,19.92 42.08,20.59 C37.7,21.52 33.35,21.4301 29.14,20.32 M40.46,-12.86 C50.81,-13.33 55.08,-5.88994 55.97,-1.05996 C56.44,1.47002 56.43,5.91006 54.89,10.12 C53.72,13.3 51.26,17.37 46.13,19.4301 C46.06,19.0101 45.98,18.5801 45.9,18.15 C44.36,9.38008 42.42,-1.60996 40.46,-12.86 M33.14,-83.8 C34.92,-89.5399 37.66,-92.7899 39.65,-94.5199 C41.4,-96.0399 43.05,-96.75 43.97,-96.75 C44.11,-96.75 44.23,-96.73 44.33,-96.7 C44.79,-96.56 45.32,-95.9899 45.79,-95.1199 C48.1,-90.83 47.36,-84.1199 46.02,-79.68 C44.39,-74.28 41.47,-68.66 32.67,-59.05 C32.5,-60.16 32.34,-61.21 32.19,-62.1899 C30.94,-70.48 31.26,-77.75 33.14,-83.8"/>
<path class="TimeSig" transform="matrix(0.992126,0,0,0.992126,443.376,659.187)" d="M3.59004,12.65 L20.77,12.65 L20.77,20.07 L12.54,20.07 C11.7601,20.07 11.1301,20.7 11.1301,21.48 L11.1301,23.39 C11.1301,24.17 11.7601,24.8 12.54,24.8 L42.79,24.8 C43.57,24.8 44.2,24.17 44.2,23.39 L44.2,21.48 C44.2,20.7 43.57,20.07 42.79,20.07 L33.85,20.07 L33.85,12.65 L42.79,12.65 C43.57,12.65 44.2,12.02 44.2,11.24 L44.2,9.32998 C44.2,8.55 43.57,7.92002 42.79,7.92002 L33.85,7.92002 L33.85,-8.04004 C33.85,-8.57998 33.55,-9.05996 33.07,-9.3 L31.8601,-9.9 C31.3301,-10.16 30.7,-10.07 30.27,-9.67002 L21.22,-1.35 C20.9301,-1.07998 20.7601,-0.709961 20.7601,-0.309961 L20.7601,7.92002 L9.25,7.92002 C9.25,7.92002 20.37,-4.10996 32.2101,-19.88 C33.0801,-21.03 32.5801,-22.08 32.39,-22.27 L30.22,-24.48 C29.95,-24.74 29.59,-24.89 29.22,-24.89 C28.62,-24.89 15.07,-24.87 14.35,-24.89 C13.6301,-24.91 13.09,-24.29 13.02,-23.67 C13.02,-23.67 12.4801,-16.31 9.88008,-8.17998 C7.28008,-0.0599609 4.34004,4.92002 1.68008,8.55 C1.68008,8.55 1.14004,9.54004 1.5,10.28 C1.85,11.03 2.48008,12.12 2.48008,12.12 C2.48008,12.12 2.74004,12.65 3.59004,12.65"/>
<path class="TimeSig" transform="matrix(0.992126,0,0,0.992126,443.376,708.53)" d="M3.59004,12.65 L20.77,12.65 L20.77,20.07 L12.54,20.07 C11.7601,20.07 11.1301,20.7 11.1301,21.48 L11.1301,23.39 C11.1301,24.17 11.7601,24.8 12.54,24.8 L42.79,24.8 C43.57,24.8 44.2,24.17 44.2,23.39 L44.2,21.48 C44.2,20.7 43.57,20.07 42.79,20.07 L33.85,20.07 L33.85,12.65 L42.79,12.65 C43.57,12.65 44.2,12.02 44.2,11.24 L44.2,9.32998 C44.2,8.55 43.57,7.92002 42.79,7.92002 L33.85,7.92002 L33.85,-8.04004 C33.85,-8.57998 33.55,-9.05996 33.07,-9.3 L31.8601,-9.9 C31.3301,-10.16 30.7,-10.07 30.27,-9.67002 L21.22,-1.35 C20.9301,-1.07998 20.7601,-0.709961 20.7601,-0.309961 L20.7601,7.92002 L9.25,7.92002 C9.25,7.92002 20.37,-4.10996 32.2101,-19.88 C33.0801,-21.03 32.5801,-22.08 32.39,-22.27 L30.22,-24.48 C29.95,-24.74 29.59,-24.89 29.22,-24.89 C28.62,-24.89 15.07,-24.87 14.35,-24.89 C13.6301,-24.91 13.09,-24.29 13.02,-23.67 C13.02,-23.67 12.4801,-16.31 9.88008,-8.17998 C7.28008,-0.0599609 4.34004,4.92002 1.68008,8.55 C1.68008,8.55 1.14004,9.54004 1.5,10.28 C1.85,11.03 2.48008,12.12 2.48008,12.12 C2.48008,12.12 2.74004,12.65 3.59004,12.65"/>
<path class="Beam" fill-rule="evenodd" d="M868.099,627.621 L1052.31,652.797 L1052.31,665.314 L868.099,640.138 L868.099,627.621 "/>
<path class="Beam" fill-rule="evenodd" d="M1231.07,646.969 L1415.28,621.793 L1415.28,634.31 L1231.07,659.486 L1231.07,646.969 "/>
<path class="Beam" fill-rule="evenodd" d="M1594.04,653.17 L1778.26,627.994 L1778.26,640.51 L1594.04,665.686 L1594.04,653.17 "/>
<path class="Beam" fill-rule="evenodd" d="M1993.72,621.548 L2121.15,634.221 L2121.15,646.684 L1993.72,634.011 L1993.72,621.548 "/>
<path class="Beam" fill-rule="evenodd" d="M2243.12,652.711 L2370.55,659.047 L2370.55,671.464 L2243.12,665.128 L2243.12,652.711 "/>
<path class="Hook" transform="matrix(0.992126,0,0,0.992126,657.106,770.669)" d="M2.5,0.4 C2.5,0.2 3.4,-3.2 3.5,-3.5 C3.6,-3.9 5.4,-9.6 9.1,-15.3 C11.8,-19.5 21.3,-31.8 21,-31.8 C21,-31.8 28.4,-41.3 28.9,-54.2 L28.9,-56.5 C28.9,-62.6 28.1,-71.2 24.6,-79.9 C24.2,-80.9 23.8,-81.9 22.7,-81.5 C21.6,-81.1 21.9,-79.9 22.2,-78.8 C24,-71.8 25,-64.6 25,-57.4 C25,-49 22,-44.8 20.2,-41.7 C13.6,-30.6 5,-25.2 0.8,-23.8 C0.3,-23.6 0,-23.2 0,-22.7 L0,-16.5 L0,-0.1 C0,0.6 0.6,1.2 1.3,1.2 C1.8,1.2 2.4,0.8 2.5,0.4"/>
<path class="Lyrics" d="M546.331,831.893 L546.331,838.631 C543.044,835.88 539.642,834.505 536.126,834.505 C532.253,834.505 528.989,835.896 526.336,838.68 C523.667,841.447 522.332,844.832 522.332,848.836 C522.332,852.791 523.667,856.128 526.336,858.846 C529.006,861.564 532.277,862.923 536.151,862.923 C538.153,862.923 539.854,862.597 541.253,861.946 C542.035,861.621 542.844,861.181 543.682,860.628 C544.521,860.075 545.404,859.407 546.331,858.626 L546.331,865.486 C543.076,867.326 539.658,868.245 536.077,868.245 C530.69,868.245 526.092,866.365 522.284,862.605 C518.491,858.813 516.595,854.24 516.595,848.885 C516.595,844.083 518.182,839.803 521.356,836.043 C525.262,831.437 530.316,829.134 536.517,829.134 C539.902,829.134 543.174,830.053 546.331,831.893 M567.878,843.782 L573.371,843.782 L573.371,845.979 C574.429,844.873 575.333,844.124 576.081,843.733 C576.879,843.326 577.88,843.123 579.084,843.123 C581.77,843.123 583.894,844.295 585.456,846.639 C587.182,844.295 589.517,843.123 592.463,843.123 C597.818,843.123 600.495,846.37 600.495,852.864 L600.495,867.562 L594.978,867.562 L594.978,854.354 C594.978,852.075 594.701,850.464 594.148,849.52 C593.578,848.559 592.642,848.079 591.34,848.079 C589.827,848.079 588.724,848.649 588.032,849.788 C587.34,850.927 586.994,852.758 586.994,855.281 L586.994,867.562 L581.477,867.562 L581.477,854.427 C581.477,850.195 580.256,848.079 577.815,848.079 C576.269,848.079 575.141,848.657 574.433,849.812 C573.725,850.968 573.371,852.791 573.371,855.281 L573.371,867.562 L567.878,867.562 L567.878,843.782 M612.918,843.782 L612.918,867.562 L607.425,867.562 L607.425,843.782 L612.918,843.782 M606.595,833.895 C606.595,832.934 606.945,832.104 607.645,831.404 C608.345,830.704 609.183,830.354 610.16,830.354 C611.152,830.354 611.999,830.704 612.699,831.404 C613.398,832.088 613.748,832.926 613.748,833.919 C613.748,834.912 613.398,835.758 612.699,836.458 C612.015,837.158 611.177,837.508 610.184,837.508 C609.191,837.508 608.345,837.158 607.645,836.458 C606.945,835.758 606.595,834.904 606.595,833.895 M619.863,843.782 L625.38,843.782 L625.38,845.979 C627.301,844.075 629.466,843.123 631.874,843.123 C634.641,843.123 636.798,843.994 638.344,845.735 C639.679,847.216 640.346,849.633 640.346,852.986 L640.346,867.562 L634.828,867.562 L634.828,854.28 C634.828,851.937 634.503,850.317 633.852,849.422 C633.217,848.51 632.062,848.055 630.385,848.055 C628.562,848.055 627.268,848.657 626.503,849.861 C625.755,851.049 625.38,853.125 625.38,856.087 L625.38,867.562 L619.863,867.562 L619.863,843.782 M646.146,855.501 C646.146,852.067 647.375,849.145 649.832,846.736 C652.29,844.327 655.285,843.123 658.817,843.123 C662.365,843.123 665.376,844.336 667.85,846.761 C670.291,849.186 671.512,852.164 671.512,855.696 C671.512,859.261 670.283,862.247 667.826,864.656 C665.352,867.049 662.316,868.245 658.719,868.245 C655.155,868.245 652.168,867.024 649.759,864.583 C647.35,862.174 646.146,859.147 646.146,855.501 M651.761,855.599 C651.761,857.975 652.396,859.855 653.665,861.238 C654.967,862.638 656.685,863.338 658.817,863.338 C660.965,863.338 662.682,862.646 663.968,861.263 C665.254,859.879 665.897,858.032 665.897,855.721 C665.897,853.409 665.254,851.562 663.968,850.179 C662.666,848.779 660.949,848.079 658.817,848.079 C656.717,848.079 655.016,848.779 653.714,850.179 C652.412,851.578 651.761,853.385 651.761,855.599 M677.316,843.782 L682.809,843.782 L682.809,845.906 C683.818,844.848 684.713,844.124 685.494,843.733 C686.292,843.326 687.236,843.123 688.327,843.123 C689.775,843.123 691.289,843.595 692.868,844.539 L690.353,849.568 C689.311,848.82 688.294,848.445 687.301,848.445 C684.306,848.445 682.809,850.708 682.809,855.232 L682.809,867.562 L677.316,867.562 L677.316,843.782 M691.974,853.084 L702.863,853.084 L702.863,857.869 L691.974,857.869 L691.974,853.084 M724.822,844.808 L724.822,852.107 C723.568,850.577 722.445,849.528 721.452,848.958 C720.476,848.372 719.328,848.079 718.01,848.079 C715.943,848.079 714.226,848.803 712.859,850.252 C711.492,851.701 710.808,853.515 710.808,855.696 C710.808,857.926 711.467,859.757 712.785,861.189 C714.12,862.622 715.821,863.338 717.888,863.338 C719.206,863.338 720.37,863.053 721.379,862.483 C722.356,861.93 723.503,860.856 724.822,859.261 L724.822,866.512 C722.592,867.667 720.362,868.245 718.132,868.245 C714.454,868.245 711.378,867.057 708.904,864.681 C706.43,862.288 705.193,859.318 705.193,855.77 C705.193,852.221 706.446,849.227 708.952,846.785 C711.459,844.344 714.535,843.123 718.181,843.123 C720.525,843.123 722.738,843.685 724.822,844.808 M731.425,826.326 L736.918,826.326 L736.918,845.76 C738.871,844.002 741.028,843.123 743.388,843.123 C746.074,843.123 748.222,843.994 749.833,845.735 C751.201,847.249 751.884,849.666 751.884,852.986 L751.884,867.562 L746.391,867.562 L746.391,853.499 C746.391,851.595 746.053,850.215 745.378,849.361 C744.702,848.506 743.616,848.079 742.119,848.079 C740.198,848.079 738.847,848.673 738.066,849.861 C737.301,851.066 736.918,853.133 736.918,856.062 L736.918,867.562 L731.425,867.562 L731.425,826.326 M757.708,855.501 C757.708,852.067 758.937,849.145 761.395,846.736 C763.853,844.327 766.847,843.123 770.379,843.123 C773.927,843.123 776.938,844.336 779.412,846.761 C781.854,849.186 783.075,852.164 783.075,855.696 C783.075,859.261 781.846,862.247 779.388,864.656 C776.914,867.049 773.879,868.245 770.282,868.245 C766.717,868.245 763.73,867.024 761.322,864.583 C758.913,862.174 757.708,859.147 757.708,855.501 M763.324,855.599 C763.324,857.975 763.958,859.855 765.228,861.238 C766.53,862.638 768.247,863.338 770.379,863.338 C772.528,863.338 774.245,862.646 775.531,861.263 C776.816,859.879 777.459,858.032 777.459,855.721 C777.459,853.409 776.816,851.562 775.531,850.179 C774.229,848.779 772.511,848.079 770.379,848.079 C768.28,848.079 766.579,848.779 765.277,850.179 C763.975,851.578 763.324,853.385 763.324,855.599 M788.878,843.782 L794.371,843.782 L794.371,845.906 C795.381,844.848 796.276,844.124 797.057,843.733 C797.855,843.326 798.799,843.123 799.889,843.123 C801.338,843.123 802.851,843.595 804.43,844.539 L801.915,849.568 C800.874,848.82 799.856,848.445 798.864,848.445 C795.869,848.445 794.371,850.708 794.371,855.232 L794.371,867.562 L788.878,867.562 L788.878,843.782 M824.767,826.326 L830.285,826.326 L830.285,867.562 L824.767,867.562 L824.767,865.071 C822.602,867.187 820.153,868.245 817.418,868.245 C814.163,868.245 811.461,867.057 809.313,864.681 C807.181,862.256 806.115,859.228 806.115,855.599 C806.115,852.05 807.181,849.088 809.313,846.712 C811.429,844.319 814.09,843.123 817.296,843.123 C820.079,843.123 822.57,844.262 824.767,846.541 L824.767,826.326 M811.73,855.599 C811.73,857.877 812.34,859.733 813.561,861.165 C814.814,862.614 816.393,863.338 818.297,863.338 C820.332,863.338 821.976,862.638 823.229,861.238 C824.482,859.79 825.109,857.951 825.109,855.721 C825.109,853.491 824.482,851.652 823.229,850.203 C821.976,848.787 820.348,848.079 818.346,848.079 C816.458,848.079 814.879,848.795 813.61,850.228 C812.356,851.676 811.73,853.466 811.73,855.599"/>
<path class="Lyrics" d="M536.931,893.04 L542.009,894.993 C540.235,899.241 538.99,903.163 538.274,906.76 C537.916,908.583 537.647,910.5 537.468,912.51 C537.289,914.52 537.2,916.713 537.2,919.089 C537.2,921.482 537.289,923.683 537.468,925.693 C537.647,927.703 537.916,929.62 538.274,931.443 C538.974,935.024 540.219,938.938 542.009,943.186 L536.931,945.139 C533.383,937.701 531.609,929.018 531.609,919.089 C531.609,909.161 533.383,900.478 536.931,893.04 M570.047,924.167 L574.051,924.167 L574.051,929.343 L570.047,929.343 L570.047,934.69 L564.359,934.69 L564.359,929.343 L545.853,929.343 L570.047,894.187 L570.047,924.167 M564.359,924.167 L564.359,911.545 L555.667,924.167 L564.359,924.167 M583.109,927.634 L587.991,929.539 L581.033,943.479 L577.323,941.941 L583.109,927.634 M616.052,893.455 L616.052,934.69 L610.559,934.69 L610.559,893.455 L616.052,893.455 M621.873,922.629 C621.873,919.195 623.102,916.274 625.56,913.865 C628.018,911.456 631.012,910.251 634.544,910.251 C638.092,910.251 641.103,911.464 643.577,913.889 C646.019,916.314 647.24,919.293 647.24,922.825 C647.24,926.389 646.011,929.376 643.553,931.785 C641.079,934.177 638.044,935.374 634.447,935.374 C630.882,935.374 627.895,934.153 625.487,931.711 C623.078,929.303 621.873,926.275 621.873,922.629 M627.489,922.727 C627.489,925.103 628.123,926.983 629.393,928.367 C630.695,929.766 632.412,930.466 634.544,930.466 C636.693,930.466 638.41,929.775 639.696,928.391 C640.981,927.008 641.624,925.16 641.624,922.849 C641.624,920.538 640.981,918.691 639.696,917.307 C638.394,915.907 636.676,915.208 634.544,915.208 C632.445,915.208 630.744,915.907 629.442,917.307 C628.14,918.707 627.489,920.514 627.489,922.727 M651.92,922.629 C651.92,919.195 653.149,916.274 655.607,913.865 C658.064,911.456 661.059,910.251 664.591,910.251 C668.139,910.251 671.15,911.464 673.624,913.889 C676.066,916.314 677.286,919.293 677.286,922.825 C677.286,926.389 676.058,929.376 673.6,931.785 C671.126,934.177 668.09,935.374 664.493,935.374 C660.929,935.374 657.942,934.153 655.533,931.711 C653.125,929.303 651.92,926.275 651.92,922.629 M657.535,922.727 C657.535,925.103 658.17,926.983 659.44,928.367 C660.742,929.766 662.459,930.466 664.591,930.466 C666.74,930.466 668.457,929.775 669.742,928.391 C671.028,927.008 671.671,925.16 671.671,922.849 C671.671,920.538 671.028,918.691 669.742,917.307 C668.44,915.907 666.723,915.208 664.591,915.208 C662.491,915.208 660.791,915.907 659.489,917.307 C658.186,918.707 657.535,920.514 657.535,922.727 M688.583,947.629 L683.09,947.629 L683.09,910.911 L688.583,910.911 L688.583,913.499 C690.748,911.334 693.206,910.251 695.956,910.251 C699.228,910.251 701.922,911.456 704.037,913.865 C706.186,916.257 707.26,919.277 707.26,922.922 C707.26,926.487 706.194,929.457 704.062,931.834 C701.946,934.194 699.277,935.374 696.054,935.374 C693.271,935.374 690.781,934.259 688.583,932.029 L688.583,947.629 M701.645,922.947 C701.645,920.668 701.026,918.813 699.789,917.38 C698.536,915.932 696.957,915.208 695.053,915.208 C693.035,915.208 691.399,915.907 690.146,917.307 C688.893,918.707 688.266,920.546 688.266,922.825 C688.266,925.055 688.893,926.894 690.146,928.342 C691.383,929.758 693.01,930.466 695.029,930.466 C696.933,930.466 698.504,929.75 699.741,928.318 C701.01,926.886 701.645,925.095 701.645,922.947 M737.953,917.185 L737.953,912.327 C740.362,912.327 741.982,912.058 742.812,911.521 C744.293,910.577 745.033,909.063 745.033,906.98 C745.033,905.369 744.496,904.058 743.422,903.049 C742.364,902.024 740.989,901.511 739.296,901.511 C737.717,901.511 736.497,901.894 735.634,902.659 C734.804,903.44 734.186,904.758 733.779,906.614 L728.115,906.614 C728.7,903.066 729.905,900.466 731.728,898.813 C733.551,897.161 736.098,896.335 739.369,896.335 C742.673,896.335 745.367,897.312 747.45,899.265 C749.534,901.202 750.575,903.7 750.575,906.76 C750.575,910.211 749.208,912.896 746.474,914.817 C749.599,916.656 751.161,919.643 751.161,923.777 C751.161,927.162 750.022,929.929 747.743,932.078 C745.465,934.226 742.543,935.3 738.979,935.3 C734.438,935.3 731.069,933.632 728.871,930.295 C727.96,928.896 727.382,926.959 727.138,924.485 L732.631,924.485 C732.924,926.308 733.636,927.703 734.767,928.672 C735.899,929.64 737.376,930.125 739.199,930.125 C741.038,930.125 742.56,929.514 743.764,928.293 C744.968,927.04 745.571,925.453 745.571,923.533 C745.571,920.994 744.667,919.187 742.861,918.113 C741.803,917.494 740.167,917.185 737.953,917.185"/>
<path class="Lyrics" d="M787.433,937.717 L797.98,927.17 L789.24,927.17 L789.24,898.557 L785.626,898.557 L785.626,927.17 L776.886,927.17 L787.433,937.717 "/>
<path class="Lyrics" d="M812.017,945.139 L806.939,943.186 C808.729,938.938 809.974,935.024 810.674,931.443 C811.407,927.862 811.773,923.744 811.773,919.089 C811.773,914.467 811.407,910.357 810.674,906.76 C809.958,903.163 808.713,899.241 806.939,894.993 L812.017,893.04 C815.565,900.478 817.339,909.161 817.339,919.089 C817.339,929.018 815.565,937.701 812.017,945.139"/>
<path class="Lyrics" d="M1276.93,835.213 L1263.79,835.213 L1263.79,844.271 L1276.46,844.271 L1276.46,849.617 L1263.79,849.617 L1263.79,867.562 L1258.1,867.562 L1258.1,829.866 L1276.93,829.866 L1276.93,835.213 M1297.88,843.782 L1303.38,843.782 L1303.38,845.979 C1304.43,844.873 1305.34,844.124 1306.09,843.733 C1306.88,843.326 1307.88,843.123 1309.09,843.123 C1311.77,843.123 1313.9,844.295 1315.46,846.639 C1317.19,844.295 1319.52,843.123 1322.47,843.123 C1327.82,843.123 1330.5,846.37 1330.5,852.864 L1330.5,867.562 L1324.98,867.562 L1324.98,854.354 C1324.98,852.075 1324.71,850.464 1324.15,849.52 C1323.58,848.559 1322.65,848.079 1321.34,848.079 C1319.83,848.079 1318.73,848.649 1318.04,849.788 C1317.34,850.927 1317,852.758 1317,855.281 L1317,867.562 L1311.48,867.562 L1311.48,854.427 C1311.48,850.195 1310.26,848.079 1307.82,848.079 C1306.27,848.079 1305.15,848.657 1304.44,849.812 C1303.73,850.968 1303.38,852.791 1303.38,855.281 L1303.38,867.562 L1297.88,867.562 L1297.88,843.782 M1342.92,843.782 L1342.92,867.562 L1337.43,867.562 L1337.43,843.782 L1342.92,843.782 M1336.6,833.895 C1336.6,832.934 1336.95,832.104 1337.65,831.404 C1338.35,830.704 1339.19,830.354 1340.16,830.354 C1341.16,830.354 1342,830.704 1342.7,831.404 C1343.4,832.088 1343.75,832.926 1343.75,833.919 C1343.75,834.912 1343.4,835.758 1342.7,836.458 C1342.02,837.158 1341.18,837.508 1340.19,837.508 C1339.2,837.508 1338.35,837.158 1337.65,836.458 C1336.95,835.758 1336.6,834.904 1336.6,833.895 M1357.24,854.695 L1348.7,843.782 L1355.24,843.782 L1360.54,850.716 L1365.93,843.782 L1372.67,843.782 L1363.88,854.695 L1374.06,867.562 L1367.52,867.562 L1360.54,858.675 L1353.38,867.562 L1346.67,867.562 L1357.24,854.695 M1375.63,855.501 C1375.63,852.067 1376.86,849.145 1379.32,846.736 C1381.78,844.327 1384.77,843.123 1388.31,843.123 C1391.85,843.123 1394.86,844.336 1397.34,846.761 C1399.78,849.186 1401,852.164 1401,855.696 C1401,859.261 1399.77,862.247 1397.31,864.656 C1394.84,867.049 1391.8,868.245 1388.21,868.245 C1384.64,868.245 1381.66,867.024 1379.25,864.583 C1376.84,862.174 1375.63,859.147 1375.63,855.501 M1381.25,855.599 C1381.25,857.975 1381.88,859.855 1383.15,861.238 C1384.46,862.638 1386.17,863.338 1388.31,863.338 C1390.45,863.338 1392.17,862.646 1393.46,861.263 C1394.74,859.879 1395.39,858.032 1395.39,855.721 C1395.39,853.409 1394.74,851.562 1393.46,850.179 C1392.15,848.779 1390.44,848.079 1388.31,848.079 C1386.21,848.079 1384.51,848.779 1383.2,850.179 C1381.9,851.578 1381.25,853.385 1381.25,855.599 M1412.3,826.326 L1412.3,867.562 L1406.8,867.562 L1406.8,826.326 L1412.3,826.326 M1427.19,863.143 L1416.5,843.782 L1422.87,843.782 L1430.14,857.454 L1436.93,843.782 L1443.13,843.782 L1424.19,880.501 L1417.91,880.501 L1427.19,863.143 M1464.4,826.326 L1469.91,826.326 L1469.91,867.562 L1464.4,867.562 L1464.4,865.071 C1462.23,867.187 1459.78,868.245 1457.05,868.245 C1453.79,868.245 1451.09,867.057 1448.94,864.681 C1446.81,862.256 1445.74,859.228 1445.74,855.599 C1445.74,852.05 1446.81,849.088 1448.94,846.712 C1451.06,844.319 1453.72,843.123 1456.93,843.123 C1459.71,843.123 1462.2,844.262 1464.4,846.541 L1464.4,826.326 M1451.36,855.599 C1451.36,857.877 1451.97,859.733 1453.19,861.165 C1454.44,862.614 1456.02,863.338 1457.93,863.338 C1459.96,863.338 1461.61,862.638 1462.86,861.238 C1464.11,859.79 1464.74,857.951 1464.74,855.721 C1464.74,853.491 1464.11,851.652 1462.86,850.203 C1461.61,848.787 1459.98,848.079 1457.98,848.079 C1456.09,848.079 1454.51,848.795 1453.24,850.228 C1451.99,851.676 1451.36,853.466 1451.36,855.599 M1482.33,843.782 L1482.33,867.562 L1476.84,867.562 L1476.84,843.782 L1482.33,843.782 M1476.01,833.895 C1476.01,832.934 1476.36,832.104 1477.06,831.404 C1477.76,830.704 1478.59,830.354 1479.57,830.354 C1480.56,830.354 1481.41,830.704 1482.11,831.404 C1482.81,832.088 1483.16,832.926 1483.16,833.919 C1483.16,834.912 1482.81,835.758 1482.11,836.458 C1481.43,837.158 1480.59,837.508 1479.59,837.508 C1478.6,837.508 1477.76,837.158 1477.06,836.458 C1476.36,835.758 1476.01,834.904 1476.01,833.895 M1506.8,843.782 L1512.32,843.782 L1512.32,867.562 L1506.8,867.562 L1506.8,865.071 C1504.54,867.187 1502.11,868.245 1499.5,868.245 C1496.22,868.245 1493.5,867.057 1491.35,864.681 C1489.22,862.256 1488.15,859.228 1488.15,855.599 C1488.15,852.034 1489.22,849.064 1491.35,846.687 C1493.48,844.311 1496.15,843.123 1499.36,843.123 C1502.12,843.123 1504.61,844.262 1506.8,846.541 L1506.8,843.782 M1493.77,855.599 C1493.77,857.877 1494.38,859.733 1495.6,861.165 C1496.85,862.614 1498.43,863.338 1500.33,863.338 C1502.37,863.338 1504.01,862.638 1505.26,861.238 C1506.52,859.79 1507.14,857.951 1507.14,855.721 C1507.14,853.491 1506.52,851.652 1505.26,850.203 C1504.01,848.787 1502.38,848.079 1500.38,848.079 C1498.49,848.079 1496.91,848.795 1495.65,850.228 C1494.39,851.676 1493.77,853.466 1493.77,855.599 M1519.24,843.782 L1524.76,843.782 L1524.76,845.979 C1526.68,844.075 1528.84,843.123 1531.25,843.123 C1534.02,843.123 1536.18,843.994 1537.72,845.735 C1539.06,847.216 1539.73,849.633 1539.73,852.986 L1539.73,867.562 L1534.21,867.562 L1534.21,854.28 C1534.21,851.937 1533.88,850.317 1533.23,849.422 C1532.6,848.51 1531.44,848.055 1529.76,848.055 C1527.94,848.055 1526.65,848.657 1525.88,849.861 C1525.13,851.049 1524.76,853.125 1524.76,856.087 L1524.76,867.562 L1519.24,867.562 L1519.24,843.782 "/>
<path class="Lyrics" d="M1096.34,893.04 L1101.41,894.993 C1099.64,899.241 1098.4,903.163 1097.68,906.76 C1097.32,908.583 1097.05,910.5 1096.87,912.51 C1096.69,914.52 1096.61,916.713 1096.61,919.089 C1096.61,921.482 1096.69,923.683 1096.87,925.693 C1097.05,927.703 1097.32,929.62 1097.68,931.443 C1098.38,935.024 1099.62,938.938 1101.41,943.186 L1096.34,945.139 C1092.79,937.701 1091.01,929.018 1091.01,919.089 C1091.01,909.161 1092.79,900.478 1096.34,893.04 M1117.73,917.185 L1117.73,912.327 C1120.14,912.327 1121.76,912.058 1122.59,911.521 C1124.07,910.577 1124.81,909.063 1124.81,906.98 C1124.81,905.369 1124.28,904.058 1123.2,903.049 C1122.14,902.024 1120.77,901.511 1119.08,901.511 C1117.5,901.511 1116.28,901.894 1115.41,902.659 C1114.58,903.44 1113.97,904.758 1113.56,906.614 L1107.9,906.614 C1108.48,903.066 1109.69,900.466 1111.51,898.813 C1113.33,897.161 1115.88,896.335 1119.15,896.335 C1122.45,896.335 1125.15,897.312 1127.23,899.265 C1129.31,901.202 1130.36,903.7 1130.36,906.76 C1130.36,910.211 1128.99,912.896 1126.25,914.817 C1129.38,916.656 1130.94,919.643 1130.94,923.777 C1130.94,927.162 1129.8,929.929 1127.52,932.078 C1125.25,934.226 1122.32,935.3 1118.76,935.3 C1114.22,935.3 1110.85,933.632 1108.65,930.295 C1107.74,928.896 1107.16,926.959 1106.92,924.485 L1112.41,924.485 C1112.7,926.308 1113.42,927.703 1114.55,928.672 C1115.68,929.64 1117.16,930.125 1118.98,930.125 C1120.82,930.125 1122.34,929.514 1123.54,928.293 C1124.75,927.04 1125.35,925.453 1125.35,923.533 C1125.35,920.994 1124.45,919.187 1122.64,918.113 C1121.58,917.494 1119.95,917.185 1117.73,917.185 M1142.51,927.634 L1147.4,929.539 L1140.44,943.479 L1136.73,941.941 L1142.51,927.634 M1192.79,902.317 L1181.17,902.317 L1179.32,908.567 C1179.59,908.534 1179.86,908.51 1180.11,908.494 C1180.36,908.477 1180.59,908.469 1180.8,908.469 C1184.47,908.469 1187.47,909.706 1189.81,912.18 C1192.17,914.638 1193.35,917.787 1193.35,921.628 C1193.35,925.6 1192.02,928.871 1189.35,931.443 C1186.68,934.015 1183.32,935.3 1179.27,935.3 C1174.27,935.3 1170.33,932.957 1167.45,928.269 L1171.75,924.631 C1172.93,926.65 1174.13,928.074 1175.34,928.904 C1176.54,929.718 1178.01,930.125 1179.75,930.125 C1182.03,930.125 1183.95,929.327 1185.49,927.732 C1187.04,926.088 1187.81,924.094 1187.81,921.751 C1187.81,919.342 1187.05,917.372 1185.52,915.842 C1183.99,914.264 1182.07,913.474 1179.78,913.474 C1177.22,913.474 1175.02,914.589 1173.16,916.819 L1171.28,916.819 L1177.22,896.995 L1192.79,896.995 L1192.79,902.317 M1204.22,927.634 L1209.1,929.539 L1202.14,943.479 L1198.43,941.941 L1204.22,927.634 M1240.73,929.343 L1254.76,929.343 L1254.76,934.69 L1229.45,934.69 L1242.53,918.845 C1243.82,917.266 1244.9,915.899 1245.77,914.744 C1246.64,913.588 1247.3,912.62 1247.76,911.838 C1248.68,910.308 1249.15,908.933 1249.15,907.712 C1249.15,905.955 1248.53,904.482 1247.29,903.293 C1246.06,902.105 1244.53,901.511 1242.7,901.511 C1238.89,901.511 1236.71,903.765 1236.16,908.274 L1230.5,908.274 C1231.41,900.331 1235.42,896.36 1242.53,896.36 C1245.97,896.36 1248.85,897.45 1251.17,899.631 C1253.52,901.812 1254.69,904.514 1254.69,907.737 C1254.69,909.788 1254.14,911.798 1253.05,913.767 C1252.5,914.792 1251.69,916.009 1250.63,917.417 C1249.56,918.825 1248.21,920.489 1246.58,922.41 L1240.73,929.343 M1265.92,927.634 L1270.8,929.539 L1263.85,943.479 L1260.13,941.941 L1265.92,927.634 "/>
<path class="Lyrics" d="M1306.04,895.53 L1316.59,906.077 L1307.85,906.077 L1307.85,934.69 L1304.24,934.69 L1304.24,906.077 L1295.49,906.077 L1306.04,895.53 "/>
<path class="Lyrics" d="M1329.01,927.634 L1333.9,929.539 L1326.94,943.479 L1323.23,941.941 L1329.01,927.634 M1366.55,902.317 L1360.03,902.317 L1363.15,896.995 L1372.24,896.995 L1372.24,934.69 L1366.55,934.69 L1366.55,902.317 M1388.42,927.634 L1393.3,929.539 L1386.35,943.479 L1382.63,941.941 L1388.42,927.634 M1421.36,893.455 L1421.36,934.69 L1415.87,934.69 L1415.87,893.455 L1421.36,893.455 M1427.19,922.629 C1427.19,919.195 1428.41,916.274 1430.87,913.865 C1433.33,911.456 1436.32,910.251 1439.86,910.251 C1443.4,910.251 1446.42,911.464 1448.89,913.889 C1451.33,916.314 1452.55,919.293 1452.55,922.825 C1452.55,926.389 1451.32,929.376 1448.87,931.785 C1446.39,934.177 1443.36,935.374 1439.76,935.374 C1436.19,935.374 1433.21,934.153 1430.8,931.711 C1428.39,929.303 1427.19,926.275 1427.19,922.629 M1432.8,922.727 C1432.8,925.103 1433.44,926.983 1434.7,928.367 C1436.01,929.766 1437.72,930.466 1439.86,930.466 C1442,930.466 1443.72,929.775 1445.01,928.391 C1446.29,927.008 1446.94,925.16 1446.94,922.849 C1446.94,920.538 1446.29,918.691 1445.01,917.307 C1443.71,915.907 1441.99,915.208 1439.86,915.208 C1437.76,915.208 1436.06,915.907 1434.75,917.307 C1433.45,918.707 1432.8,920.514 1432.8,922.727 M1457.23,922.629 C1457.23,919.195 1458.46,916.274 1460.92,913.865 C1463.38,911.456 1466.37,910.251 1469.9,910.251 C1473.45,910.251 1476.46,911.464 1478.94,913.889 C1481.38,916.314 1482.6,919.293 1482.6,922.825 C1482.6,926.389 1481.37,929.376 1478.91,931.785 C1476.44,934.177 1473.4,935.374 1469.81,935.374 C1466.24,935.374 1463.25,934.153 1460.85,931.711 C1458.44,929.303 1457.23,926.275 1457.23,922.629 M1462.85,922.727 C1462.85,925.103 1463.48,926.983 1464.75,928.367 C1466.05,929.766 1467.77,930.466 1469.9,930.466 C1472.05,930.466 1473.77,929.775 1475.05,928.391 C1476.34,927.008 1476.98,925.16 1476.98,922.849 C1476.98,920.538 1476.34,918.691 1475.05,917.307 C1473.75,915.907 1472.04,915.208 1469.9,915.208 C1467.8,915.208 1466.1,915.907 1464.8,917.307 C1463.5,918.707 1462.85,920.514 1462.85,922.727 M1493.9,947.629 L1488.4,947.629 L1488.4,910.911 L1493.9,910.911 L1493.9,913.499 C1496.06,911.334 1498.52,910.251 1501.27,910.251 C1504.54,910.251 1507.23,911.456 1509.35,913.865 C1511.5,916.257 1512.57,919.277 1512.57,922.922 C1512.57,926.487 1511.51,929.457 1509.37,931.834 C1507.26,934.194 1504.59,935.374 1501.37,935.374 C1498.58,935.374 1496.09,934.259 1493.9,932.029 L1493.9,947.629 M1506.96,922.947 C1506.96,920.668 1506.34,918.813 1505.1,917.38 C1503.85,915.932 1502.27,915.208 1500.37,915.208 C1498.35,915.208 1496.71,915.907 1495.46,917.307 C1494.2,918.707 1493.58,920.546 1493.58,922.825 C1493.58,925.055 1494.2,926.894 1495.46,928.342 C1496.69,929.758 1498.32,930.466 1500.34,930.466 C1502.24,930.466 1503.82,929.75 1505.05,928.318 C1506.32,926.886 1506.96,925.095 1506.96,922.947 M1542.85,929.343 L1556.89,929.343 L1556.89,934.69 L1531.57,934.69 L1544.66,918.845 C1545.94,917.266 1547.02,915.899 1547.89,914.744 C1548.76,913.588 1549.43,912.62 1549.88,911.838 C1550.81,910.308 1551.27,908.933 1551.27,907.712 C1551.27,905.955 1550.65,904.482 1549.42,903.293 C1548.18,902.105 1546.65,901.511 1544.83,901.511 C1541.02,901.511 1538.84,903.765 1538.28,908.274 L1532.62,908.274 C1533.53,900.331 1537.54,896.36 1544.66,896.36 C1548.09,896.36 1550.97,897.45 1553.3,899.631 C1555.64,901.812 1556.82,904.514 1556.82,907.737 C1556.82,909.788 1556.27,911.798 1555.18,913.767 C1554.63,914.792 1553.82,916.009 1552.75,917.417 C1551.68,918.825 1550.34,920.489 1548.71,922.41 L1542.85,929.343 "/>
<path class="Lyrics" d="M1592.74,937.717 L1603.29,927.17 L1594.55,927.17 L1594.55,898.557 L1590.94,898.557 L1590.94,927.17 L1582.2,927.17 L1592.74,937.717 "/>
<path class="Lyrics" d="M1615.72,927.634 L1620.6,929.539 L1613.64,943.479 L1609.93,941.941 L1615.72,927.634 M1653.25,902.317 L1646.73,902.317 L1649.86,896.995 L1658.94,896.995 L1658.94,934.69 L1653.25,934.69 L1653.25,902.317 M1679.03,945.139 L1673.95,943.186 C1675.74,938.938 1676.99,935.024 1677.69,931.443 C1678.42,927.862 1678.79,923.744 1678.79,919.089 C1678.79,914.467 1678.42,910.357 1677.69,906.76 C1676.97,903.163 1675.73,899.241 1673.95,894.993 L1679.03,893.04 C1682.58,900.478 1684.35,909.161 1684.35,919.089 C1684.35,929.018 1682.58,937.701 1679.03,945.139"/>
</svg>
